<svg xmlns="http://www.w3.org/2000/svg" viewBox="0 0 800 800">
	<defs>
		<style>
			.cls-1,.cls-2{fill:#fff;stroke:#231f20;stroke-miterlimit:10}.cls-1{stroke-width:14px}.cls-2{stroke-width:10px}
		</style>
	</defs>
	<rect width="474.45" height="368.54" x="55.75" y="206.88" class="cls-1" rx="45.11"/>
	<path d="M118.98 347.27h342.77m-342.77 68.07h342.77m-342.77 68.08h342.77" class="cls-2"/>
	<rect width="474.45" height="368.54" x="246.41" y="256.17" class="cls-1" rx="45.11" transform="rotate(-11.2 483.794 440.57)"/>
	<path d="M527.23 352.4v-14.27h55.66v14.27Zm20.23 19.87v-54h15.2v54Zm57.3 13.92v-74.84l8.18 8.19h-24.55v-15.2h35.31v81.85Z" style="fill:#231f20"/>
	<path d="M276.26 622.13a45.12 45.12 0 0 0 53 35.48L706.18 583a45.08 45.08 0 0 0 32.68-26.43L585.24 438.22l-57 71.58-145.49-102.09L265.12 565.9Z" class="cls-2"/>
</svg>
