<svg xmlns="http://www.w3.org/2000/svg" viewBox="0 0 144 144">
    <path d="M116.62 20.77l-12.4-12.39a1.3 1.3 0 00-.92-.38H29.61A2.61 2.61 0 0027 10.61V128c1.9 0 2-2.61 3.9-2.61s1.77 2.61 3.65 2.61 1.87-2.5 3.75-2.5 1.87 2.5 3.75 2.5 1.87-2.5 3.75-2.5 1.87 2.5 3.75 2.5 1.88-2.5 3.75-2.5 1.88 2.5 3.75 2.5 1.88-2.5 3.75-2.5 1.87 2.5 3.75 2.5 1.87-2.5 3.75-2.5 1.87 2.5 3.75 2.5 1.87-2.5 3.74-2.5 1.88 2.5 3.75 2.5 1.87-2.5 3.74-2.5S85.16 128 87 128s1.87-2.5 3.74-2.5 1.87 2.5 3.75 2.5 1.87-2.5 3.74-2.5 1.88 2.5 3.75 2.5 1.88-2.5 3.75-2.5 1.87 2.5 3.75 2.5 1.87-2.5 3.74-2.5 1.88 2.5 3.75 2.5V21.69a1.34 1.34 0 00-.35-.92z" fill="#fff"/>
    <rect x="36.13" y="100.61" width="71.69" height="1.91" rx=".96" fill="#c8ccd1"/>
    <rect x="36.13" y="95.74" width="71.71" height="2.09" rx="1.04" fill="#c8ccd1"/>
    <rect x="36.13" y="85.73" width="71.71" height="2.09" rx="1.04" fill="#c8ccd1"/>
    <rect x="36.13" y="90.73" width="9.99" height="2.09" rx="1.04" fill="#c8ccd1"/>
    <rect x="70.47" y="75.83" width="8.69" height="1.89" rx=".95" fill="#c8ccd1"/>
    <rect x="95.45" y="90.73" width="12.39" height="2.09" rx="1.04" fill="#c8ccd1"/>
    <rect x="90.45" y="81.04" width="17.38" height="1.91" rx=".96" fill="#c8ccd1"/>
    <rect x="49.28" y="90.73" width="43.03" height="2.09" rx="1.04" fill="#c8ccd1"/>
    <path d="M106.53 120.43h-69.1a1.19 1.19 0 01-1.3-1.05 1.19 1.19 0 011.3-1h69.1a1.2 1.2 0 011.31 1 1.2 1.2 0 01-1.31 1.05z" fill="#c8ccd1"/>
    <path d="M55.66 115.61H37.43c-.72 0-1.3-.44-1.3-1 0-.54.58-1 1.3-1h18.23c.72 0 1.31.44 1.31 1 .03.56-.59 1-1.31 1z" fill="#c8ccd1"/>
    <path d="M106.53 115.47H60.91a1.19 1.19 0 01-1.3-1 1.19 1.19 0 011.3-1h45.62a1.2 1.2 0 011.31 1 1.2 1.2 0 01-1.31 1z" fill="#c8ccd1"/>
    <rect x="36.13" y="108.43" width="26.09" height="1.96" rx=".8" fill="#c8ccd1"/>
    <rect x="64.81" y="108.43" width="43.03" height="2.09" rx="1.04" fill="#c8ccd1"/>
    <path d="M86 82.75H37.43c-.72 0-1.3-.44-1.3-1 0-.54.58-1 1.3-1H86c.72 0 1.3.44 1.3 1s-.58 1-1.3 1z" fill="#c8ccd1"/>
    <rect x="36.13" y="75.83" width="32.49" height="1.89" rx=".94" fill="#c8ccd1"/>
    <rect x="36.13" y="59.93" width="71.71" height="5" rx="1.86" fill="#c8ccd1"/>
    <rect x="36.13" y="67.62" width="71.71" height="1.81" rx=".9" fill="#eaecf0"/>
    <rect x="82.31" y="75.83" width="25.53" height="1.9" rx=".95" fill="#c8ccd1"/>
    <path d="M117 21.69a1.34 1.34 0 00-.38-.92l-12.4-12.39a1.3 1.3 0 00-.92-.38H29.61A2.61 2.61 0 0027 10.61V128c1.9 0 2-2.5 3.9-2.5s1.76 2.5 3.64 2.5 1.87-2.5 3.75-2.5 1.87 2.5 3.75 2.5 1.87-2.5 3.75-2.5 1.87 2.5 3.75 2.5 1.88-2.5 3.75-2.5 1.88 2.5 3.75 2.5 1.88-2.5 3.75-2.5 1.87 2.5 3.75 2.5 1.87-2.5 3.75-2.5 1.87 2.5 3.75 2.5 1.87-2.5 3.74-2.5 1.88 2.5 3.75 2.5 1.87-2.5 3.74-2.5S85.16 128 87 128s1.87-2.5 3.74-2.5 1.87 2.5 3.75 2.5 1.87-2.5 3.74-2.5 1.88 2.5 3.75 2.5 1.88-2.5 3.75-2.5 1.87 2.5 3.75 2.5 1.87-2.5 3.74-2.5 1.88 2.5 3.75 2.5V21.69zM113.25 123c-1.47-.22-1.87 2.5-3.74 2.5s-1.88-2.5-3.75-2.5-1.87 2.5-3.75 2.5-1.87-2.5-3.75-2.5-1.87 2.5-3.74 2.5-1.88-2.5-3.75-2.5-1.87 2.5-3.74 2.5-1.87-2.5-3.75-2.5-1.87 2.5-3.74 2.5-1.87-2.5-3.75-2.5-1.87 2.5-3.74 2.5-1.88-2.5-3.75-2.5-1.88 2.5-3.75 2.5-1.88-2.5-3.75-2.5-1.87 2.5-3.75 2.5-1.87-2.5-3.75-2.5-1.87 2.5-3.75 2.5-1.88-2.5-3.75-2.5-1.88 2.5-3.75 2.5-1.88-2.5-3.75-2.5-1.88 2.5-3.75 2.5c-1.36 0-1-2.72-3.64-2.5h-1.42V11.8a1.3 1.3 0 011.3-1.3h73l10.71 10.65v102.58a2 2 0 00-1.25-.73z" fill="#c8ccd1"/>
    <path d="M29.49 51V11.8a1.3 1.3 0 011.3-1.3h73l10.71 10.65V51z" fill="#fff"/>
    <path d="M117 23.65h-12.94a2.71 2.71 0 01-2.71-2.71V8H104a1.26 1.26 0 01.89.37l11.78 11.78a1.26 1.26 0 01.33.85z" fill="#c8ccd1" fill-rule="evenodd"/>
    <path d="M114.39 21h-9.13a1.3 1.3 0 01-1.3-1.3v-9.09z" fill="#fff" fill-rule="evenodd"/>
    <ellipse cx="42.12" cy="24.52" rx="5.99" ry="5.84" fill="#a2a9b1"/>
    <path d="M86.24 32.89s14.43 9.56 17.68 6 0 5.11 0 5.11H75.43s8.81-13.58 10.81-11.15" fill="#a2a9b1" fill-rule="evenodd"/>
    <path d="M29.48 38.08A52.91 52.91 0 0057 46c16 0 3.92 5 3.92 5H29.48z" fill="#a2a9b1" fill-rule="evenodd"/>
    <path d="M31.3 51s62.93-29.47 55.05-14.6 28.24-3.4 28.24-3.4v18z" fill="#eaecf0" fill-rule="evenodd"/>
    <circle cx="101" cy="112" r="24" fill="#c8ccd1"/>
    <path d="M101 89.5A22.5 22.5 0 1178.5 112 22.52 22.52 0 01101 89.5m0-1.5a24 24 0 1024 24 24 24 0 00-24-24z" fill="#a2a9b1"/>
    <path d="M115.46 120l-12.17-21a2.78 2.78 0 00-2.29-1.68A2.75 2.75 0 0098.72 99l-12.18 21c-1.26 2.18-.23 4 2.28 4h24.36c2.51 0 3.54-1.78 2.28-4zm-13-.54h-3v-3h3zm0-6h-3v-9h3z" fill="#fff"/>
</svg>
