<svg xmlns="http://www.w3.org/2000/svg" width="360" height="128" viewBox="0 0 360 128">
	<path fill="#fff" d="M0 0h360v128H0z"/>
	<mask id="mask0_2_2005" width="360" height="128" x="0" y="0" maskUnits="userSpaceOnUse" style="mask-type:alpha">
		<path fill="#fff" d="M0 0h360v128H0z"/>
	</mask>
	<g mask="url(#mask0_2_2005)">
		<path fill="#ffcd70" d="M152 43.403a2 2 0 0 0-2 2V62.47c0 .953.914 1.872 1.6 1.21a7.201 7.201 0 1 1 .145 9.227 1.6 1.6 0 0 0-.344-.301c-.695-.432-1.401.273-1.401 1.091v17.314a2 2 0 0 0 2 2h17.068c.953 0 1.871-.914 1.21-1.6a7.201 7.201 0 1 1 9.227-.145 1.5 1.5 0 0 0-.302.345c-.431.695.274 1.4 1.091 1.4h17.315a2 2 0 0 0 2-2V73.697c0-.818.706-1.523 1.401-1.091.127.079.246.188.344.301a7.201 7.201 0 1 0-.145-9.227c-.686.662-1.6-.257-1.6-1.21V45.403a2 2 0 0 0-2-2h-17.315c-.817 0-1.522-.706-1.091-1.401.079-.128.188-.247.302-.345a7.201 7.201 0 1 0-9.227.145c.661.686-.257 1.6-1.21 1.6z"/>
		<path fill="#ac6600" fill-rule="evenodd" d="M178.761 59.375h3.679V72.62h-3.679zm.736.736h2.207v11.774h-2.207zm-5.152 3.68h3.68v8.83h-3.68zm-5.151 4.415h4.415v4.415h-4.415z"/>
		<path fill="#e0ba9a" fill-rule="evenodd" d="m198.562 153.482-.815-48.62s7.93-14.404 8.077-15.667c.146-1.264 1.43-8.369 1.945-10 .515-1.63 1.513-3.29-.544-3.2-2.057.091-5.35 8.783-5.35 8.783s1.824-7.134 1.739-9.504-.998-6.249-.998-6.249-1.278-2.695-2.805-1.41c-1.528 1.286.525 6.274-.097 8.532a257 257 0 0 0-1.267 4.824s-.088-7.901-.688-10.045-2.141-3.166-3.288-2.2.156 5.714.177 8.288c.021 2.575-.597 4.904-.597 4.904s-.168-3.875-2.333-6.463-4.637-5.779-4.637-5.779-1.879-1.054-2.791.574c-.912 1.627.607 3.074 2.557 6.41s2.487 4.854 2.946 8.032c.458 3.177-1.318 6.322-1.318 6.322s-4.797-.252-6.226-3.32-1.427-4.174-1.427-4.174.064-1.49-.478-2.517c0 0-.28-.652-1.393-1.487-1.114-.835-2.506-1.113-2.506-1.113-1.376.74-1.52 3.323-1.364 5.463s1.969 11.974 6.255 17.097c4.285 5.122 4.988 6.888 4.988 6.888l-2.034 45.631"/>
		<path fill="#ecb5b5" d="m269.966 14.951 19.308-5.908 5.891 19.251c.756-.248 1.06-.444 1.337-.941a6.98 6.98 0 0 1 4.44-4.066c3.692-1.13 7.597.938 8.723 4.619s-.953 7.58-4.644 8.709c-2.1.642-4.268.25-5.956-.884-.589-.173-.929-.234-1.634-.033l5.891 19.252-46.042 14.089-5.891-19.251c.705-.201 1.046-.14 1.634.032a6.99 6.99 0 0 0 5.956.884c3.691-1.13 5.771-5.029 4.644-8.709s-5.031-5.748-8.722-4.619a6.98 6.98 0 0 0-4.441 4.066c-.277.497-.58.693-1.336.941l-5.892-19.251 19.308-5.908c.201.703.139 1.042-.035 1.63a6.95 6.95 0 0 0-.896 5.943c1.126 3.68 5.032 5.748 8.723 4.618s5.77-5.028 4.644-8.709a6.95 6.95 0 0 0-4.068-4.423c-.498-.276-.694-.578-.942-1.332"/>
		<path fill="#b32424" fill-rule="evenodd" d="m279.391 32.573-3.39.984 3.543 12.204 3.39-.984zm-6.277 6.233 3.39-.984 2.362 8.136-3.39.984zm-3.565 5.446 4.068-1.18 1.181 4.067-4.068 1.181z"/>
		<path fill="#be6f41" fill-rule="evenodd" d="m270.402 153.589 1.078-69.109s-8.991-12.961-9.255-14.153c-.265-1.19-2.193-7.844-2.845-9.349s-1.77-2.99.202-3.107 5.974 7.852 5.974 7.852-2.446-6.628-2.599-8.898.335-6.061.335-6.061.953-2.699 2.538-1.623.119 6.04.935 8.132a252 252 0 0 1 1.686 4.478s-.697-7.549-.336-9.654 1.729-3.232 2.919-2.424.416 5.468.651 7.927 1.054 4.62 1.054 4.62-.223-3.714 1.588-6.398 3.853-5.972 3.853-5.972 1.689-1.192 2.721.27c1.031 1.464-.276 2.995-1.807 6.37s-1.893 4.879-2.017 7.956 1.882 5.902 1.882 5.902 4.553-.714 5.613-3.782.949-4.125.949-4.125-.165-.928.251-1.96c0 0 1.337-.354 2.471-.707s2.471-.706 2.471-.706.257 1.078.32 3.136-.696 11.621-4.278 16.933c-3.583 5.312-4.079 7.066-4.079 7.066l2.703 66.115"/>
		<path fill="#a3ecdc" d="M101.883 54.056a2 2 0 0 0-2.278-1.677l-16.13 2.452c-.906.138-1.647 1.14-.92 1.695a6.91 6.91 0 0 1 3.35 4.937 6.92 6.92 0 0 1-5.8 7.882 6.92 6.92 0 0 1-7.878-5.803 6.9 6.9 0 0 1 1.587-5.546c.094-.11.18-.238.237-.37.309-.723-.463-1.292-1.24-1.174l-16.365 2.487a2 2 0 0 0-1.676 2.278l2.489 16.377c.118.777-.451 1.548-1.173 1.239a1.5 1.5 0 0 1-.371-.237 6.9 6.9 0 0 0-5.543-1.59 6.92 6.92 0 0 0-5.799 7.883 6.92 6.92 0 0 0 7.88 5.803 6.9 6.9 0 0 0 4.932-3.35c.556-.727 1.557.013 1.695.919l2.453 16.142a2 2 0 0 0 2.278 1.677l43.157-6.56a2.003 2.003 0 0 0 1.679-2.277l-2.49-16.377c-.118-.777.451-1.549 1.173-1.24.133.058.262.144.371.238a6.9 6.9 0 0 0 5.543 1.59 6.92 6.92 0 0 0 5.799-7.883 6.92 6.92 0 0 0-7.879-5.804 6.9 6.9 0 0 0-4.933 3.35c-.556.728-1.557-.013-1.695-.918z"/>
		<path fill="#14866d" fill-rule="evenodd" d="m84.378 73.658 3.922-.633 2.28 14.119-3.923.633-2.279-14.12Zm.911.657 2.353-.38 2.026 12.55-2.353.38zm-.936 4.176-3.921.633 1.519 9.412 3.922-.633zm-.657.91-2.353.38 1.266 7.844 2.353-.38zM75.7 84.717l4.706-.76.76 4.707-4.707.76z"/>
		<path fill="#d7a57a" fill-rule="evenodd" d="m71.904 157.893-2.968-38.875s-9.632-12.48-9.956-13.655c-.324-1.176-2.587-7.718-3.315-9.187s-1.917-2.895.045-3.111 6.36 7.533 6.36 7.533-2.777-6.49-3.045-8.748c-.269-2.259.026-6.067.026-6.067s.814-2.742 2.45-1.749c1.636.994.426 6.022 1.347 8.069.921 2.046 1.91 4.384 1.91 4.384s-1.079-7.499-.826-9.618 1.562-3.314 2.79-2.568c1.23.746.694 5.436 1.053 7.878.36 2.442 1.287 4.558 1.287 4.558s-.411-3.695 1.26-6.467c1.67-2.77 3.542-6.156 3.542-6.156s1.625-1.275 2.729.132c1.103 1.408-.123 3.002-1.48 6.45-1.356 3.447-1.642 4.964-1.609 8.042.034 3.078 2.18 5.795 2.18 5.795.999-.209 1.997-.556 2.945-.898l4.878-.741c1.282.783 1.653 3.417.404 10.014-3.306 5.484-3.712 7.26-3.712 7.26l6.216 34.702"/>
	</g>
</svg>
