<svg xmlns="http://www.w3.org/2000/svg" width="360" height="128" viewBox="0 0 360 128">
	<path fill="#fff" d="M0 0h360v128H0z"/>
	<mask id="mask0_3_612" width="360" height="128" x="0" y="0" maskUnits="userSpaceOnUse" style="mask-type:alpha">
		<path fill="#fff" d="M0 0h360v128H0z"/>
	</mask>
	<g mask="url(#mask0_3_612)">
		<path fill="#ffcd70" d="M204.546 43.403a2 2 0 0 1 2 2V62.47c0 .953-.914 1.872-1.6 1.21a7.201 7.201 0 1 0-.145 9.227c.097-.113.217-.222.344-.301.695-.432 1.401.273 1.401 1.091v17.314a2 2 0 0 1-2 2h-17.068c-.953 0-1.872-.914-1.21-1.6a7.201 7.201 0 1 0-9.227-.145c.114.098.223.217.302.345.431.695-.274 1.4-1.092 1.4h-17.314a2 2 0 0 1-2-2V73.697c0-.818-.706-1.523-1.401-1.091a1.6 1.6 0 0 0-.344.301 7.201 7.201 0 1 1 .145-9.227c.686.662 1.6-.257 1.6-1.21V45.403a2 2 0 0 1 2-2h17.314c.818 0 1.523-.706 1.092-1.401a1.5 1.5 0 0 0-.302-.345 7.201 7.201 0 0 1 4.7-12.657 7.201 7.201 0 0 1 4.527 12.802c-.662.686.257 1.6 1.21 1.6h17.068Z"/>
		<path fill="#ac6600" fill-rule="evenodd" d="M177.785 59.375h-3.68V72.62h3.68zm-.736.736h-2.208v11.774h2.208zm5.151 3.68h-3.679v8.83h3.679zm5.152 4.415h-4.416v4.415h4.416z"/>
		<path fill="#e0ba9a" d="m157.984 153.482.814-48.62s-7.929-14.404-8.076-15.667c-.146-1.264-1.43-8.369-1.945-10-.516-1.63-1.514-3.29.543-3.2 2.057.091 5.35 8.783 5.35 8.783s-1.823-7.134-1.738-9.504.998-6.249.998-6.249 1.278-2.695 2.805-1.41c1.528 1.286-.525 6.274.097 8.532a266 266 0 0 1 1.267 4.824s.088-7.901.688-10.045 2.14-3.166 3.287-2.2c1.148.965-.155 5.714-.176 8.288-.021 2.575.597 4.904.597 4.904s.167-3.875 2.333-6.463 4.637-5.779 4.637-5.779 1.879-1.054 2.791.574c.912 1.627-.607 3.074-2.557 6.41s-2.487 4.854-2.946 8.032c-.458 3.177 1.318 6.322 1.318 6.322s4.797-.252 6.226-3.32 1.426-4.174 1.426-4.174-.064-1.49.479-2.517c0 0 .279-.652 1.393-1.487s2.505-1.113 2.505-1.113c1.377.74 1.521 3.323 1.365 5.463-.157 2.14-1.97 11.974-6.255 17.097-4.285 5.122-4.988 6.888-4.988 6.888l2.034 45.631"/>
		<path fill="#ecb5b5" d="M86.58 14.951 67.271 9.043 61.38 28.294c-.756-.248-1.06-.444-1.336-.941a6.98 6.98 0 0 0-4.44-4.066c-3.692-1.13-7.597.938-8.723 4.619s.953 7.58 4.644 8.709c2.1.642 4.268.25 5.956-.884.588-.173.929-.234 1.634-.033L53.224 54.95l46.041 14.089 5.891-19.251c-.704-.201-1.045-.14-1.634.032a6.98 6.98 0 0 1-5.955.884c-3.691-1.13-5.77-5.029-4.645-8.709 1.127-3.68 5.032-5.748 8.723-4.619a6.98 6.98 0 0 1 4.441 4.066c.277.497.58.693 1.336.941l5.891-19.251-19.308-5.908c-.2.702-.138 1.042.035 1.63a6.95 6.95 0 0 1 .897 5.943c-1.126 3.68-5.032 5.748-8.723 4.618s-5.77-5.028-4.644-8.709a6.95 6.95 0 0 1 4.068-4.423c.498-.276.694-.578.941-1.332Z"/>
		<path fill="#b32424" d="m77.155 32.573 3.39.984-3.544 12.204-3.39-.984zm6.277 6.233-3.39-.984-2.363 8.136 3.39.984zm3.565 5.446-4.068-1.18-1.182 4.067 4.068 1.181z"/>
		<path fill="#be6f41" d="M86.144 153.589 85.066 84.48s8.99-12.961 9.255-14.153c.265-1.19 2.192-7.844 2.845-9.349s1.77-2.99-.203-3.107c-1.971-.117-5.973 7.852-5.973 7.852s2.446-6.628 2.599-8.898-.335-6.061-.335-6.061-.953-2.699-2.538-1.623-.119 6.04-.935 8.132-1.686 4.478-1.686 4.478.697-7.549.336-9.654-1.73-3.232-2.92-2.424-.415 5.468-.65 7.927-1.055 4.62-1.055 4.62.223-3.714-1.587-6.398-3.853-5.972-3.853-5.972-1.69-1.192-2.72.27c-1.032 1.464.275 2.995 1.806 6.37s1.893 4.879 2.017 7.956-1.883 5.902-1.883 5.902-4.552-.714-5.613-3.782c-1.06-3.069-.948-4.125-.948-4.125s.165-.928-.251-1.96c0 0-1.337-.354-2.471-.707s-2.471-.706-2.471-.706-.257 1.078-.32 3.136.695 11.621 4.278 16.933 4.08 7.066 4.08 7.066l-2.704 66.115"/>
		<path fill="#a3ecdc" d="M254.663 54.056a2 2 0 0 1 2.278-1.677l16.13 2.452c.906.138 1.647 1.14.919 1.695a6.91 6.91 0 0 0-3.349 4.937 6.92 6.92 0 0 0 5.799 7.882 6.92 6.92 0 0 0 7.879-5.803 6.9 6.9 0 0 0-1.587-5.546 1.5 1.5 0 0 1-.237-.37c-.309-.723.463-1.292 1.24-1.174l16.365 2.487a2 2 0 0 1 1.676 2.278l-2.489 16.377c-.118.777.451 1.548 1.173 1.239a1.5 1.5 0 0 0 .371-.237 6.919 6.919 0 0 1 11.341 6.293 6.92 6.92 0 0 1-7.879 5.803 6.9 6.9 0 0 1-4.933-3.35c-.555-.727-1.556.013-1.694.919l-2.453 16.142a2 2 0 0 1-2.279 1.677l-43.156-6.56a2 2 0 0 1-1.679-2.277l2.489-16.377c.118-.777-.45-1.549-1.172-1.24a1.5 1.5 0 0 0-.371.238 6.9 6.9 0 0 1-5.543 1.59 6.92 6.92 0 0 1-5.799-7.883 6.92 6.92 0 0 1 7.879-5.804 6.9 6.9 0 0 1 4.933 3.35c.556.728 1.557-.013 1.695-.918z"/>
		<path fill="#14866d" fill-rule="evenodd" d="m272.168 73.658-3.922-.633-2.279 14.119 3.922.633 2.279-14.12Zm-.911.657-2.353-.38-2.026 12.55 2.353.38zm.935 4.176 3.922.633-1.519 9.412-3.922-.633zm.658.91 2.353.38-1.266 7.844-2.353-.38zm7.995 5.315-4.706-.76-.76 4.707 4.707.76z"/>
		<path fill="#d7a57a" d="m284.642 157.893 2.967-38.875s9.632-12.48 9.957-13.655c.324-1.176 2.586-7.718 3.314-9.187s1.918-2.895-.044-3.111-6.361 7.533-6.361 7.533 2.778-6.49 3.046-8.748c.269-2.259-.026-6.067-.026-6.067s-.814-2.742-2.45-1.749c-1.637.994-.426 6.022-1.347 8.069-.921 2.046-1.911 4.384-1.911 4.384s1.08-7.499.827-9.618-1.562-3.314-2.791-2.568-.693 5.436-1.052 7.878-1.288 4.558-1.288 4.558.412-3.695-1.259-6.467c-1.67-2.77-3.542-6.156-3.542-6.156s-1.625-1.275-2.729.132c-1.103 1.408.123 3.002 1.48 6.45 1.356 3.447 1.641 4.964 1.608 8.042s-2.178 5.795-2.178 5.795c-1-.209-1.998-.556-2.946-.898l-4.878-.741c-1.283.783-1.654 3.417-.404 10.014 3.306 5.484 3.712 7.26 3.712 7.26l-6.217 34.702"/>
	</g>
</svg>
