<svg xmlns="http://www.w3.org/2000/svg" viewBox="0 0 64 64">
	<path fill="#54595d" d="M44 60a2 2 0 0 0 2 2h4a2 2 0 0 0 2-2v-2h-8z"/>
	<path fill="#fc3" d="M62 36a14 14 0 1 0-24 9.8s4 4.2 4 6.2v2a2 2 0 0 0 2 2h8a2 2 0 0 0 2-2v-2c0-2 4-6.2 4-6.2a13.94 13.94 0 0 0 4-9.8"/>
	<path fill="#fef6e7" d="M38.11 38.18a13.41 13.41 0 0 1 13.41-13.41h1.1a12.1 12.1 0 0 0-12.38 20.66 13.3 13.3 0 0 1-2.13-7.25"/>
	<path fill="#72777d" d="M50 59.14h-6v-.57h6a.28.28 0 0 1 .29.29.28.28 0 0 1-.29.28m-5.39 2.29A2 2 0 0 0 46 62h4a2.1 2.1 0 0 0 .57-.09.5.5 0 0 0-.57-.48zm5.68-1.14A.28.28 0 0 0 50 60h-6a1.9 1.9 0 0 0 .1.57H50a.28.28 0 0 0 .29-.28"/>
	<path fill="#8ea4cf" fill-rule="evenodd" d="M40.36 3.18a.59.59 0 0 0-.85 0L2.18 40.51a.59.59 0 0 0 0 .85l7.21 7.21a.59.59 0 0 0 .85 0l37.33-37.33a.59.59 0 0 0 0-.85zm-1.7 8.91a2.4 2.4 0 1 1 3.4 0 2.42 2.42 0 0 1-3.4 0"/>
	<path fill="#4a669e" d="m36.33 16.114 3.183 3.182-.424.424-3.182-3.182a.3.3 0 0 1 0-.424.3.3 0 0 1 .424 0zm-5.519 2.966 4.44 4.44-.424.424-4.454-4.455a.3.3 0 0 1 0-.424.3.3 0 0 1 .438.014zm-2.984 5.507 3.182 3.182-.424.424-3.182-3.182a.3.3 0 0 1 0-.424.3.3 0 0 1 .424 0m-5.498 2.983 4.454 4.454-.424.424-4.455-4.454a.3.3 0 0 1 0-.425.3.3 0 0 1 .425 0zm-2.967 5.514 3.16 3.16-.424.425-3.182-3.182a.3.3 0 0 1 0-.424.3.3 0 0 1 .424 0zm-8.547 8.473 3.182 3.182-.424.424-3.182-3.182a.3.3 0 0 1 0-.424.3.3 0 0 1 .424 0m3.027-5.497 4.455 4.454-.425.424-4.454-4.454a.3.3 0 0 1 0-.425.3.3 0 0 1 .424 0z"/>
	<path fill="#f8f9fa" fill-rule="evenodd" d="m47.16 48.16-8.69-3.6-.64-.64 5.09-5.09.64.64z"/>
	<path fill="#2a4b8d" d="m42.66 46.3 4.5 1.86-1.86-4.5z"/>
	<path fill="#7c94c2" d="M8.33 4.24a2.4 2.4 0 0 0-3.4 0L3.24 5.93a2.4 2.4 0 0 0 0 3.4l2.54 2.54 5.09-5.09z"/>
	<path fill="#4a669e" d="m5.785 11.87 5.091-5.091 2.546 2.545-5.091 5.091z"/>
	<path fill="#dae4f6" d="M38.47 44.56 8.33 14.42l5.09-5.09 30.14 30.14a1.25 1.25 0 0 0-1.7 1.69 1.25 1.25 0 0 0-1.7 1.7 1.25 1.25 0 0 0-1.69 1.7"/>
</svg>
