<svg xmlns="http://www.w3.org/2000/svg" viewBox="0 0 64 64">
    <path fill="none" d="M0 0h64v64H0z"/>
    <path d="M44 60a2 2 0 002 2h4a2 2 0 002-2v-2h-8z" fill="#54595d"/>
    <path d="M62 36a14 14 0 10-24 9.8s4 4.2 4 6.2v2a2 2 0 002 2h8a2 2 0 002-2v-2c0-2 4-6.2 4-6.2a13.94 13.94 0 004-9.8z" fill="#fc3"/>
    <path d="M38.11 38.18a13.41 13.41 0 0113.41-13.41h1.1a12.1 12.1 0 00-12.38 20.66 13.32 13.32 0 01-2.13-7.25z" fill="#fef6e7"/>
    <path d="M50 59.14h-6v-.57h6a.28.28 0 01.29.29.28.28 0 01-.29.28z" fill="#72777d"/>
    <path d="M44.61 61.43A2 2 0 0046 62h4a2.12 2.12 0 00.57-.09.5.5 0 00-.57-.48z" fill="#72777d"/>
    <path d="M50.29 60.29A.28.28 0 0050 60h-6a1.85 1.85 0 00.1.57H50a.28.28 0 00.29-.28z" fill="#72777d"/>
    <path d="M40.36 3.18a.59.59 0 00-.85 0L2.18 40.51a.59.59 0 000 .85l7.21 7.21a.59.59 0 00.85 0l37.33-37.33a.59.59 0 000-.85zm-1.7 8.91a2.4 2.4 0 113.4 0 2.42 2.42 0 01-3.4 0z" fill="#8ea4cf" fill-rule="evenodd"/>
    <path d="M36.33 16.114l3.183 3.182-.424.424-3.182-3.182a.3.3 0 010-.424.3.3 0 01.424 0z" fill="#4a669e"/>
    <path d="M30.811 19.08l4.44 4.44-.424.424-4.454-4.455a.3.3 0 010-.424.3.3 0 01.438.014z" fill="#4a669e"/>
    <path d="M27.827 24.587l3.182 3.182-.424.424-3.182-3.182a.3.3 0 010-.424.3.3 0 01.424 0z" fill="#4a669e"/>
    <path d="M22.329 27.57l4.454 4.454-.424.424-4.455-4.454a.3.3 0 010-.425.3.3 0 01.425 0z" fill="#4a669e"/>
    <path d="M19.362 33.084l3.16 3.16-.424.425-3.182-3.182a.3.3 0 010-.424.3.3 0 01.424 0z" fill="#4a669e"/>
    <path d="M10.815 41.557l3.182 3.182-.424.424-3.182-3.182a.3.3 0 010-.424.3.3 0 01.424 0z" fill="#4a669e"/>
    <path d="M13.842 36.06l4.455 4.454-.425.424-4.454-4.454a.3.3 0 010-.425.3.3 0 01.424 0z" fill="#4a669e"/>
    <path fill="#f8f9fa" fill-rule="evenodd" d="M47.16 48.16l-8.69-3.6-.64-.64 5.09-5.09.64.64 3.6 8.69z"/>
    <path fill="#2a4b8d" d="M42.66 46.3l4.5 1.86-1.86-4.5-2.64 2.64z"/>
    <path d="M8.33 4.24a2.4 2.4 0 00-3.4 0L3.24 5.93a2.4 2.4 0 000 3.4l2.54 2.54 5.09-5.09z" fill="#7c94c2"/>
    <path fill="#4a669e" d="M5.785 11.87l5.091-5.091 2.546 2.545-5.091 5.091z"/>
    <path d="M38.47 44.56L8.33 14.42l5.09-5.09 30.14 30.14a1.25 1.25 0 00-1.7 1.69 1.25 1.25 0 00-1.7 1.7 1.25 1.25 0 00-1.69 1.7z" fill="#dae4f6"/>
</svg>
