<?xml version="1.0" encoding="UTF-8"?>
<svg xmlns="http://www.w3.org/2000/svg" width="30" height="30" viewBox="0 0 30 30">
	<title>
		congratulations
	</title>
	<path fill="#36c" d="m9.231 9.14.532.098c2.647.553 5.118 2.022 7.048 3.952 2.058 2.058 3.591 4.731 4.048 7.579l.034.34a2.68 2.68 0 0 1-2.265 2.751l-.115.05-16.199 5.888C.998 30.277-.278 29.002.2 27.686l5.89-16.199.05-.125a2.684 2.684 0 0 1 2.752-2.256zM4.006 25.993l9.72-3.535a15.4 15.4 0 0 1-3.537-2.646 15.4 15.4 0 0 1-2.648-3.54zm5.176-13.81c.42 1.975 1.55 3.928 3.129 5.507 1.579 1.58 3.53 2.706 5.505 3.127-.42-1.974-1.548-3.926-3.126-5.505-1.58-1.58-3.533-2.709-5.508-3.13ZM30 16.5h-6v-3h6zM26.56 5.56l-4.5 4.5-2.12-2.12 4.5-4.5zM16.502 6h-3V0h3z"/>
</svg>
