<?xml version="1.0" encoding="UTF-8"?>
<svg xmlns="http://www.w3.org/2000/svg" xmlns:xlink="http://www.w3.org/1999/xlink" width="20" height="20">
	<defs>
		<path id="path-1" d="M2 0h16a2 2 0 0 1 2 2v18l-4-4H2a2 2 0 0 1-2-2V2a2 2 0 0 1 2-2m7.965 2.605C8.2 2.605 7 3.739 7 5.323A2.75 2.75 0 0 0 8.375 7.77c.852.552 1.092.918 1.092 1.626v.408h1.506v-.486a2.3 2.3 0 0 0-1.2-2.304c-.804-.54-1.074-.918-1.074-1.626a1.26 1.26 0 0 1 1.248-1.284h.102a1.38 1.38 0 0 1 1.428 1.332v.102H13a2.826 2.826 0 0 0-2.706-2.934 3 3 0 0 0-.33 0zm1.236 9.6a1.134 1.134 0 0 0-1.062-1.2H10a1.122 1.122 0 0 0-1.2 1.2 1.122 1.122 0 0 0 1.2 1.2 1.128 1.128 0 0 0 1.2-1.2z"/>
	</defs>
	<g id="Symbols" fill="none" fill-rule="evenodd" stroke="none" stroke-width="1">
		<g id="Icon-AskQuestion-RTL">
			<use xlink:href="#path-1" id="Icon-AskQuestion" fill="#fff"/>
		</g>
	</g>
</svg>
