<svg xmlns="http://www.w3.org/2000/svg" width="20" height="20">
	<path fill="#fff" id="a" d="M38 14a2 2 0 0 1 2 2v12a2 2 0 0 1-2 2H24l-4 4V16a2 2 0 0 1 2-2zm-7.962 2.605a3 3 0 0 0-.33 0 2.826 2.826 0 0 0-2.706 2.934h1.524v-.102a1.38 1.38 0 0 1 1.428-1.332h.102a1.26 1.26 0 0 1 1.248 1.284c0 .708-.27 1.086-1.074 1.626a2.3 2.3 0 0 0-1.2 2.304v.486h1.506v-.408c0-.708.24-1.074 1.092-1.626a2.75 2.75 0 0 0 1.374-2.448c0-1.584-1.2-2.718-2.964-2.718m-1.236 9.6a1.128 1.128 0 0 0 1.2 1.2 1.122 1.122 0 0 0 1.2-1.2 1.122 1.122 0 0 0-1.2-1.2h-.138c-.624.038-1.1.575-1.062 1.2" transform="translate(-20 -14)"/>
</svg>
