<svg xmlns="http://www.w3.org/2000/svg" viewBox="0 0 216 64">
	<path fill="#fc3" d="M128.29 6.78 101.76 10a7 7 0 0 0-6.37 6.61 7 7 0 0 0-7.78-4.88L61.08 15a1.79 1.79 0 0 0-1.56 2l4.73 38.47a1.78 1.78 0 0 0 2 1.55l67.22-8.25a1.79 1.79 0 0 0 1.55-2l-4.75-38.44a1.78 1.78 0 0 0-1.98-1.55"/>
	<path fill="#ff9500" d="m96.64 52.41 6.19-.76.1.88a.44.44 0 0 1-.38.5l-5.31.65a.45.45 0 0 1-.5-.39z"/>
	<path fill="#eaecf0" d="m101.312 10.09 26.53-3.257a.89.89 0 0 1 .993.775l4.94 40.237-34.044 4.18-4.235-34.49a6.68 6.68 0 0 1 5.816-7.445"/>
	<path fill="#eaecf0" d="m61.52 15 26.09-3.21c3.9-.48 7.41 1.86 7.89 5.77L99.73 52l-34 4.18L60.74 16a.89.89 0 0 1 .78-1"/>
	<path fill="#fff" d="m99.267 52.082-32.754 4.021-4.887-39.8a.45.45 0 0 1 .392-.502l25.26-3.102a7.13 7.13 0 0 1 7.918 6.222zm2.593-41.169 25.647-3.15a.45.45 0 0 1 .501.392l4.887 39.801-32.754 4.022-4.127-33.608a6.68 6.68 0 0 1 5.845-7.457z"/>
	<path fill="#ac6600" d="m65.138 51.784 31.394-3.855a2.67 2.67 0 0 1 2.976 2.325l.217 1.767L65.68 56.2z"/>
	<path fill="#ac6600" d="m133.775 47.844-34.044 4.18-.217-1.766a2.67 2.67 0 0 1 2.279-3.02l31.434-3.86z"/>
	<path fill="#c8ccd1" d="M111.23 11.56 101 12.81a.41.41 0 0 0-.36.46.41.41 0 0 0 .46.36l10.22-1.25a.43.43 0 0 0 .36-.46.41.41 0 0 0-.45-.36M125 9.86l-12.4 1.53a.41.41 0 0 0-.36.46.41.41 0 0 0 .46.36l12.42-1.53a.4.4 0 0 0 .36-.46.42.42 0 0 0-.48-.36m.35 2.74-7.46.92a.4.4 0 0 0-.36.46.42.42 0 0 0 .46.36l7.46-.92a.42.42 0 0 0 .36-.46.41.41 0 0 0-.46-.36m-8.82 1.08-13 1.6a.41.41 0 0 0-.36.46.43.43 0 0 0 .46.36l13-1.6a.4.4 0 0 0 .37-.5.42.42 0 0 0-.47-.32m9.15 1.66-14.63 1.79a.42.42 0 0 0-.36.46.41.41 0 0 0 .46.36l14.63-1.79a.41.41 0 0 0 .36-.46.4.4 0 0 0-.46-.36m-22.9 2.81 6.91-.85a.41.41 0 0 1 .46.36.41.41 0 0 1-.36.46l-6.9.85a.43.43 0 0 1-.47-.36.42.42 0 0 1 .36-.46"/>
	<path fill="#ac6600" d="M126 18.07 102 21a.41.41 0 0 0-.36.46.41.41 0 0 0 .46.36l24-2.95a.41.41 0 0 0 .36-.46.41.41 0 0 0-.46-.34m-5.71 3.48-5.81.72a.42.42 0 0 0-.36.46.43.43 0 0 0 .46.36l5.81-.72a.42.42 0 0 0 .36-.46.43.43 0 0 0-.46-.36m-7.17.88-9.66 1.19a.41.41 0 0 0-.36.46.4.4 0 0 0 .46.36l9.66-1.19a.4.4 0 0 0 .36-.46.42.42 0 0 0-.46-.36m13.24-1.62-4.7.57a.42.42 0 0 0-.36.47.42.42 0 0 0 .46.36l4.7-.58a.43.43 0 0 0 .36-.46.41.41 0 0 0-.46-.36m.33 2.73L106 26.09a.4.4 0 0 0-.36.46.42.42 0 0 0 .46.36l20.7-2.55a.4.4 0 0 0 .36-.46.42.42 0 0 0-.47-.36"/>
	<rect width="9.45" height=".83" x="118.07" y="26.8" fill="#c8ccd1" rx=".41" transform="rotate(-7 122.814 27.205)"/>
	<rect width="15.01" height=".83" x="102.61" y="28.36" fill="#c8ccd1" rx=".41" transform="rotate(-7 110.08 28.806)"/>
	<rect width="25.02" height=".83" x="102.97" y="31.03" fill="#c8ccd1" rx=".41" transform="rotate(-7 115.498 31.435)"/>
	<rect width="12.23" height=".83" x="103.35" y="34.55" fill="#c8ccd1" rx=".41" transform="rotate(-7 109.459 34.922)"/>
	<rect width="12.23" height=".83" x="116.04" y="32.99" fill="#c8ccd1" rx=".41" transform="rotate(-7 122.188 33.403)"/>
	<rect width="22.8" height=".83" x="105.85" y="36.37" fill="#c8ccd1" rx=".41" transform="rotate(-7 117.222 36.791)"/>
	<path fill="#c8ccd1" d="m128.44 37.77-4.15.51a.42.42 0 0 0-.36.46.41.41 0 0 0 .46.36l4.15-.51a.41.41 0 0 0 .36-.46.41.41 0 0 0-.46-.36m-5.51.68-5.8.71a.41.41 0 0 0-.36.46.41.41 0 0 0 .46.36l5.8-.71a.41.41 0 0 0 .36-.46.41.41 0 0 0-.46-.36m-7.17.88-10.22 1.25a.41.41 0 0 0-.36.46.41.41 0 0 0 .46.36l10.22-1.25a.43.43 0 0 0 .36-.46.41.41 0 0 0-.46-.36m13.02 1.18-24 2.94a.42.42 0 0 0-.36.46.41.41 0 0 0 .46.36l24-2.94a.41.41 0 0 0 .36-.46.4.4 0 0 0-.46-.36M79.25 47.7 69 49a.4.4 0 0 1-.46-.36.41.41 0 0 1 .36-.46l10.21-1.25a.41.41 0 0 1 .46.36.41.41 0 0 1-.32.41m13.8-1.7-12.42 1.53a.42.42 0 0 1-.47-.36.42.42 0 0 1 .36-.46L93 45.18a.43.43 0 0 1 .46.36.4.4 0 0 1-.41.46m-.35-2.73-7.45.91a.4.4 0 0 1-.46-.36.41.41 0 0 1 .36-.46l7.45-.91a.4.4 0 0 1 .46.36.41.41 0 0 1-.36.46m-8.82 1.08-13 1.6a.42.42 0 0 1-.46-.36.42.42 0 0 1 .36-.47l13-1.59a.4.4 0 0 1 .46.36.41.41 0 0 1-.36.46m8.49-3.82-14.63 1.8a.4.4 0 0 1-.46-.36.41.41 0 0 1 .36-.46l14.63-1.8a.42.42 0 0 1 .46.36.42.42 0 0 1-.36.46m-22.9 2.81 6.9-.84a.41.41 0 0 0 .36-.46.4.4 0 0 0-.46-.36l-6.9.84A.41.41 0 0 0 69 43a.41.41 0 0 0 .47.34M92 37.8l-24 3a.42.42 0 0 1-.46-.36.42.42 0 0 1 .36-.47l24-2.94a.41.41 0 0 1 .46.36.41.41 0 0 1-.36.41m-6.38-1.99-5.8.71a.41.41 0 0 1-.46-.36.42.42 0 0 1 .36-.46l5.8-.71a.4.4 0 0 1 .46.36.41.41 0 0 1-.36.46m-7.16.88-9.66 1.18a.4.4 0 0 1-.46-.36.41.41 0 0 1 .36-.46l9.66-1.18a.41.41 0 0 1 .46.36.41.41 0 0 1-.36.46m13.24-1.63-4.7.58a.41.41 0 0 1-.46-.36.41.41 0 0 1 .36-.46l4.69-.58a.42.42 0 0 1 .47.36.42.42 0 0 1-.36.46m-.34-2.73-20.7 2.54a.42.42 0 0 1-.46-.36.4.4 0 0 1 .36-.46l20.7-2.55a.42.42 0 0 1 .46.36.42.42 0 0 1-.36.47"/>
	<rect width="9.45" height=".83" x="81.97" y="29.29" fill="#c8ccd1" rx=".41" transform="rotate(-7 86.722 29.675)"/>
	<rect width="15.01" height=".83" x="66.5" y="30.85" fill="#c8ccd1" rx=".41" transform="rotate(-7 73.988 31.275)"/>
	<rect width="25.02" height=".83" x="66.05" y="26.96" fill="#c8ccd1" rx=".41" transform="rotate(-7 78.576 27.371)"/>
	<rect width="12.23" height=".83" x="65.77" y="25" fill="#c8ccd1" rx=".41" transform="rotate(-7 71.886 25.403)"/>
	<rect width="12.23" height=".83" x="78.46" y="23.44" fill="#c8ccd1" rx=".41" transform="rotate(-7 84.533 23.879)"/>
	<rect width="22.8" height=".83" x="67.6" y="21.35" fill="#c8ccd1" rx=".41" transform="rotate(-7 79.003 21.735)"/>
	<path fill="#c8ccd1" d="m89.61 18.1-4.14.51a.41.41 0 0 1-.46-.36.4.4 0 0 1 .36-.46l4.14-.51a.41.41 0 0 1 .46.36.41.41 0 0 1-.36.46m-5.51.67-5.8.72a.43.43 0 0 1-.46-.36.4.4 0 0 1 .36-.46L84 18a.42.42 0 0 1 .46.36.4.4 0 0 1-.36.41m-7.17.89-10.22 1.25a.41.41 0 0 1-.46-.36.42.42 0 0 1 .36-.46l10.22-1.26a.42.42 0 0 1 .46.36.42.42 0 0 1-.36.47m12.36-4.3-24 2.95a.41.41 0 0 1-.46-.36.42.42 0 0 1 .36-.46l24-2.95a.41.41 0 0 1 .46.36.42.42 0 0 1-.36.46"/>
	<path fill="#fff" d="M52.34 12.26 47 5.87h-.12L14.09 3a1.43 1.43 0 0 0-1.53 1.29L8.17 54.47l-.17 2c.83.07.93-1 1.77-1s.74 1.19 1.58 1.26.93-1 1.77-1 .74 1.19 1.58 1.26.93-1 1.77-1 .74 1.19 1.57 1.27.94-1.05 1.78-1 .73 1.19 1.57 1.26.94-1 1.77-1 .74 1.19 1.58 1.26.93-1 1.77-1 .74 1.19 1.57 1.27.94-1 1.77-1 .74 1.18 1.58 1.26.93-1 1.77-1 .73 1.19 1.57 1.26.93-1 1.77-1 .74 1.19 1.57 1.26.94-1 1.77-1 .74 1.19 1.58 1.27.93-1 1.77-1 .74 1.18 1.57 1.26.94-1 1.77-1 .74 1.19 1.58 1.26l.19-1.62z"/>
	<path fill="#fee7e6" d="M14.41 4.15a.72.72 0 0 0-.77.69L11.75 26.4l37.94 3.32 1.49-17.1L46.47 7z"/>
	<rect width="33.29" height="1.12" x="12.28" y="52.28" fill="#b32424" rx=".56" transform="matrix(1 .09 -.09 1 4.72 -2.32)"/>
	<rect width="33.29" height="1.12" x="12.28" y="52.28" fill="#b32424" rx=".56" transform="rotate(5 28.928 52.893)"/>
	<rect width="33.29" height="1.12" x="12.5" y="49.82" fill="#b32424" rx=".56" transform="rotate(5 29.162 50.358)"/>
	<rect width="33.29" height="1.12" x="12.93" y="44.89" fill="#b32424" rx=".56" transform="rotate(5 29.52 45.41)"/>
	<rect width="5.65" height="1.12" x="12.76" y="46.15" fill="#b32424" rx=".56" transform="rotate(5 15.578 46.706)"/>
	<rect width="5.65" height="1.12" x="24.66" y="39.75" fill="#b32424" rx=".56" transform="rotate(5 27.462 40.336)"/>
	<rect width="7.89" height="1.12" x="38.07" y="48.46" fill="#b32424" rx=".56" transform="rotate(5 42.068 48.992)"/>
	<rect width="10.71" height="1.12" x="35.68" y="43.42" fill="#b32424" rx=".56" transform="rotate(5 41.046 43.988)"/>
	<rect width="16.94" height="1.12" x="19.77" y="47.26" fill="#b32424" rx=".56" transform="rotate(5 28.25 47.874)"/>
	<rect width="21.17" height="1.12" x="13.17" y="41.9" fill="#b32424" rx=".56" transform="rotate(5 23.768 42.448)"/>
	<rect width="9.88" height="1.12" x="13.4" y="38.95" fill="#b32424" rx=".56" transform="rotate(5 18.36 39.471)"/>
	<rect width="11.2" height="2.24" x="36.07" y="32.87" fill="#b32424" rx="1.12" transform="rotate(5 41.642 33.98)"/>
	<rect width="17.92" height="1.12" x="29.11" y="36.01" fill="#ff6e6e" rx=".56" transform="rotate(5 38.082 36.545)"/>
	<rect width="14.94" height="1.12" x="31.67" y="40.77" fill="#b32424" rx=".56" transform="rotate(5 39.094 41.32)"/>
	<path fill="#c8ccd1" d="m52.22 13.64-6-.53a1.26 1.26 0 0 1-1.15-1.36l.53-6 1.45.13 5.29 6.31z"/>
	<path fill="#c8ccd1" d="M52.34 12.26 47 5.87h-.12L14.09 3a1.43 1.43 0 0 0-1.53 1.29L8.17 54.47l-.17 2c.83.07.93-1 1.77-1s.74 1.19 1.58 1.26.93-1 1.77-1 .74 1.19 1.58 1.26.93-1 1.77-1 .74 1.19 1.57 1.27.94-1.05 1.78-1 .73 1.19 1.57 1.26.94-1 1.77-1 .74 1.19 1.58 1.26.93-1 1.77-1 .74 1.19 1.57 1.27.94-1 1.77-1 .74 1.18 1.58 1.26.93-1 1.77-1 .73 1.19 1.57 1.26.93-1 1.77-1 .74 1.19 1.57 1.26.94-1 1.77-1 .74 1.19 1.58 1.27.93-1 1.77-1 .74 1.18 1.57 1.26.94-1 1.77-1 .74 1.19 1.58 1.26l.19-1.62zm-5.65 45.3c-.84-.07-.93 1-1.77 1s-.74-1.19-1.58-1.26-.93 1-1.76 1-.74-1.25-1.58-1.3-.93 1-1.77 1-.74-1.19-1.57-1.27-.94 1-1.77 1-.74-1.18-1.58-1.26-.93 1-1.76 1-.74-1.3-1.55-1.37-.93 1-1.77 1-.74-1.19-1.57-1.26-.94 1-1.77 1-.74-1.19-1.58-1.27-.93 1.05-1.77 1-.74-1.19-1.58-1.26-.93 1-1.77 1-.74-1.19-1.58-1.26-.93 1-1.77 1-.74-1.19-1.57-1.26-.94 1-1.77 1-.74-1.19-1.58-1.27-.51-.88-.51-.88l4.2-48a1.41 1.41 0 0 1 1.53-1.28L46.88 7l4.34 5.17-3.9 44.61s.21.86-.63.78"/>
	<rect width="1" height="11.95" x="31.71" y="12.55" fill="#ff6e6e" rx=".45" transform="rotate(100 32.203 18.527)"/>
	<rect width="1" height="11.95" x="31.71" y="12.55" fill="#ff6e6e" rx=".45" transform="rotate(-170 32.203 18.525)"/>
	<rect width="1" height="11.95" x="31.71" y="12.55" fill="#ff6e6e" rx=".45" transform="rotate(-125 32.204 18.525)"/>
	<rect width="1" height="11.95" x="31.71" y="12.55" fill="#ff6e6e" rx=".45" transform="rotate(145 32.204 18.526)"/>
	<path fill="#eaecf0" d="M167.63 18.27h-5.1a3.9 3.9 0 0 0-3.9 3.9v3c0 6-3.9 5.4-3.9 5.4v.6h12.9z"/>
	<path fill="#a2a9b1" d="M150.83 6h-3.3a3 3 0 0 0-3 3v5.4h6.3z"/>
	<path fill="#eaecf0" d="M147.53 6.57h3.3v7.2h-5.7V9a2.4 2.4 0 0 1 2.4-2.43"/>
	<path fill="#a2a9b1" d="M181.75 6h-33.92v.6c1.2 0 2.4.6 2.4 3v16.5c0 2.65 1.5 5.1 4.5 5.1s4.5-2.1 4.5-5.1v-3.9c0-.3.24-3.3 3.9-3.3h22.5v-9a3.77 3.77 0 0 0-3.88-3.9"/>
	<path fill="#fff" d="M181.45 6.57h-32.12s1.5.3 1.5 3.3v15.6c0 2.1.9 5.1 3.9 5.1s3.9-2.4 3.9-5.1v-3.3c0-2.1 1.8-3.9 4.8-3.9H185v-8.12a3.28 3.28 0 0 0-3.55-3.58"/>
	<path fill="#a2a9b1" d="M154.73 30.57h12.6v.6h-12.6z"/>
	<path fill="#a2a9b1" d="M198 18.27h-34v.6a3.43 3.43 0 0 1 3 3.6v29.1a5.07 5.07 0 0 0 5.1 4.8h29.7V22.15a4.11 4.11 0 0 0-3.8-3.88"/>
	<path fill="#fff" d="M197.65 18.87h-32.12a3.23 3.23 0 0 1 2.1 3.3V51a4.59 4.59 0 0 0 4.79 4.79h28.81V22.45a3.58 3.58 0 0 0-3.58-3.58"/>
	<path fill="#a2a9b1" d="M201.53 56.37h-28.2v-.6s2.4-.9 2.4-3v-4.2h29.4a.59.59 0 0 1 .6.6v3a4.2 4.2 0 0 1-4.2 4.2"/>
	<path fill="#f8f9fa" d="M201.53 55.77h-27a3.48 3.48 0 0 0 1.8-3v-3.6h28.5a.29.29 0 0 1 .3.3v2.7a3.6 3.6 0 0 1-3.6 3.6"/>
	<rect width="18" height=".6" x="164.93" y="8.67" fill="#c8ccd1" rx=".3" transform="rotate(-180 173.935 8.965)"/>
	<rect width="12" height=".6" x="152.33" y="8.67" fill="#c8ccd1" rx=".3" transform="rotate(180 158.335 8.965)"/>
	<rect width="15" height=".6" x="167.93" y="12.27" fill="#c8ccd1" rx=".3" transform="rotate(180 175.435 12.565)"/>
	<rect width="26.4" height=".6" x="156.53" y="14.07" fill="#c8ccd1" rx=".3" transform="rotate(-180 169.735 14.365)"/>
	<rect width="30.6" height=".6" x="152.33" y="15.87" fill="#c8ccd1" rx=".3" transform="rotate(180 167.635 16.165)"/>
	<rect width="14.4" height=".6" x="152.93" y="12.27" fill="#c8ccd1" rx=".3" transform="rotate(-180 160.135 12.565)"/>
	<rect width="10.8" height=".6" x="172.13" y="10.47" fill="#c8ccd1" rx=".3" transform="rotate(-180 177.535 10.765)"/>
	<rect width="9" height=".6" x="162.23" y="10.47" fill="#c8ccd1" rx=".3" transform="rotate(180 166.735 10.765)"/>
	<rect width="6.6" height=".6" x="154.43" y="10.47" fill="#c8ccd1" rx=".3" transform="rotate(180 157.735 10.765)"/>
	<rect width="7.5" height=".6" x="152.33" y="19.47" fill="#c8ccd1" rx=".3" transform="rotate(180 156.085 19.765)"/>
	<rect width="6" height=".6" x="152.93" y="21.27" fill="#c8ccd1" rx=".29" transform="rotate(180 155.935 21.565)"/>
	<rect width="4" height=".6" x="154.93" y="23.07" fill="#c8ccd1" rx=".23" transform="rotate(180 156.935 23.365)"/>
	<rect width="6.6" height=".6" x="152.33" y="24.87" fill="#c8ccd1" rx=".3" transform="rotate(180 155.635 25.165)"/>
	<rect width="4" height=".6" x="154.93" y="27.57" fill="#c8ccd1" rx=".23" transform="rotate(180 156.935 27.865)"/>
	<rect width="30" height=".6" x="169.73" y="21.27" fill="#c8ccd1" rx=".3" transform="rotate(-180 184.735 21.565)"/>
	<rect width="7.8" height=".6" x="191.93" y="24.87" fill="#c8ccd1" rx=".3" transform="rotate(-180 195.835 25.165)"/>
	<rect width="14.56" height=".6" x="185.17" y="26.67" fill="#c8ccd1" rx=".3" transform="rotate(-180 192.455 26.965)"/>
	<rect width="14.56" height=".6" x="169.73" y="26.67" fill="#c8ccd1" rx=".3" transform="rotate(-180 177.015 26.965)"/>
	<rect width="15" height=".6" x="175.73" y="24.87" fill="#c8ccd1" rx=".3" transform="rotate(180 183.235 25.165)"/>
	<rect width="5.7" height=".6" x="169.73" y="24.87" fill="#c8ccd1" rx=".3" transform="rotate(-180 172.585 25.165)"/>
	<rect width="21.3" height=".6" x="178.43" y="23.07" fill="#c8ccd1" rx=".3" transform="rotate(180 189.085 23.365)"/>
	<rect width="6.6" height=".6" x="170.33" y="23.07" fill="#c8ccd1" rx=".3" transform="rotate(180 173.635 23.365)"/>
	<rect width="30" height=".6" x="169.73" y="35.37" fill="#c8ccd1" rx=".3"/>
	<rect width="7.8" height=".6" x="169.73" y="31.77" fill="#c8ccd1" rx=".3"/>
	<rect width="14.56" height=".6" x="169.73" y="29.97" fill="#c8ccd1" rx=".3"/>
	<rect width="14.56" height=".6" x="185.17" y="29.97" fill="#c8ccd1" rx=".3"/>
	<rect width="14.4" height=".6" x="178.73" y="31.77" fill="#c8ccd1" rx=".3"/>
	<rect width="5.7" height=".6" x="194.03" y="31.77" fill="#c8ccd1" rx=".3"/>
	<rect width="21.3" height=".6" x="169.73" y="33.57" fill="#c8ccd1" rx=".3"/>
	<path fill="#c8ccd1" d="M198.83 33.57h-6.6c-.16 0 .3.13.3.3 0 .16-.46.3-.3.3h6.6a.3.3 0 0 0 .3-.3.29.29 0 0 0-.3-.3"/>
	<rect width="30" height=".6" x="169.73" y="40.77" fill="#c8ccd1" rx=".3"/>
	<rect width="7.8" height=".6" x="169.73" y="44.37" fill="#c8ccd1" rx=".3"/>
	<rect width="14.56" height=".6" x="169.73" y="46.17" fill="#c8ccd1" rx=".3"/>
	<rect width="14.56" height=".6" x="185.17" y="46.17" fill="#c8ccd1" rx=".3"/>
	<rect width="15" height=".6" x="178.73" y="44.37" fill="#c8ccd1" rx=".3"/>
	<rect width="5.7" height=".6" x="194.03" y="44.37" fill="#c8ccd1" rx=".3"/>
	<rect width="21.3" height=".6" x="169.73" y="42.57" fill="#c8ccd1" rx=".3"/>
	<rect width="6.6" height=".6" x="192.53" y="42.57" fill="#c8ccd1" rx=".3"/>
	<path fill="#a2a9b1" d="M163.13 18.27c-2.81.11-4.5 1.86-4.5 3.89v3.3c0 2.7-.9 5.1-3.9 5.1s-3.9-3-3.9-5.1v-7.2h-.6v7.8c0 2.65 1.5 5.1 4.5 5.1s4.5-2.1 4.5-5.1v-3.9c0-.3.24-3.3 3.9-3.3h.3v-.6z"/>
	<rect width="34.8" height="9.3" x="169.13" y="37.77" fill="#00af89" rx="1.2"/>
	<rect width="33.6" height="8.1" x="169.73" y="38.37" fill="#d5fdf4" rx=".6"/>
	<rect width="30" height=".6" x="171.83" y="39.57" fill="#14866d" rx=".3" transform="rotate(180 186.835 39.865)"/>
	<rect width="7.8" height=".6" x="194.03" y="43.17" fill="#14866d" rx=".3" transform="rotate(180 197.935 43.465)"/>
	<rect width="14.56" height=".6" x="187.27" y="44.97" fill="#14866d" rx=".3" transform="rotate(180 194.555 45.265)"/>
	<rect width="14.56" height=".6" x="171.83" y="44.97" fill="#14866d" rx=".3" transform="rotate(180 179.115 45.265)"/>
	<rect width="14.4" height=".6" x="178.43" y="43.17" fill="#14866d" rx=".3" transform="rotate(180 185.635 43.465)"/>
	<rect width="5.7" height=".6" x="171.83" y="43.17" fill="#14866d" rx=".3" transform="rotate(180 174.685 43.465)"/>
	<rect width="21.3" height=".6" x="180.53" y="41.37" fill="#14866d" rx=".3" transform="rotate(180 191.185 41.665)"/>
	<path fill="#14866d" d="M172.73 42h6.6c.17 0-.3-.14-.3-.3 0-.17.47-.3.3-.3h-6.6a.3.3 0 0 0-.3.3.31.31 0 0 0 .3.3"/>
	<path fill="#fef6e7" d="m176.08 30.85-3.44 4.48-.47.27-2.16-3.74.47-.27z"/>
	<path fill="#54595d" d="m174.3 33.17 1.78-2.32-2.9.38z"/>
	<path fill="#ff6e6e" d="M146.67 45.34a1.43 1.43 0 0 0-.53 2l.72 1.25a1.45 1.45 0 0 0 2 .53L150.7 48l-2.16-3.74z"/>
	<path fill="#c8ccd1" d="m148.548 44.251 1.871-1.08 2.16 3.742-1.87 1.08z"/>
	<path fill="#00af89" d="m172.64 35.33-20.07 11.59-2.16-3.74 20.07-11.59a.8.8 0 0 0-.11.89.81.81 0 0 0 .83.36.75.75 0 0 0 .72 1.24.81.81 0 0 0-.11.9.8.8 0 0 0 .83.35"/>
</svg>
