<svg xmlns="http://www.w3.org/2000/svg" viewBox="0 0 216 64">
	<path fill="#fc3" d="M147.5 6.78 121 10a7 7 0 0 0-6.37 6.61 7 7 0 0 0-7.78-4.88L80.29 15a1.78 1.78 0 0 0-1.55 2l4.72 38.47a1.79 1.79 0 0 0 2 1.55l67.21-8.25a1.78 1.78 0 0 0 1.55-2l-4.73-38.44a1.78 1.78 0 0 0-1.99-1.55"/>
	<path fill="#ff9500" d="m115.85 52.41 6.19-.76.11.88a.45.45 0 0 1-.39.5l-5.31.65a.44.44 0 0 1-.49-.39z"/>
	<path fill="#eaecf0" d="m120.549 10.086 26.5-3.254a.89.89 0 0 1 .992.775l4.941 40.237-34.044 4.18-4.235-34.49a6.68 6.68 0 0 1 5.846-7.448"/>
	<path fill="#eaecf0" d="m80.73 15 26.09-3.21c3.91-.48 7.41 1.86 7.89 5.77L118.94 52l-34 4.18L80 16a.88.88 0 0 1 .73-1"/>
	<path fill="#fff" d="m118.5 52.08-32.754 4.022-4.887-39.801a.45.45 0 0 1 .392-.501l25.677-3.153a6.68 6.68 0 0 1 7.445 5.816zm3.023-41.223 25.2-3.095a.45.45 0 0 1 .502.392l4.887 39.801-32.754 4.022-4.073-33.17a7.13 7.13 0 0 1 6.208-7.947z"/>
	<path fill="#ac6600" d="m84.355 51.782 31.394-3.855a2.67 2.67 0 0 1 2.975 2.325l.217 1.766-34.044 4.18z"/>
	<path fill="#ac6600" d="m152.999 47.846-34.045 4.18-.217-1.767a2.67 2.67 0 0 1 2.309-3.024l31.404-3.856z"/>
	<path fill="#c8ccd1" d="m134 11.12 10.21-1.26a.43.43 0 0 1 .47.36.42.42 0 0 1-.36.46l-10.22 1.26a.42.42 0 0 1-.46-.36.41.41 0 0 1 .36-.46m-13.79 1.69 12.43-1.52a.41.41 0 0 1 .46.36.43.43 0 0 1-.36.46l-12.43 1.52a.41.41 0 0 1-.46-.36.42.42 0 0 1 .36-.46m.35 2.74 7.46-.92a.41.41 0 0 1 .46.36.42.42 0 0 1-.36.46l-7.46.92a.42.42 0 0 1-.46-.36.4.4 0 0 1 .36-.46m8.82-1.09 13-1.59a.4.4 0 0 1 .46.36.41.41 0 0 1-.36.46l-13 1.59a.41.41 0 0 1-.46-.36.41.41 0 0 1 .36-.46m-8.49 3.82 14.63-1.79a.42.42 0 0 1 .47.36.43.43 0 0 1-.36.46L121 19.1a.42.42 0 0 1-.47-.36.43.43 0 0 1 .36-.46m22.9-2.81-6.9.85a.41.41 0 0 0-.36.46.41.41 0 0 0 .46.36l6.9-.85a.41.41 0 0 0 .36-.46.4.4 0 0 0-.46-.36"/>
	<path fill="#ac6600" d="m121.23 21 24-2.95a.4.4 0 0 1 .46.36.41.41 0 0 1-.36.46l-24 2.95a.41.41 0 0 1-.46-.36.41.41 0 0 1 .36-.46m6.41 2 5.8-.71a.41.41 0 0 1 .46.36.41.41 0 0 1-.36.46l-5.8.71a.4.4 0 0 1-.46-.36.41.41 0 0 1 .36-.46m7.16-.87 9.66-1.19a.43.43 0 0 1 .47.36.42.42 0 0 1-.36.46L134.9 23a.41.41 0 0 1-.46-.36.41.41 0 0 1 .36-.51m-13.23 1.62 4.69-.57a.4.4 0 0 1 .46.36.41.41 0 0 1-.36.46l-4.69.57a.4.4 0 0 1-.46-.36.41.41 0 0 1 .36-.46m.33 2.74L142.6 24a.4.4 0 0 1 .46.36.41.41 0 0 1-.36.46L122 27.31a.41.41 0 0 1-.46-.36.42.42 0 0 1 .36-.46"/>
	<rect width="9.45" height=".83" x="121.84" y="28.7" fill="#c8ccd1" rx=".41" transform="rotate(-7 126.556 29.075)"/>
	<rect width="15.01" height=".83" x="131.75" y="27.14" fill="#c8ccd1" rx=".41" transform="rotate(-7 139.285 27.556)"/>
	<rect width="25.02" height=".83" x="122.19" y="31.03" fill="#c8ccd1" rx=".41" transform="rotate(-7 134.698 31.46)"/>
	<rect width="12.23" height=".83" x="135.26" y="32.99" fill="#c8ccd1" rx=".41" transform="rotate(-7 141.388 33.428)"/>
	<rect width="12.23" height=".83" x="122.57" y="34.55" fill="#c8ccd1" rx=".41" transform="rotate(-7 128.658 34.947)"/>
	<rect width="22.8" height=".83" x="122.87" y="36.64" fill="#c8ccd1" rx=".41" transform="rotate(-7 134.276 37.014)"/>
	<path fill="#c8ccd1" d="m123.65 40.72 4.14-.51a.42.42 0 0 1 .47.36.43.43 0 0 1-.36.46l-4.15.51a.42.42 0 0 1-.46-.36.4.4 0 0 1 .36-.46m5.51-.72 5.8-.71a.41.41 0 0 1 .46.36.41.41 0 0 1-.36.46l-5.8.71a.41.41 0 0 1-.46-.36.41.41 0 0 1 .36-.46m7.17-.84 10.22-1.25a.41.41 0 0 1 .46.36.42.42 0 0 1-.36.46L136.43 40a.41.41 0 0 1-.46-.36.41.41 0 0 1 .36-.48M124 43.45l24-2.94a.41.41 0 0 1 .46.36.42.42 0 0 1-.36.46l-24 3a.42.42 0 0 1-.46-.36.42.42 0 0 1 .36-.52m-22 3.81L112.25 46a.4.4 0 0 0 .36-.46.42.42 0 0 0-.46-.36l-10.21 1.26a.41.41 0 0 0-.36.46.4.4 0 0 0 .42.36M88.24 49l12.42-1.52A.41.41 0 0 0 101 47a.4.4 0 0 0-.46-.36l-12.4 1.49a.41.41 0 0 0-.36.46.41.41 0 0 0 .46.41m-.33-2.78 7.46-.92a.41.41 0 0 0 .36-.46.41.41 0 0 0-.46-.36l-7.46.91a.43.43 0 0 0-.36.47.43.43 0 0 0 .46.36m8.82-1.09 13-1.59a.41.41 0 0 0 .36-.46.41.41 0 0 0-.46-.36l-13 1.59a.42.42 0 0 0-.36.46.41.41 0 0 0 .46.36m-9.15-1.65 14.63-1.8a.4.4 0 0 0 .36-.46.42.42 0 0 0-.46-.36l-14.63 1.8a.41.41 0 0 0-.36.46.4.4 0 0 0 .46.36m22.9-2.81-6.91.85a.42.42 0 0 1-.46-.36.4.4 0 0 1 .36-.46l6.91-.85a.41.41 0 0 1 .46.36.43.43 0 0 1-.36.46m-23.24.07 24-2.94a.42.42 0 0 0 .36-.47.42.42 0 0 0-.46-.36l-24 3a.41.41 0 0 0-.36.46.41.41 0 0 0 .46.31M93 37.26l5.8-.71a.42.42 0 0 0 .36-.46.41.41 0 0 0-.46-.36l-5.8.71a.41.41 0 0 0-.36.46.4.4 0 0 0 .46.36m7.14-.88 9.66-1.18a.41.41 0 0 0 .36-.46.4.4 0 0 0-.46-.36l-9.7 1.18a.41.41 0 0 0-.36.46.41.41 0 0 0 .5.36M86.91 38l4.69-.58A.41.41 0 0 0 92 37a.4.4 0 0 0-.46-.36l-4.69.58a.4.4 0 0 0-.36.46.41.41 0 0 0 .42.32m-.34-2.73 20.7-2.54a.41.41 0 0 0 .36-.46.41.41 0 0 0-.46-.36l-20.7 2.54a.41.41 0 0 0-.36.46.41.41 0 0 0 .46.36"/>
	<rect width="9.45" height=".83" x="85.74" y="31.19" fill="#c8ccd1" rx=".41" transform="rotate(-7 90.46 31.626)"/>
	<rect width="15.01" height=".83" x="95.64" y="29.63" fill="#c8ccd1" rx=".41" transform="rotate(-7 103.112 30.02)"/>
	<rect width="25.02" height=".83" x="85.28" y="26.95" fill="#c8ccd1" rx=".41" transform="rotate(-7 97.775 27.397)"/>
	<rect width="12.23" height=".83" x="97.68" y="23.44" fill="#c8ccd1" rx=".41" transform="rotate(-7 103.82 23.828)"/>
	<rect width="12.23" height=".83" x="84.99" y="25" fill="#c8ccd1" rx=".41" transform="rotate(-7 91.085 25.428)"/>
	<rect width="22.8" height=".83" x="84.61" y="21.62" fill="#c8ccd1" rx=".41" transform="rotate(-7 96.051 22.04)"/>
	<path fill="#c8ccd1" d="m84.82 21 4.15-.5a.42.42 0 0 0 .36-.47.43.43 0 0 0-.46-.36l-4.15.51a.42.42 0 0 0-.36.46.41.41 0 0 0 .46.36m5.51-.63 5.8-.71a.41.41 0 0 0 .36-.46.4.4 0 0 0-.46-.36l-5.8.71a.41.41 0 0 0-.36.46.42.42 0 0 0 .46.36m7.18-.88 10.21-1.26a.4.4 0 0 0 .36-.46.42.42 0 0 0-.46-.36L97.4 18.67a.42.42 0 0 0-.36.46.43.43 0 0 0 .47.36m-13.03-1.18 24-2.95a.41.41 0 0 0 .36-.46.41.41 0 0 0-.46-.36l-24 2.95A.41.41 0 0 0 84 18a.4.4 0 0 0 .48.31"/>
	<path fill="#fff" d="m205.9 12.45-5.36-6.38h-.12l-32.77-2.88a1.41 1.41 0 0 0-1.53 1.29l-4.39 50.19-.17 1.95c.84.08.94-1 1.78-1s.74 1.18 1.58 1.26.93-1 1.77-1 .74 1.19 1.57 1.26.94-1 1.77-1 .74 1.19 1.58 1.26.94-1 1.77-1 .74 1.19 1.58 1.27.93-1 1.77-1 .74 1.19 1.58 1.26.93-1 1.77-1 .73 1.19 1.57 1.26.93-1 1.77-1 .74 1.19 1.58 1.26.93-1 1.76-1 .74 1.18 1.58 1.26.93-1 1.77-1 .73 1.19 1.57 1.26.93-1 1.77-1 .74 1.19 1.57 1.26.94-1 1.77-1 .74 1.19 1.58 1.26.93-1 1.77-1 .74 1.18 1.57 1.26l.17-2z"/>
	<path fill="#fee7e6" d="M168 4.34a.75.75 0 0 0-.77.7l-1.92 21.56 37.93 3.31 1.5-17.09L200 7.15z"/>
	<rect width="33.29" height="1.12" x="165.84" y="52.47" fill="#b32424" rx=".56" transform="rotate(5 182.455 53.074)"/>
	<rect width="33.29" height="1.12" x="165.84" y="52.47" fill="#b32424" rx=".56" transform="rotate(5 182.455 53.074)"/>
	<rect width="33.29" height="1.12" x="166.05" y="50.01" fill="#b32424" rx=".56" transform="rotate(5 182.688 50.54)"/>
	<rect width="33.29" height="1.12" x="166.48" y="45.09" fill="#b32424" rx=".56" transform="rotate(5 183.165 45.7)"/>
	<rect width="5.65" height="1.12" x="166.32" y="46.35" fill="#b32424" rx=".56" transform="rotate(5 169.104 46.887)"/>
	<rect width="5.65" height="1.12" x="178.22" y="39.95" fill="#b32424" rx=".56" transform="rotate(5 180.988 40.517)"/>
	<rect width="7.89" height="1.12" x="191.63" y="48.66" fill="#b32424" rx=".56" transform="rotate(5 195.594 49.173)"/>
	<rect width="10.71" height="1.12" x="189.24" y="43.61" fill="#b32424" rx=".56" transform="rotate(5 194.572 44.17)"/>
	<rect width="16.94" height="1.12" x="173.33" y="47.45" fill="#b32424" rx=".56" transform="rotate(5 181.776 48.055)"/>
	<rect width="21.17" height="1.12" x="166.72" y="42.1" fill="#b32424" rx=".56" transform="rotate(5 177.294 42.629)"/>
	<rect width="9.88" height="1.12" x="166.96" y="39.15" fill="#b32424" rx=".56" transform="rotate(5 171.886 39.652)"/>
	<rect width="11.2" height="2.24" x="167.61" y="31.14" fill="#b32424" rx="1.12" transform="rotate(5 173.17 32.253)"/>
	<rect width="17.92" height="1.12" x="167.35" y="34.87" fill="#ff6e6e" rx=".56" transform="rotate(5 176.292 35.444)"/>
	<rect width="14.94" height="1.12" x="185.23" y="40.97" fill="#b32424" rx=".56" transform="rotate(5 192.734 41.496)"/>
	<path fill="#c8ccd1" d="m205.77 13.83-6-.52a1.26 1.26 0 0 1-1.15-1.37l.53-6 1.45.12 5.29 6.31z"/>
	<path fill="#c8ccd1" d="m205.9 12.45-5.36-6.38h-.12l-32.77-2.88a1.41 1.41 0 0 0-1.53 1.29l-4.39 50.19-.17 1.95c.84.08.94-1 1.78-1s.74 1.18 1.58 1.26.93-1 1.77-1 .74 1.19 1.57 1.26.94-1 1.77-1 .74 1.19 1.58 1.26.94-1 1.77-1 .74 1.19 1.58 1.27.93-1 1.77-1 .74 1.19 1.58 1.26.93-1 1.77-1 .73 1.19 1.57 1.26.93-1 1.77-1 .74 1.19 1.58 1.26.93-1 1.76-1 .74 1.18 1.58 1.26.93-1 1.77-1 .73 1.19 1.57 1.26.93-1 1.77-1 .74 1.19 1.57 1.26.94-1 1.77-1 .74 1.19 1.58 1.26.93-1 1.77-1 .74 1.18 1.57 1.26l.17-2zm-5.65 45.31c-.84-.07-.94 1-1.77 1s-.74-1.19-1.58-1.26-.93 1-1.77 1-.74-1.19-1.57-1.27-.94 1-1.77 1-.74-1.18-1.58-1.26-.93 1-1.77 1-.73-1.19-1.57-1.26-.93 1-1.77 1-.74-1.19-1.57-1.26-.94 1-1.77 1-.76-1.37-1.58-1.45-.93 1-1.77 1-.74-1.19-1.57-1.26-.94 1-1.77 1-.74-1.19-1.58-1.26-.93 1-1.77 1-.74-1.19-1.58-1.26-.93 1-1.77 1-.74-1.19-1.58-1.27-.93 1.05-1.77 1-.74-1.19-1.57-1.26-.51-.89-.51-.89l4.2-48a1.42 1.42 0 0 1 1.53-1.29l31.77 2.78 4.34 5.17-3.9 44.54s.2.83-.63.76"/>
	<rect width="1" height="11.95" x="184.04" y="10.69" fill="#ff6e6e" rx=".45" transform="rotate(95 184.542 16.658)"/>
	<rect width="1" height="11.95" x="184.04" y="10.69" fill="#ff6e6e" rx=".45" transform="rotate(-175 184.542 16.66)"/>
	<rect width="1" height="11.95" x="184.04" y="10.69" fill="#ff6e6e" rx=".45" transform="rotate(-130 184.542 16.662)"/>
	<rect width="1" height="11.95" x="184.04" y="10.69" fill="#ff6e6e" rx=".45" transform="rotate(140 184.543 16.66)"/>
	<path fill="#eaecf0" d="M31.1 18.27H26a3.9 3.9 0 0 0-3.9 3.9v3c0 6-3.9 5.4-3.9 5.4v.6h12.9z"/>
	<path fill="#a2a9b1" d="M14.3 6H11a3 3 0 0 0-3 3v5.4h6.3z"/>
	<path fill="#eaecf0" d="M11 6.57h3.3v7.2H8.6V9A2.4 2.4 0 0 1 11 6.57"/>
	<path fill="#a2a9b1" d="M45.21 6H11.3v.6c1.2 0 2.4.6 2.4 3v16.5c0 2.65 1.5 5.1 4.5 5.1s4.5-2.1 4.5-5.1v-3.9c0-.3.23-3.3 3.9-3.3h22.5v-9A3.77 3.77 0 0 0 45.21 6"/>
	<path fill="#fff" d="M44.91 6.57H12.8s1.5.3 1.5 3.3v15.6c0 2.1.9 5.1 3.9 5.1s3.9-2.4 3.9-5.1v-3.3c0-2.1 1.8-3.9 4.8-3.9h21.6v-8.12a3.29 3.29 0 0 0-3.59-3.58"/>
	<path fill="#a2a9b1" d="M18.2 30.57h12.6v.6H18.2z"/>
	<path fill="#a2a9b1" d="M61.41 18.27H27.5v.6a3.43 3.43 0 0 1 3 3.6v29.1a5.07 5.07 0 0 0 5.1 4.8h29.7V22.15a4.12 4.12 0 0 0-3.89-3.88"/>
	<path fill="#fff" d="M61.11 18.87H29a3.23 3.23 0 0 1 2.1 3.3V51a4.57 4.57 0 0 0 4.78 4.79H64.7V22.45a3.58 3.58 0 0 0-3.59-3.58"/>
	<path fill="#a2a9b1" d="M65 56.37H36.8v-.6s2.4-.9 2.4-3v-4.2h29.4a.6.6 0 0 1 .6.6v3a4.2 4.2 0 0 1-4.2 4.2"/>
	<path fill="#f8f9fa" d="M65 55.77H38a3.48 3.48 0 0 0 1.8-3v-3.6h28.5a.29.29 0 0 1 .3.3v2.7a3.6 3.6 0 0 1-3.6 3.6"/>
	<rect width="18" height=".6" x="15.8" y="8.67" fill="#c8ccd1" rx=".3"/>
	<rect width="12" height=".6" x="34.4" y="8.67" fill="#c8ccd1" rx=".3"/>
	<rect width="15" height=".6" x="15.8" y="12.27" fill="#c8ccd1" rx=".3"/>
	<rect width="26.4" height=".6" x="15.8" y="14.07" fill="#c8ccd1" rx=".3"/>
	<rect width="30.6" height=".6" x="15.8" y="15.87" fill="#c8ccd1" rx=".3"/>
	<rect width="14.4" height=".6" x="31.4" y="12.27" fill="#c8ccd1" rx=".3"/>
	<rect width="10.8" height=".6" x="15.8" y="10.47" fill="#c8ccd1" rx=".3"/>
	<rect width="9" height=".6" x="27.5" y="10.47" fill="#c8ccd1" rx=".3"/>
	<rect width="6.6" height=".6" x="37.7" y="10.47" fill="#c8ccd1" rx=".3"/>
	<rect width="7.5" height=".6" x="15.8" y="19.47" fill="#c8ccd1" rx=".3"/>
	<rect width="6.6" height=".6" x="15.8" y="21.27" fill="#c8ccd1" rx=".3"/>
	<rect width="6.6" height=".6" x="15.8" y="23.07" fill="#c8ccd1" rx=".3"/>
	<rect width="6.6" height=".6" x="15.8" y="24.87" fill="#c8ccd1" rx=".3"/>
	<rect width="6.6" height=".6" x="15.8" y="27.57" fill="#c8ccd1" rx=".3"/>
	<rect width="30" height=".6" x="33.2" y="21.27" fill="#c8ccd1" rx=".3"/>
	<rect width="7.8" height=".6" x="33.2" y="24.87" fill="#c8ccd1" rx=".3"/>
	<rect width="14.56" height=".6" x="33.2" y="26.67" fill="#c8ccd1" rx=".3"/>
	<rect width="14.56" height=".6" x="48.64" y="26.67" fill="#c8ccd1" rx=".3"/>
	<rect width="15" height=".6" x="42.2" y="24.87" fill="#c8ccd1" rx=".3"/>
	<rect width="5.7" height=".6" x="57.5" y="24.87" fill="#c8ccd1" rx=".3"/>
	<rect width="21.3" height=".6" x="33.2" y="23.07" fill="#c8ccd1" rx=".3"/>
	<rect width="6.6" height=".6" x="56" y="23.07" fill="#c8ccd1" rx=".3"/>
	<rect width="30" height=".6" x="33.2" y="35.37" fill="#c8ccd1" rx=".3" transform="rotate(-180 48.2 35.665)"/>
	<rect width="7.8" height=".6" x="55.4" y="31.77" fill="#c8ccd1" rx=".3" transform="rotate(-180 59.3 32.065)"/>
	<rect width="14.56" height=".6" x="48.64" y="29.97" fill="#c8ccd1" rx=".3" transform="rotate(180 55.92 30.265)"/>
	<rect width="14.56" height=".6" x="33.2" y="29.97" fill="#c8ccd1" rx=".3" transform="rotate(180 40.48 30.265)"/>
	<rect width="14.4" height=".6" x="39.8" y="31.77" fill="#c8ccd1" rx=".3" transform="rotate(-180 47 32.065)"/>
	<rect width="5.7" height=".6" x="33.2" y="31.77" fill="#c8ccd1" rx=".3" transform="rotate(180 36.05 32.065)"/>
	<rect width="21.3" height=".6" x="41.9" y="33.57" fill="#c8ccd1" rx=".3" transform="rotate(-180 52.55 33.865)"/>
	<path fill="#c8ccd1" d="M34.1 33.57h6.6c.17 0-.3.13-.3.3 0 .16.47.3.3.3h-6.6a.3.3 0 0 1-.3-.3.29.29 0 0 1 .3-.3"/>
	<rect width="30" height=".6" x="33.2" y="40.77" fill="#c8ccd1" rx=".3"/>
	<rect width="7.8" height=".6" x="33.2" y="44.37" fill="#c8ccd1" rx=".3"/>
	<rect width="14.56" height=".6" x="33.2" y="46.17" fill="#c8ccd1" rx=".3"/>
	<rect width="14.56" height=".6" x="48.64" y="46.17" fill="#c8ccd1" rx=".3"/>
	<rect width="15" height=".6" x="42.2" y="44.37" fill="#c8ccd1" rx=".3"/>
	<rect width="5.7" height=".6" x="57.5" y="44.37" fill="#c8ccd1" rx=".3"/>
	<rect width="21.3" height=".6" x="33.2" y="42.57" fill="#c8ccd1" rx=".3"/>
	<rect width="6.6" height=".6" x="56" y="42.57" fill="#c8ccd1" rx=".3"/>
	<path fill="#a2a9b1" d="M26.6 18.27c-2.82.11-4.5 1.86-4.5 3.89v3.3c0 2.7-.9 5.1-3.9 5.1s-3.9-3-3.9-5.1v-7.2h-.6v7.8c0 2.65 1.5 5.1 4.5 5.1s4.5-2.1 4.5-5.1v-3.9c0-.3.23-3.3 3.9-3.3h.3v-.6z"/>
	<rect width="34.8" height="9.3" x="32.6" y="37.77" fill="#00af89" rx="1.2"/>
	<rect width="33.6" height="8.1" x="33.2" y="38.37" fill="#d5fdf4" rx=".6"/>
	<rect width="30" height=".6" x="34.7" y="39.57" fill="#14866d" rx=".3"/>
	<rect width="7.8" height=".6" x="34.7" y="43.17" fill="#14866d" rx=".3"/>
	<rect width="14.56" height=".6" x="34.7" y="44.97" fill="#14866d" rx=".3"/>
	<rect width="14.56" height=".6" x="50.14" y="44.97" fill="#14866d" rx=".3"/>
	<rect width="14.4" height=".6" x="43.7" y="43.17" fill="#14866d" rx=".3"/>
	<rect width="5.7" height=".6" x="59" y="43.17" fill="#14866d" rx=".3"/>
	<rect width="21.3" height=".6" x="34.7" y="41.37" fill="#14866d" rx=".3"/>
	<path fill="#14866d" d="M63.8 42h-6.6c-.17 0 .3-.14.3-.3 0-.17-.47-.3-.3-.3h6.6a.29.29 0 0 1 .3.3.3.3 0 0 1-.3.3"/>
	<path fill="#fef6e7" d="m39.55 30.85-3.45 4.48-.46.27-2.16-3.74.46-.27z"/>
	<path fill="#54595d" d="m37.77 33.17 1.78-2.32-2.9.38z"/>
	<path fill="#ff6e6e" d="M10.14 45.34a1.43 1.43 0 0 0-.53 2l.72 1.25a1.44 1.44 0 0 0 2 .53L14.17 48 12 44.26z"/>
	<path fill="#c8ccd1" d="m12.011 44.261 1.87-1.08 2.16 3.742-1.87 1.08z"/>
	<path fill="#00af89" d="M36.1 35.33 16 46.92l-2.16-3.74 20.1-11.59a.81.81 0 0 0-.1.89.8.8 0 0 0 .82.36.8.8 0 0 0-.1.89.78.78 0 0 0 .82.35.82.82 0 0 0-.1.9.78.78 0 0 0 .82.35"/>
</svg>
