<svg xmlns="http://www.w3.org/2000/svg" viewBox="0 0 128 128">
    <path d="M88.82 5.73l-28.69 7.68a7.79 7.79 0 00-6 8.27 7.79 7.79 0 00-9.32-4.17L16.14 25.2a2 2 0 00-1.4 2.43l11.15 41.59a2 2 0 002.43 1.4L101 51.15a2 2 0 001.4-2.42L91.25 7.13a2 2 0 00-2.43-1.4z" fill="#fc3" fill-rule="evenodd"/>
    <path d="M61.05 60.83L67.74 59l.26 1a.5.5 0 01-.35.61l-5.74 1.53a.49.49 0 01-.6-.35z" fill="#ff9500" fill-rule="evenodd"/>
    <path d="M59.938 13.51l28.81-7.722a1.004 1.004 0 011.23.71l11.7 43.65-36.987 9.914-10.03-37.422a7.462 7.462 0 015.275-9.14z" fill="#eaecf0"/>
    <path d="M16.62 25.07l28.21-7.56c4.23-1.13 8.44.9 9.57 5.13l10 37.29-36.82 9.87-11.66-43.51a1 1 0 01.7-1.22z" fill="#eaecf0" fill-rule="evenodd"/>
    <path d="M63.921 60.064l-35.381 9.48-11.53-43.032a.5.5 0 01.353-.612l27.722-7.428a7.42 7.42 0 019.087 5.247l9.74 36.348z" fill="#fff"/>
    <path d="M60.389 14.38L88.12 6.947a.49.49 0 01.6.347l11.53 43.032-35.382 9.48-9.737-36.338a7.42 7.42 0 015.247-9.087z" fill="#fff"/>
    <path d="M26.303 65.021l33.953-9.097a3 3 0 013.674 2.121l.517 1.932-36.85 9.874-1.294-4.83z" fill="#ac6600"/>
    <path d="M101.216 50.072l-36.821 9.866-.518-1.931a3 3 0 012.121-3.675l33.924-9.09 1.294 4.83z" fill="#ac6600"/>
    <path d="M74.65 12.59l11-3a.46.46 0 01.57.32.47.47 0 01-.33.57l-11.05 3a.46.46 0 01-.56-.33.46.46 0 01.37-.56z" fill="#c8ccd1" fill-rule="evenodd"/>
    <path d="M59.73 16.59L73.16 13a.46.46 0 01.57.32.46.46 0 01-.33.56L60 17.47a.46.46 0 01-.57-.32.46.46 0 01.3-.56z" fill="#c8ccd1" fill-rule="evenodd"/>
    <path d="M60.53 19.54l8.07-2.16a.46.46 0 01.56.33.46.46 0 01-.33.56l-8.06 2.16a.46.46 0 01-.56-.33.46.46 0 01.32-.56z" fill="#c8ccd1" fill-rule="evenodd"/>
    <path d="M70.07 17l14-3.76a.45.45 0 01.56.32.45.45 0 01-.32.56l-14 3.76a.46.46 0 01-.57-.32.46.46 0 01.33-.56z" fill="#c8ccd1" fill-rule="evenodd"/>
    <path d="M61.32 22.5l15.83-4.24a.46.46 0 01.56.33.46.46 0 01-.33.56l-15.82 4.24a.46.46 0 01-.56-.33.46.46 0 01.32-.56z" fill="#c8ccd1" fill-rule="evenodd"/>
    <path d="M86.09 15.87l-7.47 2a.46.46 0 00-.33.56.46.46 0 00.57.32l7.46-2a.46.46 0 00.33-.56.46.46 0 00-.56-.32z" fill="#c8ccd1" fill-rule="evenodd"/>
    <path d="M62.12 25.46l26-7a.46.46 0 01.56.33.46.46 0 01-.32.56l-26 7a.47.47 0 01-.57-.33.46.46 0 01.33-.56z" fill="#ac6600" fill-rule="evenodd"/>
    <path d="M69.47 26.66L75.75 25a.46.46 0 01.56.32.45.45 0 01-.33.56l-6.27 1.69a.46.46 0 01-.56-.33.45.45 0 01.32-.58z" fill="#ac6600" fill-rule="evenodd"/>
    <path d="M77.22 24.58l10.45-2.8a.46.46 0 01.56.33.46.46 0 01-.32.56l-10.45 2.8a.45.45 0 01-.56-.33.46.46 0 01.32-.56z" fill="#ac6600" fill-rule="evenodd"/>
    <path d="M62.91 28.42L68 27.06a.45.45 0 01.56.32.45.45 0 01-.32.56l-5.09 1.36a.45.45 0 01-.56-.32.45.45 0 01.32-.56z" fill="#ac6600" fill-rule="evenodd"/>
    <path d="M63.7 31.38l22.39-6a.46.46 0 01.56.32.45.45 0 01-.32.56l-22.39 6a.45.45 0 01-.56-.32.45.45 0 01.32-.56z" fill="#ac6600" fill-rule="evenodd"/>
    <rect x="63.99" y="33.08" width="10.5" height=".92" rx=".46" transform="rotate(-15 69.228 33.533)" fill="#c8ccd1"/>
    <rect x="74.62" y="29.4" width="16.68" height=".92" rx=".46" transform="rotate(-15 82.964 29.855)" fill="#c8ccd1"/>
    <rect x="64.65" y="34.39" width="27.8" height=".92" rx=".46" transform="rotate(-15 78.56 34.839)" fill="#c8ccd1"/>
    <rect x="79.41" y="35.51" width="13.59" height=".92" rx=".46" transform="rotate(-15 86.217 35.962)" fill="#c8ccd1"/>
    <rect x="65.68" y="39.19" width="13.59" height=".92" rx=".46" transform="rotate(-15 72.149 39.463)" fill="#c8ccd1"/>
    <rect x="66.28" y="40.63" width="25.33" height=".92" rx=".46" transform="rotate(-15 78.938 41.07)" fill="#c8ccd1"/>
    <path d="M67.83 46.76l4.48-1.2a.45.45 0 01.56.32.46.46 0 01-.32.57l-4.49 1.2a.46.46 0 01-.56-.33.45.45 0 01.33-.56z" fill="#c8ccd1" fill-rule="evenodd"/>
    <path d="M73.78 45.16l6.27-1.68a.47.47 0 01.57.33.46.46 0 01-.33.56L74 46.05a.45.45 0 01-.56-.32.46.46 0 01.34-.57z" fill="#c8ccd1" fill-rule="evenodd"/>
    <path d="M81.54 43.08l11-3a.46.46 0 01.56.33.46.46 0 01-.33.56l-11 3a.46.46 0 01-.57-.32.47.47 0 01.34-.57z" fill="#c8ccd1" fill-rule="evenodd"/>
    <path d="M68.61 49.72l26-7a.46.46 0 01.56.33.45.45 0 01-.32.56l-26 7a.47.47 0 01-.57-.33.46.46 0 01.33-.56z" fill="#c8ccd1" fill-rule="evenodd"/>
    <path d="M45.06 57.3l11-3a.46.46 0 00.33-.56.47.47 0 00-.57-.33l-11 3a.46.46 0 00-.33.56.47.47 0 00.57.33z" fill="#c8ccd1" fill-rule="evenodd"/>
    <path d="M30.14 61.3l13.43-3.6a.47.47 0 00.33-.57.46.46 0 00-.57-.32l-13.43 3.6a.45.45 0 00-.32.56.46.46 0 00.56.33z" fill="#c8ccd1" fill-rule="evenodd"/>
    <path d="M29.36 58.34l8.06-2.17a.45.45 0 00.32-.56.45.45 0 00-.56-.32l-8.06 2.16a.46.46 0 00-.33.56.47.47 0 00.57.33z" fill="#c8ccd1" fill-rule="evenodd"/>
    <path d="M38.89 55.78l14-3.76a.46.46 0 00.33-.56.46.46 0 00-.56-.33l-14 3.76a.46.46 0 00-.33.56.46.46 0 00.56.33z" fill="#c8ccd1" fill-rule="evenodd"/>
    <path d="M28.56 55.38l15.82-4.24a.46.46 0 00.33-.56.46.46 0 00-.56-.33l-15.82 4.24a.46.46 0 00-.33.56.46.46 0 00.56.33z" fill="#c8ccd1" fill-rule="evenodd"/>
    <path d="M53.32 48.74l-7.46 2a.46.46 0 01-.57-.32.46.46 0 01.33-.56l7.47-2a.46.46 0 01.56.33.46.46 0 01-.33.55z" fill="#c8ccd1" fill-rule="evenodd"/>
    <path d="M27.77 52.42l26-7a.45.45 0 00.32-.56.46.46 0 00-.56-.33l-26 7a.46.46 0 00-.32.56.46.46 0 00.56.33z" fill="#c8ccd1" fill-rule="evenodd"/>
    <path d="M33.54 47.7l6.27-1.7a.46.46 0 00.33-.56.46.46 0 00-.56-.33l-6.28 1.7a.46.46 0 00-.32.57.45.45 0 00.56.32z" fill="#c8ccd1" fill-rule="evenodd"/>
    <path d="M41.29 45.63l10.45-2.8a.46.46 0 00.32-.57.45.45 0 00-.56-.32l-10.45 2.8a.45.45 0 00-.32.56.46.46 0 00.56.33z" fill="#c8ccd1" fill-rule="evenodd"/>
    <path d="M27 49.46l5.08-1.36a.46.46 0 00.32-.56.46.46 0 00-.56-.33l-5.08 1.36a.46.46 0 00-.32.57.45.45 0 00.56.32z" fill="#c8ccd1" fill-rule="evenodd"/>
    <path d="M26.19 46.5l22.38-6a.45.45 0 00.32-.56.45.45 0 00-.56-.32L26 45.61a.47.47 0 00-.33.57.46.46 0 00.52.32z" fill="#c8ccd1" fill-rule="evenodd"/>
    <rect x="24.65" y="41.4" width="10.5" height=".92" rx=".46" transform="rotate(-15 29.917 41.88)" fill="#c8ccd1"/>
    <rect x="35.28" y="37.73" width="16.68" height=".92" rx=".46" transform="rotate(-15 43.615 38.197)" fill="#c8ccd1"/>
    <rect x="23.4" y="35.61" width="27.8" height=".92" rx=".46" transform="rotate(-15 37.29 36.05)" fill="#c8ccd1"/>
    <rect x="36.58" y="30.81" width="13.59" height=".92" rx=".46" transform="rotate(-15 43.167 31.147)" fill="#c8ccd1"/>
    <rect x="22.85" y="34.49" width="13.59" height=".92" rx=".46" transform="rotate(-15 29.63 34.965)" fill="#c8ccd1"/>
    <rect x="21.86" y="30.01" width="25.33" height=".92" rx=".46" transform="matrix(.97 -.26 .26 .97 -6.71 9.97)" fill="#c8ccd1"/>
    <path d="M22.06 31.12l4.49-1.2a.46.46 0 00.32-.57.45.45 0 00-.56-.32l-4.48 1.2a.46.46 0 00-.33.56.46.46 0 00.56.33z" fill="#c8ccd1" fill-rule="evenodd"/>
    <path d="M28 29.52l6.27-1.68a.46.46 0 00.33-.56.47.47 0 00-.57-.33l-6.27 1.68a.46.46 0 00-.32.57.45.45 0 00.56.32z" fill="#c8ccd1" fill-rule="evenodd"/>
    <path d="M35.78 27.44l11-3a.46.46 0 00.33-.56.46.46 0 00-.56-.32l-11.05 3a.46.46 0 00-.33.56.46.46 0 00.61.32z" fill="#c8ccd1" fill-rule="evenodd"/>
    <path d="M21.26 28.16l26-7a.46.46 0 00.33-.56.46.46 0 00-.56-.32l-26 7a.46.46 0 00-.32.57.45.45 0 00.55.31z" fill="#c8ccd1" fill-rule="evenodd"/>
    <path d="M119.85 71.29l-4.64-8h-.12l-35.3-9.46a1.57 1.57 0 00-1.93 1.11L63.37 109l-.56 2.1c.91.25 1.23-.95 2.13-.71s.58 1.44 1.49 1.68 1.22-1 2.12-.72.58 1.45 1.48 1.69 1.23-1 2.13-.72.58 1.44 1.48 1.69 1.22-1 2.13-.72.57 1.44 1.48 1.68 1.22-1 2.12-.72.58 1.45 1.48 1.69 1.22-1 2.13-.72.57 1.44 1.48 1.68 1.22-1 2.12-.72.58 1.45 1.48 1.69 1.22-1 2.12-.72.58 1.44 1.48 1.68 1.22-1 2.12-.72.58 1.45 1.48 1.69 1.22-1 2.12-.72.58 1.44 1.48 1.68 1.23-1 2.13-.71.58 1.44 1.48 1.68 1.22-1 2.12-.72.58 1.44 1.48 1.69l.56-2.11z" fill="#fff"/>
    <path d="M79.9 55.1a.81.81 0 00-1 .61l-6.19 23.23 40.86 11 4.94-18.42-4.06-7.11z" fill="#fee7e6" fill-rule="evenodd"/>
    <rect x="67.9" y="110.56" width="36.99" height="1.24" rx=".62" transform="rotate(15 86.387 111.184)" fill="#b32424"/>
    <rect x="67.9" y="110.56" width="36.99" height="1.24" rx=".62" transform="rotate(15 86.387 111.184)" fill="#b32424"/>
    <rect x="68.61" y="107.91" width="36.99" height="1.24" rx=".62" transform="rotate(15 87.12 108.537)" fill="#b32424"/>
    <rect x="70.04" y="102.6" width="36.99" height="1.24" rx=".62" transform="rotate(15 88.544 103.21)" fill="#b32424"/>
    <rect x="69.85" y="101.28" width="6.27" height="1.24" rx=".62" transform="rotate(15 72.993 101.897)" fill="#b32424"/>
    <rect x="84.1" y="96.57" width="6.27" height="1.24" rx=".62" transform="rotate(15 86.857 96.754)" fill="#b32424"/>
    <rect x="97.07" y="108.91" width="8.76" height="1.24" rx=".62" transform="rotate(15 101.471 109.545)" fill="#b32424"/>
    <rect x="95.41" y="103.2" width="11.9" height="1.24" rx=".62" transform="rotate(15 101.377 103.84)" fill="#b32424"/>
    <rect x="77.21" y="104.93" width="18.82" height="1.24" rx=".62" transform="rotate(15 86.222 105.068)" fill="#b32424"/>
    <rect x="70.98" y="98.21" width="23.52" height="1.24" rx=".62" transform="rotate(15 82.752 98.835)" fill="#b32424"/>
    <rect x="71.9" y="93.94" width="10.98" height="1.24" rx=".62" transform="rotate(15 77.397 94.555)" fill="#b32424"/>
    <rect x="74.04" y="85.42" width="12.44" height="2.49" rx="1.24" transform="rotate(15 80.258 86.645)" fill="#b32424"/>
    <rect x="73.08" y="90.1" width="19.91" height="1.24" rx=".62" transform="rotate(15 83.036 90.722)" fill="#ff6e6e"/>
    <rect x="91.5" y="99.94" width="16.6" height="1.24" rx=".62" transform="rotate(15 99.787 100.572)" fill="#b32424"/>
    <path d="M119.45 72.78L113 71.05a1.4 1.4 0 01-1-1.72l1.73-6.46 1.56.42 4.58 7.93z" fill="#c8ccd1" fill-rule="evenodd"/>
    <path d="M119.85 71.29l-4.64-8h-.12l-35.3-9.46a1.57 1.57 0 00-1.93 1.11L63.37 109l-.56 2.1c.91.25 1.23-.95 2.13-.71s.58 1.44 1.49 1.68 1.22-1 2.12-.72.58 1.45 1.48 1.69 1.23-1 2.13-.72.58 1.44 1.48 1.69 1.22-1 2.13-.72.57 1.44 1.48 1.68 1.22-1 2.12-.72.58 1.45 1.48 1.69 1.22-1 2.13-.72.57 1.44 1.48 1.68 1.22-1 2.12-.72.58 1.45 1.48 1.69 1.22-1 2.12-.72.58 1.44 1.48 1.68 1.22-1 2.12-.72.58 1.45 1.48 1.69 1.22-1 2.12-.72.58 1.44 1.48 1.68 1.23-1 2.13-.71.58 1.44 1.48 1.68 1.22-1 2.12-.72.58 1.44 1.48 1.69l.56-2.11zm-14.93 48.49c-.9-.24-1.22 1-2.12.72s-.58-1.45-1.48-1.69-1.22 1-2.12.72-.58-1.44-1.48-1.68-1.23 1-2.13.72-.58-1.45-1.48-1.69-1.22 1-2.12.72-.58-1.44-1.48-1.68-1.22 1-2.12.72-.58-1.45-1.48-1.69-1.22 1-2.12.72-.58-1.44-1.48-1.68-1.23 1-2.13.72-.58-1.45-1.48-1.69-1.22 1-2.12.72-.58-1.44-1.48-1.69-1.23 1-2.13.72-.58-1.44-1.48-1.68-1.22 1-2.12.72-.58-1.45-1.49-1.69-1.22 1-2.12.72-.58-1.44-1.48-1.68-.38-1.07-.38-1.07l13.84-51.68a1.59 1.59 0 011.93-1.11l34.22 9.17 3.75 6.5L105.76 119s.06 1-.84.78z" fill="#c8ccd1"/>
    <rect x="95.11" y="65.14" width="1.11" height="13.27" rx=".49" transform="rotate(105 95.667 71.779)" fill="#ff6e6e"/>
    <rect x="95.11" y="65.14" width="1.11" height="13.27" rx=".49" transform="rotate(-165 95.669 71.777)" fill="#ff6e6e"/>
    <rect x="95.11" y="65.14" width="1.11" height="13.27" rx=".5" transform="matrix(-.5 -.87 .87 -.5 81.34 190.52)" fill="#ff6e6e"/>
    <rect x="95.11" y="65.14" width="1.11" height="13.27" rx=".5" transform="rotate(150 95.67 71.775)" fill="#ff6e6e"/>
    <path d="M31.67 69.67H26A4.33 4.33 0 0021.67 74v3.33c0 6.67-4.34 6-4.34 6V84h14.34z" fill="#eaecf0"/>
    <path d="M13 56H9.33A3.34 3.34 0 006 59.33v6h7z" fill="#a2a9b1"/>
    <path d="M9.33 56.67H13v8H6.67v-5.34a2.67 2.67 0 012.66-2.66z" fill="#eaecf0"/>
    <path d="M47.35 56H9.67v.67c1.33 0 2.66.66 2.66 3.33v18.33c0 3 1.67 5.67 5 5.67s5-2.33 5-5.67V74c0-.33.26-3.67 4.34-3.67h25v-10A4.2 4.2 0 0047.35 56z" fill="#a2a9b1"/>
    <path d="M47 56.67H11.33S13 57 13 60.33v17.34c0 2.33 1 5.66 4.33 5.66s4.34-2.66 4.34-5.66V74c0-2.33 2-4.33 5.33-4.33h24v-9a3.65 3.65 0 00-4-4z" fill="#fff"/>
    <path fill="#a2a9b1" d="M17.33 83.33h14V84h-14z"/>
    <path d="M65.35 69.67H27.67v.66a3.81 3.81 0 013.33 4v32.34a5.63 5.63 0 005.67 5.33h33V74a4.57 4.57 0 00-4.32-4.33z" fill="#a2a9b1"/>
    <path d="M65 70.33H29.33A3.6 3.6 0 0131.67 74v32a5.07 5.07 0 005.33 5.33h32v-37a4 4 0 00-4-4z" fill="#fff"/>
    <path d="M69.33 112H38v-.67s2.67-1 2.67-3.33v-4.67h32.66a.67.67 0 01.67.67v3.33a4.67 4.67 0 01-4.67 4.67z" fill="#a2a9b1"/>
    <path d="M69.33 111.33h-30a3.87 3.87 0 002-3.33v-4H73a.33.33 0 01.33.33v3a4 4 0 01-4 4z" fill="#f8f9fa"/>
    <rect x="14.67" y="59" width="20" height=".67" rx=".33" fill="#c8ccd1"/>
    <rect x="35.33" y="59" width="13.33" height=".67" rx=".33" fill="#c8ccd1"/>
    <rect x="14.67" y="63" width="16.67" height=".67" rx=".33" fill="#c8ccd1"/>
    <rect x="14.67" y="65" width="29.33" height=".67" rx=".33" fill="#c8ccd1"/>
    <rect x="14.67" y="67" width="34" height=".67" rx=".33" fill="#c8ccd1"/>
    <rect x="32" y="63" width="16" height=".67" rx=".33" fill="#c8ccd1"/>
    <rect x="14.67" y="61" width="12" height=".67" rx=".33" fill="#c8ccd1"/>
    <rect x="27.67" y="61" width="10" height=".67" rx=".33" fill="#c8ccd1"/>
    <rect x="39" y="61" width="7.33" height=".67" rx=".33" fill="#c8ccd1"/>
    <rect x="14.67" y="71" width="8.33" height=".67" rx=".33" fill="#c8ccd1"/>
    <rect x="14.67" y="73" width="7.33" height=".67" rx=".33" fill="#c8ccd1"/>
    <rect x="14.67" y="75" width="7.33" height=".67" rx=".33" fill="#c8ccd1"/>
    <rect x="14.67" y="77" width="7.33" height=".67" rx=".33" fill="#c8ccd1"/>
    <rect x="14.67" y="80" width="7.33" height=".67" rx=".33" fill="#c8ccd1"/>
    <rect x="34" y="73" width="33.33" height=".67" rx=".33" fill="#c8ccd1"/>
    <rect x="34" y="77" width="8.67" height=".67" rx=".33" fill="#c8ccd1"/>
    <rect x="34" y="79" width="16.18" height=".67" rx=".33" fill="#c8ccd1"/>
    <rect x="51.15" y="79" width="16.18" height=".67" rx=".33" fill="#c8ccd1"/>
    <rect x="44" y="77" width="16.67" height=".67" rx=".33" fill="#c8ccd1"/>
    <rect x="61" y="77" width="6.33" height=".67" rx=".33" fill="#c8ccd1"/>
    <rect x="34" y="75" width="23.67" height=".67" rx=".33" fill="#c8ccd1"/>
    <rect x="59.33" y="75" width="7.33" height=".67" rx=".33" fill="#c8ccd1"/>
    <rect x="34" y="88.67" width="33.33" height=".67" rx=".33" transform="rotate(-180 50.665 89)" fill="#c8ccd1"/>
    <rect x="58.67" y="84.67" width="8.67" height=".67" rx=".33" transform="rotate(180 63 85)" fill="#c8ccd1"/>
    <rect x="51.15" y="82.67" width="16.18" height=".67" rx=".33" transform="rotate(180 59.245 83)" fill="#c8ccd1"/>
    <rect x="34" y="82.67" width="16.18" height=".67" rx=".33" transform="rotate(180 42.09 83)" fill="#c8ccd1"/>
    <rect x="41.33" y="84.67" width="16" height=".67" rx=".33" transform="rotate(-180 49.335 85)" fill="#c8ccd1"/>
    <rect x="34" y="84.67" width="6.33" height=".67" rx=".33" transform="rotate(-180 37.165 85)" fill="#c8ccd1"/>
    <rect x="43.67" y="86.67" width="23.67" height=".67" rx=".33" transform="rotate(-180 55.5 87)" fill="#c8ccd1"/>
    <path d="M35 86.67h7.33c.19 0-.33.15-.33.33 0 .18.52.33.33.33H35a.33.33 0 01-.33-.33.33.33 0 01.33-.33z" fill="#c8ccd1" fill-rule="evenodd"/>
    <rect x="34" y="94.67" width="33.33" height=".67" rx=".33" fill="#c8ccd1"/>
    <rect x="34" y="98.67" width="8.67" height=".67" rx=".33" fill="#c8ccd1"/>
    <rect x="34" y="100.67" width="16.18" height=".67" rx=".33" fill="#c8ccd1"/>
    <rect x="51.15" y="100.67" width="16.18" height=".67" rx=".33" fill="#c8ccd1"/>
    <rect x="44" y="98.67" width="16.67" height=".67" rx=".33" fill="#c8ccd1"/>
    <rect x="61" y="98.67" width="6.33" height=".67" rx=".33" fill="#c8ccd1"/>
    <rect x="34" y="96.67" width="23.67" height=".67" rx=".33" fill="#c8ccd1"/>
    <rect x="59.33" y="96.67" width="7.33" height=".67" rx=".33" fill="#c8ccd1"/>
    <path d="M26.67 69.67c-3.13.13-5 2.07-5 4.32v3.67c0 3-1 5.66-4.34 5.66S13 80 13 77.67v-8h-.67v8.66c0 3 1.67 5.67 5 5.67s5-2.33 5-5.67V74c0-.33.26-3.67 4.34-3.67H27v-.66z" fill="#a2a9b1"/>
    <rect x="33.33" y="91.33" width="38.67" height="10.33" rx="1.33" fill="#00af89"/>
    <rect x="34" y="92" width="37.33" height="9" rx=".67" fill="#d5fdf4"/>
    <rect x="35.67" y="93.33" width="33.33" height=".67" rx=".33" fill="#14866d"/>
    <rect x="35.67" y="97.33" width="8.67" height=".67" rx=".33" fill="#14866d"/>
    <rect x="35.67" y="99.33" width="16.18" height=".67" rx=".33" fill="#14866d"/>
    <rect x="52.82" y="99.33" width="16.18" height=".67" rx=".33" fill="#14866d"/>
    <rect x="45.67" y="97.33" width="16" height=".67" rx=".33" fill="#14866d"/>
    <rect x="62.67" y="97.33" width="6.33" height=".67" rx=".33" fill="#14866d"/>
    <rect x="35.67" y="95.33" width="23.67" height=".67" rx=".33" fill="#14866d"/>
    <path d="M68 96h-7.33c-.19 0 .33-.15.33-.33 0-.19-.52-.34-.33-.34H68a.34.34 0 01.33.34.33.33 0 01-.33.33z" fill="#14866d" fill-rule="evenodd"/>
    <path fill="#fef6e7" fill-rule="evenodd" d="M41.05 83.65l-3.82 4.98-.52.3-2.4-4.16.52-.3 6.22-.82z"/>
    <path fill="#54595d" d="M39.07 86.22l1.98-2.57-3.22.42 1.24 2.15z"/>
    <path d="M8.37 99.74a1.6 1.6 0 00-.58 2.19l.8 1.39a1.6 1.6 0 002.18.58l2.08-1.2-2.4-4.16z" fill="#ff6e6e"/>
    <path fill="#c8ccd1" d="M10.45 98.546l2.08-1.2 2.4 4.157-2.08 1.2z"/>
    <path d="M37.23 88.63l-22.3 12.87-2.4-4.16 22.3-12.87a.89.89 0 00-.12 1 .9.9 0 00.92.4.83.83 0 00.8 1.38.89.89 0 00-.12 1 .9.9 0 00.92.38z" fill="#00af89"/>
</svg>
