<svg xmlns="http://www.w3.org/2000/svg" viewBox="0 0 128 128">
	<path fill="#fc3" d="m88.82 5.73-28.69 7.68a7.79 7.79 0 0 0-6 8.27 7.79 7.79 0 0 0-9.32-4.17L16.14 25.2a2 2 0 0 0-1.4 2.43l11.15 41.59a2 2 0 0 0 2.43 1.4L101 51.15a2 2 0 0 0 1.4-2.42L91.25 7.13a2 2 0 0 0-2.43-1.4"/>
	<path fill="#ff9500" d="M61.05 60.83 67.74 59l.26 1a.5.5 0 0 1-.35.61l-5.74 1.53a.49.49 0 0 1-.6-.35z"/>
	<path fill="#eaecf0" d="m59.938 13.51 28.81-7.722a1.004 1.004 0 0 1 1.23.71l11.7 43.65-36.987 9.914-10.03-37.422a7.46 7.46 0 0 1 5.275-9.14z"/>
	<path fill="#eaecf0" d="m16.62 25.07 28.21-7.56c4.23-1.13 8.44.9 9.57 5.13l10 37.29-36.82 9.87-11.66-43.51a1 1 0 0 1 .7-1.22"/>
	<path fill="#fff" d="m63.921 60.064-35.381 9.48-11.53-43.032a.5.5 0 0 1 .353-.612l27.722-7.428a7.42 7.42 0 0 1 9.087 5.247l9.74 36.348zM60.389 14.38 88.12 6.947a.49.49 0 0 1 .6.347l11.53 43.032-35.382 9.48-9.737-36.338a7.42 7.42 0 0 1 5.247-9.087z"/>
	<path fill="#ac6600" d="m26.303 65.021 33.953-9.097a3 3 0 0 1 3.674 2.121l.517 1.932-36.85 9.874z"/>
	<path fill="#ac6600" d="m101.216 50.072-36.821 9.866-.518-1.931a3 3 0 0 1 2.121-3.675l33.924-9.09z"/>
	<path fill="#c8ccd1" d="m74.65 12.59 11-3a.46.46 0 0 1 .57.32.47.47 0 0 1-.33.57l-11.05 3a.46.46 0 0 1-.56-.33.46.46 0 0 1 .37-.56m-14.92 4L73.16 13a.46.46 0 0 1 .57.32.46.46 0 0 1-.33.56L60 17.47a.46.46 0 0 1-.57-.32.46.46 0 0 1 .3-.56m.8 2.95 8.07-2.16a.46.46 0 0 1 .56.33.46.46 0 0 1-.33.56l-8.06 2.16a.46.46 0 0 1-.56-.33.46.46 0 0 1 .32-.56M70.07 17l14-3.76a.45.45 0 0 1 .56.32.45.45 0 0 1-.32.56l-14 3.76a.46.46 0 0 1-.57-.32.46.46 0 0 1 .33-.56m-8.75 5.5 15.83-4.24a.46.46 0 0 1 .56.33.46.46 0 0 1-.33.56l-15.82 4.24a.46.46 0 0 1-.56-.33.46.46 0 0 1 .32-.56m24.77-6.63-7.47 2a.46.46 0 0 0-.33.56.46.46 0 0 0 .57.32l7.46-2a.46.46 0 0 0 .33-.56.46.46 0 0 0-.56-.32"/>
	<path fill="#ac6600" d="m62.12 25.46 26-7a.46.46 0 0 1 .56.33.46.46 0 0 1-.32.56l-26 7a.47.47 0 0 1-.57-.33.46.46 0 0 1 .33-.56m7.35 1.2L75.75 25a.46.46 0 0 1 .56.32.45.45 0 0 1-.33.56l-6.27 1.69a.46.46 0 0 1-.56-.33.45.45 0 0 1 .32-.58m7.75-2.08 10.45-2.8a.46.46 0 0 1 .56.33.46.46 0 0 1-.32.56l-10.45 2.8a.45.45 0 0 1-.56-.33.46.46 0 0 1 .32-.56m-14.31 3.84L68 27.06a.45.45 0 0 1 .56.32.45.45 0 0 1-.32.56l-5.09 1.36a.45.45 0 0 1-.56-.32.45.45 0 0 1 .32-.56m.79 2.96 22.39-6a.46.46 0 0 1 .56.32.45.45 0 0 1-.32.56l-22.39 6a.45.45 0 0 1-.56-.32.45.45 0 0 1 .32-.56"/>
	<rect width="10.5" height=".92" x="63.99" y="33.08" fill="#c8ccd1" rx=".46" transform="rotate(-15 69.228 33.533)"/>
	<rect width="16.68" height=".92" x="74.62" y="29.4" fill="#c8ccd1" rx=".46" transform="rotate(-15 82.964 29.855)"/>
	<rect width="27.8" height=".92" x="64.65" y="34.39" fill="#c8ccd1" rx=".46" transform="rotate(-15 78.56 34.839)"/>
	<rect width="13.59" height=".92" x="79.41" y="35.51" fill="#c8ccd1" rx=".46" transform="rotate(-15 86.217 35.962)"/>
	<rect width="13.59" height=".92" x="65.68" y="39.19" fill="#c8ccd1" rx=".46" transform="rotate(-15 72.149 39.463)"/>
	<rect width="25.33" height=".92" x="66.28" y="40.63" fill="#c8ccd1" rx=".46" transform="rotate(-15 78.938 41.07)"/>
	<path fill="#c8ccd1" d="m67.83 46.76 4.48-1.2a.45.45 0 0 1 .56.32.46.46 0 0 1-.32.57l-4.49 1.2a.46.46 0 0 1-.56-.33.45.45 0 0 1 .33-.56m5.95-1.6 6.27-1.68a.47.47 0 0 1 .57.33.46.46 0 0 1-.33.56L74 46.05a.45.45 0 0 1-.56-.32.46.46 0 0 1 .34-.57m7.76-2.08 11-3a.46.46 0 0 1 .56.33.46.46 0 0 1-.33.56l-11 3a.46.46 0 0 1-.57-.32.47.47 0 0 1 .34-.57m-12.93 6.64 26-7a.46.46 0 0 1 .56.33.45.45 0 0 1-.32.56l-26 7a.47.47 0 0 1-.57-.33.46.46 0 0 1 .33-.56M45.06 57.3l11-3a.46.46 0 0 0 .33-.56.47.47 0 0 0-.57-.33l-11 3a.46.46 0 0 0-.33.56.47.47 0 0 0 .57.33m-14.92 4 13.43-3.6a.47.47 0 0 0 .33-.57.46.46 0 0 0-.57-.32l-13.43 3.6a.45.45 0 0 0-.32.56.46.46 0 0 0 .56.33m-.78-2.96 8.06-2.17a.45.45 0 0 0 .32-.56.45.45 0 0 0-.56-.32l-8.06 2.16a.46.46 0 0 0-.33.56.47.47 0 0 0 .57.33m9.53-2.56 14-3.76a.46.46 0 0 0 .33-.56.46.46 0 0 0-.56-.33l-14 3.76a.46.46 0 0 0-.33.56.46.46 0 0 0 .56.33m-10.33-.4 15.82-4.24a.46.46 0 0 0 .33-.56.46.46 0 0 0-.56-.33l-15.82 4.24a.46.46 0 0 0-.33.56.46.46 0 0 0 .56.33m24.76-6.64-7.46 2a.46.46 0 0 1-.57-.32.46.46 0 0 1 .33-.56l7.47-2a.46.46 0 0 1 .56.33.46.46 0 0 1-.33.55m-25.55 3.68 26-7a.45.45 0 0 0 .32-.56.46.46 0 0 0-.56-.33l-26 7a.46.46 0 0 0-.32.56.46.46 0 0 0 .56.33m5.77-4.72 6.27-1.7a.46.46 0 0 0 .33-.56.46.46 0 0 0-.56-.33l-6.28 1.7a.46.46 0 0 0-.32.57.45.45 0 0 0 .56.32m7.75-2.07 10.45-2.8a.46.46 0 0 0 .32-.57.45.45 0 0 0-.56-.32l-10.45 2.8a.45.45 0 0 0-.32.56.46.46 0 0 0 .56.33M27 49.46l5.08-1.36a.46.46 0 0 0 .32-.56.46.46 0 0 0-.56-.33l-5.08 1.36a.46.46 0 0 0-.32.57.45.45 0 0 0 .56.32m-.81-2.96 22.38-6a.45.45 0 0 0 .32-.56.45.45 0 0 0-.56-.32L26 45.61a.47.47 0 0 0-.33.57.46.46 0 0 0 .52.32"/>
	<rect width="10.5" height=".92" x="24.65" y="41.4" fill="#c8ccd1" rx=".46" transform="rotate(-15 29.917 41.88)"/>
	<rect width="16.68" height=".92" x="35.28" y="37.73" fill="#c8ccd1" rx=".46" transform="rotate(-15 43.615 38.197)"/>
	<rect width="27.8" height=".92" x="23.4" y="35.61" fill="#c8ccd1" rx=".46" transform="rotate(-15 37.29 36.05)"/>
	<rect width="13.59" height=".92" x="36.58" y="30.81" fill="#c8ccd1" rx=".46" transform="rotate(-15 43.167 31.147)"/>
	<rect width="13.59" height=".92" x="22.85" y="34.49" fill="#c8ccd1" rx=".46" transform="rotate(-15 29.63 34.965)"/>
	<rect width="25.33" height=".92" x="21.86" y="30.01" fill="#c8ccd1" rx=".46" transform="rotate(-15 34.352 30.332)"/>
	<path fill="#c8ccd1" d="m22.06 31.12 4.49-1.2a.46.46 0 0 0 .32-.57.45.45 0 0 0-.56-.32l-4.48 1.2a.46.46 0 0 0-.33.56.46.46 0 0 0 .56.33m5.94-1.6 6.27-1.68a.46.46 0 0 0 .33-.56.47.47 0 0 0-.57-.33l-6.27 1.68a.46.46 0 0 0-.32.57.45.45 0 0 0 .56.32m7.78-2.08 11-3a.46.46 0 0 0 .33-.56.46.46 0 0 0-.56-.32l-11.05 3a.46.46 0 0 0-.33.56.46.46 0 0 0 .61.32m-14.52.72 26-7a.46.46 0 0 0 .33-.56.46.46 0 0 0-.56-.32l-26 7a.46.46 0 0 0-.32.57.45.45 0 0 0 .55.31"/>
	<path fill="#fff" d="m119.85 71.29-4.64-8h-.12l-35.3-9.46a1.57 1.57 0 0 0-1.93 1.11L63.37 109l-.56 2.1c.91.25 1.23-.95 2.13-.71s.58 1.44 1.49 1.68 1.22-1 2.12-.72.58 1.45 1.48 1.69 1.23-1 2.13-.72.58 1.44 1.48 1.69 1.22-1 2.13-.72.57 1.44 1.48 1.68 1.22-1 2.12-.72.58 1.45 1.48 1.69 1.22-1 2.13-.72.57 1.44 1.48 1.68 1.22-1 2.12-.72.58 1.45 1.48 1.69 1.22-1 2.12-.72.58 1.44 1.48 1.68 1.22-1 2.12-.72.58 1.45 1.48 1.69 1.22-1 2.12-.72.58 1.44 1.48 1.68 1.23-1 2.13-.71.58 1.44 1.48 1.68 1.22-1 2.12-.72.58 1.44 1.48 1.69l.56-2.11z"/>
	<path fill="#fee7e6" d="M79.9 55.1a.81.81 0 0 0-1 .61l-6.19 23.23 40.86 11 4.94-18.42-4.06-7.11z"/>
	<rect width="36.99" height="1.24" x="67.9" y="110.56" fill="#b32424" rx=".62" transform="rotate(15 86.387 111.184)"/>
	<rect width="36.99" height="1.24" x="67.9" y="110.56" fill="#b32424" rx=".62" transform="rotate(15 86.387 111.184)"/>
	<rect width="36.99" height="1.24" x="68.61" y="107.91" fill="#b32424" rx=".62" transform="rotate(15 87.12 108.537)"/>
	<rect width="36.99" height="1.24" x="70.04" y="102.6" fill="#b32424" rx=".62" transform="rotate(15 88.544 103.21)"/>
	<rect width="6.27" height="1.24" x="69.85" y="101.28" fill="#b32424" rx=".62" transform="rotate(15 72.993 101.897)"/>
	<rect width="6.27" height="1.24" x="84.1" y="96.57" fill="#b32424" rx=".62" transform="rotate(15 86.857 96.754)"/>
	<rect width="8.76" height="1.24" x="97.07" y="108.91" fill="#b32424" rx=".62" transform="rotate(15 101.471 109.545)"/>
	<rect width="11.9" height="1.24" x="95.41" y="103.2" fill="#b32424" rx=".62" transform="rotate(15 101.377 103.84)"/>
	<rect width="18.82" height="1.24" x="77.21" y="104.93" fill="#b32424" rx=".62" transform="rotate(15 86.222 105.068)"/>
	<rect width="23.52" height="1.24" x="70.98" y="98.21" fill="#b32424" rx=".62" transform="rotate(15 82.752 98.835)"/>
	<rect width="10.98" height="1.24" x="71.9" y="93.94" fill="#b32424" rx=".62" transform="rotate(15 77.397 94.555)"/>
	<rect width="12.44" height="2.49" x="74.04" y="85.42" fill="#b32424" rx="1.24" transform="rotate(15 80.258 86.645)"/>
	<rect width="19.91" height="1.24" x="73.08" y="90.1" fill="#ff6e6e" rx=".62" transform="rotate(15 83.036 90.722)"/>
	<rect width="16.6" height="1.24" x="91.5" y="99.94" fill="#b32424" rx=".62" transform="rotate(15 99.787 100.572)"/>
	<path fill="#c8ccd1" d="M119.45 72.78 113 71.05a1.4 1.4 0 0 1-1-1.72l1.73-6.46 1.56.42 4.58 7.93z"/>
	<path fill="#c8ccd1" d="m119.85 71.29-4.64-8h-.12l-35.3-9.46a1.57 1.57 0 0 0-1.93 1.11L63.37 109l-.56 2.1c.91.25 1.23-.95 2.13-.71s.58 1.44 1.49 1.68 1.22-1 2.12-.72.58 1.45 1.48 1.69 1.23-1 2.13-.72.58 1.44 1.48 1.69 1.22-1 2.13-.72.57 1.44 1.48 1.68 1.22-1 2.12-.72.58 1.45 1.48 1.69 1.22-1 2.13-.72.57 1.44 1.48 1.68 1.22-1 2.12-.72.58 1.45 1.48 1.69 1.22-1 2.12-.72.58 1.44 1.48 1.68 1.22-1 2.12-.72.58 1.45 1.48 1.69 1.22-1 2.12-.72.58 1.44 1.48 1.68 1.23-1 2.13-.71.58 1.44 1.48 1.68 1.22-1 2.12-.72.58 1.44 1.48 1.69l.56-2.11zm-14.93 48.49c-.9-.24-1.22 1-2.12.72s-.58-1.45-1.48-1.69-1.22 1-2.12.72-.58-1.44-1.48-1.68-1.23 1-2.13.72-.58-1.45-1.48-1.69-1.22 1-2.12.72-.58-1.44-1.48-1.68-1.22 1-2.12.72-.58-1.45-1.48-1.69-1.22 1-2.12.72-.58-1.44-1.48-1.68-1.23 1-2.13.72-.58-1.45-1.48-1.69-1.22 1-2.12.72-.58-1.44-1.48-1.69-1.23 1-2.13.72-.58-1.44-1.48-1.68-1.22 1-2.12.72-.58-1.45-1.49-1.69-1.22 1-2.12.72-.58-1.44-1.48-1.68-.38-1.07-.38-1.07l13.84-51.68a1.59 1.59 0 0 1 1.93-1.11l34.22 9.17 3.75 6.5L105.76 119s.06 1-.84.78"/>
	<rect width="1.11" height="13.27" x="95.11" y="65.14" fill="#ff6e6e" rx=".49" transform="rotate(105 95.667 71.779)"/>
	<rect width="1.11" height="13.27" x="95.11" y="65.14" fill="#ff6e6e" rx=".49" transform="rotate(-165 95.669 71.777)"/>
	<rect width="1.11" height="13.27" x="95.11" y="65.14" fill="#ff6e6e" rx=".5" transform="matrix(-.5 -.87 .87 -.5 81.34 190.52)"/>
	<rect width="1.11" height="13.27" x="95.11" y="65.14" fill="#ff6e6e" rx=".5" transform="rotate(150 95.67 71.775)"/>
	<path fill="#eaecf0" d="M31.67 69.67H26A4.33 4.33 0 0 0 21.67 74v3.33c0 6.67-4.34 6-4.34 6V84h14.34z"/>
	<path fill="#a2a9b1" d="M13 56H9.33A3.34 3.34 0 0 0 6 59.33v6h7z"/>
	<path fill="#eaecf0" d="M9.33 56.67H13v8H6.67v-5.34a2.67 2.67 0 0 1 2.66-2.66"/>
	<path fill="#a2a9b1" d="M47.35 56H9.67v.67c1.33 0 2.66.66 2.66 3.33v18.33c0 3 1.67 5.67 5 5.67s5-2.33 5-5.67V74c0-.33.26-3.67 4.34-3.67h25v-10A4.2 4.2 0 0 0 47.35 56"/>
	<path fill="#fff" d="M47 56.67H11.33S13 57 13 60.33v17.34c0 2.33 1 5.66 4.33 5.66s4.34-2.66 4.34-5.66V74c0-2.33 2-4.33 5.33-4.33h24v-9a3.65 3.65 0 0 0-4-4"/>
	<path fill="#a2a9b1" d="M17.33 83.33h14V84h-14z"/>
	<path fill="#a2a9b1" d="M65.35 69.67H27.67v.66a3.81 3.81 0 0 1 3.33 4v32.34a5.63 5.63 0 0 0 5.67 5.33h33V74a4.57 4.57 0 0 0-4.32-4.33"/>
	<path fill="#fff" d="M65 70.33H29.33A3.6 3.6 0 0 1 31.67 74v32a5.07 5.07 0 0 0 5.33 5.33h32v-37a4 4 0 0 0-4-4"/>
	<path fill="#a2a9b1" d="M69.33 112H38v-.67s2.67-1 2.67-3.33v-4.67h32.66a.67.67 0 0 1 .67.67v3.33a4.67 4.67 0 0 1-4.67 4.67"/>
	<path fill="#f8f9fa" d="M69.33 111.33h-30a3.87 3.87 0 0 0 2-3.33v-4H73a.33.33 0 0 1 .33.33v3a4 4 0 0 1-4 4"/>
	<rect width="20" height=".67" x="14.67" y="59" fill="#c8ccd1" rx=".33"/>
	<rect width="13.33" height=".67" x="35.33" y="59" fill="#c8ccd1" rx=".33"/>
	<rect width="16.67" height=".67" x="14.67" y="63" fill="#c8ccd1" rx=".33"/>
	<rect width="29.33" height=".67" x="14.67" y="65" fill="#c8ccd1" rx=".33"/>
	<rect width="34" height=".67" x="14.67" y="67" fill="#c8ccd1" rx=".33"/>
	<rect width="16" height=".67" x="32" y="63" fill="#c8ccd1" rx=".33"/>
	<rect width="12" height=".67" x="14.67" y="61" fill="#c8ccd1" rx=".33"/>
	<rect width="10" height=".67" x="27.67" y="61" fill="#c8ccd1" rx=".33"/>
	<rect width="7.33" height=".67" x="39" y="61" fill="#c8ccd1" rx=".33"/>
	<rect width="8.33" height=".67" x="14.67" y="71" fill="#c8ccd1" rx=".33"/>
	<rect width="7.33" height=".67" x="14.67" y="73" fill="#c8ccd1" rx=".33"/>
	<rect width="7.33" height=".67" x="14.67" y="75" fill="#c8ccd1" rx=".33"/>
	<rect width="7.33" height=".67" x="14.67" y="77" fill="#c8ccd1" rx=".33"/>
	<rect width="7.33" height=".67" x="14.67" y="80" fill="#c8ccd1" rx=".33"/>
	<rect width="33.33" height=".67" x="34" y="73" fill="#c8ccd1" rx=".33"/>
	<rect width="8.67" height=".67" x="34" y="77" fill="#c8ccd1" rx=".33"/>
	<rect width="16.18" height=".67" x="34" y="79" fill="#c8ccd1" rx=".33"/>
	<rect width="16.18" height=".67" x="51.15" y="79" fill="#c8ccd1" rx=".33"/>
	<rect width="16.67" height=".67" x="44" y="77" fill="#c8ccd1" rx=".33"/>
	<rect width="6.33" height=".67" x="61" y="77" fill="#c8ccd1" rx=".33"/>
	<rect width="23.67" height=".67" x="34" y="75" fill="#c8ccd1" rx=".33"/>
	<rect width="7.33" height=".67" x="59.33" y="75" fill="#c8ccd1" rx=".33"/>
	<rect width="33.33" height=".67" x="34" y="88.67" fill="#c8ccd1" rx=".33" transform="rotate(-180 50.665 89)"/>
	<rect width="8.67" height=".67" x="58.67" y="84.67" fill="#c8ccd1" rx=".33" transform="rotate(180 63 85)"/>
	<rect width="16.18" height=".67" x="51.15" y="82.67" fill="#c8ccd1" rx=".33" transform="rotate(180 59.245 83)"/>
	<rect width="16.18" height=".67" x="34" y="82.67" fill="#c8ccd1" rx=".33" transform="rotate(180 42.09 83)"/>
	<rect width="16" height=".67" x="41.33" y="84.67" fill="#c8ccd1" rx=".33" transform="rotate(-180 49.335 85)"/>
	<rect width="6.33" height=".67" x="34" y="84.67" fill="#c8ccd1" rx=".33" transform="rotate(-180 37.165 85)"/>
	<rect width="23.67" height=".67" x="43.67" y="86.67" fill="#c8ccd1" rx=".33" transform="rotate(-180 55.5 87)"/>
	<path fill="#c8ccd1" d="M35 86.67h7.33c.19 0-.33.15-.33.33s.52.33.33.33H35a.33.33 0 0 1-.33-.33.33.33 0 0 1 .33-.33"/>
	<rect width="33.33" height=".67" x="34" y="94.67" fill="#c8ccd1" rx=".33"/>
	<rect width="8.67" height=".67" x="34" y="98.67" fill="#c8ccd1" rx=".33"/>
	<rect width="16.18" height=".67" x="34" y="100.67" fill="#c8ccd1" rx=".33"/>
	<rect width="16.18" height=".67" x="51.15" y="100.67" fill="#c8ccd1" rx=".33"/>
	<rect width="16.67" height=".67" x="44" y="98.67" fill="#c8ccd1" rx=".33"/>
	<rect width="6.33" height=".67" x="61" y="98.67" fill="#c8ccd1" rx=".33"/>
	<rect width="23.67" height=".67" x="34" y="96.67" fill="#c8ccd1" rx=".33"/>
	<rect width="7.33" height=".67" x="59.33" y="96.67" fill="#c8ccd1" rx=".33"/>
	<path fill="#a2a9b1" d="M26.67 69.67c-3.13.13-5 2.07-5 4.32v3.67c0 3-1 5.66-4.34 5.66S13 80 13 77.67v-8h-.67v8.66c0 3 1.67 5.67 5 5.67s5-2.33 5-5.67V74c0-.33.26-3.67 4.34-3.67H27v-.66z"/>
	<rect width="38.67" height="10.33" x="33.33" y="91.33" fill="#00af89" rx="1.33"/>
	<rect width="37.33" height="9" x="34" y="92" fill="#d5fdf4" rx=".67"/>
	<rect width="33.33" height=".67" x="35.67" y="93.33" fill="#14866d" rx=".33"/>
	<rect width="8.67" height=".67" x="35.67" y="97.33" fill="#14866d" rx=".33"/>
	<rect width="16.18" height=".67" x="35.67" y="99.33" fill="#14866d" rx=".33"/>
	<rect width="16.18" height=".67" x="52.82" y="99.33" fill="#14866d" rx=".33"/>
	<rect width="16" height=".67" x="45.67" y="97.33" fill="#14866d" rx=".33"/>
	<rect width="6.33" height=".67" x="62.67" y="97.33" fill="#14866d" rx=".33"/>
	<rect width="23.67" height=".67" x="35.67" y="95.33" fill="#14866d" rx=".33"/>
	<path fill="#14866d" d="M68 96h-7.33c-.19 0 .33-.15.33-.33 0-.19-.52-.34-.33-.34H68a.34.34 0 0 1 .33.34.33.33 0 0 1-.33.33"/>
	<path fill="#fef6e7" d="m41.05 83.65-3.82 4.98-.52.3-2.4-4.16.52-.3z"/>
	<path fill="#54595d" d="m39.07 86.22 1.98-2.57-3.22.42z"/>
	<path fill="#ff6e6e" d="M8.37 99.74a1.6 1.6 0 0 0-.58 2.19l.8 1.39a1.6 1.6 0 0 0 2.18.58l2.08-1.2-2.4-4.16z"/>
	<path fill="#c8ccd1" d="m10.45 98.546 2.079-1.2 2.4 4.157-2.079 1.2z"/>
	<path fill="#00af89" d="m37.23 88.63-22.3 12.87-2.4-4.16 22.3-12.87a.89.89 0 0 0-.12 1 .9.9 0 0 0 .92.4.83.83 0 0 0 .8 1.38.89.89 0 0 0-.12 1 .9.9 0 0 0 .92.38"/>
</svg>
