<svg xmlns="http://www.w3.org/2000/svg" viewBox="0 0 128 128">
    <path d="M50.23 54.32l-8.59-3.47h-.12L7.88 65.18A1.57 1.57 0 007 67.24l21.88 51.54.85 2c.86-.36.37-1.51 1.23-1.87s1.35.78 2.21.41.37-1.51 1.23-1.87 1.35.78 2.21.41.39-1.52 1.29-1.86 1.34.78 2.2.42.37-1.52 1.23-1.88 1.35.78 2.21.42.37-1.51 1.23-1.88 1.35.78 2.2.42.38-1.51 1.24-1.88 1.34.78 2.2.42.37-1.51 1.23-1.87 1.34.78 2.2.41.37-1.51 1.23-1.87 1.35.78 2.2.42.38-1.51 1.23-1.88 1.35.78 2.21.42.37-1.51 1.23-1.88 1.34.79 2.2.42.37-1.51 1.23-1.87 1.35.78 2.2.41.38-1.51 1.24-1.87 1.34.78 2.2.42l-.85-2z" fill="#fff"/>
    <path d="M8.78 66.15a.81.81 0 00-.39 1.08l9.4 22.14 38.94-16.54-7.45-17.55-7.57-3.11z" fill="#fee7e6" fill-rule="evenodd"/>
    <rect x="29.93" y="105.72" width="36.99" height="1.24" rx=".62" transform="rotate(-23 48.438 106.34)" fill="#b32424"/>
    <rect x="29.93" y="105.72" width="36.99" height="1.24" rx=".62" transform="rotate(-23 48.438 106.34)" fill="#b32424"/>
    <rect x="28.86" y="103.19" width="36.99" height="1.24" rx=".62" transform="rotate(-23 47.365 103.819)" fill="#b32424"/>
    <rect x="26.71" y="98.14" width="36.99" height="1.24" rx=".62" transform="rotate(-23 45.217 98.775)" fill="#b32424"/>
    <rect x="29.01" y="106.67" width="6.27" height="1.24" rx=".62" transform="rotate(-23 32.145 107.3)" fill="#b32424"/>
    <rect x="37.34" y="94.19" width="6.27" height="1.24" rx=".62" transform="rotate(-23 40.47 94.815)" fill="#b32424"/>
    <rect x="54.9" y="95.15" width="8.76" height="1.24" rx=".62" transform="rotate(-23 59.265 95.772)" fill="#b32424"/>
    <rect x="49.74" y="90.71" width="11.9" height="1.24" rx=".62" transform="rotate(-23 55.689 91.334)" fill="#b32424"/>
    <rect x="35.73" y="101.15" width="18.82" height="1.24" rx=".62" transform="rotate(-23 45.143 101.78)" fill="#b32424"/>
    <rect x="26.18" y="98.24" width="23.52" height="1.24" rx=".62" transform="rotate(-23 37.933 98.854)" fill="#b32424"/>
    <rect x="25.6" y="98.17" width="10.98" height="1.24" rx=".62" transform="rotate(-23 31.087 98.792)" fill="#b32424"/>
    <rect x="44.87" y="79.96" width="12.44" height="2.49" rx="1.24" transform="rotate(-23 51.094 81.211)" fill="#b32424"/>
    <rect x="38.95" y="85" width="19.91" height="1.24" rx=".62" transform="rotate(-23 48.915 85.63)" fill="#ff6e6e"/>
    <rect x="44.15" y="89.1" width="16.6" height="1.24" rx=".62" transform="rotate(-23 52.458 89.73)" fill="#b32424"/>
    <path d="M50.83 55.74l-6.16 2.61a1.41 1.41 0 01-1.84-.74l-2.61-6.16 1.49-.63 8.49 3.43z" fill="#c8ccd1" fill-rule="evenodd"/>
    <path d="M50.23 54.32l-8.59-3.47h-.12L7.88 65.18A1.57 1.57 0 007 67.24l21.88 51.54.85 2c.86-.36.37-1.51 1.23-1.87s1.35.78 2.21.41.37-1.51 1.23-1.87 1.35.78 2.21.41.39-1.52 1.29-1.86 1.34.78 2.2.42.37-1.52 1.23-1.88 1.35.78 2.21.42.37-1.51 1.23-1.88 1.35.78 2.2.42.38-1.51 1.24-1.88 1.34.78 2.2.42.37-1.51 1.23-1.87 1.34.78 2.2.41.37-1.51 1.23-1.87 1.35.78 2.2.42.38-1.51 1.23-1.88 1.35.78 2.21.42.37-1.51 1.23-1.88 1.34.79 2.2.42.37-1.51 1.23-1.87 1.35.78 2.2.41.38-1.51 1.24-1.87 1.34.78 2.2.42l-.85-2zm18.09 47.39c-.86.37-.37 1.51-1.23 1.88s-1.35-.78-2.21-.42-.37 1.51-1.23 1.88-1.34-.79-2.2-.42-.37 1.51-1.23 1.87-1.34-.78-2.2-.41-.37 1.51-1.23 1.87-1.35-.78-2.2-.42-.38 1.51-1.23 1.88-1.35-.78-2.21-.42-.37 1.51-1.23 1.87-1.34-.78-2.2-.41-.37 1.51-1.23 1.87-1.35-.78-2.21-.41-.37 1.51-1.23 1.87-1.34-.78-2.2-.42-.38 1.51-1.23 1.88-1.35-.78-2.21-.42-.37 1.51-1.23 1.88-1.35-.78-2.21-.42-.37 1.51-1.23 1.88-1.35-.78-2.2-.42-1-.61-1-.61L8.67 67.9a1.58 1.58 0 01.84-2.06L42.13 52l6.95 2.8 19.44 45.81s.66.74-.2 1.1z" fill="#c8ccd1"/>
    <rect x="30.92" y="62.95" width="1.11" height="13.27" rx=".49" transform="rotate(67 31.47 69.588)" fill="#ff6e6e"/>
    <rect x="30.92" y="62.95" width="1.11" height="13.27" rx=".49" transform="rotate(157 31.472 69.584)" fill="#ff6e6e"/>
    <rect x="30.92" y="62.95" width="1.11" height="13.27" rx=".5" transform="rotate(-158 31.47 69.59)" fill="#ff6e6e"/>
    <rect x="30.92" y="62.95" width="1.11" height="13.27" rx=".5" transform="rotate(112 31.473 69.584)" fill="#ff6e6e"/>
    <path d="M35.05 5.73l28.68 7.68a7.79 7.79 0 016 8.27A7.79 7.79 0 0179 17.51l28.69 7.69a2 2 0 011.4 2.43L98 69.22a2 2 0 01-2.43 1.4l-72.7-19.47a2 2 0 01-1.4-2.42l11.15-41.6a2 2 0 012.43-1.4z" fill="#fc3" fill-rule="evenodd"/>
    <path d="M62.82 60.83L56.12 59l-.25 1a.49.49 0 00.35.61L62 62.13a.49.49 0 00.61-.35z" fill="#ff9500" fill-rule="evenodd"/>
    <path d="M59.325 59.843l-36.938-9.901 11.7-43.65a1.004 1.004 0 011.23-.71l28.324 7.592a7.954 7.954 0 015.593 9.702l-9.909 36.966z" fill="#eaecf0"/>
    <path d="M107.24 25.07L79 17.51c-4.22-1.13-8.44.9-9.57 5.13l-10 37.29 36.86 9.87 11.65-43.51a1 1 0 00-.7-1.22z" fill="#eaecf0" fill-rule="evenodd"/>
    <path d="M79.25 18.593l27.248 7.301a.49.49 0 01.346.6L95.312 69.536l-35.373-9.478 9.61-35.865a7.92 7.92 0 019.7-5.6z" fill="#fff"/>
    <path d="M58.994 59.801l-35.382-9.48 11.53-43.032a.49.49 0 01.601-.347l27.258 7.304a7.92 7.92 0 015.6 9.7L58.995 59.8z" fill="#fff"/>
    <path d="M96.285 69.795l-36.811-9.864L59.99 58a3 3 0 013.675-2.122l33.913 9.087-1.294 4.83z" fill="#ac6600"/>
    <path d="M23.934 45.282l33.952 9.097a3 3 0 012.122 3.674l-.518 1.932-36.85-9.874 1.294-4.83z" fill="#ac6600"/>
    <path d="M49.22 12.59l-11-3a.46.46 0 00-.56.32.46.46 0 00.32.57l11 3a.46.46 0 00.56-.33.45.45 0 00-.32-.56z" fill="#c8ccd1" fill-rule="evenodd"/>
    <path d="M64.14 16.59L50.7 13a.46.46 0 00-.56.32.46.46 0 00.33.56l13.43 3.6a.45.45 0 00.56-.32.45.45 0 00-.32-.57z" fill="#c8ccd1" fill-rule="evenodd"/>
    <path d="M63.33 19.54l-8.06-2.16a.46.46 0 00-.56.33.46.46 0 00.32.56l8.07 2.16a.46.46 0 00.56-.33.46.46 0 00-.33-.56z" fill="#c8ccd1" fill-rule="evenodd"/>
    <path d="M53.8 17l-14-3.76a.46.46 0 00-.57.32.46.46 0 00.33.56l14 3.76a.45.45 0 00.56-.32.45.45 0 00-.32-.56z" fill="#c8ccd1" fill-rule="evenodd"/>
    <path d="M62.54 22.5l-15.82-4.24a.46.46 0 00-.56.33.46.46 0 00.32.56l15.82 4.24a.47.47 0 00.57-.33.46.46 0 00-.33-.56z" fill="#c8ccd1" fill-rule="evenodd"/>
    <path d="M37.78 15.87l7.47 2a.45.45 0 01.32.56.45.45 0 01-.56.32l-7.47-2a.45.45 0 01-.32-.56.45.45 0 01.56-.32z" fill="#c8ccd1" fill-rule="evenodd"/>
    <path d="M61.75 25.46l-26-7a.46.46 0 00-.56.33.46.46 0 00.33.56l26 7a.46.46 0 00.56-.33.45.45 0 00-.33-.56z" fill="#ac6600" fill-rule="evenodd"/>
    <path d="M54.39 26.66L48.12 25a.45.45 0 00-.56.32.45.45 0 00.32.56l6.27 1.69a.47.47 0 00.57-.33.46.46 0 00-.33-.58z" fill="#ac6600" fill-rule="evenodd"/>
    <path d="M46.65 24.58l-10.45-2.8a.47.47 0 00-.57.33.46.46 0 00.33.56l10.45 2.8a.46.46 0 00.56-.33.46.46 0 00-.32-.56z" fill="#ac6600" fill-rule="evenodd"/>
    <path d="M61 28.42l-5.08-1.36a.46.46 0 00-.57.32.46.46 0 00.33.56l5.08 1.36a.46.46 0 00.56-.32.45.45 0 00-.32-.56z" fill="#ac6600" fill-rule="evenodd"/>
    <path d="M60.16 31.38l-22.38-6a.45.45 0 00-.56.32.45.45 0 00.32.56l22.39 6a.46.46 0 00.56-.32.46.46 0 00-.33-.56z" fill="#ac6600" fill-rule="evenodd"/>
    <rect x="54.16" y="28.29" width=".92" height="10.5" rx=".46" transform="rotate(-75 54.623 33.538)" fill="#c8ccd1"/>
    <rect x="40.45" y="21.52" width=".92" height="16.68" rx=".46" transform="rotate(-75 40.912 29.86)" fill="#c8ccd1"/>
    <rect x="44.86" y="20.95" width=".92" height="27.8" rx=".46" transform="rotate(-75 45.317 34.846)" fill="#c8ccd1"/>
    <rect x="37.2" y="29.17" width=".92" height="13.59" rx=".46" transform="rotate(-75 37.663 35.97)" fill="#c8ccd1"/>
    <rect x="50.93" y="32.85" width=".92" height="13.59" rx=".46" transform="rotate(-75 51.385 39.647)" fill="#c8ccd1"/>
    <rect x="44.47" y="28.42" width=".92" height="25.33" rx=".46" transform="rotate(-75 44.927 41.089)" fill="#c8ccd1"/>
    <path d="M56 46.76l-4.48-1.2a.45.45 0 00-.56.32.46.46 0 00.32.57l4.48 1.2a.47.47 0 00.57-.33.46.46 0 00-.33-.56z" fill="#c8ccd1" fill-rule="evenodd"/>
    <path d="M50.08 45.16l-6.27-1.68a.46.46 0 00-.56.33.46.46 0 00.32.56l6.28 1.68a.46.46 0 00.56-.32.47.47 0 00-.33-.57z" fill="#c8ccd1" fill-rule="evenodd"/>
    <path d="M42.33 43.08l-11-3a.46.46 0 00-.56.33.45.45 0 00.23.59l11.05 3a.45.45 0 00.56-.32.46.46 0 00-.28-.6z" fill="#c8ccd1" fill-rule="evenodd"/>
    <path d="M55.26 49.72l-26-7a.46.46 0 00-.56.33.46.46 0 00.33.56l26 7a.46.46 0 00.56-.33.46.46 0 00-.33-.56z" fill="#c8ccd1" fill-rule="evenodd"/>
    <path d="M78.81 57.3l-11-3a.46.46 0 01-.32-.56.46.46 0 01.56-.33l11 3a.46.46 0 01.32.56.46.46 0 01-.56.33z" fill="#c8ccd1" fill-rule="evenodd"/>
    <path d="M93.73 61.3l-13.44-3.6a.46.46 0 01-.32-.57.45.45 0 01.56-.32L94 60.41a.45.45 0 01.32.56.46.46 0 01-.59.33z" fill="#c8ccd1" fill-rule="evenodd"/>
    <path d="M94.51 58.34l-8.06-2.17a.46.46 0 01-.33-.56.46.46 0 01.56-.32l8.07 2.16a.45.45 0 01.32.56.46.46 0 01-.56.33z" fill="#c8ccd1" fill-rule="evenodd"/>
    <path d="M85 55.78L70.94 52a.46.46 0 01-.32-.56.46.46 0 01.56-.33l14 3.76a.46.46 0 01.33.56.46.46 0 01-.51.35z" fill="#c8ccd1" fill-rule="evenodd"/>
    <path d="M95.3 55.38l-15.82-4.24a.46.46 0 01-.32-.56.45.45 0 01.56-.33l15.82 4.24a.46.46 0 01.33.56.47.47 0 01-.57.33z" fill="#c8ccd1" fill-rule="evenodd"/>
    <path d="M70.54 48.74l7.47 2a.45.45 0 00.56-.32.45.45 0 00-.32-.56l-7.47-2a.46.46 0 00-.56.33.45.45 0 00.32.55z" fill="#c8ccd1" fill-rule="evenodd"/>
    <path d="M96.1 52.42l-26-7a.45.45 0 01-.32-.56.46.46 0 01.56-.33l26 7a.46.46 0 01.33.56.46.46 0 01-.57.33z" fill="#c8ccd1" fill-rule="evenodd"/>
    <path d="M90.32 47.7L84.05 46a.46.46 0 01-.32-.56.46.46 0 01.56-.33l6.27 1.68a.47.47 0 01.33.57.46.46 0 01-.57.34z" fill="#c8ccd1" fill-rule="evenodd"/>
    <path d="M82.58 45.63l-10.45-2.8a.47.47 0 01-.33-.57.46.46 0 01.57-.32l10.45 2.8a.45.45 0 01.32.56.46.46 0 01-.56.33z" fill="#c8ccd1" fill-rule="evenodd"/>
    <path d="M96.89 49.46l-5.08-1.36a.46.46 0 01-.33-.56.47.47 0 01.57-.33l5.08 1.36a.46.46 0 01.32.57.45.45 0 01-.56.32z" fill="#c8ccd1" fill-rule="evenodd"/>
    <path d="M97.68 46.5l-22.38-6a.46.46 0 01-.33-.56.46.46 0 01.56-.32l22.39 6a.46.46 0 01.32.57.45.45 0 01-.56.31z" fill="#c8ccd1" fill-rule="evenodd"/>
    <rect x="93.5" y="36.61" width=".92" height="10.5" rx=".46" transform="rotate(-75 93.965 41.861)" fill="#c8ccd1"/>
    <rect x="79.79" y="29.84" width=".92" height="16.68" rx=".46" transform="rotate(-75 79.92 38.021)" fill="#c8ccd1"/>
    <rect x="86.1" y="22.17" width=".92" height="27.8" rx=".46" transform="rotate(-75 86.565 36.07)" fill="#c8ccd1"/>
    <rect x="80.03" y="24.48" width=".92" height="13.59" rx=".46" transform="rotate(-75 80.492 31.275)" fill="#c8ccd1"/>
    <rect x="93.76" y="28.16" width=".92" height="13.59" rx=".46" transform="rotate(-75 94.215 34.951)" fill="#c8ccd1"/>
    <rect x="88.88" y="17.81" width=".92" height="25.33" rx=".46" transform="rotate(-75 89.338 30.474)" fill="#c8ccd1"/>
    <path d="M101.8 31.12l-4.48-1.2a.46.46 0 01-.32-.57.45.45 0 01.56-.32l4.48 1.2a.46.46 0 01.33.56.47.47 0 01-.57.33z" fill="#c8ccd1" fill-rule="evenodd"/>
    <path d="M95.85 29.52l-6.28-1.68a.46.46 0 01-.32-.56.46.46 0 01.56-.33l6.27 1.68a.47.47 0 01.33.57.46.46 0 01-.56.32z" fill="#c8ccd1" fill-rule="evenodd"/>
    <path d="M88.09 27.44l-11-3a.45.45 0 01-.32-.56.45.45 0 01.56-.32l11 3a.45.45 0 01.32.56.45.45 0 01-.56.32z" fill="#c8ccd1" fill-rule="evenodd"/>
    <path d="M102.61 28.16l-26-7a.45.45 0 01-.32-.56.45.45 0 01.56-.32l26 7a.47.47 0 01.33.57.46.46 0 01-.57.31z" fill="#c8ccd1" fill-rule="evenodd"/>
    <path d="M94.2 75.67h5.67A4.33 4.33 0 01104.2 80v3.33c0 6.67 4.33 6 4.33 6V90H94.2z" fill="#eaecf0"/>
    <path d="M112.87 62h3.66a3.35 3.35 0 013.34 3.33v6h-7z" fill="#a2a9b1"/>
    <path d="M119.2 70.66h-6.33v-8h3.67a2.67 2.67 0 012.66 2.67v5.33z" fill="#eaecf0"/>
    <path d="M78.52 62h37.68v.67c-1.33 0-2.67.66-2.67 3.33v18.33c0 3-1.66 5.67-5 5.67s-5-2.33-5-5.67V80c0-.33-.27-3.67-4.34-3.67h-25v-10A4.2 4.2 0 0178.52 62z" fill="#a2a9b1"/>
    <path d="M78.85 62.67h35.68s-1.66.33-1.66 3.66v17.34c0 2.33-1 5.66-4.34 5.66s-4.33-2.66-4.33-5.66V80c0-2.33-2-4.33-5.33-4.33h-24v-9a3.65 3.65 0 013.98-4z" fill="#fff"/>
    <path fill="#a2a9b1" d="M108.54 90h-14v-.67h14z"/>
    <path d="M60.52 75.67H98.2v.66a3.81 3.81 0 00-3.33 4v32.34A5.64 5.64 0 0189.2 118h-33V80a4.57 4.57 0 014.32-4.33z" fill="#a2a9b1"/>
    <path d="M60.85 76.33h35.68A3.6 3.6 0 0094.2 80v32a5.07 5.07 0 01-5.31 5.31h-32v-37a4 4 0 013.96-3.98z" fill="#fff"/>
    <path d="M56.53 118h31.34v-.67s-2.67-1-2.67-3.33v-4.67H52.53a.66.66 0 00-.66.67v3.33a4.67 4.67 0 004.66 4.67z" fill="#a2a9b1"/>
    <path d="M56.53 117.33h30a3.87 3.87 0 01-2-3.33v-4H52.87a.34.34 0 00-.34.33v3a4 4 0 004 4z" fill="#f8f9fa"/>
    <rect x="91.2" y="65" width="20" height=".67" rx=".33" transform="rotate(180 101.2 65.335)" fill="#c8ccd1"/>
    <rect x="77.2" y="65" width="13.33" height=".67" rx=".33" transform="rotate(-180 83.865 65.335)" fill="#c8ccd1"/>
    <rect x="94.53" y="69" width="16.67" height=".67" rx=".33" transform="rotate(180 102.865 69.335)" fill="#c8ccd1"/>
    <rect x="81.87" y="71" width="29.33" height=".67" rx=".33" transform="rotate(180 96.535 71.335)" fill="#c8ccd1"/>
    <rect x="77.2" y="73" width="34" height=".67" rx=".33" transform="rotate(-180 94.2 73.335)" fill="#c8ccd1"/>
    <rect x="77.87" y="69" width="16" height=".67" rx=".33" transform="rotate(-180 85.865 69.335)" fill="#c8ccd1"/>
    <rect x="99.2" y="67" width="12" height=".67" rx=".33" transform="rotate(180 105.2 67.335)" fill="#c8ccd1"/>
    <rect x="88.2" y="67" width="10" height=".67" rx=".33" transform="rotate(180 93.2 67.335)" fill="#c8ccd1"/>
    <rect x="79.53" y="67" width="7.33" height=".67" rx=".33" transform="rotate(180 83.2 67.335)" fill="#c8ccd1"/>
    <rect x="102.87" y="77" width="8.33" height=".67" rx=".33" transform="rotate(-180 107.035 77.335)" fill="#c8ccd1"/>
    <rect x="103.87" y="79" width="7.33" height=".67" rx=".33" transform="rotate(180 107.535 79.335)" fill="#c8ccd1"/>
    <rect x="103.87" y="81" width="7.33" height=".67" rx=".33" transform="rotate(180 107.535 81.335)" fill="#c8ccd1"/>
    <rect x="103.87" y="83" width="7.33" height=".67" rx=".33" transform="rotate(-180 107.535 83.335)" fill="#c8ccd1"/>
    <rect x="103.87" y="86" width="7.33" height=".67" rx=".33" transform="rotate(-180 107.535 86.335)" fill="#c8ccd1"/>
    <rect x="58.53" y="79" width="33.33" height=".67" rx=".33" transform="rotate(180 75.2 79.335)" fill="#c8ccd1"/>
    <rect x="83.2" y="83" width="8.67" height=".67" rx=".33" transform="rotate(180 87.535 83.335)" fill="#c8ccd1"/>
    <rect x="75.69" y="85" width="16.18" height=".67" rx=".33" transform="rotate(-180 83.775 85.335)" fill="#c8ccd1"/>
    <rect x="58.53" y="85" width="16.18" height=".67" rx=".33" transform="rotate(-180 66.625 85.335)" fill="#c8ccd1"/>
    <rect x="65.2" y="83" width="16.67" height=".67" rx=".33" transform="rotate(180 73.535 83.335)" fill="#c8ccd1"/>
    <rect x="58.53" y="83" width="6.33" height=".67" rx=".33" transform="rotate(-180 61.7 83.335)" fill="#c8ccd1"/>
    <rect x="68.2" y="81" width="23.67" height=".67" rx=".33" transform="rotate(180 80.035 81.335)" fill="#c8ccd1"/>
    <rect x="59.2" y="81" width="7.33" height=".67" rx=".33" transform="rotate(180 62.865 81.335)" fill="#c8ccd1"/>
    <rect x="58.53" y="94.67" width="33.33" height=".67" rx=".33" fill="#c8ccd1"/>
    <rect x="58.53" y="90.67" width="8.67" height=".67" rx=".33" fill="#c8ccd1"/>
    <rect x="58.53" y="88.67" width="16.18" height=".67" rx=".33" fill="#c8ccd1"/>
    <rect x="75.69" y="88.67" width="16.18" height=".67" rx=".33" fill="#c8ccd1"/>
    <rect x="68.53" y="90.67" width="16" height=".67" rx=".33" fill="#c8ccd1"/>
    <rect x="85.53" y="90.67" width="6.33" height=".67" rx=".33" fill="#c8ccd1"/>
    <rect x="58.53" y="92.67" width="23.67" height=".67" rx=".33" fill="#c8ccd1"/>
    <path d="M90.87 92.67h-7.34c-.18 0 .34.15.34.33 0 .18-.52.33-.34.33h7.34a.33.33 0 00.33-.33.33.33 0 00-.33-.33z" fill="#c8ccd1" fill-rule="evenodd"/>
    <rect x="58.53" y="100.67" width="33.33" height=".67" rx=".33" transform="rotate(180 75.2 101)" fill="#c8ccd1"/>
    <rect x="83.2" y="104.67" width="8.67" height=".67" rx=".33" transform="rotate(180 87.535 105)" fill="#c8ccd1"/>
    <rect x="75.69" y="106.67" width="16.18" height=".67" rx=".33" transform="rotate(180 83.775 107)" fill="#c8ccd1"/>
    <rect x="58.53" y="106.67" width="16.18" height=".67" rx=".33" transform="rotate(180 66.625 107)" fill="#c8ccd1"/>
    <rect x="65.2" y="104.67" width="16.67" height=".67" rx=".33" transform="rotate(180 73.535 105)" fill="#c8ccd1"/>
    <rect x="58.53" y="104.67" width="6.33" height=".67" rx=".33" transform="rotate(180 61.7 105)" fill="#c8ccd1"/>
    <rect x="68.2" y="102.67" width="23.67" height=".67" rx=".33" transform="rotate(180 80.035 103)" fill="#c8ccd1"/>
    <rect x="59.2" y="102.67" width="7.33" height=".67" rx=".33" transform="rotate(180 62.865 103)" fill="#c8ccd1"/>
    <path d="M99.2 75.67c3.13.13 5 2.07 5 4.32v3.67c0 3 1 5.66 4.33 5.66s4.34-3.33 4.34-5.66v-8h.66v8.66c0 3-1.66 5.67-5 5.67s-5-2.33-5-5.67v-4.33c0-.33-.27-3.67-4.34-3.67h-.33v-.66z" fill="#a2a9b1"/>
    <rect x="53.87" y="97.33" width="38.67" height="10.33" rx="1.33" fill="#00af89"/>
    <rect x="54.53" y="98" width="37.33" height="9" rx=".67" fill="#d5fdf4"/>
    <rect x="56.87" y="99.33" width="33.33" height=".67" rx=".33" transform="rotate(180 73.535 99.665)" fill="#14866d"/>
    <rect x="81.53" y="103.33" width="8.67" height=".67" rx=".33" transform="rotate(180 85.865 103.665)" fill="#14866d"/>
    <rect x="74.02" y="105.33" width="16.18" height=".67" rx=".33" transform="rotate(180 82.11 105.665)" fill="#14866d"/>
    <rect x="56.87" y="105.33" width="16.18" height=".67" rx=".33" transform="rotate(180 64.955 105.665)" fill="#14866d"/>
    <rect x="64.2" y="103.33" width="16" height=".67" rx=".33" transform="rotate(180 72.2 103.665)" fill="#14866d"/>
    <rect x="56.87" y="103.33" width="6.33" height=".67" rx=".33" transform="rotate(180 60.035 103.665)" fill="#14866d"/>
    <rect x="66.53" y="101.33" width="23.67" height=".67" rx=".33" transform="rotate(180 78.365 101.665)" fill="#14866d"/>
    <path d="M57.87 102h7.33c.18 0-.33-.15-.33-.33 0-.19.51-.34.33-.34h-7.33a.34.34 0 00-.34.34.34.34 0 00.34.33z" fill="#14866d" fill-rule="evenodd"/>
    <path fill="#fef6e7" fill-rule="evenodd" d="M84.82 89.65l3.82 4.98.52.3 2.4-4.16-.52-.3-6.22-.82z"/>
    <path fill="#54595d" d="M86.79 92.22l-1.97-2.57 3.21.42-1.24 2.15z"/>
    <path d="M117.49 105.74a1.6 1.6 0 01.59 2.19l-.8 1.39a1.61 1.61 0 01-2.19.58l-2.09-1.2 2.4-4.16z" fill="#ff6e6e"/>
    <path fill="#c8ccd1" d="M110.937 107.492l2.4-4.157 2.078 1.2-2.4 4.157z"/>
    <path d="M88.64 94.63l22.3 12.87 2.4-4.16L91 90.47a.89.89 0 01.12 1 .9.9 0 01-.92.4.83.83 0 01-.8 1.38.89.89 0 01.12 1 .9.9 0 01-.88.38z" fill="#00af89"/>
</svg>
