<svg xmlns="http://www.w3.org/2000/svg" viewBox="0 0 216 64">
    <path d="M128.29 6.78L101.76 10a7 7 0 00-6.37 6.61 7 7 0 00-7.78-4.88L61.08 15a1.79 1.79 0 00-1.56 2l4.73 38.47a1.78 1.78 0 002 1.55l67.22-8.25a1.79 1.79 0 001.55-2l-4.75-38.44a1.78 1.78 0 00-1.98-1.55z" fill="#fc3" fill-rule="evenodd"/>
    <path d="M96.64 52.41l6.19-.76.1.88a.44.44 0 01-.38.5l-5.31.65a.45.45 0 01-.5-.39z" fill="#ff9500" fill-rule="evenodd"/>
    <path d="M101.312 10.09l26.53-3.257a.89.89 0 01.993.775l4.94 40.237-34.044 4.18-4.235-34.49a6.68 6.68 0 015.816-7.445z" fill="#eaecf0"/>
    <path d="M61.52 15l26.09-3.21c3.9-.48 7.41 1.86 7.89 5.77L99.73 52l-34 4.18L60.74 16a.89.89 0 01.78-1z" fill="#eaecf0" fill-rule="evenodd"/>
    <path d="M99.267 52.082l-32.754 4.021-4.887-39.8a.45.45 0 01.392-.502l25.26-3.102a7.13 7.13 0 017.918 6.222l4.071 33.16z" fill="#fff"/>
    <path d="M101.86 10.913l25.647-3.15a.45.45 0 01.501.392l4.887 39.801-32.754 4.022-4.127-33.608a6.68 6.68 0 015.845-7.457z" fill="#fff"/>
    <path d="M65.138 51.784l31.394-3.855a2.67 2.67 0 012.976 2.325l.217 1.767L65.68 56.2l-.542-4.417z" fill="#ac6600"/>
    <path d="M133.775 47.844l-34.044 4.18-.217-1.766a2.67 2.67 0 012.279-3.02l31.434-3.86.548 4.466z" fill="#ac6600"/>
    <path d="M111.23 11.56L101 12.81a.41.41 0 00-.36.46.41.41 0 00.46.36l10.22-1.25a.43.43 0 00.36-.46.41.41 0 00-.45-.36zM125 9.86l-12.4 1.53a.41.41 0 00-.36.46.41.41 0 00.46.36l12.42-1.53a.4.4 0 00.36-.46.42.42 0 00-.48-.36zm.35 2.74l-7.46.92a.4.4 0 00-.36.46.42.42 0 00.46.36l7.46-.92a.42.42 0 00.36-.46.41.41 0 00-.46-.36zm-8.82 1.08l-13 1.6a.41.41 0 00-.36.46.43.43 0 00.46.36l13-1.6a.4.4 0 00.37-.5.42.42 0 00-.47-.32zm9.15 1.66l-14.63 1.79a.42.42 0 00-.36.46.41.41 0 00.46.36l14.63-1.79a.41.41 0 00.36-.46.4.4 0 00-.46-.36zm-22.9 2.81l6.91-.85a.41.41 0 01.46.36.41.41 0 01-.36.46l-6.9.85a.43.43 0 01-.47-.36.42.42 0 01.36-.46z" fill="#c8ccd1" fill-rule="evenodd"/>
    <path d="M126 18.07L102 21a.41.41 0 00-.36.46.41.41 0 00.46.36l24-2.95a.41.41 0 00.36-.46.41.41 0 00-.46-.34zm-5.71 3.48l-5.81.72a.42.42 0 00-.36.46.43.43 0 00.46.36l5.81-.72a.42.42 0 00.36-.46.43.43 0 00-.46-.36zm-7.17.88l-9.66 1.19a.41.41 0 00-.36.46.4.4 0 00.46.36l9.66-1.19a.4.4 0 00.36-.46.42.42 0 00-.46-.36zm13.24-1.62l-4.7.57a.42.42 0 00-.36.47.42.42 0 00.46.36l4.7-.58a.43.43 0 00.36-.46.41.41 0 00-.46-.36zm.33 2.73L106 26.09a.4.4 0 00-.36.46.42.42 0 00.46.36l20.7-2.55a.4.4 0 00.36-.46.42.42 0 00-.47-.36z" fill="#ac6600" fill-rule="evenodd"/>
    <rect x="118.07" y="26.8" width="9.45" height=".83" rx=".41" transform="rotate(-7 122.814 27.205)" fill="#c8ccd1"/>
    <rect x="102.61" y="28.36" width="15.01" height=".83" rx=".41" transform="rotate(-7 110.08 28.806)" fill="#c8ccd1"/>
    <rect x="102.97" y="31.03" width="25.02" height=".83" rx=".41" transform="rotate(-7 115.498 31.435)" fill="#c8ccd1"/>
    <rect x="103.35" y="34.55" width="12.23" height=".83" rx=".41" transform="rotate(-7 109.459 34.922)" fill="#c8ccd1"/>
    <rect x="116.04" y="32.99" width="12.23" height=".83" rx=".41" transform="rotate(-7 122.188 33.403)" fill="#c8ccd1"/>
    <rect x="105.85" y="36.37" width="22.8" height=".83" rx=".41" transform="rotate(-7 117.222 36.791)" fill="#c8ccd1"/>
    <path d="M128.44 37.77l-4.15.51a.42.42 0 00-.36.46.41.41 0 00.46.36l4.15-.51a.41.41 0 00.36-.46.41.41 0 00-.46-.36zm-5.51.68l-5.8.71a.41.41 0 00-.36.46.41.41 0 00.46.36l5.8-.71a.41.41 0 00.36-.46.41.41 0 00-.46-.36zm-7.17.88l-10.22 1.25a.41.41 0 00-.36.46.41.41 0 00.46.36l10.22-1.25a.43.43 0 00.36-.46.41.41 0 00-.46-.36zm13.02 1.18l-24 2.94a.42.42 0 00-.36.46.41.41 0 00.46.36l24-2.94a.41.41 0 00.36-.46.4.4 0 00-.46-.36zM79.25 47.7L69 49a.4.4 0 01-.46-.36.41.41 0 01.36-.46l10.21-1.25a.41.41 0 01.46.36.41.41 0 01-.32.41zm13.8-1.7l-12.42 1.53a.42.42 0 01-.47-.36.42.42 0 01.36-.46L93 45.18a.43.43 0 01.46.36.4.4 0 01-.41.46zm-.35-2.73l-7.45.91a.4.4 0 01-.46-.36.41.41 0 01.36-.46l7.45-.91a.4.4 0 01.46.36.41.41 0 01-.36.46zm-8.82 1.08l-13 1.6a.42.42 0 01-.46-.36.42.42 0 01.36-.47l13-1.59a.4.4 0 01.46.36.41.41 0 01-.36.46zm8.49-3.82l-14.63 1.8a.4.4 0 01-.46-.36.41.41 0 01.36-.46l14.63-1.8a.42.42 0 01.46.36.42.42 0 01-.36.46zm-22.9 2.81l6.9-.84a.41.41 0 00.36-.46.4.4 0 00-.46-.36l-6.9.84A.41.41 0 0069 43a.41.41 0 00.47.34zM92 37.8l-24 3a.42.42 0 01-.46-.36.42.42 0 01.36-.47l24-2.94a.41.41 0 01.46.36.41.41 0 01-.36.41zm-6.38-1.99l-5.8.71a.41.41 0 01-.46-.36.42.42 0 01.36-.46l5.8-.71a.4.4 0 01.46.36.41.41 0 01-.36.46zm-7.16.88l-9.66 1.18a.4.4 0 01-.46-.36.41.41 0 01.36-.46l9.66-1.18a.41.41 0 01.46.36.41.41 0 01-.36.46zm13.24-1.63l-4.7.58a.41.41 0 01-.46-.36.41.41 0 01.36-.46l4.69-.58a.42.42 0 01.47.36.42.42 0 01-.36.46zm-.34-2.73l-20.7 2.54a.42.42 0 01-.46-.36.4.4 0 01.36-.46l20.7-2.55a.42.42 0 01.46.36.42.42 0 01-.36.47z" fill="#c8ccd1" fill-rule="evenodd"/>
    <rect x="81.97" y="29.29" width="9.45" height=".83" rx=".41" transform="rotate(-7 86.722 29.675)" fill="#c8ccd1"/>
    <rect x="66.5" y="30.85" width="15.01" height=".83" rx=".41" transform="rotate(-7 73.988 31.275)" fill="#c8ccd1"/>
    <rect x="66.05" y="26.96" width="25.02" height=".83" rx=".41" transform="rotate(-7 78.576 27.371)" fill="#c8ccd1"/>
    <rect x="65.77" y="25" width="12.23" height=".83" rx=".41" transform="rotate(-7 71.886 25.403)" fill="#c8ccd1"/>
    <rect x="78.46" y="23.44" width="12.23" height=".83" rx=".41" transform="rotate(-7 84.533 23.879)" fill="#c8ccd1"/>
    <rect x="67.6" y="21.35" width="22.8" height=".83" rx=".41" transform="rotate(-7 79.003 21.735)" fill="#c8ccd1"/>
    <path d="M89.61 18.1l-4.14.51a.41.41 0 01-.46-.36.4.4 0 01.36-.46l4.14-.51a.41.41 0 01.46.36.41.41 0 01-.36.46zm-5.51.67l-5.8.72a.43.43 0 01-.46-.36.4.4 0 01.36-.46L84 18a.42.42 0 01.46.36.4.4 0 01-.36.41zm-7.17.89l-10.22 1.25a.41.41 0 01-.46-.36.42.42 0 01.36-.46l10.22-1.26a.42.42 0 01.46.36.42.42 0 01-.36.47zm12.36-4.3l-24 2.95a.41.41 0 01-.46-.36.42.42 0 01.36-.46l24-2.95a.41.41 0 01.46.36.42.42 0 01-.36.46z" fill="#c8ccd1" fill-rule="evenodd"/>
    <path d="M52.34 12.26L47 5.87h-.12L14.09 3a1.43 1.43 0 00-1.53 1.29L8.17 54.47l-.17 2c.83.07.93-1 1.77-1s.74 1.19 1.58 1.26.93-1 1.77-1 .74 1.19 1.58 1.26.93-1 1.77-1 .74 1.19 1.57 1.27.94-1.05 1.78-1 .73 1.19 1.57 1.26.94-1 1.77-1 .74 1.19 1.58 1.26.93-1 1.77-1 .74 1.19 1.57 1.27.94-1 1.77-1 .74 1.18 1.58 1.26.93-1 1.77-1 .73 1.19 1.57 1.26.93-1 1.77-1 .74 1.19 1.57 1.26.94-1 1.77-1 .74 1.19 1.58 1.27.93-1 1.77-1 .74 1.18 1.57 1.26.94-1 1.77-1 .74 1.19 1.58 1.26l.19-1.62z" fill="#fff"/>
    <path d="M14.41 4.15a.72.72 0 00-.77.69L11.75 26.4l37.94 3.32 1.49-17.1L46.47 7z" fill="#fee7e6" fill-rule="evenodd"/>
    <rect x="12.28" y="52.28" width="33.29" height="1.12" rx=".56" transform="matrix(1 .09 -.09 1 4.72 -2.32)" fill="#b32424"/>
    <rect x="12.28" y="52.28" width="33.29" height="1.12" rx=".56" transform="rotate(5 28.928 52.893)" fill="#b32424"/>
    <rect x="12.5" y="49.82" width="33.29" height="1.12" rx=".56" transform="rotate(5 29.162 50.358)" fill="#b32424"/>
    <rect x="12.93" y="44.89" width="33.29" height="1.12" rx=".56" transform="rotate(5 29.52 45.41)" fill="#b32424"/>
    <rect x="12.76" y="46.15" width="5.65" height="1.12" rx=".56" transform="rotate(5 15.578 46.706)" fill="#b32424"/>
    <rect x="24.66" y="39.75" width="5.65" height="1.12" rx=".56" transform="rotate(5 27.462 40.336)" fill="#b32424"/>
    <rect x="38.07" y="48.46" width="7.89" height="1.12" rx=".56" transform="rotate(5 42.068 48.992)" fill="#b32424"/>
    <rect x="35.68" y="43.42" width="10.71" height="1.12" rx=".56" transform="rotate(5 41.046 43.988)" fill="#b32424"/>
    <rect x="19.77" y="47.26" width="16.94" height="1.12" rx=".56" transform="rotate(5 28.25 47.874)" fill="#b32424"/>
    <rect x="13.17" y="41.9" width="21.17" height="1.12" rx=".56" transform="rotate(5 23.768 42.448)" fill="#b32424"/>
    <rect x="13.4" y="38.95" width="9.88" height="1.12" rx=".56" transform="rotate(5 18.36 39.471)" fill="#b32424"/>
    <rect x="36.07" y="32.87" width="11.2" height="2.24" rx="1.12" transform="rotate(5 41.642 33.98)" fill="#b32424"/>
    <rect x="29.11" y="36.01" width="17.92" height="1.12" rx=".56" transform="rotate(5 38.082 36.545)" fill="#ff6e6e"/>
    <rect x="31.67" y="40.77" width="14.94" height="1.12" rx=".56" transform="rotate(5 39.094 41.32)" fill="#b32424"/>
    <path d="M52.22 13.64l-6-.53a1.26 1.26 0 01-1.15-1.36l.53-6 1.45.13 5.29 6.31z" fill="#c8ccd1" fill-rule="evenodd"/>
    <path d="M52.34 12.26L47 5.87h-.12L14.09 3a1.43 1.43 0 00-1.53 1.29L8.17 54.47l-.17 2c.83.07.93-1 1.77-1s.74 1.19 1.58 1.26.93-1 1.77-1 .74 1.19 1.58 1.26.93-1 1.77-1 .74 1.19 1.57 1.27.94-1.05 1.78-1 .73 1.19 1.57 1.26.94-1 1.77-1 .74 1.19 1.58 1.26.93-1 1.77-1 .74 1.19 1.57 1.27.94-1 1.77-1 .74 1.18 1.58 1.26.93-1 1.77-1 .73 1.19 1.57 1.26.93-1 1.77-1 .74 1.19 1.57 1.26.94-1 1.77-1 .74 1.19 1.58 1.27.93-1 1.77-1 .74 1.18 1.57 1.26.94-1 1.77-1 .74 1.19 1.58 1.26l.19-1.62zm-5.65 45.3c-.84-.07-.93 1-1.77 1s-.74-1.19-1.58-1.26-.93 1-1.76 1-.74-1.25-1.58-1.3-.93 1-1.77 1-.74-1.19-1.57-1.27-.94 1-1.77 1-.74-1.18-1.58-1.26-.93 1-1.76 1-.74-1.3-1.55-1.37-.93 1-1.77 1-.74-1.19-1.57-1.26-.94 1-1.77 1-.74-1.19-1.58-1.27-.93 1.05-1.77 1-.74-1.19-1.58-1.26-.93 1-1.77 1-.74-1.19-1.58-1.26-.93 1-1.77 1-.74-1.19-1.57-1.26-.94 1-1.77 1-.74-1.19-1.58-1.27-.51-.88-.51-.88l4.2-48a1.41 1.41 0 011.53-1.28L46.88 7l4.34 5.17-3.9 44.61s.21.86-.63.78z" fill="#c8ccd1"/>
    <rect x="31.71" y="12.55" width="1" height="11.95" rx=".45" transform="rotate(100 32.203 18.527)" fill="#ff6e6e"/>
    <rect x="31.71" y="12.55" width="1" height="11.95" rx=".45" transform="rotate(-170 32.203 18.525)" fill="#ff6e6e"/>
    <rect x="31.71" y="12.55" width="1" height="11.95" rx=".45" transform="rotate(-125 32.204 18.525)" fill="#ff6e6e"/>
    <rect x="31.71" y="12.55" width="1" height="11.95" rx=".45" transform="rotate(145 32.204 18.526)" fill="#ff6e6e"/>
    <path d="M167.63 18.27h-5.1a3.9 3.9 0 00-3.9 3.9v3c0 6-3.9 5.4-3.9 5.4v.6h12.9z" fill="#eaecf0"/>
    <path d="M150.83 6h-3.3a3 3 0 00-3 3v5.4h6.3z" fill="#a2a9b1"/>
    <path d="M147.53 6.57h3.3v7.2h-5.7V9a2.4 2.4 0 012.4-2.43z" fill="#eaecf0"/>
    <path d="M181.75 6h-33.92v.6c1.2 0 2.4.6 2.4 3v16.5c0 2.65 1.5 5.1 4.5 5.1s4.5-2.1 4.5-5.1v-3.9c0-.3.24-3.3 3.9-3.3h22.5v-9a3.77 3.77 0 00-3.88-3.9z" fill="#a2a9b1"/>
    <path d="M181.45 6.57h-32.12s1.5.3 1.5 3.3v15.6c0 2.1.9 5.1 3.9 5.1s3.9-2.4 3.9-5.1v-3.3c0-2.1 1.8-3.9 4.8-3.9H185v-8.12a3.28 3.28 0 00-3.55-3.58z" fill="#fff"/>
    <path fill="#a2a9b1" d="M154.73 30.57h12.6v.6h-12.6z"/>
    <path d="M198 18.27h-34v.6a3.43 3.43 0 013 3.6v29.1a5.07 5.07 0 005.1 4.8h29.7V22.15a4.11 4.11 0 00-3.8-3.88z" fill="#a2a9b1"/>
    <path d="M197.65 18.87h-32.12a3.23 3.23 0 012.1 3.3V51a4.59 4.59 0 004.79 4.79h28.81V22.45a3.58 3.58 0 00-3.58-3.58z" fill="#fff"/>
    <path d="M201.53 56.37h-28.2v-.6s2.4-.9 2.4-3v-4.2h29.4a.59.59 0 01.6.6v3a4.2 4.2 0 01-4.2 4.2z" fill="#a2a9b1"/>
    <path d="M201.53 55.77h-27a3.48 3.48 0 001.8-3v-3.6h28.5a.29.29 0 01.3.3v2.7a3.6 3.6 0 01-3.6 3.6z" fill="#f8f9fa"/>
    <rect x="164.93" y="8.67" width="18" height=".6" rx=".3" transform="rotate(-180 173.935 8.965)" fill="#c8ccd1"/>
    <rect x="152.33" y="8.67" width="12" height=".6" rx=".3" transform="rotate(180 158.335 8.965)" fill="#c8ccd1"/>
    <rect x="167.93" y="12.27" width="15" height=".6" rx=".3" transform="rotate(180 175.435 12.565)" fill="#c8ccd1"/>
    <rect x="156.53" y="14.07" width="26.4" height=".6" rx=".3" transform="rotate(-180 169.735 14.365)" fill="#c8ccd1"/>
    <rect x="152.33" y="15.87" width="30.6" height=".6" rx=".3" transform="rotate(180 167.635 16.165)" fill="#c8ccd1"/>
    <rect x="152.93" y="12.27" width="14.4" height=".6" rx=".3" transform="rotate(-180 160.135 12.565)" fill="#c8ccd1"/>
    <rect x="172.13" y="10.47" width="10.8" height=".6" rx=".3" transform="rotate(-180 177.535 10.765)" fill="#c8ccd1"/>
    <rect x="162.23" y="10.47" width="9" height=".6" rx=".3" transform="rotate(180 166.735 10.765)" fill="#c8ccd1"/>
    <rect x="154.43" y="10.47" width="6.6" height=".6" rx=".3" transform="rotate(180 157.735 10.765)" fill="#c8ccd1"/>
    <rect x="152.33" y="19.47" width="7.5" height=".6" rx=".3" transform="rotate(180 156.085 19.765)" fill="#c8ccd1"/>
    <rect x="152.93" y="21.27" width="6" height=".6" rx=".29" transform="rotate(180 155.935 21.565)" fill="#c8ccd1"/>
    <rect x="154.93" y="23.07" width="4" height=".6" rx=".23" transform="rotate(180 156.935 23.365)" fill="#c8ccd1"/>
    <rect x="152.33" y="24.87" width="6.6" height=".6" rx=".3" transform="rotate(180 155.635 25.165)" fill="#c8ccd1"/>
    <rect x="154.93" y="27.57" width="4" height=".6" rx=".23" transform="rotate(180 156.935 27.865)" fill="#c8ccd1"/>
    <rect x="169.73" y="21.27" width="30" height=".6" rx=".3" transform="rotate(-180 184.735 21.565)" fill="#c8ccd1"/>
    <rect x="191.93" y="24.87" width="7.8" height=".6" rx=".3" transform="rotate(-180 195.835 25.165)" fill="#c8ccd1"/>
    <rect x="185.17" y="26.67" width="14.56" height=".6" rx=".3" transform="rotate(-180 192.455 26.965)" fill="#c8ccd1"/>
    <rect x="169.73" y="26.67" width="14.56" height=".6" rx=".3" transform="rotate(-180 177.015 26.965)" fill="#c8ccd1"/>
    <rect x="175.73" y="24.87" width="15" height=".6" rx=".3" transform="rotate(180 183.235 25.165)" fill="#c8ccd1"/>
    <rect x="169.73" y="24.87" width="5.7" height=".6" rx=".3" transform="rotate(-180 172.585 25.165)" fill="#c8ccd1"/>
    <rect x="178.43" y="23.07" width="21.3" height=".6" rx=".3" transform="rotate(180 189.085 23.365)" fill="#c8ccd1"/>
    <rect x="170.33" y="23.07" width="6.6" height=".6" rx=".3" transform="rotate(180 173.635 23.365)" fill="#c8ccd1"/>
    <rect x="169.73" y="35.37" width="30" height=".6" rx=".3" fill="#c8ccd1"/>
    <rect x="169.73" y="31.77" width="7.8" height=".6" rx=".3" fill="#c8ccd1"/>
    <rect x="169.73" y="29.97" width="14.56" height=".6" rx=".3" fill="#c8ccd1"/>
    <rect x="185.17" y="29.97" width="14.56" height=".6" rx=".3" fill="#c8ccd1"/>
    <rect x="178.73" y="31.77" width="14.4" height=".6" rx=".3" fill="#c8ccd1"/>
    <rect x="194.03" y="31.77" width="5.7" height=".6" rx=".3" fill="#c8ccd1"/>
    <rect x="169.73" y="33.57" width="21.3" height=".6" rx=".3" fill="#c8ccd1"/>
    <path d="M198.83 33.57h-6.6c-.16 0 .3.13.3.3 0 .16-.46.3-.3.3h6.6a.3.3 0 00.3-.3.29.29 0 00-.3-.3z" fill="#c8ccd1" fill-rule="evenodd"/>
    <rect x="169.73" y="40.77" width="30" height=".6" rx=".3" fill="#c8ccd1"/>
    <rect x="169.73" y="44.37" width="7.8" height=".6" rx=".3" fill="#c8ccd1"/>
    <rect x="169.73" y="46.17" width="14.56" height=".6" rx=".3" fill="#c8ccd1"/>
    <rect x="185.17" y="46.17" width="14.56" height=".6" rx=".3" fill="#c8ccd1"/>
    <rect x="178.73" y="44.37" width="15" height=".6" rx=".3" fill="#c8ccd1"/>
    <rect x="194.03" y="44.37" width="5.7" height=".6" rx=".3" fill="#c8ccd1"/>
    <rect x="169.73" y="42.57" width="21.3" height=".6" rx=".3" fill="#c8ccd1"/>
    <rect x="192.53" y="42.57" width="6.6" height=".6" rx=".3" fill="#c8ccd1"/>
    <path d="M163.13 18.27c-2.81.11-4.5 1.86-4.5 3.89v3.3c0 2.7-.9 5.1-3.9 5.1s-3.9-3-3.9-5.1v-7.2h-.6v7.8c0 2.65 1.5 5.1 4.5 5.1s4.5-2.1 4.5-5.1v-3.9c0-.3.24-3.3 3.9-3.3h.3v-.6z" fill="#a2a9b1"/>
    <rect x="169.13" y="37.77" width="34.8" height="9.3" rx="1.2" fill="#00af89"/>
    <rect x="169.73" y="38.37" width="33.6" height="8.1" rx=".6" fill="#d5fdf4"/>
    <rect x="171.83" y="39.57" width="30" height=".6" rx=".3" transform="rotate(180 186.835 39.865)" fill="#14866d"/>
    <rect x="194.03" y="43.17" width="7.8" height=".6" rx=".3" transform="rotate(180 197.935 43.465)" fill="#14866d"/>
    <rect x="187.27" y="44.97" width="14.56" height=".6" rx=".3" transform="rotate(180 194.555 45.265)" fill="#14866d"/>
    <rect x="171.83" y="44.97" width="14.56" height=".6" rx=".3" transform="rotate(180 179.115 45.265)" fill="#14866d"/>
    <rect x="178.43" y="43.17" width="14.4" height=".6" rx=".3" transform="rotate(180 185.635 43.465)" fill="#14866d"/>
    <rect x="171.83" y="43.17" width="5.7" height=".6" rx=".3" transform="rotate(180 174.685 43.465)" fill="#14866d"/>
    <rect x="180.53" y="41.37" width="21.3" height=".6" rx=".3" transform="rotate(180 191.185 41.665)" fill="#14866d"/>
    <path d="M172.73 42h6.6c.17 0-.3-.14-.3-.3 0-.17.47-.3.3-.3h-6.6a.3.3 0 00-.3.3.31.31 0 00.3.3z" fill="#14866d" fill-rule="evenodd"/>
    <path fill="#fef6e7" fill-rule="evenodd" d="M176.08 30.85l-3.44 4.48-.47.27-2.16-3.74.47-.27 5.6-.74z"/>
    <path fill="#54595d" d="M174.3 33.17l1.78-2.32-2.9.38 1.12 1.94z"/>
    <path d="M146.67 45.34a1.43 1.43 0 00-.53 2l.72 1.25a1.45 1.45 0 002 .53L150.7 48l-2.16-3.74z" fill="#ff6e6e"/>
    <path fill="#c8ccd1" d="M148.548 44.251l1.871-1.08 2.16 3.742-1.87 1.08z"/>
    <path d="M172.64 35.33l-20.07 11.59-2.16-3.74 20.07-11.59a.8.8 0 00-.11.89.81.81 0 00.83.36.75.75 0 00.72 1.24.81.81 0 00-.11.9.8.8 0 00.83.35z" fill="#00af89"/>
</svg>
