<svg xmlns="http://www.w3.org/2000/svg" viewBox="0 0 216 64">
    <path d="M147.5 6.78L121 10a7 7 0 00-6.37 6.61 7 7 0 00-7.78-4.88L80.29 15a1.78 1.78 0 00-1.55 2l4.72 38.47a1.79 1.79 0 002 1.55l67.21-8.25a1.78 1.78 0 001.55-2l-4.73-38.44a1.78 1.78 0 00-1.99-1.55z" fill="#fc3" fill-rule="evenodd"/>
    <path d="M115.85 52.41l6.19-.76.11.88a.45.45 0 01-.39.5l-5.31.65a.44.44 0 01-.49-.39z" fill="#ff9500" fill-rule="evenodd"/>
    <path d="M120.549 10.086l26.5-3.254a.89.89 0 01.992.775l4.941 40.237-34.044 4.18-4.235-34.49a6.68 6.68 0 015.846-7.448z" fill="#eaecf0"/>
    <path d="M80.73 15l26.09-3.21c3.91-.48 7.41 1.86 7.89 5.77L118.94 52l-34 4.18L80 16a.88.88 0 01.73-1z" fill="#eaecf0" fill-rule="evenodd"/>
    <path d="M118.5 52.08l-32.754 4.022-4.887-39.801a.45.45 0 01.392-.501l25.677-3.153a6.68 6.68 0 017.445 5.816L118.5 52.08z" fill="#fff"/>
    <path d="M121.523 10.857l25.2-3.095a.45.45 0 01.502.392l4.887 39.801-32.754 4.022-4.073-33.17a7.13 7.13 0 016.208-7.947z" fill="#fff"/>
    <path d="M84.355 51.782l31.394-3.855a2.67 2.67 0 012.975 2.325l.217 1.766-34.044 4.18-.542-4.416z" fill="#ac6600"/>
    <path d="M152.999 47.846l-34.045 4.18-.217-1.767a2.67 2.67 0 012.309-3.024l31.404-3.856.549 4.467z" fill="#ac6600"/>
    <path d="M134 11.12l10.21-1.26a.43.43 0 01.47.36.42.42 0 01-.36.46l-10.22 1.26a.42.42 0 01-.46-.36.41.41 0 01.36-.46zm-13.79 1.69l12.43-1.52a.41.41 0 01.46.36.43.43 0 01-.36.46l-12.43 1.52a.41.41 0 01-.46-.36.42.42 0 01.36-.46zm.35 2.74l7.46-.92a.41.41 0 01.46.36.42.42 0 01-.36.46l-7.46.92a.42.42 0 01-.46-.36.4.4 0 01.36-.46zm8.82-1.09l13-1.59a.4.4 0 01.46.36.41.41 0 01-.36.46l-13 1.59a.41.41 0 01-.46-.36.41.41 0 01.36-.46zm-8.49 3.82l14.63-1.79a.42.42 0 01.47.36.43.43 0 01-.36.46L121 19.1a.42.42 0 01-.47-.36.43.43 0 01.36-.46zm22.9-2.81l-6.9.85a.41.41 0 00-.36.46.41.41 0 00.46.36l6.9-.85a.41.41 0 00.36-.46.4.4 0 00-.46-.36z" fill="#c8ccd1" fill-rule="evenodd"/>
    <path d="M121.23 21l24-2.95a.4.4 0 01.46.36.41.41 0 01-.36.46l-24 2.95a.41.41 0 01-.46-.36.41.41 0 01.36-.46zm6.41 2l5.8-.71a.41.41 0 01.46.36.41.41 0 01-.36.46l-5.8.71a.4.4 0 01-.46-.36.41.41 0 01.36-.46zm7.16-.87l9.66-1.19a.43.43 0 01.47.36.42.42 0 01-.36.46L134.9 23a.41.41 0 01-.46-.36.41.41 0 01.36-.51zm-13.23 1.62l4.69-.57a.4.4 0 01.46.36.41.41 0 01-.36.46l-4.69.57a.4.4 0 01-.46-.36.41.41 0 01.36-.46zm.33 2.74L142.6 24a.4.4 0 01.46.36.41.41 0 01-.36.46L122 27.31a.41.41 0 01-.46-.36.42.42 0 01.36-.46z" fill="#ac6600" fill-rule="evenodd"/>
    <rect x="121.84" y="28.7" width="9.45" height=".83" rx=".41" transform="rotate(-7 126.556 29.075)" fill="#c8ccd1"/>
    <rect x="131.75" y="27.14" width="15.01" height=".83" rx=".41" transform="rotate(-7 139.285 27.556)" fill="#c8ccd1"/>
    <rect x="122.19" y="31.03" width="25.02" height=".83" rx=".41" transform="rotate(-7 134.698 31.46)" fill="#c8ccd1"/>
    <rect x="135.26" y="32.99" width="12.23" height=".83" rx=".41" transform="rotate(-7 141.388 33.428)" fill="#c8ccd1"/>
    <rect x="122.57" y="34.55" width="12.23" height=".83" rx=".41" transform="rotate(-7 128.658 34.947)" fill="#c8ccd1"/>
    <rect x="122.87" y="36.64" width="22.8" height=".83" rx=".41" transform="rotate(-7 134.276 37.014)" fill="#c8ccd1"/>
    <path d="M123.65 40.72l4.14-.51a.42.42 0 01.47.36.43.43 0 01-.36.46l-4.15.51a.42.42 0 01-.46-.36.4.4 0 01.36-.46zm5.51-.72l5.8-.71a.41.41 0 01.46.36.41.41 0 01-.36.46l-5.8.71a.41.41 0 01-.46-.36.41.41 0 01.36-.46zm7.17-.84l10.22-1.25a.41.41 0 01.46.36.42.42 0 01-.36.46L136.43 40a.41.41 0 01-.46-.36.41.41 0 01.36-.48zM124 43.45l24-2.94a.41.41 0 01.46.36.42.42 0 01-.36.46l-24 3a.42.42 0 01-.46-.36.42.42 0 01.36-.52zm-22 3.81L112.25 46a.4.4 0 00.36-.46.42.42 0 00-.46-.36l-10.21 1.26a.41.41 0 00-.36.46.4.4 0 00.42.36zM88.24 49l12.42-1.52A.41.41 0 00101 47a.4.4 0 00-.46-.36l-12.4 1.49a.41.41 0 00-.36.46.41.41 0 00.46.41zm-.33-2.78l7.46-.92a.41.41 0 00.36-.46.41.41 0 00-.46-.36l-7.46.91a.43.43 0 00-.36.47.43.43 0 00.46.36zm8.82-1.09l13-1.59a.41.41 0 00.36-.46.41.41 0 00-.46-.36l-13 1.59a.42.42 0 00-.36.46.41.41 0 00.46.36zm-9.15-1.65l14.63-1.8a.4.4 0 00.36-.46.42.42 0 00-.46-.36l-14.63 1.8a.41.41 0 00-.36.46.4.4 0 00.46.36zm22.9-2.81l-6.91.85a.42.42 0 01-.46-.36.4.4 0 01.36-.46l6.91-.85a.41.41 0 01.46.36.43.43 0 01-.36.46zm-23.24.07l24-2.94a.42.42 0 00.36-.47.42.42 0 00-.46-.36l-24 3a.41.41 0 00-.36.46.41.41 0 00.46.31zM93 37.26l5.8-.71a.42.42 0 00.36-.46.41.41 0 00-.46-.36l-5.8.71a.41.41 0 00-.36.46.4.4 0 00.46.36zm7.14-.88l9.66-1.18a.41.41 0 00.36-.46.4.4 0 00-.46-.36l-9.7 1.18a.41.41 0 00-.36.46.41.41 0 00.5.36zM86.91 38l4.69-.58A.41.41 0 0092 37a.4.4 0 00-.46-.36l-4.69.58a.4.4 0 00-.36.46.41.41 0 00.42.32zm-.34-2.73l20.7-2.54a.41.41 0 00.36-.46.41.41 0 00-.46-.36l-20.7 2.54a.41.41 0 00-.36.46.41.41 0 00.46.36z" fill="#c8ccd1" fill-rule="evenodd"/>
    <rect x="85.74" y="31.19" width="9.45" height=".83" rx=".41" transform="rotate(-7 90.46 31.626)" fill="#c8ccd1"/>
    <rect x="95.64" y="29.63" width="15.01" height=".83" rx=".41" transform="rotate(-7 103.112 30.02)" fill="#c8ccd1"/>
    <rect x="85.28" y="26.95" width="25.02" height=".83" rx=".41" transform="rotate(-7 97.775 27.397)" fill="#c8ccd1"/>
    <rect x="97.68" y="23.44" width="12.23" height=".83" rx=".41" transform="rotate(-7 103.82 23.828)" fill="#c8ccd1"/>
    <rect x="84.99" y="25" width="12.23" height=".83" rx=".41" transform="rotate(-7 91.085 25.428)" fill="#c8ccd1"/>
    <rect x="84.61" y="21.62" width="22.8" height=".83" rx=".41" transform="rotate(-7 96.051 22.04)" fill="#c8ccd1"/>
    <path d="M84.82 21l4.15-.5a.42.42 0 00.36-.47.43.43 0 00-.46-.36l-4.15.51a.42.42 0 00-.36.46.41.41 0 00.46.36zm5.51-.63l5.8-.71a.41.41 0 00.36-.46.4.4 0 00-.46-.36l-5.8.71a.41.41 0 00-.36.46.42.42 0 00.46.36zm7.18-.88l10.21-1.26a.4.4 0 00.36-.46.42.42 0 00-.46-.36L97.4 18.67a.42.42 0 00-.36.46.43.43 0 00.47.36zm-13.03-1.18l24-2.95a.41.41 0 00.36-.46.41.41 0 00-.46-.36l-24 2.95A.41.41 0 0084 18a.4.4 0 00.48.31z" fill="#c8ccd1" fill-rule="evenodd"/>
    <path d="M205.9 12.45l-5.36-6.38h-.12l-32.77-2.88a1.41 1.41 0 00-1.53 1.29l-4.39 50.19-.17 1.95c.84.08.94-1 1.78-1s.74 1.18 1.58 1.26.93-1 1.77-1 .74 1.19 1.57 1.26.94-1 1.77-1 .74 1.19 1.58 1.26.94-1 1.77-1 .74 1.19 1.58 1.27.93-1 1.77-1 .74 1.19 1.58 1.26.93-1 1.77-1 .73 1.19 1.57 1.26.93-1 1.77-1 .74 1.19 1.58 1.26.93-1 1.76-1 .74 1.18 1.58 1.26.93-1 1.77-1 .73 1.19 1.57 1.26.93-1 1.77-1 .74 1.19 1.57 1.26.94-1 1.77-1 .74 1.19 1.58 1.26.93-1 1.77-1 .74 1.18 1.57 1.26l.17-2z" fill="#fff"/>
    <path d="M168 4.34a.75.75 0 00-.77.7l-1.92 21.56 37.93 3.31 1.5-17.09L200 7.15z" fill="#fee7e6" fill-rule="evenodd"/>
    <rect x="165.84" y="52.47" width="33.29" height="1.12" rx=".56" transform="rotate(5 182.455 53.074)" fill="#b32424"/>
    <rect x="165.84" y="52.47" width="33.29" height="1.12" rx=".56" transform="rotate(5 182.455 53.074)" fill="#b32424"/>
    <rect x="166.05" y="50.01" width="33.29" height="1.12" rx=".56" transform="rotate(5 182.688 50.54)" fill="#b32424"/>
    <rect x="166.48" y="45.09" width="33.29" height="1.12" rx=".56" transform="rotate(5 183.165 45.7)" fill="#b32424"/>
    <rect x="166.32" y="46.35" width="5.65" height="1.12" rx=".56" transform="rotate(5 169.104 46.887)" fill="#b32424"/>
    <rect x="178.22" y="39.95" width="5.65" height="1.12" rx=".56" transform="rotate(5 180.988 40.517)" fill="#b32424"/>
    <rect x="191.63" y="48.66" width="7.89" height="1.12" rx=".56" transform="rotate(5 195.594 49.173)" fill="#b32424"/>
    <rect x="189.24" y="43.61" width="10.71" height="1.12" rx=".56" transform="rotate(5 194.572 44.17)" fill="#b32424"/>
    <rect x="173.33" y="47.45" width="16.94" height="1.12" rx=".56" transform="rotate(5 181.776 48.055)" fill="#b32424"/>
    <rect x="166.72" y="42.1" width="21.17" height="1.12" rx=".56" transform="rotate(5 177.294 42.629)" fill="#b32424"/>
    <rect x="166.96" y="39.15" width="9.88" height="1.12" rx=".56" transform="rotate(5 171.886 39.652)" fill="#b32424"/>
    <rect x="167.61" y="31.14" width="11.2" height="2.24" rx="1.12" transform="rotate(5 173.17 32.253)" fill="#b32424"/>
    <rect x="167.35" y="34.87" width="17.92" height="1.12" rx=".56" transform="rotate(5 176.292 35.444)" fill="#ff6e6e"/>
    <rect x="185.23" y="40.97" width="14.94" height="1.12" rx=".56" transform="rotate(5 192.734 41.496)" fill="#b32424"/>
    <path d="M205.77 13.83l-6-.52a1.26 1.26 0 01-1.15-1.37l.53-6 1.45.12 5.29 6.31z" fill="#c8ccd1" fill-rule="evenodd"/>
    <path d="M205.9 12.45l-5.36-6.38h-.12l-32.77-2.88a1.41 1.41 0 00-1.53 1.29l-4.39 50.19-.17 1.95c.84.08.94-1 1.78-1s.74 1.18 1.58 1.26.93-1 1.77-1 .74 1.19 1.57 1.26.94-1 1.77-1 .74 1.19 1.58 1.26.94-1 1.77-1 .74 1.19 1.58 1.27.93-1 1.77-1 .74 1.19 1.58 1.26.93-1 1.77-1 .73 1.19 1.57 1.26.93-1 1.77-1 .74 1.19 1.58 1.26.93-1 1.76-1 .74 1.18 1.58 1.26.93-1 1.77-1 .73 1.19 1.57 1.26.93-1 1.77-1 .74 1.19 1.57 1.26.94-1 1.77-1 .74 1.19 1.58 1.26.93-1 1.77-1 .74 1.18 1.57 1.26l.17-2zm-5.65 45.31c-.84-.07-.94 1-1.77 1s-.74-1.19-1.58-1.26-.93 1-1.77 1-.74-1.19-1.57-1.27-.94 1-1.77 1-.74-1.18-1.58-1.26-.93 1-1.77 1-.73-1.19-1.57-1.26-.93 1-1.77 1-.74-1.19-1.57-1.26-.94 1-1.77 1-.76-1.37-1.58-1.45-.93 1-1.77 1-.74-1.19-1.57-1.26-.94 1-1.77 1-.74-1.19-1.58-1.26-.93 1-1.77 1-.74-1.19-1.58-1.26-.93 1-1.77 1-.74-1.19-1.58-1.27-.93 1.05-1.77 1-.74-1.19-1.57-1.26-.51-.89-.51-.89l4.2-48a1.42 1.42 0 011.53-1.29l31.77 2.78 4.34 5.17-3.9 44.54s.2.83-.63.76z" fill="#c8ccd1"/>
    <rect x="184.04" y="10.69" width="1" height="11.95" rx=".45" transform="rotate(95 184.542 16.658)" fill="#ff6e6e"/>
    <rect x="184.04" y="10.69" width="1" height="11.95" rx=".45" transform="rotate(-175 184.542 16.66)" fill="#ff6e6e"/>
    <rect x="184.04" y="10.69" width="1" height="11.95" rx=".45" transform="rotate(-130 184.542 16.662)" fill="#ff6e6e"/>
    <rect x="184.04" y="10.69" width="1" height="11.95" rx=".45" transform="rotate(140 184.543 16.66)" fill="#ff6e6e"/>
    <path d="M31.1 18.27H26a3.9 3.9 0 00-3.9 3.9v3c0 6-3.9 5.4-3.9 5.4v.6h12.9z" fill="#eaecf0"/>
    <path d="M14.3 6H11a3 3 0 00-3 3v5.4h6.3z" fill="#a2a9b1"/>
    <path d="M11 6.57h3.3v7.2H8.6V9A2.4 2.4 0 0111 6.57z" fill="#eaecf0"/>
    <path d="M45.21 6H11.3v.6c1.2 0 2.4.6 2.4 3v16.5c0 2.65 1.5 5.1 4.5 5.1s4.5-2.1 4.5-5.1v-3.9c0-.3.23-3.3 3.9-3.3h22.5v-9A3.77 3.77 0 0045.21 6z" fill="#a2a9b1"/>
    <path d="M44.91 6.57H12.8s1.5.3 1.5 3.3v15.6c0 2.1.9 5.1 3.9 5.1s3.9-2.4 3.9-5.1v-3.3c0-2.1 1.8-3.9 4.8-3.9h21.6v-8.12a3.29 3.29 0 00-3.59-3.58z" fill="#fff"/>
    <path fill="#a2a9b1" d="M18.2 30.57h12.6v.6H18.2z"/>
    <path d="M61.41 18.27H27.5v.6a3.43 3.43 0 013 3.6v29.1a5.07 5.07 0 005.1 4.8h29.7V22.15a4.12 4.12 0 00-3.89-3.88z" fill="#a2a9b1"/>
    <path d="M61.11 18.87H29a3.23 3.23 0 012.1 3.3V51a4.57 4.57 0 004.78 4.79H64.7V22.45a3.58 3.58 0 00-3.59-3.58z" fill="#fff"/>
    <path d="M65 56.37H36.8v-.6s2.4-.9 2.4-3v-4.2h29.4a.6.6 0 01.6.6v3a4.2 4.2 0 01-4.2 4.2z" fill="#a2a9b1"/>
    <path d="M65 55.77H38a3.48 3.48 0 001.8-3v-3.6h28.5a.29.29 0 01.3.3v2.7a3.6 3.6 0 01-3.6 3.6z" fill="#f8f9fa"/>
    <rect x="15.8" y="8.67" width="18" height=".6" rx=".3" fill="#c8ccd1"/>
    <rect x="34.4" y="8.67" width="12" height=".6" rx=".3" fill="#c8ccd1"/>
    <rect x="15.8" y="12.27" width="15" height=".6" rx=".3" fill="#c8ccd1"/>
    <rect x="15.8" y="14.07" width="26.4" height=".6" rx=".3" fill="#c8ccd1"/>
    <rect x="15.8" y="15.87" width="30.6" height=".6" rx=".3" fill="#c8ccd1"/>
    <rect x="31.4" y="12.27" width="14.4" height=".6" rx=".3" fill="#c8ccd1"/>
    <rect x="15.8" y="10.47" width="10.8" height=".6" rx=".3" fill="#c8ccd1"/>
    <rect x="27.5" y="10.47" width="9" height=".6" rx=".3" fill="#c8ccd1"/>
    <rect x="37.7" y="10.47" width="6.6" height=".6" rx=".3" fill="#c8ccd1"/>
    <rect x="15.8" y="19.47" width="7.5" height=".6" rx=".3" fill="#c8ccd1"/>
    <rect x="15.8" y="21.27" width="6.6" height=".6" rx=".3" fill="#c8ccd1"/>
    <rect x="15.8" y="23.07" width="6.6" height=".6" rx=".3" fill="#c8ccd1"/>
    <rect x="15.8" y="24.87" width="6.6" height=".6" rx=".3" fill="#c8ccd1"/>
    <rect x="15.8" y="27.57" width="6.6" height=".6" rx=".3" fill="#c8ccd1"/>
    <rect x="33.2" y="21.27" width="30" height=".6" rx=".3" fill="#c8ccd1"/>
    <rect x="33.2" y="24.87" width="7.8" height=".6" rx=".3" fill="#c8ccd1"/>
    <rect x="33.2" y="26.67" width="14.56" height=".6" rx=".3" fill="#c8ccd1"/>
    <rect x="48.64" y="26.67" width="14.56" height=".6" rx=".3" fill="#c8ccd1"/>
    <rect x="42.2" y="24.87" width="15" height=".6" rx=".3" fill="#c8ccd1"/>
    <rect x="57.5" y="24.87" width="5.7" height=".6" rx=".3" fill="#c8ccd1"/>
    <rect x="33.2" y="23.07" width="21.3" height=".6" rx=".3" fill="#c8ccd1"/>
    <rect x="56" y="23.07" width="6.6" height=".6" rx=".3" fill="#c8ccd1"/>
    <rect x="33.2" y="35.37" width="30" height=".6" rx=".3" transform="rotate(-180 48.2 35.665)" fill="#c8ccd1"/>
    <rect x="55.4" y="31.77" width="7.8" height=".6" rx=".3" transform="rotate(-180 59.3 32.065)" fill="#c8ccd1"/>
    <rect x="48.64" y="29.97" width="14.56" height=".6" rx=".3" transform="rotate(180 55.92 30.265)" fill="#c8ccd1"/>
    <rect x="33.2" y="29.97" width="14.56" height=".6" rx=".3" transform="rotate(180 40.48 30.265)" fill="#c8ccd1"/>
    <rect x="39.8" y="31.77" width="14.4" height=".6" rx=".3" transform="rotate(-180 47 32.065)" fill="#c8ccd1"/>
    <rect x="33.2" y="31.77" width="5.7" height=".6" rx=".3" transform="rotate(180 36.05 32.065)" fill="#c8ccd1"/>
    <rect x="41.9" y="33.57" width="21.3" height=".6" rx=".3" transform="rotate(-180 52.55 33.865)" fill="#c8ccd1"/>
    <path d="M34.1 33.57h6.6c.17 0-.3.13-.3.3 0 .16.47.3.3.3h-6.6a.3.3 0 01-.3-.3.29.29 0 01.3-.3z" fill="#c8ccd1" fill-rule="evenodd"/>
    <rect x="33.2" y="40.77" width="30" height=".6" rx=".3" fill="#c8ccd1"/>
    <rect x="33.2" y="44.37" width="7.8" height=".6" rx=".3" fill="#c8ccd1"/>
    <rect x="33.2" y="46.17" width="14.56" height=".6" rx=".3" fill="#c8ccd1"/>
    <rect x="48.64" y="46.17" width="14.56" height=".6" rx=".3" fill="#c8ccd1"/>
    <rect x="42.2" y="44.37" width="15" height=".6" rx=".3" fill="#c8ccd1"/>
    <rect x="57.5" y="44.37" width="5.7" height=".6" rx=".3" fill="#c8ccd1"/>
    <rect x="33.2" y="42.57" width="21.3" height=".6" rx=".3" fill="#c8ccd1"/>
    <rect x="56" y="42.57" width="6.6" height=".6" rx=".3" fill="#c8ccd1"/>
    <path d="M26.6 18.27c-2.82.11-4.5 1.86-4.5 3.89v3.3c0 2.7-.9 5.1-3.9 5.1s-3.9-3-3.9-5.1v-7.2h-.6v7.8c0 2.65 1.5 5.1 4.5 5.1s4.5-2.1 4.5-5.1v-3.9c0-.3.23-3.3 3.9-3.3h.3v-.6z" fill="#a2a9b1"/>
    <rect x="32.6" y="37.77" width="34.8" height="9.3" rx="1.2" fill="#00af89"/>
    <rect x="33.2" y="38.37" width="33.6" height="8.1" rx=".6" fill="#d5fdf4"/>
    <rect x="34.7" y="39.57" width="30" height=".6" rx=".3" fill="#14866d"/>
    <rect x="34.7" y="43.17" width="7.8" height=".6" rx=".3" fill="#14866d"/>
    <rect x="34.7" y="44.97" width="14.56" height=".6" rx=".3" fill="#14866d"/>
    <rect x="50.14" y="44.97" width="14.56" height=".6" rx=".3" fill="#14866d"/>
    <rect x="43.7" y="43.17" width="14.4" height=".6" rx=".3" fill="#14866d"/>
    <rect x="59" y="43.17" width="5.7" height=".6" rx=".3" fill="#14866d"/>
    <rect x="34.7" y="41.37" width="21.3" height=".6" rx=".3" fill="#14866d"/>
    <path d="M63.8 42h-6.6c-.17 0 .3-.14.3-.3 0-.17-.47-.3-.3-.3h6.6a.29.29 0 01.3.3.3.3 0 01-.3.3z" fill="#14866d" fill-rule="evenodd"/>
    <path fill="#fef6e7" fill-rule="evenodd" d="M39.55 30.85l-3.45 4.48-.46.27-2.16-3.74.46-.27 5.61-.74z"/>
    <path fill="#54595d" d="M37.77 33.17l1.78-2.32-2.9.38 1.12 1.94z"/>
    <path d="M10.14 45.34a1.43 1.43 0 00-.53 2l.72 1.25a1.44 1.44 0 002 .53L14.17 48 12 44.26z" fill="#ff6e6e"/>
    <path fill="#c8ccd1" d="M12.011 44.261l1.87-1.08 2.16 3.742-1.87 1.08z"/>
    <path d="M36.1 35.33L16 46.92l-2.16-3.74 20.1-11.59a.81.81 0 00-.1.89.8.8 0 00.82.36.8.8 0 00-.1.89.78.78 0 00.82.35.82.82 0 00-.1.9.78.78 0 00.82.35z" fill="#00af89"/>
</svg>
