<svg xmlns="http://www.w3.org/2000/svg" viewBox="0 0 128 128">
	<path fill="#fff" d="m50.23 54.32-8.59-3.47h-.12L7.88 65.18A1.57 1.57 0 0 0 7 67.24l21.88 51.54.85 2c.86-.36.37-1.51 1.23-1.87s1.35.78 2.21.41.37-1.51 1.23-1.87 1.35.78 2.21.41.39-1.52 1.29-1.86 1.34.78 2.2.42.37-1.52 1.23-1.88 1.35.78 2.21.42.37-1.51 1.23-1.88 1.35.78 2.2.42.38-1.51 1.24-1.88 1.34.78 2.2.42.37-1.51 1.23-1.87 1.34.78 2.2.41.37-1.51 1.23-1.87 1.35.78 2.2.42.38-1.51 1.23-1.88 1.35.78 2.21.42.37-1.51 1.23-1.88 1.34.79 2.2.42.37-1.51 1.23-1.87 1.35.78 2.2.41.38-1.51 1.24-1.87 1.34.78 2.2.42l-.85-2z"/>
	<path fill="#fee7e6" d="M8.78 66.15a.81.81 0 0 0-.39 1.08l9.4 22.14 38.94-16.54-7.45-17.55-7.57-3.11z"/>
	<rect width="36.99" height="1.24" x="29.93" y="105.72" fill="#b32424" rx=".62" transform="rotate(-23 48.438 106.34)"/>
	<rect width="36.99" height="1.24" x="29.93" y="105.72" fill="#b32424" rx=".62" transform="rotate(-23 48.438 106.34)"/>
	<rect width="36.99" height="1.24" x="28.86" y="103.19" fill="#b32424" rx=".62" transform="rotate(-23 47.365 103.819)"/>
	<rect width="36.99" height="1.24" x="26.71" y="98.14" fill="#b32424" rx=".62" transform="rotate(-23 45.217 98.775)"/>
	<rect width="6.27" height="1.24" x="29.01" y="106.67" fill="#b32424" rx=".62" transform="rotate(-23 32.145 107.3)"/>
	<rect width="6.27" height="1.24" x="37.34" y="94.19" fill="#b32424" rx=".62" transform="rotate(-23 40.47 94.815)"/>
	<rect width="8.76" height="1.24" x="54.9" y="95.15" fill="#b32424" rx=".62" transform="rotate(-23 59.265 95.772)"/>
	<rect width="11.9" height="1.24" x="49.74" y="90.71" fill="#b32424" rx=".62" transform="rotate(-23 55.689 91.334)"/>
	<rect width="18.82" height="1.24" x="35.73" y="101.15" fill="#b32424" rx=".62" transform="rotate(-23 45.143 101.78)"/>
	<rect width="23.52" height="1.24" x="26.18" y="98.24" fill="#b32424" rx=".62" transform="rotate(-23 37.933 98.854)"/>
	<rect width="10.98" height="1.24" x="25.6" y="98.17" fill="#b32424" rx=".62" transform="rotate(-23 31.087 98.792)"/>
	<rect width="12.44" height="2.49" x="44.87" y="79.96" fill="#b32424" rx="1.24" transform="rotate(-23 51.094 81.211)"/>
	<rect width="19.91" height="1.24" x="38.95" y="85" fill="#ff6e6e" rx=".62" transform="rotate(-23 48.915 85.63)"/>
	<rect width="16.6" height="1.24" x="44.15" y="89.1" fill="#b32424" rx=".62" transform="rotate(-23 52.458 89.73)"/>
	<path fill="#c8ccd1" d="m50.83 55.74-6.16 2.61a1.41 1.41 0 0 1-1.84-.74l-2.61-6.16 1.49-.63 8.49 3.43z"/>
	<path fill="#c8ccd1" d="m50.23 54.32-8.59-3.47h-.12L7.88 65.18A1.57 1.57 0 0 0 7 67.24l21.88 51.54.85 2c.86-.36.37-1.51 1.23-1.87s1.35.78 2.21.41.37-1.51 1.23-1.87 1.35.78 2.21.41.39-1.52 1.29-1.86 1.34.78 2.2.42.37-1.52 1.23-1.88 1.35.78 2.21.42.37-1.51 1.23-1.88 1.35.78 2.2.42.38-1.51 1.24-1.88 1.34.78 2.2.42.37-1.51 1.23-1.87 1.34.78 2.2.41.37-1.51 1.23-1.87 1.35.78 2.2.42.38-1.51 1.23-1.88 1.35.78 2.21.42.37-1.51 1.23-1.88 1.34.79 2.2.42.37-1.51 1.23-1.87 1.35.78 2.2.41.38-1.51 1.24-1.87 1.34.78 2.2.42l-.85-2zm18.09 47.39c-.86.37-.37 1.51-1.23 1.88s-1.35-.78-2.21-.42-.37 1.51-1.23 1.88-1.34-.79-2.2-.42-.37 1.51-1.23 1.87-1.34-.78-2.2-.41-.37 1.51-1.23 1.87-1.35-.78-2.2-.42-.38 1.51-1.23 1.88-1.35-.78-2.21-.42-.37 1.51-1.23 1.87-1.34-.78-2.2-.41-.37 1.51-1.23 1.87-1.35-.78-2.21-.41-.37 1.51-1.23 1.87-1.34-.78-2.2-.42-.38 1.51-1.23 1.88-1.35-.78-2.21-.42-.37 1.51-1.23 1.88-1.35-.78-2.21-.42-.37 1.51-1.23 1.88-1.35-.78-2.2-.42-1-.61-1-.61L8.67 67.9a1.58 1.58 0 0 1 .84-2.06L42.13 52l6.95 2.8 19.44 45.81s.66.74-.2 1.1"/>
	<rect width="1.11" height="13.27" x="30.92" y="62.95" fill="#ff6e6e" rx=".49" transform="rotate(67 31.47 69.588)"/>
	<rect width="1.11" height="13.27" x="30.92" y="62.95" fill="#ff6e6e" rx=".49" transform="rotate(157 31.472 69.584)"/>
	<rect width="1.11" height="13.27" x="30.92" y="62.95" fill="#ff6e6e" rx=".5" transform="rotate(-158 31.47 69.59)"/>
	<rect width="1.11" height="13.27" x="30.92" y="62.95" fill="#ff6e6e" rx=".5" transform="rotate(112 31.473 69.584)"/>
	<path fill="#fc3" d="m35.05 5.73 28.68 7.68a7.79 7.79 0 0 1 6 8.27A7.79 7.79 0 0 1 79 17.51l28.69 7.69a2 2 0 0 1 1.4 2.43L98 69.22a2 2 0 0 1-2.43 1.4l-72.7-19.47a2 2 0 0 1-1.4-2.42l11.15-41.6a2 2 0 0 1 2.43-1.4"/>
	<path fill="#ff9500" d="M62.82 60.83 56.12 59l-.25 1a.49.49 0 0 0 .35.61L62 62.13a.49.49 0 0 0 .61-.35z"/>
	<path fill="#eaecf0" d="m59.325 59.843-36.938-9.901 11.7-43.65a1.004 1.004 0 0 1 1.23-.71l28.324 7.592a7.954 7.954 0 0 1 5.593 9.702z"/>
	<path fill="#eaecf0" d="M107.24 25.07 79 17.51c-4.22-1.13-8.44.9-9.57 5.13l-10 37.29 36.86 9.87 11.65-43.51a1 1 0 0 0-.7-1.22"/>
	<path fill="#fff" d="m79.25 18.593 27.248 7.301a.49.49 0 0 1 .346.6L95.312 69.536l-35.373-9.478 9.61-35.865a7.92 7.92 0 0 1 9.7-5.6zM58.994 59.801l-35.382-9.48 11.53-43.032a.49.49 0 0 1 .601-.347l27.258 7.304a7.92 7.92 0 0 1 5.6 9.7L58.995 59.8z"/>
	<path fill="#ac6600" d="m96.285 69.795-36.811-9.864L59.99 58a3 3 0 0 1 3.675-2.122l33.913 9.087z"/>
	<path fill="#ac6600" d="m23.934 45.282 33.952 9.097a3 3 0 0 1 2.122 3.674l-.518 1.932-36.85-9.874z"/>
	<path fill="#c8ccd1" d="m49.22 12.59-11-3a.46.46 0 0 0-.56.32.46.46 0 0 0 .32.57l11 3a.46.46 0 0 0 .56-.33.45.45 0 0 0-.32-.56m14.92 4L50.7 13a.46.46 0 0 0-.56.32.46.46 0 0 0 .33.56l13.43 3.6a.45.45 0 0 0 .56-.32.45.45 0 0 0-.32-.57m-.81 2.95-8.06-2.16a.46.46 0 0 0-.56.33.46.46 0 0 0 .32.56l8.07 2.16a.46.46 0 0 0 .56-.33.46.46 0 0 0-.33-.56M53.8 17l-14-3.76a.46.46 0 0 0-.57.32.46.46 0 0 0 .33.56l14 3.76a.45.45 0 0 0 .56-.32.45.45 0 0 0-.32-.56m8.74 5.5-15.82-4.24a.46.46 0 0 0-.56.33.46.46 0 0 0 .32.56l15.82 4.24a.47.47 0 0 0 .57-.33.46.46 0 0 0-.33-.56m-24.76-6.63 7.47 2a.45.45 0 0 1 .32.56.45.45 0 0 1-.56.32l-7.47-2a.45.45 0 0 1-.32-.56.45.45 0 0 1 .56-.32"/>
	<path fill="#ac6600" d="m61.75 25.46-26-7a.46.46 0 0 0-.56.33.46.46 0 0 0 .33.56l26 7a.46.46 0 0 0 .56-.33.45.45 0 0 0-.33-.56m-7.36 1.2L48.12 25a.45.45 0 0 0-.56.32.45.45 0 0 0 .32.56l6.27 1.69a.47.47 0 0 0 .57-.33.46.46 0 0 0-.33-.58m-7.74-2.08-10.45-2.8a.47.47 0 0 0-.57.33.46.46 0 0 0 .33.56l10.45 2.8a.46.46 0 0 0 .56-.33.46.46 0 0 0-.32-.56M61 28.42l-5.08-1.36a.46.46 0 0 0-.57.32.46.46 0 0 0 .33.56l5.08 1.36a.46.46 0 0 0 .56-.32.45.45 0 0 0-.32-.56m-.84 2.96-22.38-6a.45.45 0 0 0-.56.32.45.45 0 0 0 .32.56l22.39 6a.46.46 0 0 0 .56-.32.46.46 0 0 0-.33-.56"/>
	<rect width=".92" height="10.5" x="54.16" y="28.29" fill="#c8ccd1" rx=".46" transform="rotate(-75 54.623 33.538)"/>
	<rect width=".92" height="16.68" x="40.45" y="21.52" fill="#c8ccd1" rx=".46" transform="rotate(-75 40.912 29.86)"/>
	<rect width=".92" height="27.8" x="44.86" y="20.95" fill="#c8ccd1" rx=".46" transform="rotate(-75 45.317 34.846)"/>
	<rect width=".92" height="13.59" x="37.2" y="29.17" fill="#c8ccd1" rx=".46" transform="rotate(-75 37.663 35.97)"/>
	<rect width=".92" height="13.59" x="50.93" y="32.85" fill="#c8ccd1" rx=".46" transform="rotate(-75 51.385 39.647)"/>
	<rect width=".92" height="25.33" x="44.47" y="28.42" fill="#c8ccd1" rx=".46" transform="rotate(-75 44.927 41.089)"/>
	<path fill="#c8ccd1" d="m56 46.76-4.48-1.2a.45.45 0 0 0-.56.32.46.46 0 0 0 .32.57l4.48 1.2a.47.47 0 0 0 .57-.33.46.46 0 0 0-.33-.56m-5.92-1.6-6.27-1.68a.46.46 0 0 0-.56.33.46.46 0 0 0 .32.56l6.28 1.68a.46.46 0 0 0 .56-.32.47.47 0 0 0-.33-.57m-7.75-2.08-11-3a.46.46 0 0 0-.56.33.45.45 0 0 0 .23.59l11.05 3a.45.45 0 0 0 .56-.32.46.46 0 0 0-.28-.6m12.93 6.64-26-7a.46.46 0 0 0-.56.33.46.46 0 0 0 .33.56l26 7a.46.46 0 0 0 .56-.33.46.46 0 0 0-.33-.56m23.55 7.58-11-3a.46.46 0 0 1-.32-.56.46.46 0 0 1 .56-.33l11 3a.46.46 0 0 1 .32.56.46.46 0 0 1-.56.33m14.92 4-13.44-3.6a.46.46 0 0 1-.32-.57.45.45 0 0 1 .56-.32L94 60.41a.45.45 0 0 1 .32.56.46.46 0 0 1-.59.33m.78-2.96-8.06-2.17a.46.46 0 0 1-.33-.56.46.46 0 0 1 .56-.32l8.07 2.16a.45.45 0 0 1 .32.56.46.46 0 0 1-.56.33M85 55.78 70.94 52a.46.46 0 0 1-.32-.56.46.46 0 0 1 .56-.33l14 3.76a.46.46 0 0 1 .33.56.46.46 0 0 1-.51.35m10.3-.4-15.82-4.24a.46.46 0 0 1-.32-.56.45.45 0 0 1 .56-.33l15.82 4.24a.46.46 0 0 1 .33.56.47.47 0 0 1-.57.33m-24.76-6.64 7.47 2a.45.45 0 0 0 .56-.32.45.45 0 0 0-.32-.56l-7.47-2a.46.46 0 0 0-.56.33.45.45 0 0 0 .32.55m25.56 3.68-26-7a.45.45 0 0 1-.32-.56.46.46 0 0 1 .56-.33l26 7a.46.46 0 0 1 .33.56.46.46 0 0 1-.57.33m-5.78-4.72L84.05 46a.46.46 0 0 1-.32-.56.46.46 0 0 1 .56-.33l6.27 1.68a.47.47 0 0 1 .33.57.46.46 0 0 1-.57.34m-7.74-2.07-10.45-2.8a.47.47 0 0 1-.33-.57.46.46 0 0 1 .57-.32l10.45 2.8a.45.45 0 0 1 .32.56.46.46 0 0 1-.56.33m14.31 3.83-5.08-1.36a.46.46 0 0 1-.33-.56.47.47 0 0 1 .57-.33l5.08 1.36a.46.46 0 0 1 .32.57.45.45 0 0 1-.56.32m.79-2.96-22.38-6a.46.46 0 0 1-.33-.56.46.46 0 0 1 .56-.32l22.39 6a.46.46 0 0 1 .32.57.45.45 0 0 1-.56.31"/>
	<rect width=".92" height="10.5" x="93.5" y="36.61" fill="#c8ccd1" rx=".46" transform="rotate(-75 93.965 41.861)"/>
	<rect width=".92" height="16.68" x="79.79" y="29.84" fill="#c8ccd1" rx=".46" transform="rotate(-75 79.92 38.021)"/>
	<rect width=".92" height="27.8" x="86.1" y="22.17" fill="#c8ccd1" rx=".46" transform="rotate(-75 86.565 36.07)"/>
	<rect width=".92" height="13.59" x="80.03" y="24.48" fill="#c8ccd1" rx=".46" transform="rotate(-75 80.492 31.275)"/>
	<rect width=".92" height="13.59" x="93.76" y="28.16" fill="#c8ccd1" rx=".46" transform="rotate(-75 94.215 34.951)"/>
	<rect width=".92" height="25.33" x="88.88" y="17.81" fill="#c8ccd1" rx=".46" transform="rotate(-75 89.338 30.474)"/>
	<path fill="#c8ccd1" d="m101.8 31.12-4.48-1.2a.46.46 0 0 1-.32-.57.45.45 0 0 1 .56-.32l4.48 1.2a.46.46 0 0 1 .33.56.47.47 0 0 1-.57.33m-5.95-1.6-6.28-1.68a.46.46 0 0 1-.32-.56.46.46 0 0 1 .56-.33l6.27 1.68a.47.47 0 0 1 .33.57.46.46 0 0 1-.56.32m-7.76-2.08-11-3a.45.45 0 0 1-.32-.56.45.45 0 0 1 .56-.32l11 3a.45.45 0 0 1 .32.56.45.45 0 0 1-.56.32m14.52.72-26-7a.45.45 0 0 1-.32-.56.45.45 0 0 1 .56-.32l26 7a.47.47 0 0 1 .33.57.46.46 0 0 1-.57.31"/>
	<path fill="#eaecf0" d="M94.2 75.67h5.67A4.33 4.33 0 0 1 104.2 80v3.33c0 6.67 4.33 6 4.33 6V90H94.2z"/>
	<path fill="#a2a9b1" d="M112.87 62h3.66a3.35 3.35 0 0 1 3.34 3.33v6h-7z"/>
	<path fill="#eaecf0" d="M119.2 70.66h-6.33v-8h3.67a2.67 2.67 0 0 1 2.66 2.67z"/>
	<path fill="#a2a9b1" d="M78.52 62h37.68v.67c-1.33 0-2.67.66-2.67 3.33v18.33c0 3-1.66 5.67-5 5.67s-5-2.33-5-5.67V80c0-.33-.27-3.67-4.34-3.67h-25v-10A4.2 4.2 0 0 1 78.52 62"/>
	<path fill="#fff" d="M78.85 62.67h35.68s-1.66.33-1.66 3.66v17.34c0 2.33-1 5.66-4.34 5.66s-4.33-2.66-4.33-5.66V80c0-2.33-2-4.33-5.33-4.33h-24v-9a3.65 3.65 0 0 1 3.98-4"/>
	<path fill="#a2a9b1" d="M108.54 90h-14v-.67h14z"/>
	<path fill="#a2a9b1" d="M60.52 75.67H98.2v.66a3.81 3.81 0 0 0-3.33 4v32.34A5.64 5.64 0 0 1 89.2 118h-33V80a4.57 4.57 0 0 1 4.32-4.33"/>
	<path fill="#fff" d="M60.85 76.33h35.68A3.6 3.6 0 0 0 94.2 80v32a5.07 5.07 0 0 1-5.31 5.31h-32v-37a4 4 0 0 1 3.96-3.98"/>
	<path fill="#a2a9b1" d="M56.53 118h31.34v-.67s-2.67-1-2.67-3.33v-4.67H52.53a.66.66 0 0 0-.66.67v3.33a4.67 4.67 0 0 0 4.66 4.67"/>
	<path fill="#f8f9fa" d="M56.53 117.33h30a3.87 3.87 0 0 1-2-3.33v-4H52.87a.34.34 0 0 0-.34.33v3a4 4 0 0 0 4 4"/>
	<rect width="20" height=".67" x="91.2" y="65" fill="#c8ccd1" rx=".33" transform="rotate(180 101.2 65.335)"/>
	<rect width="13.33" height=".67" x="77.2" y="65" fill="#c8ccd1" rx=".33" transform="rotate(-180 83.865 65.335)"/>
	<rect width="16.67" height=".67" x="94.53" y="69" fill="#c8ccd1" rx=".33" transform="rotate(180 102.865 69.335)"/>
	<rect width="29.33" height=".67" x="81.87" y="71" fill="#c8ccd1" rx=".33" transform="rotate(180 96.535 71.335)"/>
	<rect width="34" height=".67" x="77.2" y="73" fill="#c8ccd1" rx=".33" transform="rotate(-180 94.2 73.335)"/>
	<rect width="16" height=".67" x="77.87" y="69" fill="#c8ccd1" rx=".33" transform="rotate(-180 85.865 69.335)"/>
	<rect width="12" height=".67" x="99.2" y="67" fill="#c8ccd1" rx=".33" transform="rotate(180 105.2 67.335)"/>
	<rect width="10" height=".67" x="88.2" y="67" fill="#c8ccd1" rx=".33" transform="rotate(180 93.2 67.335)"/>
	<rect width="7.33" height=".67" x="79.53" y="67" fill="#c8ccd1" rx=".33" transform="rotate(180 83.2 67.335)"/>
	<rect width="8.33" height=".67" x="102.87" y="77" fill="#c8ccd1" rx=".33" transform="rotate(-180 107.035 77.335)"/>
	<rect width="7.33" height=".67" x="103.87" y="79" fill="#c8ccd1" rx=".33" transform="rotate(180 107.535 79.335)"/>
	<rect width="7.33" height=".67" x="103.87" y="81" fill="#c8ccd1" rx=".33" transform="rotate(180 107.535 81.335)"/>
	<rect width="7.33" height=".67" x="103.87" y="83" fill="#c8ccd1" rx=".33" transform="rotate(-180 107.535 83.335)"/>
	<rect width="7.33" height=".67" x="103.87" y="86" fill="#c8ccd1" rx=".33" transform="rotate(-180 107.535 86.335)"/>
	<rect width="33.33" height=".67" x="58.53" y="79" fill="#c8ccd1" rx=".33" transform="rotate(180 75.2 79.335)"/>
	<rect width="8.67" height=".67" x="83.2" y="83" fill="#c8ccd1" rx=".33" transform="rotate(180 87.535 83.335)"/>
	<rect width="16.18" height=".67" x="75.69" y="85" fill="#c8ccd1" rx=".33" transform="rotate(-180 83.775 85.335)"/>
	<rect width="16.18" height=".67" x="58.53" y="85" fill="#c8ccd1" rx=".33" transform="rotate(-180 66.625 85.335)"/>
	<rect width="16.67" height=".67" x="65.2" y="83" fill="#c8ccd1" rx=".33" transform="rotate(180 73.535 83.335)"/>
	<rect width="6.33" height=".67" x="58.53" y="83" fill="#c8ccd1" rx=".33" transform="rotate(-180 61.7 83.335)"/>
	<rect width="23.67" height=".67" x="68.2" y="81" fill="#c8ccd1" rx=".33" transform="rotate(180 80.035 81.335)"/>
	<rect width="7.33" height=".67" x="59.2" y="81" fill="#c8ccd1" rx=".33" transform="rotate(180 62.865 81.335)"/>
	<rect width="33.33" height=".67" x="58.53" y="94.67" fill="#c8ccd1" rx=".33"/>
	<rect width="8.67" height=".67" x="58.53" y="90.67" fill="#c8ccd1" rx=".33"/>
	<rect width="16.18" height=".67" x="58.53" y="88.67" fill="#c8ccd1" rx=".33"/>
	<rect width="16.18" height=".67" x="75.69" y="88.67" fill="#c8ccd1" rx=".33"/>
	<rect width="16" height=".67" x="68.53" y="90.67" fill="#c8ccd1" rx=".33"/>
	<rect width="6.33" height=".67" x="85.53" y="90.67" fill="#c8ccd1" rx=".33"/>
	<rect width="23.67" height=".67" x="58.53" y="92.67" fill="#c8ccd1" rx=".33"/>
	<path fill="#c8ccd1" d="M90.87 92.67h-7.34c-.18 0 .34.15.34.33s-.52.33-.34.33h7.34a.33.33 0 0 0 .33-.33.33.33 0 0 0-.33-.33"/>
	<rect width="33.33" height=".67" x="58.53" y="100.67" fill="#c8ccd1" rx=".33" transform="rotate(180 75.2 101)"/>
	<rect width="8.67" height=".67" x="83.2" y="104.67" fill="#c8ccd1" rx=".33" transform="rotate(180 87.535 105)"/>
	<rect width="16.18" height=".67" x="75.69" y="106.67" fill="#c8ccd1" rx=".33" transform="rotate(180 83.775 107)"/>
	<rect width="16.18" height=".67" x="58.53" y="106.67" fill="#c8ccd1" rx=".33" transform="rotate(180 66.625 107)"/>
	<rect width="16.67" height=".67" x="65.2" y="104.67" fill="#c8ccd1" rx=".33" transform="rotate(180 73.535 105)"/>
	<rect width="6.33" height=".67" x="58.53" y="104.67" fill="#c8ccd1" rx=".33" transform="rotate(180 61.7 105)"/>
	<rect width="23.67" height=".67" x="68.2" y="102.67" fill="#c8ccd1" rx=".33" transform="rotate(180 80.035 103)"/>
	<rect width="7.33" height=".67" x="59.2" y="102.67" fill="#c8ccd1" rx=".33" transform="rotate(180 62.865 103)"/>
	<path fill="#a2a9b1" d="M99.2 75.67c3.13.13 5 2.07 5 4.32v3.67c0 3 1 5.66 4.33 5.66s4.34-3.33 4.34-5.66v-8h.66v8.66c0 3-1.66 5.67-5 5.67s-5-2.33-5-5.67v-4.33c0-.33-.27-3.67-4.34-3.67h-.33v-.66z"/>
	<rect width="38.67" height="10.33" x="53.87" y="97.33" fill="#00af89" rx="1.33"/>
	<rect width="37.33" height="9" x="54.53" y="98" fill="#d5fdf4" rx=".67"/>
	<rect width="33.33" height=".67" x="56.87" y="99.33" fill="#14866d" rx=".33" transform="rotate(180 73.535 99.665)"/>
	<rect width="8.67" height=".67" x="81.53" y="103.33" fill="#14866d" rx=".33" transform="rotate(180 85.865 103.665)"/>
	<rect width="16.18" height=".67" x="74.02" y="105.33" fill="#14866d" rx=".33" transform="rotate(180 82.11 105.665)"/>
	<rect width="16.18" height=".67" x="56.87" y="105.33" fill="#14866d" rx=".33" transform="rotate(180 64.955 105.665)"/>
	<rect width="16" height=".67" x="64.2" y="103.33" fill="#14866d" rx=".33" transform="rotate(180 72.2 103.665)"/>
	<rect width="6.33" height=".67" x="56.87" y="103.33" fill="#14866d" rx=".33" transform="rotate(180 60.035 103.665)"/>
	<rect width="23.67" height=".67" x="66.53" y="101.33" fill="#14866d" rx=".33" transform="rotate(180 78.365 101.665)"/>
	<path fill="#14866d" d="M57.87 102h7.33c.18 0-.33-.15-.33-.33 0-.19.51-.34.33-.34h-7.33a.34.34 0 0 0-.34.34.34.34 0 0 0 .34.33"/>
	<path fill="#fef6e7" d="m84.82 89.65 3.82 4.98.52.3 2.4-4.16-.52-.3z"/>
	<path fill="#54595d" d="m86.79 92.22-1.97-2.57 3.21.42z"/>
	<path fill="#ff6e6e" d="M117.49 105.74a1.6 1.6 0 0 1 .59 2.19l-.8 1.39a1.61 1.61 0 0 1-2.19.58l-2.09-1.2 2.4-4.16z"/>
	<path fill="#c8ccd1" d="m110.937 107.492 2.4-4.157 2.078 1.2-2.4 4.157z"/>
	<path fill="#00af89" d="m88.64 94.63 22.3 12.87 2.4-4.16L91 90.47a.89.89 0 0 1 .12 1 .9.9 0 0 1-.92.4.83.83 0 0 1-.8 1.38.89.89 0 0 1 .12 1 .9.9 0 0 1-.88.38"/>
</svg>
