<svg xmlns="http://www.w3.org/2000/svg" xmlns:xlink="http://www.w3.org/1999/xlink" width="128" height="128">
	<defs>
		<rect id="a" width="120" height="20" x="12" y="40" rx="1"/>
		<rect id="b" width="120" height="20" x="12" y="80" rx="1"/>
	</defs>
	<g fill="none" fill-rule="evenodd" transform="translate(-8 -8)">
		<path d="M0 0h144v144H0z"/>
		<circle cx="72" cy="72" r="64" fill="#fff"/>
		<rect width="8" height="96" x="24" y="32" fill="#a2a9b1" rx="1"/>
		<rect width="8" height="96" x="112" y="32" fill="#a2a9b1" rx="1"/>
		<use xlink:href="#a" fill="#fff"/>
		<use xlink:href="#a" fill="#fc3" fill-opacity=".5"/>
		<path fill="#54595d" d="m114 41 12 18h-20L94 41zm-38 0 12 18H68L56 41zm-38 0 12 18H30L18 41z"/>
		<use xlink:href="#b" fill="#fff"/>
		<use xlink:href="#b" fill="#fc3" fill-opacity=".5"/>
		<path fill="#54595d" d="m114 81 12 18h-20L94 81zm-38 0 12 18H68L56 81zm-38 0 12 18H30L18 81z"/>
	</g>
</svg>
