<?xml version="1.0" encoding="UTF-8"?>
<svg width="96" height="87" xmlns="http://www.w3.org/2000/svg">
    <g id="Discovery-aid" stroke="none" stroke-width="1" fill="none" fill-rule="evenodd">
        <g id="house-illu-copy-5" transform="translate(-12 -15)">
            <g id="house-illu" transform="translate(15 18)">
                <path id="Path-4" stroke="#54595D" stroke-width="2" fill="#54595D" stroke-linecap="round" stroke-linejoin="round" d="M63 13.854V7h8l-.003 13"/>
                <path id="Path-7-Copy" fill="#FEF6E7" d="M13 82V26.554L45 2l32 24.554V82z"/>
                <path id="Path-2" stroke="#72777D" stroke-width="2" stroke-linecap="round" stroke-linejoin="round" d="M12 27v56h66l-.369-55.97"/>
                <path id="Path-3" stroke="#54595D" stroke-width="5" stroke-linecap="round" stroke-linejoin="round" d="M0 35L45.191 0 90 35"/>
                <g id="door" transform="translate(35 52)">
                    <path d="M2 0h16a2 2 0 012 2v28H0V2a2 2 0 012-2z" id="Rectangle" fill="#6C0000"/>
                    <path d="M4.003 3.665V26.92" id="Path-6" stroke="sienna" stroke-width="2" stroke-linecap="round" stroke-linejoin="round"/>
                    <circle id="door-handle" fill="#FC3" cx="14.932" cy="15.231" r="1.5"/>
                </g>
                <g id="window" transform="translate(36.16 21.372)">
                    <ellipse id="Oval" fill="#69F" cx="8.839" cy="9.099" rx="8.839" ry="8.821"/>
                    <ellipse id="Oval" stroke="#72777D" stroke-width="2" cx="8.897" cy="8.793" rx="8.804" ry="8.793"/>
                    <path d="M3.874 8.297c0 2.642 1.918 5.614 5.826 5.614" id="Path-5" stroke="#31D9FF" stroke-width="2" stroke-linecap="round" stroke-linejoin="round"/>
                </g>
            </g>
        </g>
    </g>
</svg>
