<?xml version="1.0" encoding="UTF-8"?>
<svg width="103" height="42" xmlns="http://www.w3.org/2000/svg">
    <g id="Discovery-aid" stroke="none" stroke-width="1" fill="none" fill-rule="evenodd" transform="scale(-1,1) translate(-103,0)">
        <g id="Homepage-Discovery---After-account-creation---Go-to-Homepage---Mobile-(landscape---small)" transform="translate(-16 -71)">
            <g id="Group-2">
                <g id="banner-mobile" transform="translate(0 52)">
                    <g id="arrow-longer" transform="matrix(1 0 0 -1 15 59)">
                        <path d="M2 31h12a2 2 0 110 4H2a2 2 0 110-4z" id="Rectangle-Copy-7" fill="#36C" transform="rotate(45 8 33)"/>
                        <path d="M12 31h12a2 2 0 110 4H12a2 2 0 110-4z" id="Rectangle-Copy-8" fill="#36C" transform="scale(-1 1) rotate(45 0 -10.456)"/>
                        <path d="M13 38C11.667 12.667 23.667 0 49 0h53" id="Line" stroke="#36C" stroke-width="4" stroke-linecap="round" stroke-linejoin="round"/>
                    </g>
                </g>
            </g>
        </g>
    </g>
</svg>
