<?xml version="1.0" encoding="UTF-8"?>
<svg xmlns="http://www.w3.org/2000/svg" width="103" height="42">
	<g transform="matrix(-1 0 0 1 103 0)">
		<g transform="translate(-16 -19)">
			<g transform="matrix(1 0 0 -1 15 59)">
				<path fill="#36c" d="M2 31h12a2 2 0 1 1 0 4H2a2 2 0 1 1 0-4" transform="rotate(45 8 33)"/>
				<path fill="#36c" d="M12 31h12a2 2 0 1 1 0 4H12a2 2 0 1 1 0-4" transform="scale(-1 1)rotate(45 0 -10.456)"/>
				<path fill="none" stroke="#36c" stroke-linecap="round" stroke-width="4" d="M13 38Q11 0 49 0h53"/>
			</g>
		</g>
	</g>
</svg>
