<svg xmlns="http://www.w3.org/2000/svg" viewBox="0 0 96 108">
	<path fill="#fff" d="M84 17.08 73.9 7H17.41A2.42 2.42 0 0 0 15 9.42V99c1.44 0 1.44-1.92 2.88-1.92S19.33 99 20.77 99s1.44-1.92 2.88-1.92S25.08 99 26.52 99s1.48-1.92 2.88-1.92S30.83 99 32.27 99s1.44-1.92 2.88-1.92S36.59 99 38 99s1.44-1.92 2.88-1.92S42.33 99 43.77 99s1.44-1.92 2.88-1.92S48.08 99 49.52 99s1.43-1.92 2.87-1.92S53.83 99 55.26 99s1.44-1.92 2.88-1.92S59.57 99 61 99s1.44-1.92 2.88-1.92S65.31 99 66.75 99s1.43-1.92 2.87-1.92S71.06 99 72.49 99s1.44-1.92 2.88-1.92S76.8 99 78.24 99s1.44-1.92 2.87-1.92S82.55 99 84 99z"/>
	<path fill="#c8ccd1" d="M84 19.46H73.69a2.16 2.16 0 0 1-2.16-2.16V7H74l10 10z"/>
	<path fill="#c8ccd1" d="M82.07 17.54H74.4a1 1 0 0 1-1-1V8.92z"/>
	<path fill="#c8ccd1" d="M84 17.08 73.9 7H17.41A2.42 2.42 0 0 0 15 9.42V99c1.44 0 1.44-1.92 2.88-1.92S19.33 99 20.77 99s1.44-1.92 2.88-1.92S25.08 99 26.52 99s1.48-1.92 2.88-1.92S30.83 99 32.27 99s1.44-1.92 2.88-1.92S36.59 99 38 99s1.44-1.92 2.88-1.92S42.33 99 43.77 99s1.44-1.92 2.88-1.92S48.08 99 49.52 99s1.43-1.92 2.87-1.92S53.83 99 55.26 99s1.44-1.92 2.88-1.92S59.57 99 61 99s1.44-1.92 2.88-1.92S65.31 99 66.75 99s1.43-1.92 2.87-1.92S71.06 99 72.49 99s1.44-1.92 2.88-1.92S76.8 99 78.24 99s1.44-1.92 2.87-1.92S82.55 99 84 99zm-2.89 78.09c-1.43 0-1.43 1.91-2.87 1.91s-1.44-1.91-2.87-1.91-1.44 1.91-2.88 1.91-1.43-1.91-2.87-1.91-1.44 1.91-2.87 1.91-1.44-1.91-2.87-1.91-1.44 1.91-2.88 1.91-1.43-1.91-2.86-1.91-1.44 1.91-2.88 1.91-1.43-1.91-2.87-1.91-1.39 1.91-2.87 1.91-1.44-1.91-2.87-1.91-1.44 1.91-2.88 1.91-1.44-1.91-2.87-1.91-1.44 1.91-2.9 1.91-1.43-1.91-2.87-1.91-1.44 1.91-2.88 1.91-1.44-1.91-2.87-1.91-1.38 1.91-2.86 1.91-1.44-1.91-2.87-1.91-1.44 1.91-2.88 1.91-1.44-1.91-2.88-1.91-1-1.44-1-1.44V11.34a2.42 2.42 0 0 1 2.42-2.42H73.9l8.17 8.16v76.65s.48 1.44-.96 1.44"/>
	<path fill="#00af89" d="M87.82 82.39H12.01v-23h75.81z"/>
	<path fill="#d5fdf4" d="M86.11 80.69H13.7V61.1h72.41z"/>
	<rect width="56.22" height="1.92" x="21.96" y="69.88" fill="#14866d" rx=".94" transform="rotate(-180 50.07 70.835)"/>
	<rect width="18.74" height="3.41" x="59.44" y="64.05" fill="#14866d" rx="1.7" transform="rotate(-180 68.81 65.755)"/>
	<rect width="9.66" height="1.92" x="68.52" y="74.17" fill="#14866d" rx=".96" transform="rotate(-180 73.35 75.13)"/>
	<rect width="16.48" height="1.92" x="21.67" y="74.17" fill="#14866d" rx=".96" transform="rotate(-180 29.905 75.13)"/>
	<rect width="25.56" height="1.92" x="40.55" y="74.17" fill="#14866d" rx=".78" transform="rotate(-180 53.325 75.13)"/>
	<path fill="#d5fdf4" d="M81.43 82.38h-3.41v-1.7h3.41zm-9.37 0h-3.41v-1.7h3.41zm-9.37 0h-3.41v-1.7h3.41zm-8.52 0h-3.41v-1.7h3.41zm-8.52 0h-3.41v-1.7h3.41zm-8.51 0h-3.41v-1.7h3.41zm-23.43-7.66v3.41h-1.7v-3.41zm0-12.77v2.56h-1.7v-2.56zm0 5.96v3.41h-1.7v-3.41zm74.11 7.67v4.26h-1.7v-4.26zm0-12.78v2.56h-1.7V62.8zm0 5.96v3.41h-1.7v-3.41zm-6.39-7.67h-3.41v-1.7h3.41zm-9.37 0h-3.41v-1.7h3.41zm-9.37 0h-3.41v-1.7h3.41zm-8.52 0h-3.41v-1.7h3.41zm-8.52 0h-3.41v-1.7h3.41zm-15.33 0h-3.41v-1.7h3.41zm-6.82 0h-3.41v-1.7h3.41zm-7.66 0h-1.7v-1.7h1.7zm0 21.29h-1.7v-1.7h1.7z"/>
	<path fill="#d5fdf4" d="M37.14 82.38h-3.41v-1.7h3.41zm-6.82 0h-3.41v-1.7h3.41zm-7.67 0h-3.41v-1.7h3.41zm14.49-21.29h-3.41v-1.7h3.41z"/>
	<rect width="56.97" height="1.92" x="21.64" y="53.65" fill="#a2a9b1" rx=".96" transform="rotate(-180 50.125 54.605)"/>
	<rect width="56.97" height="1.92" x="21.64" y="45.19" fill="#a2a9b1" rx=".96" transform="rotate(-180 50.125 46.15)"/>
	<rect width="9.66" height="1.92" x="68.95" y="49.42" fill="#a2a9b1" rx=".96" transform="rotate(-180 73.785 50.38)"/>
	<rect width="9.66" height="1.92" x="49.63" y="36.74" fill="#a2a9b1" rx=".96" transform="rotate(-180 54.46 37.695)"/>
	<rect width="13.5" height="1.92" x="21.64" y="49.42" fill="#a2a9b1" rx=".96" transform="rotate(-180 28.39 50.38)"/>
	<rect width="18.33" height="1.92" x="21.64" y="40.97" fill="#a2a9b1" rx=".96" transform="rotate(-180 30.805 41.925)"/>
	<rect width="28.99" height="1.92" x="37.55" y="49.42" fill="#a2a9b1" rx=".96" transform="rotate(-180 52.045 50.38)"/>
	<rect width="56.97" height="1.92" x="21.64" y="90.54" fill="#a2a9b1" rx=".96" transform="rotate(-180 50.125 91.495)"/>
	<rect width="9.66" height="1.92" x="68.95" y="86.31" fill="#a2a9b1" rx=".96" transform="rotate(-180 73.785 87.265)"/>
	<rect width="13.5" height="1.92" x="21.64" y="86.31" fill="#a2a9b1" rx=".96" transform="rotate(180 28.39 87.265)"/>
	<rect width="28.99" height="1.92" x="37.55" y="86.31" fill="#a2a9b1" rx=".96" transform="rotate(-180 52.045 87.265)"/>
	<rect width="36.23" height="1.92" x="42.38" y="40.97" fill="#a2a9b1" rx=".96" transform="rotate(-180 60.5 41.925)"/>
	<rect width="16.91" height="1.92" x="61.71" y="36.74" fill="#a2a9b1" rx=".96" transform="rotate(-180 70.16 37.695)"/>
	<rect width="19.17" height="3.83" x="59.45" y="23.89" fill="#72777d" rx="1.92" transform="rotate(-180 69.03 25.805)"/>
	<rect width="30.67" height="1.92" x="47.95" y="29.78" fill="#c8ccd1" rx=".96" transform="rotate(-180 63.28 30.74)"/>
	<rect width="25.57" height="1.92" x="21.64" y="36.74" fill="#a2a9b1" rx=".96" transform="rotate(-180 34.425 37.695)"/>
</svg>
