<svg xmlns="http://www.w3.org/2000/svg" viewBox="0 0 96 108">
	<path fill="#fff" d="M82.16 17.08 72.07 7H15.58a2.42 2.42 0 0 0-2.42 2.42V99c1.45 0 1.45-1.92 2.89-1.92S17.5 99 18.94 99s1.44-1.92 2.88-1.92S23.26 99 24.7 99s1.43-1.92 2.87-1.92S29 99 30.45 99s1.43-1.92 2.87-1.92S34.76 99 36.2 99s1.43-1.92 2.87-1.92S40.51 99 42 99s1.43-1.92 2.87-1.92S46.26 99 47.69 99s1.44-1.92 2.87-1.92S52 99 53.44 99s1.43-1.92 2.87-1.92S57.74 99 59.18 99s1.43-1.92 2.87-1.92S63.48 99 64.92 99s1.44-1.92 2.87-1.92S69.23 99 70.67 99s1.43-1.92 2.87-1.92S75 99 76.41 99s1.44-1.92 2.88-1.92S80.72 99 82.16 99z"/>
	<path fill="#f8f9fa" d="M16.28 8.92a1.26 1.26 0 0 0-1.21 1.3v37h65.17V17.88l-8.87-9z"/>
	<rect width="56.97" height="1.92" x="19.81" y="88.8" fill="#a2a9b1" rx=".96"/>
	<rect width="56.97" height="1.92" x="19.81" y="84.57" fill="#a2a9b1" rx=".96"/>
	<rect width="56.97" height="1.92" x="19.81" y="76.12" fill="#a2a9b1" rx=".96"/>
	<rect width="9.66" height="1.92" x="19.81" y="80.35" fill="#a2a9b1" rx=".96"/>
	<rect width="9.66" height="1.92" x="39.14" y="67.66" fill="#a2a9b1" rx=".96"/>
	<rect width="13.5" height="1.92" x="63.29" y="80.35" fill="#a2a9b1" rx=".96"/>
	<rect width="18.33" height="1.92" x="58.46" y="71.89" fill="#a2a9b1" rx=".96"/>
	<rect width="28.99" height="1.92" x="31.89" y="80.35" fill="#a2a9b1" rx=".96"/>
	<rect width="36.23" height="1.92" x="19.81" y="71.89" fill="#a2a9b1" rx=".96"/>
	<rect width="16.91" height="1.92" x="19.81" y="67.66" fill="#a2a9b1" rx=".96"/>
	<rect width="19.17" height="3.83" x="19.81" y="53.81" fill="#72777d" rx="1.92"/>
	<rect width="30.67" height="1.92" x="19.81" y="59.71" fill="#c8ccd1" rx=".96"/>
	<rect width="25.57" height="1.92" x="51.21" y="67.66" fill="#a2a9b1" rx=".96"/>
	<path fill="#c8ccd1" d="M82.16 19.46h-10.3a2.16 2.16 0 0 1-2.16-2.16V7h2.49l10 10z"/>
	<path fill="#c8ccd1" d="M80.24 17.54h-7.67a1 1 0 0 1-.95-1V8.92z"/>
	<path fill="#c8ccd1" d="M82.16 17.08 72.07 7H15.58a2.42 2.42 0 0 0-2.42 2.42V99c1.45 0 1.45-1.92 2.89-1.92S17.5 99 18.94 99s1.44-1.92 2.88-1.92S23.26 99 24.7 99s1.43-1.92 2.87-1.92S29 99 30.45 99s1.43-1.92 2.87-1.92S34.76 99 36.2 99s1.43-1.92 2.87-1.92S40.51 99 42 99s1.43-1.92 2.87-1.92S46.26 99 47.69 99s1.44-1.92 2.87-1.92S52 99 53.44 99s1.43-1.92 2.87-1.92S57.74 99 59.18 99s1.43-1.92 2.87-1.92S63.48 99 64.92 99s1.44-1.92 2.87-1.92S69.23 99 70.67 99s1.43-1.92 2.87-1.92S75 99 76.41 99s1.44-1.92 2.88-1.92S80.72 99 82.16 99zm-2.87 78.09c-1.44 0-1.44 1.91-2.88 1.91s-1.41-1.91-2.87-1.91-1.44 1.91-2.87 1.91-1.44-1.91-2.88-1.91-1.43 1.91-2.87 1.91-1.44-1.91-2.87-1.91-1.44 1.91-2.87 1.91-1.44-1.91-2.87-1.91-1.44 1.91-2.87 1.91-1.44-1.91-2.88-1.91-1.43 1.91-2.87 1.91-1.43-1.91-2.87-1.91-1.44 1.91-2.82 1.91-1.44-1.91-2.88-1.91-1.44 1.91-2.87 1.91-1.44-1.91-2.88-1.91-1.44 1.91-2.87 1.91-1.5-1.91-2.93-1.91-1.44 1.91-2.87 1.91-1.44-1.91-2.88-1.91-1.44 1.91-2.88 1.91-1.44-1.91-2.87-1.91-1-1.44-1-1.44V11.34a2.42 2.42 0 0 1 2.43-2.42h54.57l8.17 8.16v76.65s.48 1.44-.95 1.44"/>
	<ellipse cx="30.02" cy="20.45" fill="#7c94c2" rx="4.6" ry="4.48"/>
	<path fill="#7c94c2" d="M58.47 33.24S69.55 40.59 72 37.89s0 3.92 0 3.92H50.16m-35.3-4.58A40.6 40.6 0 0 0 36 43.3c12.31 0 3 3.89 3 3.89H14.89"/>
	<path fill="#dae4f6" d="M16.26 47.25S64.6 24.55 58.55 36s21.69-2.69 21.69-2.69v14"/>
	<rect width="67.3" height="17.04" x="19.55" y="67.69" fill="#ff6e6e" rx="3.01"/>
	<rect width="63.89" height="13.63" x="21.25" y="69.4" fill="#fee7e6" rx="1.52"/>
	<rect width="39.19" height="1.92" x="26.63" y="77.76" fill="#222" rx=".79"/>
	<rect width="9.66" height="1.92" x="26.63" y="73.53" fill="#222" rx=".96"/>
	<rect width="27.26" height="1.92" x="38.71" y="73.53" fill="#222" rx=".93"/>
	<path fill="#54595d" d="M73.93 70.83 83.07 80l-1.2 1.2-9.14-9.2z"/>
	<path fill="#54595d" d="m83.07 72-9.14 9.14-1.2-1.14 9.14-9.14z"/>
</svg>
