<svg xmlns="http://www.w3.org/2000/svg" viewBox="0 0 128 128">
    <path d="M88 120a4 4 0 004 4h8a4 4 0 004-4v-4H88z" fill="#54595d"/>
    <path d="M124 72a28 28 0 10-48 19.6s8 8.4 8 12.4v4a4 4 0 004 4h16a4 4 0 004-4v-4c0-4 8-12.4 8-12.4a27.87 27.87 0 008-19.6z" fill="#fc3"/>
    <path d="M76.22 76.36a26.83 26.83 0 0126.83-26.83c.73 0 1.46 0 2.19.1a24.2 24.2 0 00-24.76 41.23 26.72 26.72 0 01-4.26-14.5z" fill="#fef6e7"/>
    <path d="M100 118.29H88v-1.15h12a.56.56 0 01.57.57.57.57 0 01-.57.58z" fill="#72777d"/>
    <path d="M89.22 122.86A3.91 3.91 0 0092 124h8a4.18 4.18 0 001.14-.18 1 1 0 00-1.14-1z" fill="#72777d"/>
    <path d="M100.57 120.57a.56.56 0 00-.57-.57H88a4 4 0 00.19 1.14H100a.56.56 0 00.57-.57z" fill="#72777d"/>
    <path d="M80.72 6.35a1.2 1.2 0 00-1.7 0L4.35 81a1.2 1.2 0 000 1.7l14.43 14.44a1.19 1.19 0 001.69 0l74.67-74.67a1.19 1.19 0 000-1.69zm-3.4 17.82a4.8 4.8 0 116.79 0 4.81 4.81 0 01-6.79 0z" fill="#8ea4cf" fill-rule="evenodd"/>
    <path d="M72.676 32.213l6.364 6.364-.849.849-6.364-6.364a.6.6 0 010-.849.6.6 0 01.849 0z" fill="#4a669e"/>
    <path d="M61.63 38.176l8.873 8.874-.848.848-8.874-8.874a.6.6 0 010-.848.6.6 0 01.848 0z" fill="#4a669e"/>
    <path d="M38.695 66.196l6.364 6.364-.849.848-6.364-6.364a.6.6 0 010-.848.6.6 0 01.849 0z" fill="#4a669e"/>
    <path d="M21.747 83.145l6.364 6.363-.849.849-6.364-6.364a.6.6 0 010-.848.6.6 0 01.849 0z" fill="#4a669e"/>
    <path d="M27.684 72.109l8.91 8.91-.85.848-8.909-8.91a.6.6 0 010-.848.6.6 0 01.849 0z" fill="#4a669e"/>
    <path fill="#f8f9fa" fill-rule="evenodd" d="M94.33 96.33l-17.4-7.22-1.27-1.27 10.18-10.18 1.27 1.27 7.22 17.4z"/>
    <path fill="#2a4b8d" d="M85.33 92.59l9 3.74-3.74-9-5.26 5.26z"/>
    <path d="M16.66 8.47a4.81 4.81 0 00-6.79 0l-3.4 3.4a4.81 4.81 0 000 6.79l5.09 5.09 10.19-10.19z" fill="#7c94c2"/>
    <path fill="#4a669e" d="M11.56 23.75l10.183-10.183 5.09 5.092L16.653 28.84z"/>
    <path d="M76.93 89.11L16.66 28.84l10.18-10.18 60.27 60.27a2.5 2.5 0 00-3.39 3.39 2.51 2.51 0 00-3.4 3.4 2.49 2.49 0 00-3.39 3.39z" fill="#dae4f6"/>
</svg>
