<svg xmlns="http://www.w3.org/2000/svg" viewBox="0 0 96 108">
	<path fill="#fff" d="M88.21 23.62 80 11.94h-.2L24.4 2.13a2.42 2.42 0 0 0-2.81 2L6.62 89 6 92.31c1.42.26 1.75-1.63 3.17-1.38s1.09 2.14 2.5 2.39 1.75-1.64 3.17-1.39 1.08 2.13 2.5 2.38 1.75-1.63 3.16-1.38 1.09 2.13 2.5 2.38 1.75-1.64 3.17-1.39 1.08 2.14 2.5 2.39 1.74-1.64 3.16-1.39 1.08 2.14 2.5 2.39 1.74-1.64 3.16-1.39 1.08 2.14 2.5 2.39 1.74-1.64 3.16-1.39 1.08 2.14 2.49 2.38 1.75-1.63 3.16-1.38 1.08 2.13 2.5 2.38 1.74-1.64 3.16-1.39 1.08 2.14 2.49 2.39 1.75-1.64 3.17-1.39 1.08 2.14 2.49 2.39 1.75-1.64 3.16-1.39 1.09 2.13 2.5 2.38 1.75-1.63 3.16-1.38 1.08 2.13 2.5 2.38l.58-3.3z"/>
	<path fill="#fee7e6" d="M24.76 4.14a1.26 1.26 0 0 0-1.42 1.07l-6.43 36.47L81.09 53l5.1-28.93L79 13.7z"/>
	<rect width="56.97" height="1.92" x="13.76" y="88.35" fill="#a2a9b1" rx=".96" transform="rotate(10 42.25 89.308)"/>
	<rect width="56.97" height="1.92" x="14.5" y="84.19" fill="#a2a9b1" rx=".96" transform="rotate(10 42.982 85.155)"/>
	<rect width="56.97" height="1.92" x="15.97" y="75.86" fill="#a2a9b1" rx=".96" transform="rotate(10 44.443 76.85)"/>
	<rect width="9.66" height="1.92" x="15.59" y="75.92" fill="#a2a9b1" rx=".96" transform="rotate(10 20.432 76.877)"/>
	<rect width="9.66" height="1.92" x="36.82" y="66.79" fill="#a2a9b1" rx=".96" transform="rotate(10 41.633 67.766)"/>
	<rect width="13.5" height="1.92" x="58.38" y="83.8" fill="#a2a9b1" rx=".96" transform="rotate(10 65.12 84.773)"/>
	<rect width="18.33" height="1.92" x="55.05" y="75.06" fill="#a2a9b1" rx=".96" transform="rotate(10 64.24 76.04)"/>
	<rect width="28.99" height="1.92" x="27.34" y="79.69" fill="#a2a9b1" rx=".96" transform="rotate(10 41.839 80.648)"/>
	<rect width="36.23" height="1.92" x="16.86" y="69.9" fill="#a2a9b1" rx=".96" transform="rotate(10 34.995 70.88)"/>
	<rect width="16.91" height="1.92" x="17.74" y="64.06" fill="#a2a9b1" rx=".96" transform="rotate(10 26.19 65.029)"/>
	<rect width="19.17" height="3.83" x="19.96" y="50.6" fill="#72777d" rx="1.92" transform="rotate(10 29.531 52.528)"/>
	<rect width="30.67" height="1.92" x="19.01" y="57.42" fill="#c8ccd1" rx=".96" transform="rotate(9.8 35.021 59.69)"/>
	<rect width="25.57" height="1.92" x="48.6" y="70.26" fill="#a2a9b1" rx=".96" transform="rotate(10 61.4 71.22)"/>
	<path fill="#c8ccd1" d="m87.8 26-10.14-1.83a2.15 2.15 0 0 1-1.75-2.5l1.78-10.14 2.46.43 8.08 11.54z"/>
	<path fill="#c8ccd1" d="m86.25 23.74-7.55-1.33a1 1 0 0 1-.78-1.11l1.33-7.55z"/>
	<path fill="#c8ccd1" d="M88.21 23.62 80 11.94h-.2L24.4 2.13a2.42 2.42 0 0 0-2.81 2L6.62 89 6 92.31c1.42.26 1.75-1.63 3.17-1.38s1.09 2.14 2.5 2.39 1.75-1.64 3.17-1.39 1.08 2.13 2.5 2.38 1.75-1.63 3.16-1.38 1.09 2.13 2.5 2.38 1.75-1.64 3.17-1.39 1.08 2.14 2.5 2.39 1.74-1.64 3.16-1.39 1.08 2.14 2.5 2.39 1.74-1.64 3.16-1.39 1.08 2.14 2.5 2.39 1.74-1.64 3.16-1.39 1.08 2.14 2.49 2.38 1.75-1.63 3.16-1.38 1.08 2.13 2.5 2.38 1.74-1.64 3.16-1.39 1.08 2.14 2.49 2.39 1.75-1.64 3.17-1.39 1.08 2.14 2.49 2.39 1.75-1.64 3.16-1.39 1.09 2.13 2.5 2.38 1.75-1.63 3.16-1.38 1.08 2.13 2.5 2.38l.58-3.3zM71.83 100c-1.42-.25-1.75 1.64-3.17 1.39s-1.08-2.12-2.49-2.39-1.75 1.64-3.16 1.39-1.09-2.14-2.5-2.39-1.75 1.64-3.16 1.39-1.09-2.14-2.5-2.38-1.75 1.63-3.16 1.38-1.08-2.11-2.49-2.39-1.75 1.67-3.2 1.42-1-2.14-2.46-2.42-1.75 1.64-3.16 1.39-1.08-2.11-2.5-2.39-1.75 1.64-3.16 1.39-1.08-2.14-2.5-2.39-1.75 1.64-3.16 1.39-1.06-2.1-2.5-2.39-1.75 1.63-3.17 1.38-1.08-2.13-2.5-2.38-1.74 1.64-3.16 1.39-1.08-2.14-2.5-2.39-1.75 1.64-3.16 1.39S11 89.29 9.57 89s-.73-1.59-.73-1.59l14.31-81.1a2.41 2.41 0 0 1 2.8-2l53.75 9.52 6.62 9.46L73 98.77s.24 1.5-1.17 1.23"/>
	<path fill="#ff6e6e" d="m59.76 37.83-18.5-3.26 5.67-5.13 2.6 4.56 5.68-5.13.5 1 .86-4.87-5.29-.93.47-2.65L43.82 20a2.68 2.68 0 0 0-3.11 2.17l-2.33 13.26a2.68 2.68 0 0 0 2.18 3.1l18.5 3.27a2.69 2.69 0 0 0 3.11-2.18l1.39-7.93L56 30.35z"/>
	<path fill="#ff6e6e" d="m62.78 20.66.94-5.29-2.65-.47-.93 5.29-5.28-.93-.47 2.64 5.29.93-.94 5.29 2.65.46.93-5.28 5.28.93.47-2.64z"/>
</svg>
