<svg xmlns="http://www.w3.org/2000/svg" viewBox="0 0 216 64">
	<path fill="#8ea4cf" d="M34.71 30.81v21l-9.12-5.22a.67.67 0 0 1-.34-.58v-15.2L10 10.67a1.35 1.35 0 0 1 1.07-2.17h37.82A1.35 1.35 0 0 1 50 10.67z"/>
	<path fill="#4a669e" d="m34.71 56.5-9.12-5.21a.68.68 0 0 1-.34-.59v-2.31l9.46 5.41z"/>
	<path fill="#c8ccd1" d="m52.679 58.88 61.819-16.564.259.966-61.82 16.564zm-2.07-7.73 61.819-16.565.259.966-61.82 16.564zm-2.068-7.722 61.82-16.564.258.966L48.8 44.394zm-2.071-7.73 61.82-16.565.259.966-61.82 16.564zm-2.07-7.731 61.82-16.565.259.966-61.82 16.565z"/>
	<path fill="#54595d" d="m73 22.12 4 14.78a13 13 0 0 0-2.49.35A4.5 4.5 0 1 0 80 40.44L76.12 26l12.56-3.37L91.47 33a14 14 0 0 0-2.49.36 4.5 4.5 0 1 0 5.51 3.18l-5-18.83z"/>
	<path fill="#ac6600" d="m111.83 48.08 5.56-31.51L141 20.74l-5.55 31.51zM143.5 19.3 116 14.14l-6.63 35.38 27.52 5.16z"/>
	<path fill="#fee7e6" d="m112.994 47.268 5.21-29.544 21.665 3.82-5.21 29.544z"/>
	<path fill="#b32424" d="M125.65 38.84c-5.83-1-9.47 1.88-9.82 3.85l-.83 4.93 17.73 3.12.87-4.92c.3-1.97-2.12-5.95-7.95-6.98"/>
	<circle cx="126.78" cy="32.44" r="5" fill="#b32424"/>
	<path fill="#c8ccd1" d="M157.67 25.85a1.7 1.7 0 0 0 .15-.84l-.69-7.81 6.4-.56.68 7.81a1.65 1.65 0 0 0 .29.8l6 8.49-17.43 1.53zm18.84 13-10.74-15-.65-7.37 1.6-.14-.28-3.2-12.78 1.12.28 3.2 1.6-.14.64 7.36-8 16.61a1.6 1.6 0 0 0 1.58 2.3l25.57-2.24a1.61 1.61 0 0 0 1.32-.93 1.59 1.59 0 0 0-.14-1.58z"/>
	<path fill="#d5fdf4" d="M157.67 25.85a1.7 1.7 0 0 0 .15-.84l-.69-7.81 6.4-.56.68 7.81a1.65 1.65 0 0 0 .29.8l6 8.49-17.43 1.53z"/>
	<path fill="#d5fdf4" d="m168.75 31.28-4.25-6a1.76 1.76 0 0 1-.29-.8l-.68-7.81-6.4.56.69 7.81a1.7 1.7 0 0 1-.15.84l-3.28 6.69z"/>
	<path fill="#00af89" d="m170.49 33.74-1.74-2.46-14.36 1.26-1.33 2.73-2.75 5.87 23.91-2.09z"/>
	<path fill="#a2a9b1" d="m197.2 18.18-2.51 9.36-1.08-.29 2.5-9.36a.42.42 0 0 0-.31-.53l-.78-.21a.44.44 0 0 0-.54.31L192 26.81l-1.09-.29 2.51-9.35a.44.44 0 0 0-.31-.54l-.79-.21a.43.43 0 0 0-.53.31l-2.51 9.36-1.09-.3 2.51-9.35a.44.44 0 0 0-.31-.54l-.78-.21a.44.44 0 0 0-.54.31l-2.51 9.36c-.61 2.3.15 4.51 2.38 5.26l-5.56 20.68 2.71.72 5.55-20.67c2.3.46 4.07-1.07 4.68-3.37l2.51-9.36a.45.45 0 0 0-.31-.54l-.78-.21a.44.44 0 0 0-.54.31m4.93 5.53-2.92 10.87 2.72.72-5.24 19.56 2.72.73 9.31-34.77c-3-.82-6.08.98-6.59 2.89"/>
	<path fill="#54595d" d="m207.85 20.66-9.29 34.7.85.23 9.31-34.77a5.3 5.3 0 0 0-.87-.16m-22.331 31.213 5.54-20.68.58.154-5.54 20.68z"/>
</svg>
