<svg xmlns="http://www.w3.org/2000/svg" viewBox="0 0 96 108">
    <path d="M88.1 23.34l-8.18-11.69h-.2L24.28 1.84a2.42 2.42 0 00-2.8 2l-15 84.92L5.93 92H6c1.42.25 1.75-1.64 3.17-1.39s1.09 2.14 2.5 2.39 1.75-1.64 3.17-1.39 1.08 2.14 2.5 2.39 1.75-1.64 3.16-1.39S21.53 94.78 23 95s1.75-1.64 3.17-1.39 1.03 2.17 2.44 2.39 1.75-1.64 3.17-1.39 1.08 2.13 2.5 2.38 1.74-1.63 3.16-1.38 1.08 2.13 2.5 2.38 1.74-1.64 3.16-1.39 1.08 2.14 2.49 2.39 1.75-1.64 3.16-1.39 1.08 2.14 2.5 2.39 1.74-1.64 3.16-1.39 1.08 2.13 2.49 2.38 1.75-1.63 3.16-1.38 1.09 2.13 2.5 2.38 1.75-1.64 3.16-1.39 1.08 2.14 2.5 2.39 1.75-1.64 3.16-1.39 1.08 2.14 2.5 2.39l.58-3.31z" fill="#fff"/>
    <path d="M24.64 3.85a1.26 1.26 0 00-1.41 1.07L16.8 41.39 81 52.71l5.09-28.92-7.2-10.37z" fill="#fee7e6" fill-rule="evenodd"/>
    <rect x="13.65" y="88.07" width="56.97" height="1.92" rx=".96" transform="rotate(10 42.112 89.032)" fill="#b32424"/>
    <rect x="14.39" y="83.91" width="56.97" height="1.92" rx=".96" transform="rotate(10 42.9 84.874)" fill="#b32424"/>
    <rect x="15.85" y="75.58" width="56.97" height="1.92" rx=".96" transform="rotate(10 44.356 76.512)" fill="#b32424"/>
    <rect x="15.48" y="75.63" width="9.66" height="1.92" rx=".96" transform="rotate(10 20.292 76.602)" fill="#b32424"/>
    <rect x="36.71" y="66.5" width="9.66" height="1.92" rx=".96" transform="rotate(10 41.551 67.486)" fill="#b32424"/>
    <rect x="58.27" y="83.52" width="13.5" height="1.92" rx=".96" transform="rotate(10 65.037 84.492)" fill="#b32424"/>
    <rect x="54.94" y="74.77" width="18.33" height="1.92" rx=".96" transform="rotate(10 64.096 75.706)" fill="#b32424"/>
    <rect x="27.23" y="79.41" width="28.99" height="1.92" rx=".96" transform="rotate(10 41.7 80.372)" fill="#b32424"/>
    <rect x="16.75" y="69.62" width="36.23" height="1.92" rx=".96" transform="rotate(10 34.85 70.548)" fill="#b32424"/>
    <rect x="17.63" y="63.77" width="16.91" height="1.92" rx=".96" transform="rotate(10 26.108 64.748)" fill="#b32424"/>
    <rect x="57.08" y="56.88" width="19.17" height="3.83" rx="1.92" transform="rotate(10 66.646 58.783)" fill="#b32424"/>
    <rect x="44.81" y="61.7" width="30.67" height="1.92" rx=".96" transform="rotate(10 60.13 62.635)" fill="#ff6e6e"/>
    <rect x="48.49" y="69.98" width="25.57" height="1.92" rx=".96" transform="rotate(10 61.26 70.944)" fill="#b32424"/>
    <path d="M87.69 25.67l-10.14-1.78a2.17 2.17 0 01-1.76-2.51l1.79-10.14 2.46.43 8.08 11.55z" fill="#c8ccd1" fill-rule="evenodd"/>
    <path d="M88.1 23.34l-8.18-11.69h-.2L24.28 1.84a2.42 2.42 0 00-2.8 2l-15 84.92L5.93 92H6c1.42.25 1.75-1.64 3.17-1.39s1.09 2.14 2.5 2.39 1.75-1.64 3.17-1.39 1.08 2.14 2.5 2.39 1.75-1.64 3.16-1.39S21.53 94.78 23 95s1.75-1.64 3.17-1.39 1.03 2.17 2.44 2.39 1.75-1.64 3.17-1.39 1.08 2.13 2.5 2.38 1.74-1.63 3.16-1.38 1.08 2.13 2.5 2.38 1.74-1.64 3.16-1.39 1.08 2.14 2.49 2.39 1.75-1.64 3.16-1.39 1.08 2.14 2.5 2.39 1.74-1.64 3.16-1.39 1.08 2.13 2.49 2.38 1.75-1.63 3.16-1.38 1.09 2.13 2.5 2.38 1.75-1.64 3.16-1.39 1.08 2.14 2.5 2.39 1.75-1.64 3.16-1.39 1.08 2.14 2.5 2.39l.58-3.31zM71.71 99.73c-1.41-.25-1.74 1.64-3.16 1.39s-1.08-2.12-2.49-2.38-1.75 1.63-3.17 1.38-1.08-2.12-2.49-2.38-1.75 1.64-3.17 1.39-1.08-2.13-2.49-2.39-1.74 1.64-3.16 1.39-1.08-2.13-2.49-2.39-1.75 1.64-3.16 1.39-1.09-2.13-2.5-2.38-1.75 1.63-3.16 1.38-1.08-2.13-2.5-2.38-1.77 1.64-3.16 1.39-1.08-2.14-2.5-2.39-1.75 1.64-3.11 1.39-1.09-2.14-2.5-2.39-1.75 1.64-3.17 1.39-1.13-2.14-2.55-2.39-1.78 1.64-3.16 1.39-1.08-2.14-2.5-2.39-1.75 1.64-3.12 1.39-1.13-2.14-2.54-2.38-.73-1.59-.73-1.59L23 6a2.42 2.42 0 012.8-2l53.74 9.48L86.21 23 72.9 98.48s.23 1.52-1.19 1.25z" fill="#c8ccd1"/>
    <rect x="50.33" y="17.39" width="1.7" height="20.44" rx=".76" transform="rotate(100 51.182 27.61)" fill="#ff6e6e"/>
    <rect x="50.33" y="17.39" width="1.7" height="20.44" rx=".76" transform="rotate(-170 51.181 27.611)" fill="#ff6e6e"/>
    <rect x="50.33" y="17.39" width="1.7" height="20.44" rx=".76" transform="rotate(-125 51.18 27.61)" fill="#ff6e6e"/>
    <rect x="50.33" y="17.39" width="1.7" height="20.44" rx=".76" transform="rotate(145 51.18 27.61)" fill="#ff6e6e"/>
</svg>
