<svg xmlns="http://www.w3.org/2000/svg" viewBox="0 0 96 108">
    <path d="M88.21 23.62L80 11.94h-.2L24.4 2.13a2.42 2.42 0 00-2.81 2L6.62 89 6 92.31c1.42.26 1.75-1.63 3.17-1.38s1.09 2.14 2.5 2.39 1.75-1.64 3.17-1.39 1.08 2.13 2.5 2.38 1.75-1.63 3.16-1.38 1.09 2.13 2.5 2.38 1.75-1.64 3.17-1.39 1.08 2.14 2.5 2.39 1.74-1.64 3.16-1.39 1.08 2.14 2.5 2.39 1.74-1.64 3.16-1.39 1.08 2.14 2.5 2.39 1.74-1.64 3.16-1.39 1.08 2.14 2.49 2.38 1.75-1.63 3.16-1.38 1.08 2.13 2.5 2.38 1.74-1.64 3.16-1.39 1.08 2.14 2.49 2.39 1.75-1.64 3.17-1.39 1.08 2.14 2.49 2.39 1.75-1.64 3.16-1.39 1.09 2.13 2.5 2.38 1.75-1.63 3.16-1.38 1.08 2.13 2.5 2.38l.58-3.3z" fill="#fff"/>
    <path d="M24.76 4.14a1.26 1.26 0 00-1.42 1.07l-6.43 36.47L81.09 53l5.1-28.93L79 13.7z" fill="#fee7e6" fill-rule="evenodd"/>
    <rect x="13.76" y="88.35" width="56.97" height="1.92" rx=".96" transform="rotate(10 42.25 89.308)" fill="#a2a9b1"/>
    <rect x="14.5" y="84.19" width="56.97" height="1.92" rx=".96" transform="rotate(10 42.982 85.155)" fill="#a2a9b1"/>
    <rect x="15.97" y="75.86" width="56.97" height="1.92" rx=".96" transform="rotate(10 44.443 76.85)" fill="#a2a9b1"/>
    <rect x="15.59" y="75.92" width="9.66" height="1.92" rx=".96" transform="rotate(10 20.432 76.877)" fill="#a2a9b1"/>
    <rect x="36.82" y="66.79" width="9.66" height="1.92" rx=".96" transform="rotate(10 41.633 67.766)" fill="#a2a9b1"/>
    <rect x="58.38" y="83.8" width="13.5" height="1.92" rx=".96" transform="rotate(10 65.12 84.773)" fill="#a2a9b1"/>
    <rect x="55.05" y="75.06" width="18.33" height="1.92" rx=".96" transform="rotate(10 64.24 76.04)" fill="#a2a9b1"/>
    <rect x="27.34" y="79.69" width="28.99" height="1.92" rx=".96" transform="rotate(10 41.839 80.648)" fill="#a2a9b1"/>
    <rect x="16.86" y="69.9" width="36.23" height="1.92" rx=".96" transform="rotate(10 34.995 70.88)" fill="#a2a9b1"/>
    <rect x="17.74" y="64.06" width="16.91" height="1.92" rx=".96" transform="rotate(10 26.19 65.029)" fill="#a2a9b1"/>
    <rect x="19.96" y="50.6" width="19.17" height="3.83" rx="1.92" transform="rotate(10 29.531 52.528)" fill="#72777d"/>
    <rect x="19.01" y="57.42" width="30.67" height="1.92" rx=".96" transform="rotate(9.8 35.021 59.69)" fill="#c8ccd1"/>
    <rect x="48.6" y="70.26" width="25.57" height="1.92" rx=".96" transform="rotate(10 61.4 71.22)" fill="#a2a9b1"/>
    <path d="M87.8 26l-10.14-1.83a2.15 2.15 0 01-1.75-2.5l1.78-10.14 2.46.43 8.08 11.54z" fill="#c8ccd1" fill-rule="evenodd"/>
    <path d="M86.25 23.74l-7.55-1.33a1 1 0 01-.78-1.11l1.33-7.55z" fill="#c8ccd1" fill-rule="evenodd"/>
    <path d="M88.21 23.62L80 11.94h-.2L24.4 2.13a2.42 2.42 0 00-2.81 2L6.62 89 6 92.31c1.42.26 1.75-1.63 3.17-1.38s1.09 2.14 2.5 2.39 1.75-1.64 3.17-1.39 1.08 2.13 2.5 2.38 1.75-1.63 3.16-1.38 1.09 2.13 2.5 2.38 1.75-1.64 3.17-1.39 1.08 2.14 2.5 2.39 1.74-1.64 3.16-1.39 1.08 2.14 2.5 2.39 1.74-1.64 3.16-1.39 1.08 2.14 2.5 2.39 1.74-1.64 3.16-1.39 1.08 2.14 2.49 2.38 1.75-1.63 3.16-1.38 1.08 2.13 2.5 2.38 1.74-1.64 3.16-1.39 1.08 2.14 2.49 2.39 1.75-1.64 3.17-1.39 1.08 2.14 2.49 2.39 1.75-1.64 3.16-1.39 1.09 2.13 2.5 2.38 1.75-1.63 3.16-1.38 1.08 2.13 2.5 2.38l.58-3.3zM71.83 100c-1.42-.25-1.75 1.64-3.17 1.39s-1.08-2.12-2.49-2.39-1.75 1.64-3.16 1.39-1.09-2.14-2.5-2.39-1.75 1.64-3.16 1.39-1.09-2.14-2.5-2.38-1.75 1.63-3.16 1.38-1.08-2.11-2.49-2.39-1.75 1.67-3.2 1.42-1-2.14-2.46-2.42-1.75 1.64-3.16 1.39-1.08-2.11-2.5-2.39-1.75 1.64-3.16 1.39-1.08-2.14-2.5-2.39-1.75 1.64-3.16 1.39-1.06-2.1-2.5-2.39-1.75 1.63-3.17 1.38-1.08-2.13-2.5-2.38-1.74 1.64-3.16 1.39-1.08-2.14-2.5-2.39-1.75 1.64-3.16 1.39S11 89.29 9.57 89s-.73-1.59-.73-1.59l14.31-81.1a2.41 2.41 0 012.8-2l53.75 9.52 6.62 9.46L73 98.77s.24 1.5-1.17 1.23z" fill="#c8ccd1"/>
    <path d="M59.76 37.83l-18.5-3.26 5.67-5.13 2.6 4.56 5.68-5.13.5 1 .86-4.87-5.29-.93.47-2.65L43.82 20a2.68 2.68 0 00-3.11 2.17l-2.33 13.26a2.68 2.68 0 002.18 3.1l18.5 3.27a2.69 2.69 0 003.11-2.18l1.39-7.93L56 30.35z" fill="#ff6e6e"/>
    <path fill="#ff6e6e" d="M62.78 20.66l.94-5.29-2.65-.47-.93 5.29-5.28-.93-.47 2.64 5.29.93-.94 5.29 2.65.46.93-5.28 5.28.93.47-2.64-5.29-.93z"/>
</svg>
