<svg xmlns="http://www.w3.org/2000/svg" viewBox="0 0 128 128">
	<path d="M91 21.84L79.16 10H12.84A2.84 2.84 0 0010 12.84V118c1.69 0 1.69-2.25 3.38-2.25S15.1 118 16.79 118s1.69-2.25 3.38-2.25 1.69 2.25 3.38 2.25 1.68-2.25 3.37-2.25 1.69 2.25 3.37 2.25 1.69-2.25 3.38-2.25 1.69 2.25 3.38 2.25 1.68-2.25 3.37-2.25S42.11 118 43.8 118s1.68-2.25 3.37-2.25 1.68 2.25 3.37 2.25 1.69-2.25 3.37-2.25S55.6 118 57.29 118s1.68-2.25 3.37-2.25S62.34 118 64 118s1.69-2.25 3.37-2.25 1.71 2.25 3.4 2.25 1.68-2.25 3.37-2.25 1.68 2.25 3.37 2.25 1.69-2.25 3.37-2.25 1.69 2.25 3.38 2.25 1.68-2.25 3.37-2.25S89.31 118 91 118V21.84z" fill="#fff"/>
    <path d="M13.67 12.25a1.47 1.47 0 00-1.42 1.53v43.47h76.5V22.78L78.33 12.25z" fill="#fee7e6" fill-rule="evenodd"/>
    <rect x="17.81" y="106.03" width="66.88" height="2.25" rx="1.12" fill="#a2a9b1"/>
    <rect x="17.81" y="101.06" width="66.88" height="2.25" rx="1.12" fill="#a2a9b1"/>
    <rect x="17.81" y="91.14" width="66.88" height="2.25" rx="1.12" fill="#a2a9b1"/>
    <path d="M18.94 96.1H28a1.12 1.12 0 011.12 1.12A1.13 1.13 0 0128 98.35h-9.06a1.12 1.12 0 01-1.12-1.12 1.12 1.12 0 011.12-1.13z" fill="#a2a9b1"/>
    <rect x="31.99" y="96.1" width="34.03" height="2.25" rx="1.12" fill="#a2a9b1"/>
    <rect x="17.81" y="86.18" width="42.53" height="2.25" rx="1.12" fill="#a2a9b1"/>
    <rect x="17.81" y="81.21" width="19.85" height="2.25" rx="1.12" fill="#a2a9b1"/>
    <rect x="62.2" y="64.96" width="22.5" height="4.5" rx="2.25" fill="#72777d"/>
    <rect x="48.7" y="71.88" width="36" height="2.25" rx="1.12" fill="#c8ccd1"/>
    <path d="M91 24.62H78.91a2.54 2.54 0 01-2.54-2.53V10h2.93L91 21.7z" fill="#c8ccd1" fill-rule="evenodd"/>
    <path d="M91 21.84L79.16 10H12.84A2.84 2.84 0 0010 12.84V118c1.69 0 1.69-2.25 3.38-2.25S15.1 118 16.79 118s1.69-2.25 3.38-2.25 1.69 2.25 3.38 2.25 1.68-2.25 3.37-2.25 1.69 2.25 3.37 2.25 1.69-2.25 3.38-2.25 1.69 2.25 3.38 2.25 1.68-2.25 3.37-2.25S42.11 118 43.8 118s1.68-2.25 3.37-2.25 1.68 2.25 3.37 2.25 1.69-2.25 3.37-2.25S55.6 118 57.29 118s1.68-2.25 3.37-2.25S62.34 118 64 118s1.69-2.25 3.37-2.25 1.71 2.25 3.4 2.25 1.68-2.25 3.37-2.25 1.68 2.25 3.37 2.25 1.69-2.25 3.37-2.25 1.69 2.25 3.38 2.25 1.68-2.25 3.37-2.25S89.31 118 91 118V21.84zm-3.37 91.66c-1.69 0-1.69 2.25-3.37 2.25s-1.69-2.25-3.38-2.25-1.68 2.25-3.37 2.25-1.69-2.25-3.37-2.25-1.69 2.25-3.37 2.25-1.69-2.25-3.38-2.25-1.68 2.25-3.37 2.25-1.68-2.25-3.36-2.25-1.69 2.25-3.37 2.25-1.69-2.25-3.38-2.25-1.68 2.25-3.37 2.25-1.69-2.25-3.37-2.25-1.69 2.25-3.37 2.25-1.69-2.25-3.38-2.25-1.69 2.25-3.37 2.25-1.69-2.25-3.38-2.25-1.69 2.25-3.38 2.25-1.68-2.25-3.37-2.25-1.69 2.25-3.37 2.25-1.69-2.25-3.38-2.25-1.69 2.25-3.38 2.25-1.69-2.25-3.38-2.25-1.16-1.69-1.16-1.69V15.09a2.84 2.84 0 012.84-2.84h64.07l9.59 9.59v90s.56 1.66-1.12 1.66z" fill="#c8ccd1"/>
    <path d="M61 44.07H39L44.46 37l3.94 4.73 5.51-7.09.79 1.05v-5.8h-6.3v-3.15H39a3.15 3.15 0 00-3.15 3.15v15.75A3.15 3.15 0 0039 48.79h22a3.15 3.15 0 003.15-3.15v-9.45h-9.06z" fill="#ff6e6e"/>
    <path fill="#ff6e6e" d="M61 23.59v-6.3h-3.15v6.3h-6.3v3.15h6.3v6.3H61v-6.3h6.3v-3.15H61z"/>
    <path d="M64 74.21l2-7.72A2 2 0 0168 65h20a2 2 0 011.93 1.49l2 7.72h24a2 2 0 012 2V116a2 2 0 01-2 2H40a2 2 0 01-2-2V76.21a2 2 0 012-2h5.33v-2.32a1 1 0 011-1h9.86a1 1 0 011 1v2.32z" fill="#a2a9b1" fill-rule="evenodd"/>
    <circle cx="78.25" cy="96.75" r="16.25" fill="#fff"/>
    <circle cx="78" cy="96.5" r="12.5" fill="#2a4b8d"/>
    <circle cx="109" cy="82.5" r="4.5" fill="#fff"/>
    <path d="M80.82 105a6.29 6.29 0 01-4.32-1.71h.37a8.41 8.41 0 008.42-8.42v-.37A6 6 0 0187 98.82a6.17 6.17 0 01-6.18 6.18z" fill="#69f" fill-rule="evenodd"/>
    <rect x="69" y="68" width="18.5" height="3.5" rx="1.25" fill="#fff"/>
</svg>
