<svg xmlns="http://www.w3.org/2000/svg" viewBox="0 0 96 108">
    <path fill="none" d="M1.91 0h96v108h-96z"/>
    <path d="M84 17.08L73.9 7H17.41A2.42 2.42 0 0015 9.42V99c1.44 0 1.44-1.92 2.88-1.92S19.33 99 20.77 99s1.44-1.92 2.88-1.92S25.08 99 26.52 99s1.48-1.92 2.88-1.92S30.83 99 32.27 99s1.44-1.92 2.88-1.92S36.59 99 38 99s1.44-1.92 2.88-1.92S42.33 99 43.77 99s1.44-1.92 2.88-1.92S48.08 99 49.52 99s1.43-1.92 2.87-1.92S53.83 99 55.26 99s1.44-1.92 2.88-1.92S59.57 99 61 99s1.44-1.92 2.88-1.92S65.31 99 66.75 99s1.43-1.92 2.87-1.92S71.06 99 72.49 99s1.44-1.92 2.88-1.92S76.8 99 78.24 99s1.44-1.92 2.87-1.92S82.55 99 84 99V17.08z" fill="#fff"/>
    <path d="M84 19.46H73.69a2.16 2.16 0 01-2.16-2.16V7H74l10 10z" fill="#c8ccd1" fill-rule="evenodd"/>
    <path d="M82.07 17.54H74.4a1 1 0 01-1-1V8.92z" fill="#c8ccd1" fill-rule="evenodd"/>
    <path d="M84 17.08L73.9 7H17.41A2.42 2.42 0 0015 9.42V99c1.44 0 1.44-1.92 2.88-1.92S19.33 99 20.77 99s1.44-1.92 2.88-1.92S25.08 99 26.52 99s1.48-1.92 2.88-1.92S30.83 99 32.27 99s1.44-1.92 2.88-1.92S36.59 99 38 99s1.44-1.92 2.88-1.92S42.33 99 43.77 99s1.44-1.92 2.88-1.92S48.08 99 49.52 99s1.43-1.92 2.87-1.92S53.83 99 55.26 99s1.44-1.92 2.88-1.92S59.57 99 61 99s1.44-1.92 2.88-1.92S65.31 99 66.75 99s1.43-1.92 2.87-1.92S71.06 99 72.49 99s1.44-1.92 2.88-1.92S76.8 99 78.24 99s1.44-1.92 2.87-1.92S82.55 99 84 99V17.08zm-2.89 78.09c-1.43 0-1.43 1.91-2.87 1.91s-1.44-1.91-2.87-1.91-1.44 1.91-2.88 1.91-1.43-1.91-2.87-1.91-1.44 1.91-2.87 1.91-1.44-1.91-2.87-1.91-1.44 1.91-2.88 1.91-1.43-1.91-2.86-1.91-1.44 1.91-2.88 1.91-1.43-1.91-2.87-1.91-1.39 1.91-2.87 1.91-1.44-1.91-2.87-1.91-1.44 1.91-2.88 1.91-1.44-1.91-2.87-1.91-1.44 1.91-2.9 1.91-1.43-1.91-2.87-1.91-1.44 1.91-2.88 1.91-1.44-1.91-2.87-1.91-1.38 1.91-2.86 1.91-1.44-1.91-2.87-1.91-1.44 1.91-2.88 1.91-1.44-1.91-2.88-1.91-1-1.44-1-1.44V11.34a2.42 2.42 0 012.42-2.42H73.9l8.17 8.16v76.65s.48 1.44-.96 1.44z" fill="#c8ccd1"/>
    <path fill="#00af89" d="M87.82 82.39H12.01v-23h75.81z"/>
    <path fill="#d5fdf4" d="M86.11 80.69H13.7V61.1h72.41z"/>
    <rect x="21.96" y="69.88" width="56.22" height="1.92" rx=".94" transform="rotate(-180 50.07 70.835)" fill="#14866d"/>
    <rect x="59.44" y="64.05" width="18.74" height="3.41" rx="1.7" transform="rotate(-180 68.81 65.755)" fill="#14866d"/>
    <rect x="68.52" y="74.17" width="9.66" height="1.92" rx=".96" transform="rotate(-180 73.35 75.13)" fill="#14866d"/>
    <rect x="21.67" y="74.17" width="16.48" height="1.92" rx=".96" transform="rotate(-180 29.905 75.13)" fill="#14866d"/>
    <rect x="40.55" y="74.17" width="25.56" height="1.92" rx=".78" transform="rotate(-180 53.325 75.13)" fill="#14866d"/>
    <path fill="#d5fdf4" d="M81.43 82.38h-3.41v-1.7h3.41z"/>
    <path fill="#d5fdf4" d="M72.06 82.38h-3.41v-1.7h3.41z"/>
    <path fill="#d5fdf4" d="M62.69 82.38h-3.41v-1.7h3.41z"/>
    <path fill="#d5fdf4" d="M54.17 82.38h-3.41v-1.7h3.41z"/>
    <path fill="#d5fdf4" d="M45.65 82.38h-3.41v-1.7h3.41z"/>
    <path fill="#d5fdf4" d="M37.14 82.38h-3.41v-1.7h3.41z"/>
    <path fill="#d5fdf4" d="M13.71 74.72v3.41h-1.7v-3.41z"/>
    <path fill="#d5fdf4" d="M13.71 61.95v2.56h-1.7v-2.56z"/>
    <path fill="#d5fdf4" d="M13.71 67.91v3.41h-1.7v-3.41z"/>
    <path fill="#d5fdf4" d="M87.82 75.58v4.26h-1.7v-4.26z"/>
    <path fill="#d5fdf4" d="M87.82 62.8v2.56h-1.7V62.8z"/>
    <path fill="#d5fdf4" d="M87.82 68.76v3.41h-1.7v-3.41z"/>
    <path fill="#d5fdf4" d="M81.43 61.09h-3.41v-1.7h3.41z"/>
    <path fill="#d5fdf4" d="M72.06 61.09h-3.41v-1.7h3.41z"/>
    <path fill="#d5fdf4" d="M62.69 61.09h-3.41v-1.7h3.41z"/>
    <path fill="#d5fdf4" d="M54.17 61.09h-3.41v-1.7h3.41z"/>
    <path fill="#d5fdf4" d="M45.65 61.09h-3.41v-1.7h3.41z"/>
    <path fill="#d5fdf4" d="M30.32 61.09h-3.41v-1.7h3.41z"/>
    <path fill="#d5fdf4" d="M23.5 61.09h-3.41v-1.7h3.41z"/>
    <path fill="#d5fdf4" d="M15.84 61.09h-1.7v-1.7h1.7z"/>
    <path fill="#d5fdf4" d="M15.84 82.38h-1.7v-1.7h1.7z"/>
    <path fill="#d5fdf4" d="M37.14 82.38h-3.41v-1.7h3.41z"/>
    <path fill="#d5fdf4" d="M30.32 82.38h-3.41v-1.7h3.41z"/>
    <path fill="#d5fdf4" d="M22.65 82.38h-3.41v-1.7h3.41z"/>
    <path fill="#d5fdf4" d="M37.14 61.09h-3.41v-1.7h3.41z"/>
    <rect x="21.64" y="53.65" width="56.97" height="1.92" rx=".96" transform="rotate(-180 50.125 54.605)" fill="#a2a9b1"/>
    <rect x="21.64" y="45.19" width="56.97" height="1.92" rx=".96" transform="rotate(-180 50.125 46.15)" fill="#a2a9b1"/>
    <rect x="68.95" y="49.42" width="9.66" height="1.92" rx=".96" transform="rotate(-180 73.785 50.38)" fill="#a2a9b1"/>
    <rect x="49.63" y="36.74" width="9.66" height="1.92" rx=".96" transform="rotate(-180 54.46 37.695)" fill="#a2a9b1"/>
    <rect x="21.64" y="49.42" width="13.5" height="1.92" rx=".96" transform="rotate(-180 28.39 50.38)" fill="#a2a9b1"/>
    <rect x="21.64" y="40.97" width="18.33" height="1.92" rx=".96" transform="rotate(-180 30.805 41.925)" fill="#a2a9b1"/>
    <rect x="37.55" y="49.42" width="28.99" height="1.92" rx=".96" transform="rotate(-180 52.045 50.38)" fill="#a2a9b1"/>
    <rect x="21.64" y="90.54" width="56.97" height="1.92" rx=".96" transform="rotate(-180 50.125 91.495)" fill="#a2a9b1"/>
    <rect x="68.95" y="86.31" width="9.66" height="1.92" rx=".96" transform="rotate(-180 73.785 87.265)" fill="#a2a9b1"/>
    <rect x="21.64" y="86.31" width="13.5" height="1.92" rx=".96" transform="rotate(180 28.39 87.265)" fill="#a2a9b1"/>
    <rect x="37.55" y="86.31" width="28.99" height="1.92" rx=".96" transform="rotate(-180 52.045 87.265)" fill="#a2a9b1"/>
    <rect x="42.38" y="40.97" width="36.23" height="1.92" rx=".96" transform="rotate(-180 60.5 41.925)" fill="#a2a9b1"/>
    <rect x="61.71" y="36.74" width="16.91" height="1.92" rx=".96" transform="rotate(-180 70.16 37.695)" fill="#a2a9b1"/>
    <rect x="59.45" y="23.89" width="19.17" height="3.83" rx="1.92" transform="rotate(-180 69.03 25.805)" fill="#72777d"/>
    <rect x="47.95" y="29.78" width="30.67" height="1.92" rx=".96" transform="rotate(-180 63.28 30.74)" fill="#c8ccd1"/>
    <rect x="21.64" y="36.74" width="25.57" height="1.92" rx=".96" transform="rotate(-180 34.425 37.695)" fill="#a2a9b1"/>
</svg>
