<svg xmlns="http://www.w3.org/2000/svg" viewBox="0 0 128 128">
    <path fill="#c8ccd1" d="M54.682 65.874l61.82-16.564.258.966L54.941 66.84z"/>
    <path fill="#c8ccd1" d="M52.612 58.153l61.82-16.564.258.966-61.819 16.564z"/>
    <path fill="#c8ccd1" d="M50.545 50.432l61.819-16.564.259.966-61.82 16.564z"/>
    <path fill="#c8ccd1" d="M48.475 42.701l61.819-16.564.259.966-61.82 16.564z"/>
    <path fill="#c8ccd1" d="M46.404 34.97l61.82-16.564.258.966-61.819 16.564z"/>
    <path d="M45 41v31l-13.5-7.71a1 1 0 01-.5-.87V41L8.41 11.21A2 2 0 0110 8h56a2 2 0 011.59 3.21z" fill="#8ea4cf"/>
    <path d="M45 79l-13.5-7.71a1 1 0 01-.5-.87V67l14 8z" fill="#4a669e"/>
    <path d="M75 29.12l4 14.78a12.94 12.94 0 00-2.49.35A4.5 4.5 0 1082 47.44L78.12 33l12.56-3.37L93.47 40a13.84 13.84 0 00-2.49.36 4.5 4.5 0 105.51 3.18l-5-18.83z" fill="#54595d"/>
    <path d="M23.23 98.91a1.6 1.6 0 00.15-.83l-.68-7.82 6.39-.56.68 7.82a1.63 1.63 0 00.3.79l6 8.5-17.43 1.52zm18.85 13l-10.75-15-.64-7.37 1.6-.14-.29-3.17-12.78 1.11.28 3.2 1.6-.14.64 7.37-8 16.61a1.61 1.61 0 001.59 2.29l25.57-2.24a1.59 1.59 0 001.31-.93 1.61 1.61 0 00-.13-1.6z" fill="#c8ccd1"/>
    <path d="M23.23 98.91a1.6 1.6 0 00.15-.83l-.68-7.82 6.39-.56.68 7.82a1.63 1.63 0 00.3.79l6 8.5-17.43 1.52z" fill="#d5fdf4"/>
    <path d="M34.32 104.34l-4.25-6a1.63 1.63 0 01-.3-.79l-.68-7.82-6.39.56.68 7.82a1.6 1.6 0 01-.15.83L20 105.6z" fill="#d5fdf4"/>
    <path fill="#00af89" d="M36.05 106.81l-1.73-2.47-14.36 1.26-1.34 2.73-2.75 5.88 23.91-2.09-3.73-5.31z"/>
    <path d="M85.4 99.67L91 68.16l23.64 4.17-5.64 31.51zm31.68-28.78l-27.53-5.16-6.63 35.38 27.53 5.16z" fill="#ac6600"/>
    <path fill="#fee7e6" d="M86.56 98.865l5.21-29.544 21.666 3.82-5.21 29.544z"/>
    <path d="M99.22 90.43c-5.83-1-9.47 1.89-9.82 3.86l-.87 4.92 17.73 3.12.87-4.92c.34-1.97-2.08-5.95-7.91-6.98z" fill="#b32424"/>
    <circle cx="100.35" cy="84.03" r="5" fill="#b32424"/>
    <path d="M58.34 84.15l2.51 9.35-1.09.29-2.51-9.35a.42.42 0 00-.53-.31l-.79.21a.44.44 0 00-.31.53l2.51 9.36-1.13.29-2.5-9.35a.44.44 0 00-.54-.31l-.78.2a.44.44 0 00-.31.54l2.54 9.4-1.08.29-2.51-9.36a.44.44 0 00-.54-.31l-.78.21a.45.45 0 00-.31.54l2.51 9.36c.61 2.3 2.38 3.83 4.68 3.36l5.55 20.68 2.71-.72-5.54-20.72c2.23-.75 3-3 2.38-5.26L60 83.71a.44.44 0 00-.54-.31l-.78.21a.44.44 0 00-.34.54z" fill="#a2a9b1"/>
    <path d="M65.37 86.47l2.91 10.86 2.72-.72 5.24 19.56 2.71-.73-9.31-34.77c-3 .8-4.79 3.89-4.27 5.8z" fill="#a2a9b1"/>
    <path d="M68.81 81l9.29 34.71.85-.23-9.31-34.81a5.41 5.41 0 00-.83.33z" fill="#54595d"/>
    <path fill="#54595d" d="M59.522 98.48l.58-.155 5.541 20.68-.58.156z"/>
</svg>
