<svg xmlns="http://www.w3.org/2000/svg" viewBox="0 0 128 128">
	<path fill="#fff" d="M116 19.84 104.16 8H37.84A2.84 2.84 0 0 0 35 10.84V116c1.69 0 1.69-2.25 3.38-2.25S40.1 116 41.79 116s1.69-2.25 3.38-2.25 1.69 2.25 3.38 2.25 1.68-2.25 3.37-2.25 1.69 2.25 3.37 2.25 1.69-2.25 3.38-2.25 1.69 2.25 3.38 2.25 1.68-2.25 3.37-2.25S67.11 116 68.8 116s1.68-2.25 3.37-2.25 1.68 2.25 3.37 2.25 1.69-2.25 3.37-2.25S80.6 116 82.29 116s1.68-2.25 3.37-2.25S87.34 116 89 116s1.69-2.25 3.37-2.25 1.71 2.25 3.4 2.25 1.68-2.25 3.37-2.25 1.68 2.25 3.37 2.25 1.69-2.25 3.37-2.25 1.69 2.25 3.38 2.25 1.68-2.25 3.37-2.25S114.31 116 116 116z"/>
	<path fill="#f8f9fa" d="M38.67 10.25a1.47 1.47 0 0 0-1.42 1.53v43.47h76.5V20.78l-10.42-10.53z"/>
	<rect width="66.88" height="2.25" x="42.81" y="104.03" fill="#a2a9b1" rx="1.12"/>
	<rect width="66.88" height="2.25" x="42.81" y="99.06" fill="#a2a9b1" rx="1.12"/>
	<rect width="34.03" height="2.25" x="56.99" y="94.1" fill="#a2a9b1" rx="1.12"/>
	<rect width="22.5" height="4.5" x="42.81" y="62.96" fill="#72777d" rx="2.25"/>
	<rect width="36" height="2.25" x="42.81" y="69.88" fill="#c8ccd1" rx="1.12"/>
	<path fill="#c8ccd1" d="M116 22.62h-12.09a2.54 2.54 0 0 1-2.54-2.53V8h2.93L116 19.7z"/>
	<path fill="#c8ccd1" d="M116 19.84 104.16 8H37.84A2.84 2.84 0 0 0 35 10.84V116c1.69 0 1.69-2.25 3.38-2.25S40.1 116 41.79 116s1.69-2.25 3.38-2.25 1.69 2.25 3.38 2.25 1.68-2.25 3.37-2.25 1.69 2.25 3.37 2.25 1.69-2.25 3.38-2.25 1.69 2.25 3.38 2.25 1.68-2.25 3.37-2.25S67.11 116 68.8 116s1.68-2.25 3.37-2.25 1.68 2.25 3.37 2.25 1.69-2.25 3.37-2.25S80.6 116 82.29 116s1.68-2.25 3.37-2.25S87.34 116 89 116s1.69-2.25 3.37-2.25 1.71 2.25 3.4 2.25 1.68-2.25 3.37-2.25 1.68 2.25 3.37 2.25 1.69-2.25 3.37-2.25 1.69 2.25 3.38 2.25 1.68-2.25 3.37-2.25S114.31 116 116 116zm-3.37 91.66c-1.69 0-1.69 2.25-3.37 2.25s-1.69-2.25-3.38-2.25-1.68 2.25-3.37 2.25-1.69-2.25-3.37-2.25-1.69 2.25-3.37 2.25-1.69-2.25-3.38-2.25-1.68 2.25-3.37 2.25-1.68-2.25-3.36-2.25-1.69 2.25-3.37 2.25-1.69-2.25-3.38-2.25-1.68 2.25-3.37 2.25-1.69-2.25-3.37-2.25-1.69 2.25-3.37 2.25-1.69-2.25-3.38-2.25-1.69 2.25-3.37 2.25-1.69-2.25-3.38-2.25-1.69 2.25-3.38 2.25-1.68-2.25-3.37-2.25-1.69 2.25-3.37 2.25-1.69-2.25-3.38-2.25-1.69 2.25-3.38 2.25-1.69-2.25-3.38-2.25-1.16-1.69-1.16-1.69V13.09a2.84 2.84 0 0 1 2.84-2.84h64.07l9.59 9.59v90s.56 1.66-1.12 1.66"/>
	<ellipse cx="54.8" cy="23.79" fill="#7c94c2" rx="5.4" ry="5.26"/>
	<path fill="#7c94c2" d="M37.25 43.49a47.73 47.73 0 0 0 24.82 7.12c14.45 0 3.53 4.57 3.53 4.57H37.28zm50.94-4.68s13 8.62 15.94 5.45 0 4.61 0 4.61H78.44s8.94-10.25 9.75-10.06"/>
	<path fill="#dae4f6" d="M38.65 55.25S95.39 28.6 88.28 42s25.47-3.15 25.47-3.15v16.4z"/>
	<rect width="79" height="20" x="42.5" y="77.25" fill="#ff6e6e" rx="3.53"/>
	<rect width="75" height="16" x="44.5" y="79.25" fill="#fee7e6" rx="1.79"/>
	<rect width="46" height="2.25" x="50.81" y="89.06" fill="#222" rx=".93"/>
	<path fill="#222" d="M51.94 84.1H61a1.12 1.12 0 0 1 1.12 1.12A1.13 1.13 0 0 1 61 86.35h-9.06a1.12 1.12 0 0 1-1.12-1.12 1.12 1.12 0 0 1 1.12-1.13"/>
	<rect width="32" height="2.25" x="64.99" y="84.1" fill="#222" rx="1.09"/>
	<path fill="#54595d" d="m106.34 80.93 10.73 10.73-1.41 1.41-10.73-10.72z"/>
	<path fill="#54595d" d="m117.07 82.34-10.73 10.73-1.41-1.41 10.73-10.73z"/>
	<path fill="#fef6e7" d="m16.26 121.78-7.2-17.4v-1.8h14.4v1.8z"/>
	<path fill="#54595d" d="m12.54 112.78 3.72 9 3.73-9z"/>
	<path fill="#ff6e6e" d="M23.46 12.74a4.8 4.8 0 0 0-4.8-4.8h-4.8a4.8 4.8 0 0 0-4.8 4.8v7.2h14.4z"/>
	<path fill="#c8ccd1" d="M9.06 19.94h14.4v7.2H9.06z"/>
	<path fill="#fc3" d="M9.06 104.38V27.14h14.4v77.24a2.68 2.68 0 0 0-2.4-1.8 2.68 2.68 0 0 0-2.4 1.8 2.68 2.68 0 0 0-2.4-1.8 2.68 2.68 0 0 0-2.4 1.8 2.68 2.68 0 0 0-2.4-1.8 2.68 2.68 0 0 0-2.4 1.8"/>
</svg>
