<svg xmlns="http://www.w3.org/2000/svg" viewBox="0 0 128 128">
	<path d="M116 19.84L104.16 8H37.84A2.84 2.84 0 0035 10.84V116c1.69 0 1.69-2.25 3.38-2.25S40.1 116 41.79 116s1.69-2.25 3.38-2.25 1.69 2.25 3.38 2.25 1.68-2.25 3.37-2.25 1.69 2.25 3.37 2.25 1.69-2.25 3.38-2.25 1.69 2.25 3.38 2.25 1.68-2.25 3.37-2.25S67.11 116 68.8 116s1.68-2.25 3.37-2.25 1.68 2.25 3.37 2.25 1.69-2.25 3.37-2.25S80.6 116 82.29 116s1.68-2.25 3.37-2.25S87.34 116 89 116s1.69-2.25 3.37-2.25 1.71 2.25 3.4 2.25 1.68-2.25 3.37-2.25 1.68 2.25 3.37 2.25 1.69-2.25 3.37-2.25 1.69 2.25 3.38 2.25 1.68-2.25 3.37-2.25S114.31 116 116 116V19.84z" fill="#fff"/>
    <path d="M38.67 10.25a1.47 1.47 0 00-1.42 1.53v43.47h76.5V20.78l-10.42-10.53z" fill="#f8f9fa" fill-rule="evenodd"/>
    <rect x="42.81" y="104.03" width="66.88" height="2.25" rx="1.12" fill="#a2a9b1"/>
    <rect x="42.81" y="99.06" width="66.88" height="2.25" rx="1.12" fill="#a2a9b1"/>
    <rect x="56.99" y="94.1" width="34.03" height="2.25" rx="1.12" fill="#a2a9b1"/>
    <rect x="42.81" y="62.96" width="22.5" height="4.5" rx="2.25" fill="#72777d"/>
    <rect x="42.81" y="69.88" width="36" height="2.25" rx="1.12" fill="#c8ccd1"/>
    <path d="M116 22.62h-12.09a2.54 2.54 0 01-2.54-2.53V8h2.93L116 19.7z" fill="#c8ccd1" fill-rule="evenodd"/>
    <path d="M116 19.84L104.16 8H37.84A2.84 2.84 0 0035 10.84V116c1.69 0 1.69-2.25 3.38-2.25S40.1 116 41.79 116s1.69-2.25 3.38-2.25 1.69 2.25 3.38 2.25 1.68-2.25 3.37-2.25 1.69 2.25 3.37 2.25 1.69-2.25 3.38-2.25 1.69 2.25 3.38 2.25 1.68-2.25 3.37-2.25S67.11 116 68.8 116s1.68-2.25 3.37-2.25 1.68 2.25 3.37 2.25 1.69-2.25 3.37-2.25S80.6 116 82.29 116s1.68-2.25 3.37-2.25S87.34 116 89 116s1.69-2.25 3.37-2.25 1.71 2.25 3.4 2.25 1.68-2.25 3.37-2.25 1.68 2.25 3.37 2.25 1.69-2.25 3.37-2.25 1.69 2.25 3.38 2.25 1.68-2.25 3.37-2.25S114.31 116 116 116V19.84zm-3.37 91.66c-1.69 0-1.69 2.25-3.37 2.25s-1.69-2.25-3.38-2.25-1.68 2.25-3.37 2.25-1.69-2.25-3.37-2.25-1.69 2.25-3.37 2.25-1.69-2.25-3.38-2.25-1.68 2.25-3.37 2.25-1.68-2.25-3.36-2.25-1.69 2.25-3.37 2.25-1.69-2.25-3.38-2.25-1.68 2.25-3.37 2.25-1.69-2.25-3.37-2.25-1.69 2.25-3.37 2.25-1.69-2.25-3.38-2.25-1.69 2.25-3.37 2.25-1.69-2.25-3.38-2.25-1.69 2.25-3.38 2.25-1.68-2.25-3.37-2.25-1.69 2.25-3.37 2.25-1.69-2.25-3.38-2.25-1.69 2.25-3.38 2.25-1.69-2.25-3.38-2.25-1.16-1.69-1.16-1.69V13.09a2.84 2.84 0 012.84-2.84h64.07l9.59 9.59v90s.56 1.66-1.12 1.66z" fill="#c8ccd1"/>
    <ellipse cx="54.8" cy="23.79" rx="5.4" ry="5.26" fill="#7c94c2"/>
    <path d="M37.25 43.49a47.73 47.73 0 0024.82 7.12c14.45 0 3.53 4.57 3.53 4.57H37.28z" fill="#7c94c2" fill-rule="evenodd"/>
    <path d="M88.19 38.81s13 8.62 15.94 5.45 0 4.61 0 4.61H78.44s8.94-10.25 9.75-10.06z" fill="#7c94c2" fill-rule="evenodd"/>
    <path d="M38.65 55.25S95.39 28.6 88.28 42s25.47-3.15 25.47-3.15v16.4z" fill="#dae4f6" fill-rule="evenodd"/>
    <rect x="42.5" y="77.25" width="79" height="20" rx="3.53" fill="#ff6e6e"/>
    <rect x="44.5" y="79.25" width="75" height="16" rx="1.79" fill="#fee7e6"/>
    <rect x="50.81" y="89.06" width="46" height="2.25" rx=".93" fill="#222"/>
    <path d="M51.94 84.1H61a1.12 1.12 0 011.12 1.12A1.13 1.13 0 0161 86.35h-9.06a1.12 1.12 0 01-1.12-1.12 1.12 1.12 0 011.12-1.13z" fill="#222"/>
    <rect x="64.99" y="84.1" width="32" height="2.25" rx="1.09" fill="#222"/>
    <path d="M106.34 80.93l10.73 10.73-1.41 1.41-10.73-10.72z" fill="#54595d"/>
    <path d="M117.07 82.34l-10.73 10.73-1.41-1.41 10.73-10.73z" fill="#54595d"/>
    <path fill="#fef6e7" fill-rule="evenodd" d="M16.26 121.78l-7.2-17.4v-1.8h14.4v1.8l-7.2 17.4z"/>
    <path fill="#54595d" d="M12.54 112.78l3.72 9 3.73-9h-7.45z"/>
    <path d="M23.46 12.74a4.8 4.8 0 00-4.8-4.8h-4.8a4.8 4.8 0 00-4.8 4.8v7.2h14.4z" fill="#ff6e6e"/>
    <path fill="#c8ccd1" d="M9.06 19.94h14.4v7.2H9.06z"/>
    <path d="M9.06 104.38V27.14h14.4v77.24a2.68 2.68 0 00-2.4-1.8 2.68 2.68 0 00-2.4 1.8 2.68 2.68 0 00-2.4-1.8 2.68 2.68 0 00-2.4 1.8 2.68 2.68 0 00-2.4-1.8 2.68 2.68 0 00-2.4 1.8z" fill="#fc3"/>
</svg>
