<svg xmlns="http://www.w3.org/2000/svg" viewBox="0 0 128 128">
	<path fill="#fff" d="M118 21.84 106.16 10H39.84A2.84 2.84 0 0 0 37 12.84V118c1.69 0 1.69-2.25 3.38-2.25S42.1 118 43.79 118s1.69-2.25 3.38-2.25 1.69 2.25 3.38 2.25 1.68-2.25 3.37-2.25 1.69 2.25 3.37 2.25 1.69-2.25 3.38-2.25 1.69 2.25 3.38 2.25 1.68-2.25 3.37-2.25S69.11 118 70.8 118s1.68-2.25 3.37-2.25 1.68 2.25 3.37 2.25 1.69-2.25 3.37-2.25S82.6 118 84.29 118s1.68-2.25 3.37-2.25S89.34 118 91 118s1.69-2.25 3.37-2.25 1.71 2.25 3.4 2.25 1.68-2.25 3.37-2.25 1.68 2.25 3.37 2.25 1.69-2.25 3.37-2.25 1.69 2.25 3.38 2.25 1.68-2.25 3.37-2.25S116.31 118 118 118z"/>
	<path fill="#fee7e6" d="M40.67 12.25a1.47 1.47 0 0 0-1.42 1.53v43.47h76.5V22.78l-10.42-10.53z"/>
	<path fill="#a2a9b1" d="M45.94 106h64.63a1.12 1.12 0 0 1 1.12 1.12 1.12 1.12 0 0 1-1.12 1.12H45.94a1.13 1.13 0 0 1-1.13-1.13 1.12 1.12 0 0 1 1.13-1.11"/>
	<rect width="66.88" height="2.25" x="44.81" y="101.06" fill="#a2a9b1" rx="1.12"/>
	<rect width="66.88" height="2.25" x="44.81" y="91.14" fill="#a2a9b1" rx="1.12"/>
	<path fill="#a2a9b1" d="M97 96.1h13.59a1.12 1.12 0 0 1 1.12 1.12 1.13 1.13 0 0 1-1.13 1.13H97a1.12 1.12 0 0 1-1.12-1.12A1.12 1.12 0 0 1 97 96.1"/>
	<rect width="21.51" height="2.25" x="90.18" y="86.18" fill="#a2a9b1" rx="1.12"/>
	<rect width="34.03" height="2.25" x="58.99" y="96.1" fill="#a2a9b1" rx="1.12"/>
	<rect width="22.5" height="4.5" x="44.81" y="64.96" fill="#72777d" rx="2.25"/>
	<rect width="36" height="2.25" x="44.81" y="71.88" fill="#c8ccd1" rx="1.12"/>
	<rect width="30.02" height="2.25" x="81.68" y="81.21" fill="#a2a9b1" rx="1.12"/>
	<path fill="#c8ccd1" d="M118 24.62h-12.09a2.54 2.54 0 0 1-2.54-2.53V10h2.93L118 21.7z"/>
	<path fill="#c8ccd1" d="M118 21.84 106.16 10H39.84A2.84 2.84 0 0 0 37 12.84V118c1.69 0 1.69-2.25 3.38-2.25S42.1 118 43.79 118s1.69-2.25 3.38-2.25 1.69 2.25 3.38 2.25 1.68-2.25 3.37-2.25 1.69 2.25 3.37 2.25 1.69-2.25 3.38-2.25 1.69 2.25 3.38 2.25 1.68-2.25 3.37-2.25S69.11 118 70.8 118s1.68-2.25 3.37-2.25 1.68 2.25 3.37 2.25 1.69-2.25 3.37-2.25S82.6 118 84.29 118s1.68-2.25 3.37-2.25S89.34 118 91 118s1.69-2.25 3.37-2.25 1.71 2.25 3.4 2.25 1.68-2.25 3.37-2.25 1.68 2.25 3.37 2.25 1.69-2.25 3.37-2.25 1.69 2.25 3.38 2.25 1.68-2.25 3.37-2.25S116.31 118 118 118zm-3.37 91.66c-1.69 0-1.69 2.25-3.37 2.25s-1.69-2.25-3.38-2.25-1.68 2.25-3.37 2.25-1.69-2.25-3.37-2.25-1.69 2.25-3.37 2.25-1.69-2.25-3.38-2.25-1.68 2.25-3.37 2.25-1.68-2.25-3.36-2.25-1.69 2.25-3.37 2.25-1.69-2.25-3.38-2.25-1.68 2.25-3.37 2.25-1.69-2.25-3.37-2.25-1.69 2.25-3.37 2.25-1.69-2.25-3.38-2.25-1.69 2.25-3.37 2.25-1.69-2.25-3.38-2.25-1.69 2.25-3.38 2.25-1.68-2.25-3.37-2.25-1.69 2.25-3.37 2.25-1.69-2.25-3.38-2.25-1.69 2.25-3.38 2.25-1.69-2.25-3.38-2.25-1.16-1.69-1.16-1.69V15.09a2.84 2.84 0 0 1 2.84-2.84h64.07l9.59 9.59v90s.56 1.66-1.12 1.66"/>
	<path fill="#ff6e6e" d="M88 44.07H66L71.46 37l3.94 4.73 5.51-7.09.79 1.05v-5.8h-6.3v-3.15H66a3.15 3.15 0 0 0-3.15 3.15v15.75A3.15 3.15 0 0 0 66 48.79h22a3.15 3.15 0 0 0 3.15-3.15v-9.45h-9.06z"/>
	<path fill="#ff6e6e" d="M88 23.59v-6.3h-3.15v6.3h-6.3v3.15h6.3v6.3H88v-6.3h6.3v-3.15z"/>
	<path fill="#a2a9b1" d="m36 74.21 2-7.72A2 2 0 0 1 40 65h20a2 2 0 0 1 1.93 1.49l2 7.72H88a2 2 0 0 1 2 2V116a2 2 0 0 1-2 2H12a2 2 0 0 1-2-2V76.21a2 2 0 0 1 2-2h5.33v-2.32a1 1 0 0 1 1-1h9.86a1 1 0 0 1 1 1v2.32z"/>
	<circle cx="50.25" cy="96.75" r="16.25" fill="#fff"/>
	<circle cx="50" cy="96.5" r="12.5" fill="#2a4b8d"/>
	<circle cx="81" cy="82.5" r="4.5" fill="#fff"/>
	<path fill="#69f" d="M52.82 105a6.3 6.3 0 0 1-4.32-1.71h.37a8.41 8.41 0 0 0 8.42-8.42v-.37A6 6 0 0 1 59 98.82a6.17 6.17 0 0 1-6.18 6.18"/>
	<rect width="18.5" height="3.5" x="41" y="68" fill="#fff" rx="1.25"/>
</svg>
