<svg xmlns="http://www.w3.org/2000/svg" viewBox="0 0 128 128">
	<path fill="#c8ccd1" d="m54.682 65.874 61.82-16.564.258.966L54.941 66.84zm-2.07-7.721 61.82-16.564.258.966-61.819 16.564zm-2.067-7.721 61.819-16.564.259.966-61.82 16.564zm-2.07-7.731 61.819-16.564.259.966-61.82 16.564zm-2.071-7.731 61.82-16.564.258.966-61.819 16.564z"/>
	<path fill="#8ea4cf" d="M45 41v31l-13.5-7.71a1 1 0 0 1-.5-.87V41L8.41 11.21A2 2 0 0 1 10 8h56a2 2 0 0 1 1.59 3.21z"/>
	<path fill="#4a669e" d="m45 79-13.5-7.71a1 1 0 0 1-.5-.87V67l14 8z"/>
	<path fill="#54595d" d="m75 29.12 4 14.78a13 13 0 0 0-2.49.35A4.5 4.5 0 1 0 82 47.44L78.12 33l12.56-3.37L93.47 40a14 14 0 0 0-2.49.36 4.5 4.5 0 1 0 5.51 3.18l-5-18.83z"/>
	<path fill="#c8ccd1" d="M23.23 98.91a1.6 1.6 0 0 0 .15-.83l-.68-7.82 6.39-.56.68 7.82a1.63 1.63 0 0 0 .3.79l6 8.5-17.43 1.52zm18.85 13-10.75-15-.64-7.37 1.6-.14-.29-3.17-12.78 1.11.28 3.2 1.6-.14.64 7.37-8 16.61a1.61 1.61 0 0 0 1.59 2.29l25.57-2.24a1.59 1.59 0 0 0 1.31-.93 1.61 1.61 0 0 0-.13-1.6z"/>
	<path fill="#d5fdf4" d="M23.23 98.91a1.6 1.6 0 0 0 .15-.83l-.68-7.82 6.39-.56.68 7.82a1.63 1.63 0 0 0 .3.79l6 8.5-17.43 1.52z"/>
	<path fill="#d5fdf4" d="m34.32 104.34-4.25-6a1.63 1.63 0 0 1-.3-.79l-.68-7.82-6.39.56.68 7.82a1.6 1.6 0 0 1-.15.83L20 105.6z"/>
	<path fill="#00af89" d="m36.05 106.81-1.73-2.47-14.36 1.26-1.34 2.73-2.75 5.88 23.91-2.09z"/>
	<path fill="#ac6600" d="M85.4 99.67 91 68.16l23.64 4.17-5.64 31.51zm31.68-28.78-27.53-5.16-6.63 35.38 27.53 5.16z"/>
	<path fill="#fee7e6" d="m86.56 98.865 5.21-29.544 21.666 3.82-5.21 29.544z"/>
	<path fill="#b32424" d="M99.22 90.43c-5.83-1-9.47 1.89-9.82 3.86l-.87 4.92 17.73 3.12.87-4.92c.34-1.97-2.08-5.95-7.91-6.98"/>
	<circle cx="100.35" cy="84.03" r="5" fill="#b32424"/>
	<path fill="#a2a9b1" d="m58.34 84.15 2.51 9.35-1.09.29-2.51-9.35a.42.42 0 0 0-.53-.31l-.79.21a.44.44 0 0 0-.31.53l2.51 9.36-1.13.29-2.5-9.35a.44.44 0 0 0-.54-.31l-.78.2a.44.44 0 0 0-.31.54l2.54 9.4-1.08.29-2.51-9.36a.44.44 0 0 0-.54-.31l-.78.21a.45.45 0 0 0-.31.54l2.51 9.36c.61 2.3 2.38 3.83 4.68 3.36l5.55 20.68 2.71-.72-5.54-20.72c2.23-.75 3-3 2.38-5.26L60 83.71a.44.44 0 0 0-.54-.31l-.78.21a.44.44 0 0 0-.34.54m7.03 2.32 2.91 10.86 2.72-.72 5.24 19.56 2.71-.73-9.31-34.77c-3 .8-4.79 3.89-4.27 5.8"/>
	<path fill="#54595d" d="m68.81 81 9.29 34.71.85-.23-9.31-34.81a5.4 5.4 0 0 0-.83.33m-9.288 17.48.58-.155 5.541 20.68-.58.156z"/>
</svg>
