<svg xmlns="http://www.w3.org/2000/svg" viewBox="0 0 128 128">
	<path fill="#54595d" d="M88 120a4 4 0 0 0 4 4h8a4 4 0 0 0 4-4v-4H88z"/>
	<path fill="#fc3" d="M124 72a28 28 0 1 0-48 19.6s8 8.4 8 12.4v4a4 4 0 0 0 4 4h16a4 4 0 0 0 4-4v-4c0-4 8-12.4 8-12.4a27.87 27.87 0 0 0 8-19.6"/>
	<path fill="#fef6e7" d="M76.22 76.36a26.83 26.83 0 0 1 26.83-26.83c.73 0 1.46 0 2.19.1a24.2 24.2 0 0 0-24.76 41.23 26.7 26.7 0 0 1-4.26-14.5"/>
	<path fill="#72777d" d="M100 118.29H88v-1.15h12a.56.56 0 0 1 .57.57.57.57 0 0 1-.57.58m-10.78 4.57A3.9 3.9 0 0 0 92 124h8a4.2 4.2 0 0 0 1.14-.18 1 1 0 0 0-1.14-1zm11.35-2.29a.56.56 0 0 0-.57-.57H88a4 4 0 0 0 .19 1.14H100a.56.56 0 0 0 .57-.57"/>
	<path fill="#8ea4cf" d="M80.72 6.35a1.2 1.2 0 0 0-1.7 0L4.35 81a1.2 1.2 0 0 0 0 1.7l14.43 14.44a1.19 1.19 0 0 0 1.69 0l74.67-74.67a1.19 1.19 0 0 0 0-1.69zm-3.4 17.82a4.8 4.8 0 1 1 6.79 0 4.81 4.81 0 0 1-6.79 0"/>
	<path fill="#4a669e" d="m72.676 32.213 6.364 6.364-.849.849-6.364-6.364a.6.6 0 0 1 0-.849.6.6 0 0 1 .849 0M61.63 38.176l8.873 8.874-.848.848-8.874-8.874a.6.6 0 0 1 0-.848.6.6 0 0 1 .848 0zm-22.935 28.02 6.364 6.364-.849.848-6.364-6.364a.6.6 0 0 1 0-.848.6.6 0 0 1 .849 0M21.747 83.145l6.364 6.363-.849.849-6.364-6.364a.6.6 0 0 1 0-.848.6.6 0 0 1 .849 0m5.937-11.036 8.91 8.91-.85.848-8.909-8.91a.6.6 0 0 1 0-.848.6.6 0 0 1 .849 0"/>
	<path fill="#f8f9fa" d="m94.33 96.33-17.4-7.22-1.27-1.27 10.18-10.18 1.27 1.27z"/>
	<path fill="#2a4b8d" d="m85.33 92.59 9 3.74-3.74-9z"/>
	<path fill="#7c94c2" d="M16.66 8.47a4.81 4.81 0 0 0-6.79 0l-3.4 3.4a4.81 4.81 0 0 0 0 6.79l5.09 5.09 10.19-10.19z"/>
	<path fill="#4a669e" d="m11.56 23.75 10.183-10.183 5.09 5.092-10.18 10.181z"/>
	<path fill="#dae4f6" d="M76.93 89.11 16.66 28.84l10.18-10.18 60.27 60.27a2.5 2.5 0 0 0-3.39 3.39 2.51 2.51 0 0 0-3.4 3.4 2.49 2.49 0 0 0-3.39 3.39"/>
</svg>
