<svg xmlns="http://www.w3.org/2000/svg" viewBox="0 0 96 108">
    <path d="M82.07 17.08L72 7H15.5a2.42 2.42 0 00-2.43 2.42V99c1.44 0 1.44-1.92 2.88-1.92S17.42 99 18.86 99s1.44-1.92 2.88-1.92S23.17 99 24.61 99s1.44-1.92 2.88-1.92S28.92 99 30.36 99s1.44-1.92 2.88-1.92S34.68 99 36.11 99s1.44-1.92 2.88-1.92S40.42 99 41.86 99s1.44-1.92 2.88-1.92S46.17 99 47.61 99s1.43-1.92 2.87-1.92S51.92 99 53.35 99s1.44-1.92 2.88-1.92S57.66 99 59.09 99s1.44-1.92 2.88-1.92S63.4 99 64.84 99s1.43-1.92 2.87-1.92S69.15 99 70.58 99s1.44-1.92 2.88-1.92S74.89 99 76.33 99s1.44-1.92 2.87-1.92S80.64 99 82.07 99V17.08z" fill="#fff"/>
    <path d="M82.07 19.46H71.78a2.16 2.16 0 01-2.16-2.16V7h2.49l10 10z" fill="#c8ccd1" fill-rule="evenodd"/>
    <path d="M80.16 17.54h-7.67a1 1 0 01-1-1V8.92z" fill="#c8ccd1" fill-rule="evenodd"/>
    <path d="M82.07 17.08L72 7H15.5a2.42 2.42 0 00-2.43 2.42V99c1.44 0 1.44-1.92 2.88-1.92S17.42 99 18.86 99s1.44-1.92 2.88-1.92S23.17 99 24.61 99s1.44-1.92 2.88-1.92S28.92 99 30.36 99s1.44-1.92 2.88-1.92S34.68 99 36.11 99s1.44-1.92 2.88-1.92S40.42 99 41.86 99s1.44-1.92 2.88-1.92S46.17 99 47.61 99s1.43-1.92 2.87-1.92S51.92 99 53.35 99s1.44-1.92 2.88-1.92S57.66 99 59.09 99s1.44-1.92 2.88-1.92S63.4 99 64.84 99s1.43-1.92 2.87-1.92S69.15 99 70.58 99s1.44-1.92 2.88-1.92S74.89 99 76.33 99s1.44-1.92 2.87-1.92S80.64 99 82.07 99V17.08zM79.2 95.17c-1.43 0-1.43 1.91-2.87 1.91s-1.44-1.91-2.87-1.91-1.46 1.91-2.88 1.91-1.43-1.91-2.87-1.91-1.44 1.91-2.87 1.91-1.44-1.91-2.84-1.91-1.44 1.91-2.88 1.91-1.43-1.91-2.86-1.91-1.44 1.91-2.88 1.91-1.43-1.91-2.87-1.91-1.51 1.91-2.9 1.91-1.44-1.91-2.87-1.91-1.44 1.91-2.88 1.91-1.44-1.91-2.86-1.91-1.44 1.91-2.88 1.91-1.43-1.91-2.87-1.91-1.44 1.91-2.88 1.91-1.44-1.91-2.87-1.91-1.44 1.91-2.88 1.91-1.44-1.91-2.87-1.91-1.44 1.91-2.88 1.91-1.45-1.91-2.87-1.91-1-1.44-1-1.44V11.34a2.42 2.42 0 012.42-2.42H72l8.17 8.16v76.65s.47 1.44-.97 1.44z" fill="#c8ccd1"/>
    <path fill="#00af89" d="M10.09 59.39H85.9v23H10.09z"/>
    <path fill="#d5fdf4" d="M11.8 61.09h72.41v19.59H11.8z"/>
    <rect x="19.73" y="69.88" width="56.22" height="1.92" rx=".94" fill="#14866d"/>
    <rect x="19.73" y="64.05" width="18.74" height="3.41" rx="1.7" fill="#14866d"/>
    <rect x="19.73" y="74.17" width="9.66" height="1.92" rx=".96" fill="#14866d"/>
    <rect x="59.77" y="74.17" width="16.48" height="1.92" rx=".96" fill="#14866d"/>
    <rect x="31.81" y="74.17" width="25.56" height="1.92" rx=".78" fill="#14866d"/>
    <path fill="#d5fdf4" d="M16.48 80.69h3.41v1.7h-3.41z"/>
    <path fill="#d5fdf4" d="M25.85 80.69h3.41v1.7h-3.41z"/>
    <path fill="#d5fdf4" d="M35.22 80.69h3.41v1.7h-3.41z"/>
    <path fill="#d5fdf4" d="M43.74 80.69h3.41v1.7h-3.41z"/>
    <path fill="#d5fdf4" d="M52.26 80.69h3.41v1.7h-3.41z"/>
    <path fill="#d5fdf4" d="M60.78 80.69h3.41v1.7h-3.41z"/>
    <path fill="#d5fdf4" d="M85.91 74.72v3.41h-1.7v-3.41z"/>
    <path fill="#d5fdf4" d="M85.91 61.95v2.56h-1.7v-2.56z"/>
    <path fill="#d5fdf4" d="M85.91 67.91v3.41h-1.7v-3.41z"/>
    <path fill="#d5fdf4" d="M11.8 75.57v4.26h-1.7v-4.26z"/>
    <path fill="#d5fdf4" d="M11.8 62.8v2.56h-1.7V62.8z"/>
    <path fill="#d5fdf4" d="M11.8 68.76v3.41h-1.7v-3.41z"/>
    <path fill="#d5fdf4" d="M16.48 59.39h3.41v1.7h-3.41z"/>
    <path fill="#d5fdf4" d="M25.85 59.39h3.41v1.7h-3.41z"/>
    <path fill="#d5fdf4" d="M35.22 59.39h3.41v1.7h-3.41z"/>
    <path fill="#d5fdf4" d="M43.74 59.39h3.41v1.7h-3.41z"/>
    <path fill="#d5fdf4" d="M52.26 59.39h3.41v1.7h-3.41z"/>
    <path fill="#d5fdf4" d="M67.59 59.39H71v1.7h-3.41z"/>
    <path fill="#d5fdf4" d="M74.41 59.39h3.41v1.7h-3.41z"/>
    <path fill="#d5fdf4" d="M82.07 59.39h1.7v1.7h-1.7z"/>
    <path fill="#d5fdf4" d="M82.07 80.69h1.7v1.7h-1.7z"/>
    <path fill="#d5fdf4" d="M60.78 80.69h3.41v1.7h-3.41z"/>
    <path fill="#d5fdf4" d="M67.59 80.69H71v1.7h-3.41z"/>
    <path fill="#d5fdf4" d="M75.26 80.69h3.41v1.7h-3.41z"/>
    <path fill="#d5fdf4" d="M60.78 59.39h3.41v1.7h-3.41z"/>
    <rect x="19.73" y="53.87" width="56.97" height="1.92" rx=".96" fill="#a2a9b1"/>
    <rect x="19.73" y="53.87" width="56.97" height="1.92" rx=".96" fill="#a2a9b1"/>
    <rect x="19.73" y="49.65" width="56.97" height="1.92" rx=".96" fill="#a2a9b1"/>
    <rect x="19.73" y="41.19" width="56.97" height="1.92" rx=".96" fill="#a2a9b1"/>
    <rect x="19.73" y="45.42" width="9.66" height="1.92" rx=".96" fill="#a2a9b1"/>
    <rect x="39.05" y="32.74" width="9.66" height="1.92" rx=".96" fill="#a2a9b1"/>
    <rect x="63.21" y="45.42" width="13.5" height="1.92" rx=".96" fill="#a2a9b1"/>
    <rect x="58.38" y="36.97" width="18.33" height="1.92" rx=".96" fill="#a2a9b1"/>
    <rect x="31.81" y="45.42" width="28.99" height="1.92" rx=".96" fill="#a2a9b1"/>
    <rect x="19.73" y="90.54" width="56.97" height="1.92" rx=".96" fill="#a2a9b1"/>
    <rect x="19.73" y="86.31" width="9.66" height="1.92" rx=".96" fill="#a2a9b1"/>
    <rect x="63.21" y="86.31" width="13.5" height="1.92" rx=".96" fill="#a2a9b1"/>
    <rect x="31.81" y="86.31" width="28.99" height="1.92" rx=".96" fill="#a2a9b1"/>
    <rect x="19.73" y="36.97" width="36.23" height="1.92" rx=".96" fill="#a2a9b1"/>
    <rect x="19.73" y="32.74" width="16.91" height="1.92" rx=".96" fill="#a2a9b1"/>
    <rect x="19.73" y="18.89" width="19.17" height="3.83" rx="1.92" fill="#72777d"/>
    <rect x="19.73" y="24.78" width="30.67" height="1.92" rx=".96" fill="#c8ccd1"/>
    <rect x="51.13" y="32.74" width="25.57" height="1.92" rx=".96" fill="#a2a9b1"/>
</svg>
