<svg xmlns="http://www.w3.org/2000/svg" viewBox="0 0 128 128">
	<path fill="#fff" d="M117.5 19.84 105.66 8H39.34a2.84 2.84 0 0 0-2.84 2.84V116c1.69 0 1.69-2.25 3.38-2.25S41.6 116 43.29 116s1.69-2.25 3.38-2.25 1.69 2.25 3.38 2.25 1.68-2.25 3.37-2.25 1.69 2.25 3.37 2.25 1.69-2.25 3.38-2.25 1.69 2.25 3.38 2.25 1.68-2.25 3.37-2.25S68.61 116 70.3 116s1.68-2.25 3.37-2.25S75.35 116 77 116s1.69-2.25 3.37-2.25S82.1 116 83.79 116s1.68-2.25 3.37-2.25 1.68 2.25 3.36 2.25 1.69-2.25 3.37-2.25 1.69 2.25 3.38 2.25 1.68-2.25 3.37-2.25S102.32 116 104 116s1.69-2.25 3.37-2.25 1.69 2.25 3.38 2.25 1.68-2.25 3.37-2.25 1.68 2.25 3.37 2.25V19.84z"/>
	<path fill="#c8ccd1" d="M117.5 22.62h-12.09a2.54 2.54 0 0 1-2.54-2.53V8h2.93l11.7 11.7z"/>
	<path fill="#c8ccd1" d="M117.5 19.84 105.66 8H39.34a2.84 2.84 0 0 0-2.84 2.84V116c1.69 0 1.69-2.25 3.38-2.25S41.6 116 43.29 116s1.69-2.25 3.38-2.25 1.69 2.25 3.38 2.25 1.68-2.25 3.37-2.25 1.69 2.25 3.37 2.25 1.69-2.25 3.38-2.25 1.69 2.25 3.38 2.25 1.68-2.25 3.37-2.25S68.61 116 70.3 116s1.68-2.25 3.37-2.25S75.35 116 77 116s1.69-2.25 3.37-2.25S82.1 116 83.79 116s1.68-2.25 3.37-2.25 1.68 2.25 3.36 2.25 1.69-2.25 3.37-2.25 1.69 2.25 3.38 2.25 1.68-2.25 3.37-2.25S102.32 116 104 116s1.69-2.25 3.37-2.25 1.69 2.25 3.38 2.25 1.68-2.25 3.37-2.25 1.68 2.25 3.37 2.25V19.84zm-3.37 91.66c-1.69 0-1.69 2.25-3.37 2.25s-1.69-2.25-3.38-2.25-1.68 2.25-3.37 2.25-1.69-2.25-3.37-2.25-1.69 2.25-3.37 2.25-1.69-2.25-3.38-2.25-1.68 2.25-3.37 2.25-1.68-2.25-3.36-2.25-1.69 2.25-3.37 2.25-1.69-2.25-3.38-2.25-1.68 2.25-3.37 2.25-1.69-2.25-3.37-2.25-1.69 2.25-3.37 2.25-1.69-2.25-3.38-2.25-1.69 2.25-3.37 2.25-1.69-2.25-3.38-2.25-1.69 2.25-3.38 2.25-1.68-2.25-3.37-2.25-1.69 2.25-3.37 2.25-1.69-2.25-3.38-2.25-1.69 2.25-3.38 2.25-1.69-2.25-3.38-2.25-1.16-1.69-1.16-1.69V13.09a2.84 2.84 0 0 1 2.84-2.84h64.07l9.59 9.59v90s.56 1.66-1.12 1.66"/>
	<path fill="#00af89" d="M122 96.5H33v-27h89z"/>
	<path fill="#d5fdf4" d="M120 94.5H35v-23h85z"/>
	<rect width="66" height="2.25" x="44.69" y="81.81" fill="#14866d" rx="1.1" transform="rotate(-180 77.685 82.94)"/>
	<rect width="22" height="4" x="88.69" y="74.98" fill="#14866d" rx="2" transform="rotate(-180 99.685 76.975)"/>
	<rect width="11.34" height="2.25" x="99.34" y="86.85" fill="#14866d" rx="1.12" transform="rotate(-180 105.015 87.975)"/>
	<rect width="19.34" height="2.25" x="44.34" y="86.85" fill="#14866d" rx="1.12" transform="rotate(-180 54.015 87.975)"/>
	<rect width="30" height="2.25" x="66.51" y="86.85" fill="#14866d" rx=".91" transform="rotate(-180 81.51 87.975)"/>
	<path fill="#d5fdf4" d="M40.5 94.5h4v2h-4zm11 0h4v2h-4zm11 0h4v2h-4zm10 0h4v2h-4zm10 0h4v2h-4zm10 0h4v2h-4zm29.5-7v4h-2v-4zm0-15v3h-2v-3zm0 7v4h-2v-4zm-81.5-10h4v2h-4zm11 0h4v2h-4zm11 0h4v2h-4zm10 0h4v2h-4zm10 0h4v2h-4zm18 0h4v2h-4zm8 0h4v2h-4zm9 0h2v2h-2zm0 25h2v2h-2z"/>
	<path fill="#d5fdf4" d="M92.5 94.5h4v2h-4zm8 0h4v2h-4zm9 0h4v2h-4zm-17-25h4v2h-4z"/>
	<path fill="#a2a9b1" d="M45.44 62.06h64.63a1.12 1.12 0 0 1 1.12 1.12 1.12 1.12 0 0 1-1.12 1.12H45.44a1.13 1.13 0 0 1-1.13-1.13 1.12 1.12 0 0 1 1.12-1.12z"/>
	<rect width="66.88" height="2.25" x="44.31" y="52.14" fill="#a2a9b1" rx="1.12"/>
	<rect width="11.34" height="2.25" x="44.31" y="57.1" fill="#a2a9b1" rx="1.12"/>
	<rect width="11.34" height="2.25" x="67" y="42.21" fill="#a2a9b1" rx="1.12"/>
	<rect width="15.84" height="2.25" x="95.35" y="57.1" fill="#a2a9b1" rx="1.12"/>
	<rect width="21.51" height="2.25" x="89.68" y="47.18" fill="#a2a9b1" rx="1.12"/>
	<rect width="34.03" height="2.25" x="58.49" y="57.1" fill="#a2a9b1" rx="1.12"/>
	<rect width="66.88" height="2.25" x="44.31" y="106.06" fill="#a2a9b1" rx="1.12"/>
	<rect width="11.34" height="2.25" x="44.31" y="101.1" fill="#a2a9b1" rx="1.12"/>
	<rect width="15.84" height="2.25" x="95.35" y="101.1" fill="#a2a9b1" rx="1.12"/>
	<rect width="34.03" height="2.25" x="58.49" y="101.1" fill="#a2a9b1" rx="1.12"/>
	<rect width="42.53" height="2.25" x="44.31" y="47.18" fill="#a2a9b1" rx="1.12"/>
	<path fill="#a2a9b1" d="M45.44 42.21H63a1.12 1.12 0 0 1 1.12 1.12A1.12 1.12 0 0 1 63 44.46H45.44a1.13 1.13 0 0 1-1.13-1.13 1.12 1.12 0 0 1 1.13-1.12"/>
	<rect width="22.5" height="4.5" x="88.7" y="26.96" fill="#72777d" rx="2.25"/>
	<rect width="36" height="2.25" x="75.2" y="33.88" fill="#c8ccd1" rx="1.12"/>
	<rect width="30.02" height="2.25" x="81.18" y="42.21" fill="#a2a9b1" rx="1.12"/>
	<path fill="#fef6e7" d="m41.93 123.06 2.45-18.67-.46-1.74-13.91 3.73.47 1.74z"/>
	<path fill="#54595d" d="m43.2 113.4-1.27 9.66-5.92-7.73z"/>
	<path fill="#ff6e6e" d="M6.76 19.6a4.79 4.79 0 0 1 3.39-5.88l4.64-1.24a4.78 4.78 0 0 1 5.87 3.39l1.87 7-13.91 3.68z"/>
	<path fill="#c8ccd1" d="m8.622 26.553 13.91-3.727 1.863 6.955-13.91 3.727z"/>
	<path fill="#00af89" d="m44.38 104.39-20-74.61-13.9 3.73 20 74.61a2.51 2.51 0 0 1 4.64-1.25 2.5 2.5 0 0 1 4.64-1.24 2.5 2.5 0 0 1 4.63-1.24z"/>
</svg>
