<svg xmlns="http://www.w3.org/2000/svg" viewBox="0 0 128 128">
	<path d="M93.5 19.84L81.66 8H15.34a2.84 2.84 0 00-2.84 2.84V116c1.69 0 1.69-2.25 3.38-2.25S17.6 116 19.29 116s1.69-2.25 3.38-2.25 1.69 2.25 3.38 2.25 1.68-2.25 3.37-2.25 1.69 2.25 3.37 2.25 1.69-2.25 3.38-2.25 1.69 2.25 3.38 2.25 1.68-2.25 3.37-2.25S44.61 116 46.3 116s1.68-2.25 3.37-2.25S51.35 116 53 116s1.69-2.25 3.37-2.25S58.1 116 59.79 116s1.68-2.25 3.37-2.25 1.68 2.25 3.36 2.25 1.69-2.25 3.37-2.25 1.69 2.25 3.38 2.25 1.68-2.25 3.37-2.25S78.32 116 80 116s1.69-2.25 3.37-2.25 1.7 2.25 3.39 2.25 1.68-2.25 3.37-2.25S91.81 116 93.5 116V19.84z" fill="#fff"/>
    <path d="M16.17 10.25a1.47 1.47 0 00-1.42 1.53v43.47h76.5V20.78L80.83 10.25z" fill="#f8f9fa" fill-rule="evenodd"/>
    <rect x="18.31" y="104.03" width="66.88" height="2.25" rx="1.12" fill="#a2a9b1"/>
    <rect x="18.31" y="99.06" width="66.88" height="2.25" rx="1.12" fill="#a2a9b1"/>
    <rect x="62.7" y="62.96" width="22.5" height="4.5" rx="2.25" fill="#72777d"/>
    <rect x="49.2" y="69.88" width="36" height="2.25" rx="1.12" fill="#c8ccd1"/>
    <path d="M93.5 22.62H81.41a2.54 2.54 0 01-2.54-2.53V8h2.93l11.7 11.7z" fill="#c8ccd1" fill-rule="evenodd"/>
    <path d="M93.5 19.84L81.66 8H15.34a2.84 2.84 0 00-2.84 2.84V116c1.69 0 1.69-2.25 3.38-2.25S17.6 116 19.29 116s1.69-2.25 3.38-2.25 1.69 2.25 3.38 2.25 1.68-2.25 3.37-2.25 1.69 2.25 3.37 2.25 1.69-2.25 3.38-2.25 1.69 2.25 3.38 2.25 1.68-2.25 3.37-2.25S44.61 116 46.3 116s1.68-2.25 3.37-2.25S51.35 116 53 116s1.69-2.25 3.37-2.25S58.1 116 59.79 116s1.68-2.25 3.37-2.25 1.68 2.25 3.36 2.25 1.69-2.25 3.37-2.25 1.69 2.25 3.38 2.25 1.68-2.25 3.37-2.25S78.32 116 80 116s1.69-2.25 3.37-2.25 1.7 2.25 3.39 2.25 1.68-2.25 3.37-2.25S91.81 116 93.5 116V19.84zm-3.37 91.66c-1.69 0-1.69 2.25-3.37 2.25s-1.69-2.25-3.38-2.25-1.68 2.25-3.37 2.25-1.69-2.25-3.37-2.25-1.69 2.25-3.37 2.25-1.69-2.25-3.38-2.25-1.68 2.25-3.37 2.25-1.68-2.25-3.36-2.25-1.69 2.25-3.37 2.25-1.69-2.25-3.38-2.25-1.68 2.25-3.37 2.25-1.69-2.25-3.37-2.25-1.69 2.25-3.37 2.25-1.69-2.25-3.38-2.25-1.69 2.25-3.37 2.25-1.69-2.25-3.38-2.25-1.69 2.25-3.38 2.25-1.68-2.25-3.37-2.25-1.69 2.25-3.37 2.25-1.69-2.25-3.38-2.25-1.69 2.25-3.38 2.25-1.69-2.25-3.38-2.25-1.16-1.69-1.16-1.69V13.09a2.84 2.84 0 012.84-2.84h64.07l9.59 9.59v90s.56 1.66-1.12 1.66z" fill="#c8ccd1"/>
    <ellipse cx="32.3" cy="23.79" rx="5.4" ry="5.26" fill="#7c94c2"/>
    <path d="M14.75 43.49a47.73 47.73 0 0024.82 7.12c14.45 0 3.53 4.57 3.53 4.57H14.78z" fill="#7c94c2" fill-rule="evenodd"/>
    <path d="M65.69 38.81s13 8.62 15.94 5.45 0 4.61 0 4.61H55.94s8.94-10.25 9.75-10.06z" fill="#7c94c2" fill-rule="evenodd"/>
    <path d="M16.15 55.25S72.89 28.6 65.78 42s25.47-3.15 25.47-3.15v16.4z" fill="#dae4f6" fill-rule="evenodd"/>
    <rect x="7" y="77.25" width="79" height="20" rx="3.53" transform="rotate(-180 46.5 87.25)" fill="#ff6e6e"/>
    <rect x="9" y="79.25" width="75" height="16" rx="1.79" transform="rotate(-180 46.5 87.25)" fill="#fee7e6"/>
    <rect x="31.69" y="89.06" width="46" height="2.25" rx=".93" transform="rotate(180 54.685 90.19)" fill="#222"/>
    <rect x="66.34" y="84.1" width="11.34" height="2.25" rx="1.12" transform="rotate(-180 72.015 85.225)" fill="#222"/>
    <rect x="31.51" y="84.1" width="32" height="2.25" rx="1.09" transform="rotate(-180 47.51 85.225)" fill="#222"/>
    <path d="M22.16 80.93L11.43 91.66l1.41 1.41 10.73-10.72z" fill="#54595d"/>
    <path d="M11.43 82.34l10.73 10.73 1.41-1.41-10.73-10.73z" fill="#54595d"/>
    <path fill="#fef6e7" fill-rule="evenodd" d="M110.8 121.78l-7.2-17.4v-1.8H118v1.8l-7.2 17.4z"/>
    <path fill="#54595d" d="M107.08 112.78l3.72 9 3.72-9h-7.44z"/>
    <path d="M118 12.74a4.8 4.8 0 00-4.8-4.8h-4.8a4.8 4.8 0 00-4.8 4.8v7.2H118z" fill="#ff6e6e"/>
    <path fill="#c8ccd1" d="M103.6 19.94H118v7.2h-14.4z"/>
    <path d="M103.6 104.38V27.14H118v77.24a2.5 2.5 0 00-4.8 0 2.5 2.5 0 00-4.8 0 2.5 2.5 0 00-4.8 0z" fill="#fc3"/>
</svg>
