<svg xmlns="http://www.w3.org/2000/svg" viewBox="0 0 128 128">
	<path fill="#fff" d="M91 20.84 79.16 9H12.84A2.84 2.84 0 0 0 10 11.84V117c1.69 0 1.69-2.25 3.38-2.25S15.1 117 16.79 117s1.69-2.25 3.38-2.25 1.69 2.25 3.38 2.25 1.68-2.25 3.37-2.25 1.69 2.25 3.37 2.25 1.69-2.25 3.38-2.25 1.69 2.25 3.38 2.25 1.68-2.25 3.37-2.25S42.11 117 43.8 117s1.68-2.25 3.37-2.25 1.68 2.25 3.37 2.25 1.69-2.25 3.37-2.25S55.6 117 57.29 117s1.68-2.25 3.37-2.25S62.34 117 64 117s1.69-2.25 3.37-2.25 1.71 2.25 3.4 2.25 1.68-2.25 3.37-2.25 1.68 2.25 3.37 2.25 1.69-2.25 3.37-2.25 1.69 2.25 3.38 2.25 1.68-2.25 3.37-2.25S89.31 117 91 117z"/>
	<path fill="#fee7e6" d="M13.67 11.25a1.47 1.47 0 0 0-1.42 1.53v43.47h76.5V21.78L78.33 11.25z"/>
	<rect width="66.88" height="2.25" x="17.81" y="105.03" fill="#b32424" rx="1.12"/>
	<path fill="#b32424" d="M18.94 100.06h64.63a1.12 1.12 0 0 1 1.12 1.12 1.12 1.12 0 0 1-1.12 1.12H18.94a1.13 1.13 0 0 1-1.13-1.13 1.12 1.12 0 0 1 1.12-1.12z"/>
	<rect width="66.88" height="2.25" x="17.81" y="90.14" fill="#b32424" rx="1.12"/>
	<path fill="#b32424" d="M18.94 95.1H28a1.12 1.12 0 0 1 1.12 1.12A1.13 1.13 0 0 1 28 97.35h-9.06a1.12 1.12 0 0 1-1.12-1.12 1.12 1.12 0 0 1 1.12-1.13"/>
	<rect width="11.34" height="2.25" x="40.5" y="80.21" fill="#b32424" rx="1.12"/>
	<rect width="15.84" height="2.25" x="68.85" y="95.1" fill="#b32424" rx="1.12"/>
	<rect width="21.51" height="2.25" x="63.18" y="85.18" fill="#b32424" rx="1.12"/>
	<rect width="34.03" height="2.25" x="31.99" y="95.1" fill="#b32424" rx="1.12"/>
	<rect width="42.53" height="2.25" x="17.81" y="85.18" fill="#b32424" rx="1.12"/>
	<path fill="#b32424" d="M18.94 80.21h17.6a1.12 1.12 0 0 1 1.12 1.12 1.12 1.12 0 0 1-1.12 1.12h-17.6a1.13 1.13 0 0 1-1.13-1.13 1.12 1.12 0 0 1 1.13-1.11"/>
	<rect width="22.5" height="4.5" x="17.81" y="63.96" fill="#b32424" rx="2.25"/>
	<rect width="36" height="2.25" x="17.81" y="70.88" fill="#ff6e6e" rx="1.12"/>
	<rect width="30.02" height="2.25" x="54.68" y="80.21" fill="#b32424" rx="1.12"/>
	<path fill="#c8ccd1" d="M91 23.62H78.91a2.54 2.54 0 0 1-2.54-2.53V9h2.93L91 20.7z"/>
	<path fill="#c8ccd1" d="M91 20.84 79.16 9H12.84A2.84 2.84 0 0 0 10 11.84V117c1.69 0 1.69-2.25 3.38-2.25S15.1 117 16.79 117s1.69-2.25 3.38-2.25 1.69 2.25 3.38 2.25 1.68-2.25 3.37-2.25 1.69 2.25 3.37 2.25 1.69-2.25 3.38-2.25 1.69 2.25 3.38 2.25 1.68-2.25 3.37-2.25S42.11 117 43.8 117s1.68-2.25 3.37-2.25 1.68 2.25 3.37 2.25 1.69-2.25 3.37-2.25S55.6 117 57.29 117s1.68-2.25 3.37-2.25S62.34 117 64 117s1.69-2.25 3.37-2.25 1.71 2.25 3.4 2.25 1.68-2.25 3.37-2.25 1.68 2.25 3.37 2.25 1.69-2.25 3.37-2.25 1.69 2.25 3.38 2.25 1.68-2.25 3.37-2.25S89.31 117 91 117zm-3.37 91.66c-1.69 0-1.69 2.25-3.37 2.25s-1.69-2.25-3.38-2.25-1.68 2.25-3.37 2.25-1.69-2.25-3.37-2.25-1.69 2.25-3.37 2.25-1.69-2.25-3.38-2.25-1.68 2.25-3.37 2.25-1.68-2.25-3.36-2.25-1.69 2.25-3.37 2.25-1.69-2.25-3.38-2.25-1.68 2.25-3.37 2.25-1.69-2.25-3.37-2.25-1.69 2.25-3.37 2.25-1.69-2.25-3.38-2.25-1.69 2.25-3.37 2.25-1.69-2.25-3.38-2.25-1.69 2.25-3.38 2.25-1.68-2.25-3.37-2.25-1.69 2.25-3.37 2.25-1.69-2.25-3.38-2.25-1.69 2.25-3.38 2.25-1.69-2.25-3.38-2.25-1.16-1.69-1.16-1.69V14.09a2.84 2.84 0 0 1 2.84-2.84h64.07l9.59 9.59v90s.56 1.66-1.12 1.66"/>
	<circle cx="92" cy="63" r="24" fill="#c8ccd1"/>
	<circle cx="92" cy="63" r="22" fill="#fff"/>
	<rect width="6" height="28" x="89" y="48" fill="#72777d" rx="1.87" transform="rotate(90 92 62)"/>
	<rect width="6" height="28" x="89" y="48" fill="#72777d" rx="1.87" transform="rotate(180 92 62)"/>
	<rect width="2" height="24" x="48" y="21" fill="#ff6e6e" rx=".89" transform="rotate(90 49 33)"/>
	<rect width="2" height="24" x="48" y="21" fill="#ff6e6e" rx=".89" transform="rotate(180 49 33)"/>
	<rect width="2" height="24" x="48" y="21" fill="#ff6e6e" rx=".9" transform="rotate(-135 48.998 33)"/>
	<rect width="2" height="24" x="48" y="21" fill="#ff6e6e" rx=".9" transform="rotate(135 48.998 33.001)"/>
</svg>
