<svg xmlns="http://www.w3.org/2000/svg" viewBox="0 0 96 108">
	<path fill="#fff" d="M82.07 17.08 72 7H15.5a2.42 2.42 0 0 0-2.43 2.42V99c1.44 0 1.44-1.92 2.88-1.92S17.42 99 18.86 99s1.44-1.92 2.88-1.92S23.17 99 24.61 99s1.44-1.92 2.88-1.92S28.92 99 30.36 99s1.44-1.92 2.88-1.92S34.68 99 36.11 99s1.44-1.92 2.88-1.92S40.42 99 41.86 99s1.44-1.92 2.88-1.92S46.17 99 47.61 99s1.43-1.92 2.87-1.92S51.92 99 53.35 99s1.44-1.92 2.88-1.92S57.66 99 59.09 99s1.44-1.92 2.88-1.92S63.4 99 64.84 99s1.43-1.92 2.87-1.92S69.15 99 70.58 99s1.44-1.92 2.88-1.92S74.89 99 76.33 99s1.44-1.92 2.87-1.92S80.64 99 82.07 99z"/>
	<path fill="#c8ccd1" d="M82.07 19.46H71.78a2.16 2.16 0 0 1-2.16-2.16V7h2.49l10 10z"/>
	<path fill="#c8ccd1" d="M80.16 17.54h-7.67a1 1 0 0 1-1-1V8.92z"/>
	<path fill="#c8ccd1" d="M82.07 17.08 72 7H15.5a2.42 2.42 0 0 0-2.43 2.42V99c1.44 0 1.44-1.92 2.88-1.92S17.42 99 18.86 99s1.44-1.92 2.88-1.92S23.17 99 24.61 99s1.44-1.92 2.88-1.92S28.92 99 30.36 99s1.44-1.92 2.88-1.92S34.68 99 36.11 99s1.44-1.92 2.88-1.92S40.42 99 41.86 99s1.44-1.92 2.88-1.92S46.17 99 47.61 99s1.43-1.92 2.87-1.92S51.92 99 53.35 99s1.44-1.92 2.88-1.92S57.66 99 59.09 99s1.44-1.92 2.88-1.92S63.4 99 64.84 99s1.43-1.92 2.87-1.92S69.15 99 70.58 99s1.44-1.92 2.88-1.92S74.89 99 76.33 99s1.44-1.92 2.87-1.92S80.64 99 82.07 99zM79.2 95.17c-1.43 0-1.43 1.91-2.87 1.91s-1.44-1.91-2.87-1.91-1.46 1.91-2.88 1.91-1.43-1.91-2.87-1.91-1.44 1.91-2.87 1.91-1.44-1.91-2.84-1.91-1.44 1.91-2.88 1.91-1.43-1.91-2.86-1.91-1.44 1.91-2.88 1.91-1.43-1.91-2.87-1.91-1.51 1.91-2.9 1.91-1.44-1.91-2.87-1.91-1.44 1.91-2.88 1.91-1.44-1.91-2.86-1.91-1.44 1.91-2.88 1.91-1.43-1.91-2.87-1.91-1.44 1.91-2.88 1.91-1.44-1.91-2.87-1.91-1.44 1.91-2.88 1.91-1.44-1.91-2.87-1.91-1.44 1.91-2.88 1.91-1.45-1.91-2.87-1.91-1-1.44-1-1.44V11.34a2.42 2.42 0 0 1 2.42-2.42H72l8.17 8.16v76.65s.47 1.44-.97 1.44"/>
	<path fill="#00af89" d="M10.09 59.39H85.9v23H10.09z"/>
	<path fill="#d5fdf4" d="M11.8 61.09h72.41v19.59H11.8z"/>
	<rect width="56.22" height="1.92" x="19.73" y="69.88" fill="#14866d" rx=".94"/>
	<rect width="18.74" height="3.41" x="19.73" y="64.05" fill="#14866d" rx="1.7"/>
	<rect width="9.66" height="1.92" x="19.73" y="74.17" fill="#14866d" rx=".96"/>
	<rect width="16.48" height="1.92" x="59.77" y="74.17" fill="#14866d" rx=".96"/>
	<rect width="25.56" height="1.92" x="31.81" y="74.17" fill="#14866d" rx=".78"/>
	<path fill="#d5fdf4" d="M16.48 80.69h3.41v1.7h-3.41zm9.37 0h3.41v1.7h-3.41zm9.37 0h3.41v1.7h-3.41zm8.52 0h3.41v1.7h-3.41zm8.52 0h3.41v1.7h-3.41zm8.52 0h3.41v1.7h-3.41zm25.13-5.97v3.41h-1.7v-3.41zm0-12.77v2.56h-1.7v-2.56zm0 5.96v3.41h-1.7v-3.41zM11.8 75.57v4.26h-1.7v-4.26zm0-12.77v2.56h-1.7V62.8zm0 5.96v3.41h-1.7v-3.41zm4.68-9.37h3.41v1.7h-3.41zm9.37 0h3.41v1.7h-3.41zm9.37 0h3.41v1.7h-3.41zm8.52 0h3.41v1.7h-3.41zm8.52 0h3.41v1.7h-3.41zm15.33 0H71v1.7h-3.41zm6.82 0h3.41v1.7h-3.41zm7.66 0h1.7v1.7h-1.7zm0 21.3h1.7v1.7h-1.7z"/>
	<path fill="#d5fdf4" d="M60.78 80.69h3.41v1.7h-3.41zm6.81 0H71v1.7h-3.41zm7.67 0h3.41v1.7h-3.41zm-14.48-21.3h3.41v1.7h-3.41z"/>
	<rect width="56.97" height="1.92" x="19.73" y="53.87" fill="#a2a9b1" rx=".96"/>
	<rect width="56.97" height="1.92" x="19.73" y="53.87" fill="#a2a9b1" rx=".96"/>
	<rect width="56.97" height="1.92" x="19.73" y="49.65" fill="#a2a9b1" rx=".96"/>
	<rect width="56.97" height="1.92" x="19.73" y="41.19" fill="#a2a9b1" rx=".96"/>
	<rect width="9.66" height="1.92" x="19.73" y="45.42" fill="#a2a9b1" rx=".96"/>
	<rect width="9.66" height="1.92" x="39.05" y="32.74" fill="#a2a9b1" rx=".96"/>
	<rect width="13.5" height="1.92" x="63.21" y="45.42" fill="#a2a9b1" rx=".96"/>
	<rect width="18.33" height="1.92" x="58.38" y="36.97" fill="#a2a9b1" rx=".96"/>
	<rect width="28.99" height="1.92" x="31.81" y="45.42" fill="#a2a9b1" rx=".96"/>
	<rect width="56.97" height="1.92" x="19.73" y="90.54" fill="#a2a9b1" rx=".96"/>
	<rect width="9.66" height="1.92" x="19.73" y="86.31" fill="#a2a9b1" rx=".96"/>
	<rect width="13.5" height="1.92" x="63.21" y="86.31" fill="#a2a9b1" rx=".96"/>
	<rect width="28.99" height="1.92" x="31.81" y="86.31" fill="#a2a9b1" rx=".96"/>
	<rect width="36.23" height="1.92" x="19.73" y="36.97" fill="#a2a9b1" rx=".96"/>
	<rect width="16.91" height="1.92" x="19.73" y="32.74" fill="#a2a9b1" rx=".96"/>
	<rect width="19.17" height="3.83" x="19.73" y="18.89" fill="#72777d" rx="1.92"/>
	<rect width="30.67" height="1.92" x="19.73" y="24.78" fill="#c8ccd1" rx=".96"/>
	<rect width="25.57" height="1.92" x="51.13" y="32.74" fill="#a2a9b1" rx=".96"/>
</svg>
