<svg xmlns="http://www.w3.org/2000/svg" viewBox="0 0 96 108">
	<path fill="#fff" d="M83.21 17.13 73.12 7.05H16.63a2.42 2.42 0 0 0-2.42 2.42v89.58c1.45 0 1.45-1.92 2.89-1.92s1.43 1.92 2.87 1.92 1.44-1.92 2.88-1.92 1.44 1.92 2.88 1.92 1.43-1.92 2.87-1.92 1.44 1.92 2.88 1.92 1.43-1.92 2.87-1.92 1.44 1.92 2.88 1.92 1.43-1.92 2.87-1.92 1.44 1.92 2.88 1.92 1.43-1.92 2.87-1.92 1.44 1.92 2.87 1.92 1.44-1.92 2.87-1.92 1.44 1.92 2.88 1.92 1.43-1.92 2.87-1.92 1.43 1.92 2.87 1.92 1.43-1.92 2.87-1.92 1.43 1.92 2.87 1.92 1.44-1.92 2.87-1.92 1.44 1.92 2.88 1.92 1.43-1.92 2.87-1.92 1.44 1.92 2.87 1.92 1.44-1.92 2.88-1.92 1.43 1.92 2.87 1.92V17.13z"/>
	<path fill="#f8f9fa" d="M17.33 9a1.26 1.26 0 0 0-1.21 1.3v37h65.17V17.93L72.42 9z"/>
	<rect width="56.97" height="1.92" x="20.86" y="88.85" fill="#a2a9b1" rx=".96"/>
	<rect width="56.97" height="1.92" x="20.86" y="84.62" fill="#a2a9b1" rx=".96"/>
	<rect width="56.97" height="1.92" x="20.86" y="76.17" fill="#a2a9b1" rx=".96"/>
	<rect width="9.66" height="1.92" x="20.86" y="80.4" fill="#a2a9b1" rx=".96"/>
	<rect width="9.66" height="1.92" x="40.19" y="67.71" fill="#a2a9b1" rx=".96"/>
	<rect width="13.5" height="1.92" x="64.34" y="80.4" fill="#a2a9b1" rx=".96"/>
	<rect width="18.33" height="1.92" x="59.51" y="71.94" fill="#a2a9b1" rx=".96"/>
	<rect width="28.99" height="1.92" x="32.94" y="80.4" fill="#a2a9b1" rx=".96"/>
	<rect width="36.23" height="1.92" x="20.86" y="71.94" fill="#a2a9b1" rx=".96"/>
	<rect width="16.91" height="1.92" x="20.86" y="67.71" fill="#a2a9b1" rx=".96"/>
	<rect width="19.17" height="3.83" x="58.67" y="53.86" fill="#72777d" rx="1.92"/>
	<rect width="30.67" height="1.92" x="47.17" y="59.76" fill="#c8ccd1" rx=".96"/>
	<rect width="25.57" height="1.92" x="52.26" y="67.71" fill="#a2a9b1" rx=".96"/>
	<path fill="#c8ccd1" d="M83.21 19.51h-10.3a2.16 2.16 0 0 1-2.16-2.16V7.05h2.49l10 10z"/>
	<path fill="#c8ccd1" d="M81.29 17.59h-7.67a1 1 0 0 1-1-1V9z"/>
	<path fill="#c8ccd1" d="M83.21 17.13 73.12 7.05H16.63a2.42 2.42 0 0 0-2.42 2.42v89.58c1.45 0 1.45-1.92 2.89-1.92s1.43 1.92 2.87 1.92 1.44-1.92 2.88-1.92 1.44 1.92 2.88 1.92 1.43-1.92 2.87-1.92 1.44 1.92 2.88 1.92 1.43-1.92 2.87-1.92 1.44 1.92 2.88 1.92 1.43-1.92 2.87-1.92 1.44 1.92 2.88 1.92 1.43-1.92 2.87-1.92 1.44 1.92 2.87 1.92 1.44-1.92 2.87-1.92 1.44 1.92 2.88 1.92 1.43-1.92 2.87-1.92 1.43 1.92 2.87 1.92 1.43-1.92 2.87-1.92 1.43 1.92 2.87 1.92 1.44-1.92 2.87-1.92 1.44 1.92 2.88 1.92 1.43-1.92 2.87-1.92 1.44 1.92 2.87 1.92 1.44-1.92 2.88-1.92 1.43 1.92 2.87 1.92V17.13zm-2.87 78.09c-1.44 0-1.44 1.91-2.88 1.91s-1.46-1.91-2.87-1.91-1.44 1.91-2.87 1.91-1.44-1.91-2.88-1.91-1.43 1.91-2.84 1.91-1.44-1.91-2.87-1.91-1.44 1.91-2.87 1.91-1.44-1.91-2.87-1.91-1.44 1.91-2.87 1.91-1.44-1.91-2.88-1.91-1.43 1.91-2.87 1.91-1.43-1.91-2.87-1.91-1.47 1.91-2.9 1.91-1.44-1.91-2.88-1.91-1.44 1.91-2.87 1.91-1.44-1.91-2.88-1.91-1.44 1.91-2.87 1.91-1.44-1.91-2.88-1.91-1.44 1.91-2.87 1.91-1.44-1.91-2.88-1.91-1.44 1.91-2.87 1.91-1.44-1.91-2.87-1.91-1-1.44-1-1.44v-82.4A2.42 2.42 0 0 1 18.54 9h54.58l8.17 8.16v76.62s.48 1.44-.95 1.44"/>
	<ellipse cx="31.07" cy="20.5" fill="#7c94c2" rx="4.6" ry="4.48"/>
	<path fill="#7c94c2" d="M59.52 33.29s11.08 7.35 13.57 4.65 0 3.92 0 3.92H51.21m-35.3-4.58a40.6 40.6 0 0 0 21.14 6.07c12.31 0 3 3.89 3 3.89H15.94"/>
	<path fill="#dae4f6" d="M17.31 47.3S65.65 24.6 59.6 36s21.69-2.69 21.69-2.69v14"/>
	<rect width="67.3" height="17.04" x="8.6" y="67.74" fill="#ff6e6e" rx="3.01"/>
	<rect width="63.89" height="13.63" x="10.3" y="69.45" fill="#fee7e6" rx="1.52"/>
	<rect width="39.19" height="1.92" x="15.68" y="77.81" fill="#222" rx=".79"/>
	<rect width="9.66" height="1.92" x="15.68" y="73.58" fill="#222" rx=".96"/>
	<rect width="27.26" height="1.92" x="27.76" y="73.58" fill="#222" rx=".93"/>
	<path fill="#54595d" d="M63 70.88 72.12 80l-1.2 1.2-9.14-9.13z"/>
	<path fill="#54595d" d="M72.12 72.08 63 81.22 61.78 80l9.14-9.14z"/>
</svg>
