<svg xmlns="http://www.w3.org/2000/svg" viewBox="0 0 128 128">
	<path d="M90.5 19.84L78.66 8H12.34a2.84 2.84 0 00-2.84 2.84V116c1.69 0 1.69-2.25 3.38-2.25S14.6 116 16.29 116s1.69-2.25 3.38-2.25 1.69 2.25 3.38 2.25 1.68-2.25 3.37-2.25 1.69 2.25 3.37 2.25 1.69-2.25 3.38-2.25 1.69 2.25 3.38 2.25 1.68-2.25 3.37-2.25S41.61 116 43.3 116s1.68-2.25 3.37-2.25S48.35 116 50 116s1.69-2.25 3.37-2.25S55.1 116 56.79 116s1.68-2.25 3.37-2.25 1.68 2.25 3.36 2.25 1.69-2.25 3.37-2.25 1.69 2.25 3.38 2.25 1.68-2.25 3.37-2.25S75.32 116 77 116s1.69-2.25 3.37-2.25 1.7 2.25 3.39 2.25 1.68-2.25 3.37-2.25S88.81 116 90.5 116V19.84z" fill="#fff"/>
    <path d="M90.5 22.62H78.41a2.54 2.54 0 01-2.54-2.53V8h2.93l11.7 11.7z" fill="#c8ccd1" fill-rule="evenodd"/>
    <path d="M90.5 19.84L78.66 8H12.34a2.84 2.84 0 00-2.84 2.84V116c1.69 0 1.69-2.25 3.38-2.25S14.6 116 16.29 116s1.69-2.25 3.38-2.25 1.69 2.25 3.38 2.25 1.68-2.25 3.37-2.25 1.69 2.25 3.37 2.25 1.69-2.25 3.38-2.25 1.69 2.25 3.38 2.25 1.68-2.25 3.37-2.25S41.61 116 43.3 116s1.68-2.25 3.37-2.25S48.35 116 50 116s1.69-2.25 3.37-2.25S55.1 116 56.79 116s1.68-2.25 3.37-2.25 1.68 2.25 3.36 2.25 1.69-2.25 3.37-2.25 1.69 2.25 3.38 2.25 1.68-2.25 3.37-2.25S75.32 116 77 116s1.69-2.25 3.37-2.25 1.7 2.25 3.39 2.25 1.68-2.25 3.37-2.25S88.81 116 90.5 116V19.84zm-3.37 91.66c-1.69 0-1.69 2.25-3.37 2.25s-1.69-2.25-3.38-2.25-1.68 2.25-3.37 2.25-1.69-2.25-3.37-2.25-1.69 2.25-3.37 2.25-1.69-2.25-3.38-2.25-1.68 2.25-3.37 2.25-1.68-2.25-3.36-2.25-1.69 2.25-3.37 2.25-1.69-2.25-3.38-2.25-1.68 2.25-3.37 2.25-1.69-2.25-3.37-2.25-1.69 2.25-3.37 2.25-1.69-2.25-3.38-2.25-1.69 2.25-3.37 2.25-1.69-2.25-3.38-2.25-1.69 2.25-3.38 2.25-1.68-2.25-3.37-2.25-1.69 2.25-3.37 2.25-1.69-2.25-3.38-2.25-1.69 2.25-3.38 2.25-1.69-2.25-3.38-2.25-1.16-1.69-1.16-1.69V13.09a2.84 2.84 0 012.84-2.84h64.07l9.59 9.59v90s.56 1.66-1.12 1.66z" fill="#c8ccd1"/>
    <path fill="#00af89" d="M6 69.5h89v27H6z"/>
    <path fill="#d5fdf4" d="M8 71.5h85v23H8z"/>
    <rect x="17.31" y="81.81" width="66" height="2.25" rx="1.1" fill="#14866d"/>
    <rect x="17.31" y="74.98" width="22" height="4" rx="2" fill="#14866d"/>
    <path d="M18.44 86.85h9.09A1.12 1.12 0 0128.66 88a1.13 1.13 0 01-1.13 1.13h-9.09A1.12 1.12 0 0117.31 88a1.12 1.12 0 011.13-1.15z" fill="#14866d"/>
    <path d="M65.44 86.85h17.09A1.12 1.12 0 0183.66 88a1.13 1.13 0 01-1.13 1.13H65.44A1.12 1.12 0 0164.31 88a1.12 1.12 0 011.13-1.15z" fill="#14866d"/>
    <rect x="31.49" y="86.85" width="30" height="2.25" rx=".91" fill="#14866d"/>
    <path fill="#d5fdf4" d="M13.5 94.5h4v2h-4z"/>
    <path fill="#d5fdf4" d="M24.5 94.5h4v2h-4z"/>
    <path fill="#d5fdf4" d="M35.5 94.5h4v2h-4z"/>
    <path fill="#d5fdf4" d="M45.5 94.5h4v2h-4z"/>
    <path fill="#d5fdf4" d="M55.5 94.5h4v2h-4z"/>
    <path fill="#d5fdf4" d="M65.5 94.5h4v2h-4z"/>
    <path fill="#d5fdf4" d="M8 88.5v5H6v-5z"/>
    <path fill="#d5fdf4" d="M8 73.5v3H6v-3z"/>
    <path fill="#d5fdf4" d="M8 80.5v4H6v-4z"/>
    <path fill="#d5fdf4" d="M13.5 69.5h4v2h-4z"/>
    <path fill="#d5fdf4" d="M24.5 69.5h4v2h-4z"/>
    <path fill="#d5fdf4" d="M35.5 69.5h4v2h-4z"/>
    <path fill="#d5fdf4" d="M45.5 69.5h4v2h-4z"/>
    <path fill="#d5fdf4" d="M55.5 69.5h4v2h-4z"/>
    <path fill="#d5fdf4" d="M73.5 69.5h4v2h-4z"/>
    <path fill="#d5fdf4" d="M81.5 69.5h4v2h-4z"/>
    <path fill="#d5fdf4" d="M90.5 69.5h2v2h-2z"/>
    <path fill="#d5fdf4" d="M65.5 94.5h4v2h-4z"/>
    <path fill="#d5fdf4" d="M73.5 94.5h4v2h-4z"/>
    <path fill="#d5fdf4" d="M82.5 94.5h4v2h-4z"/>
    <path fill="#d5fdf4" d="M65.5 69.5h4v2h-4z"/>
    <rect x="17.31" y="63.03" width="66.88" height="2.25" rx="1.12" fill="#a2a9b1"/>
    <path d="M18.44 58.06h64.63a1.12 1.12 0 011.12 1.12 1.12 1.12 0 01-1.12 1.12H18.44a1.13 1.13 0 01-1.13-1.13 1.12 1.12 0 011.12-1.12z" fill="#a2a9b1"/>
    <rect x="17.31" y="48.14" width="66.88" height="2.25" rx="1.12" fill="#a2a9b1"/>
    <path d="M18.44 53.1h9.09a1.12 1.12 0 011.12 1.12 1.13 1.13 0 01-1.13 1.13h-9.08a1.12 1.12 0 01-1.12-1.12 1.12 1.12 0 011.12-1.13z" fill="#a2a9b1"/>
    <rect x="40" y="38.21" width="11.34" height="2.25" rx="1.12" fill="#a2a9b1"/>
    <rect x="68.35" y="53.1" width="15.84" height="2.25" rx="1.12" fill="#a2a9b1"/>
    <rect x="62.68" y="43.18" width="21.51" height="2.25" rx="1.12" fill="#a2a9b1"/>
    <rect x="31.49" y="53.1" width="34.03" height="2.25" rx="1.12" fill="#a2a9b1"/>
    <rect x="17.31" y="106.06" width="66.88" height="2.25" rx="1.12" fill="#a2a9b1"/>
    <path d="M18.44 101.1h9.09a1.12 1.12 0 011.12 1.12 1.13 1.13 0 01-1.13 1.13h-9.08a1.12 1.12 0 01-1.12-1.12 1.12 1.12 0 011.12-1.12z" fill="#a2a9b1"/>
    <rect x="68.35" y="101.1" width="15.84" height="2.25" rx="1.12" fill="#a2a9b1"/>
    <rect x="31.49" y="101.1" width="34.03" height="2.25" rx="1.12" fill="#a2a9b1"/>
    <rect x="17.31" y="43.18" width="42.53" height="2.25" rx="1.12" fill="#a2a9b1"/>
    <path d="M18.44 38.21H36a1.12 1.12 0 011.12 1.12A1.12 1.12 0 0136 40.46H18.44a1.13 1.13 0 01-1.13-1.13 1.12 1.12 0 011.12-1.12z" fill="#a2a9b1"/>
    <rect x="17.31" y="21.96" width="22.5" height="4.5" rx="2.25" fill="#72777d"/>
    <rect x="17.31" y="28.88" width="36" height="2.25" rx="1.12" fill="#c8ccd1"/>
    <rect x="54.18" y="38.21" width="30.02" height="2.25" rx="1.12" fill="#a2a9b1"/>
    <path fill="#fef6e7" fill-rule="evenodd" d="M86.07 123.06l-2.45-18.67.46-1.74 13.91 3.73-.46 1.74-11.46 14.94z"/>
    <path fill="#54595d" d="M84.8 113.4l1.27 9.66 5.92-7.73-7.19-1.93z"/>
    <path d="M121.24 19.6a4.79 4.79 0 00-3.39-5.88l-4.64-1.24a4.78 4.78 0 00-5.87 3.39l-1.87 7 13.91 3.73z" fill="#ff6e6e"/>
    <path fill="#c8ccd1" d="M103.61 29.784l1.863-6.955 13.91 3.727-1.864 6.955z"/>
    <path d="M83.62 104.39l20-74.61 13.91 3.73-20 74.61a2.51 2.51 0 00-4.64-1.25 2.5 2.5 0 00-4.64-1.24 2.5 2.5 0 00-4.63-1.24z" fill="#00af89"/>
</svg>
