<svg xmlns="http://www.w3.org/2000/svg" viewBox="0 0 128 128">
    <path d="M91 20.84L79.16 9H12.84A2.84 2.84 0 0010 11.84V117c1.69 0 1.69-2.25 3.38-2.25S15.1 117 16.79 117s1.69-2.25 3.38-2.25 1.69 2.25 3.38 2.25 1.68-2.25 3.37-2.25 1.69 2.25 3.37 2.25 1.69-2.25 3.38-2.25 1.69 2.25 3.38 2.25 1.68-2.25 3.37-2.25S42.11 117 43.8 117s1.68-2.25 3.37-2.25 1.68 2.25 3.37 2.25 1.69-2.25 3.37-2.25S55.6 117 57.29 117s1.68-2.25 3.37-2.25S62.34 117 64 117s1.69-2.25 3.37-2.25 1.71 2.25 3.4 2.25 1.68-2.25 3.37-2.25 1.68 2.25 3.37 2.25 1.69-2.25 3.37-2.25 1.69 2.25 3.38 2.25 1.68-2.25 3.37-2.25S89.31 117 91 117V20.84z" fill="#fff"/>
    <path d="M13.67 11.25a1.47 1.47 0 00-1.42 1.53v43.47h76.5V21.78L78.33 11.25z" fill="#fee7e6" fill-rule="evenodd"/>
    <rect x="17.81" y="105.03" width="66.88" height="2.25" rx="1.12" fill="#b32424"/>
    <path d="M18.94 100.06h64.63a1.12 1.12 0 011.12 1.12 1.12 1.12 0 01-1.12 1.12H18.94a1.13 1.13 0 01-1.13-1.13 1.12 1.12 0 011.12-1.12z" fill="#b32424"/>
    <rect x="17.81" y="90.14" width="66.88" height="2.25" rx="1.12" fill="#b32424"/>
    <path d="M18.94 95.1H28a1.12 1.12 0 011.12 1.12A1.13 1.13 0 0128 97.35h-9.06a1.12 1.12 0 01-1.12-1.12 1.12 1.12 0 011.12-1.13z" fill="#b32424"/>
    <rect x="40.5" y="80.21" width="11.34" height="2.25" rx="1.12" fill="#b32424"/>
    <rect x="68.85" y="95.1" width="15.84" height="2.25" rx="1.12" fill="#b32424"/>
    <rect x="63.18" y="85.18" width="21.51" height="2.25" rx="1.12" fill="#b32424"/>
    <rect x="31.99" y="95.1" width="34.03" height="2.25" rx="1.12" fill="#b32424"/>
    <rect x="17.81" y="85.18" width="42.53" height="2.25" rx="1.12" fill="#b32424"/>
    <path d="M18.94 80.21h17.6a1.12 1.12 0 011.12 1.12 1.12 1.12 0 01-1.12 1.12h-17.6a1.13 1.13 0 01-1.13-1.13 1.12 1.12 0 011.13-1.11z" fill="#b32424"/>
    <rect x="17.81" y="63.96" width="22.5" height="4.5" rx="2.25" fill="#b32424"/>
    <rect x="17.81" y="70.88" width="36" height="2.25" rx="1.12" fill="#ff6e6e"/>
    <rect x="54.68" y="80.21" width="30.02" height="2.25" rx="1.12" fill="#b32424"/>
    <path d="M91 23.62H78.91a2.54 2.54 0 01-2.54-2.53V9h2.93L91 20.7z" fill="#c8ccd1" fill-rule="evenodd"/>
    <path d="M91 20.84L79.16 9H12.84A2.84 2.84 0 0010 11.84V117c1.69 0 1.69-2.25 3.38-2.25S15.1 117 16.79 117s1.69-2.25 3.38-2.25 1.69 2.25 3.38 2.25 1.68-2.25 3.37-2.25 1.69 2.25 3.37 2.25 1.69-2.25 3.38-2.25 1.69 2.25 3.38 2.25 1.68-2.25 3.37-2.25S42.11 117 43.8 117s1.68-2.25 3.37-2.25 1.68 2.25 3.37 2.25 1.69-2.25 3.37-2.25S55.6 117 57.29 117s1.68-2.25 3.37-2.25S62.34 117 64 117s1.69-2.25 3.37-2.25 1.71 2.25 3.4 2.25 1.68-2.25 3.37-2.25 1.68 2.25 3.37 2.25 1.69-2.25 3.37-2.25 1.69 2.25 3.38 2.25 1.68-2.25 3.37-2.25S89.31 117 91 117V20.84zm-3.37 91.66c-1.69 0-1.69 2.25-3.37 2.25s-1.69-2.25-3.38-2.25-1.68 2.25-3.37 2.25-1.69-2.25-3.37-2.25-1.69 2.25-3.37 2.25-1.69-2.25-3.38-2.25-1.68 2.25-3.37 2.25-1.68-2.25-3.36-2.25-1.69 2.25-3.37 2.25-1.69-2.25-3.38-2.25-1.68 2.25-3.37 2.25-1.69-2.25-3.37-2.25-1.69 2.25-3.37 2.25-1.69-2.25-3.38-2.25-1.69 2.25-3.37 2.25-1.69-2.25-3.38-2.25-1.69 2.25-3.38 2.25-1.68-2.25-3.37-2.25-1.69 2.25-3.37 2.25-1.69-2.25-3.38-2.25-1.69 2.25-3.38 2.25-1.69-2.25-3.38-2.25-1.16-1.69-1.16-1.69V14.09a2.84 2.84 0 012.84-2.84h64.07l9.59 9.59v90s.56 1.66-1.12 1.66z" fill="#c8ccd1"/>
    <circle cx="92" cy="63" r="24" fill="#c8ccd1"/>
    <circle cx="92" cy="63" r="22" fill="#fff"/>
    <rect x="89" y="48" width="6" height="28" rx="1.87" transform="rotate(90 92 62)" fill="#72777d"/>
    <rect x="89" y="48" width="6" height="28" rx="1.87" transform="rotate(180 92 62)" fill="#72777d"/>
    <rect x="48" y="21" width="2" height="24" rx=".89" transform="rotate(90 49 33)" fill="#ff6e6e"/>
    <rect x="48" y="21" width="2" height="24" rx=".89" transform="rotate(180 49 33)" fill="#ff6e6e"/>
    <rect x="48" y="21" width="2" height="24" rx=".9" transform="rotate(-135 48.998 33)" fill="#ff6e6e"/>
    <rect x="48" y="21" width="2" height="24" rx=".9" transform="rotate(135 48.998 33.001)" fill="#ff6e6e"/>
</svg>
