<svg xmlns="http://www.w3.org/2000/svg" viewBox="0 0 96 108">
	<path fill="#fff" d="m88.1 23.34-8.18-11.69h-.2L24.28 1.84a2.42 2.42 0 0 0-2.8 2l-15 84.92L5.93 92H6c1.42.25 1.75-1.64 3.17-1.39s1.09 2.14 2.5 2.39 1.75-1.64 3.17-1.39 1.08 2.14 2.5 2.39 1.75-1.64 3.16-1.39S21.53 94.78 23 95s1.75-1.64 3.17-1.39 1.03 2.17 2.44 2.39 1.75-1.64 3.17-1.39 1.08 2.13 2.5 2.38 1.74-1.63 3.16-1.38 1.08 2.13 2.5 2.38 1.74-1.64 3.16-1.39 1.08 2.14 2.49 2.39 1.75-1.64 3.16-1.39 1.08 2.14 2.5 2.39 1.74-1.64 3.16-1.39 1.08 2.13 2.49 2.38 1.75-1.63 3.16-1.38 1.09 2.13 2.5 2.38 1.75-1.64 3.16-1.39 1.08 2.14 2.5 2.39 1.75-1.64 3.16-1.39 1.08 2.14 2.5 2.39l.58-3.31z"/>
	<path fill="#fee7e6" d="M24.64 3.85a1.26 1.26 0 0 0-1.41 1.07L16.8 41.39 81 52.71l5.09-28.92-7.2-10.37z"/>
	<rect width="56.97" height="1.92" x="13.65" y="88.07" fill="#b32424" rx=".96" transform="rotate(10 42.112 89.032)"/>
	<rect width="56.97" height="1.92" x="14.39" y="83.91" fill="#b32424" rx=".96" transform="rotate(10 42.9 84.874)"/>
	<rect width="56.97" height="1.92" x="15.85" y="75.58" fill="#b32424" rx=".96" transform="rotate(10 44.356 76.512)"/>
	<rect width="9.66" height="1.92" x="15.48" y="75.63" fill="#b32424" rx=".96" transform="rotate(10 20.292 76.602)"/>
	<rect width="9.66" height="1.92" x="36.71" y="66.5" fill="#b32424" rx=".96" transform="rotate(10 41.551 67.486)"/>
	<rect width="13.5" height="1.92" x="58.27" y="83.52" fill="#b32424" rx=".96" transform="rotate(10 65.037 84.492)"/>
	<rect width="18.33" height="1.92" x="54.94" y="74.77" fill="#b32424" rx=".96" transform="rotate(10 64.096 75.706)"/>
	<rect width="28.99" height="1.92" x="27.23" y="79.41" fill="#b32424" rx=".96" transform="rotate(10 41.7 80.372)"/>
	<rect width="36.23" height="1.92" x="16.75" y="69.62" fill="#b32424" rx=".96" transform="rotate(10 34.85 70.548)"/>
	<rect width="16.91" height="1.92" x="17.63" y="63.77" fill="#b32424" rx=".96" transform="rotate(10 26.108 64.748)"/>
	<rect width="19.17" height="3.83" x="57.08" y="56.88" fill="#b32424" rx="1.92" transform="rotate(10 66.646 58.783)"/>
	<rect width="30.67" height="1.92" x="44.81" y="61.7" fill="#ff6e6e" rx=".96" transform="rotate(10 60.13 62.635)"/>
	<rect width="25.57" height="1.92" x="48.49" y="69.98" fill="#b32424" rx=".96" transform="rotate(10 61.26 70.944)"/>
	<path fill="#c8ccd1" d="m87.69 25.67-10.14-1.78a2.17 2.17 0 0 1-1.76-2.51l1.79-10.14 2.46.43 8.08 11.55z"/>
	<path fill="#c8ccd1" d="m88.1 23.34-8.18-11.69h-.2L24.28 1.84a2.42 2.42 0 0 0-2.8 2l-15 84.92L5.93 92H6c1.42.25 1.75-1.64 3.17-1.39s1.09 2.14 2.5 2.39 1.75-1.64 3.17-1.39 1.08 2.14 2.5 2.39 1.75-1.64 3.16-1.39S21.53 94.78 23 95s1.75-1.64 3.17-1.39 1.03 2.17 2.44 2.39 1.75-1.64 3.17-1.39 1.08 2.13 2.5 2.38 1.74-1.63 3.16-1.38 1.08 2.13 2.5 2.38 1.74-1.64 3.16-1.39 1.08 2.14 2.49 2.39 1.75-1.64 3.16-1.39 1.08 2.14 2.5 2.39 1.74-1.64 3.16-1.39 1.08 2.13 2.49 2.38 1.75-1.63 3.16-1.38 1.09 2.13 2.5 2.38 1.75-1.64 3.16-1.39 1.08 2.14 2.5 2.39 1.75-1.64 3.16-1.39 1.08 2.14 2.5 2.39l.58-3.31zM71.71 99.73c-1.41-.25-1.74 1.64-3.16 1.39s-1.08-2.12-2.49-2.38-1.75 1.63-3.17 1.38-1.08-2.12-2.49-2.38-1.75 1.64-3.17 1.39-1.08-2.13-2.49-2.39-1.74 1.64-3.16 1.39-1.08-2.13-2.49-2.39-1.75 1.64-3.16 1.39-1.09-2.13-2.5-2.38-1.75 1.63-3.16 1.38-1.08-2.13-2.5-2.38-1.77 1.64-3.16 1.39-1.08-2.14-2.5-2.39-1.75 1.64-3.11 1.39-1.09-2.14-2.5-2.39-1.75 1.64-3.17 1.39-1.13-2.14-2.55-2.39-1.78 1.64-3.16 1.39-1.08-2.14-2.5-2.39-1.75 1.64-3.12 1.39-1.13-2.14-2.54-2.38-.73-1.59-.73-1.59L23 6a2.42 2.42 0 0 1 2.8-2l53.74 9.48L86.21 23 72.9 98.48s.23 1.52-1.19 1.25"/>
	<rect width="1.7" height="20.44" x="50.33" y="17.39" fill="#ff6e6e" rx=".76" transform="rotate(100 51.182 27.61)"/>
	<rect width="1.7" height="20.44" x="50.33" y="17.39" fill="#ff6e6e" rx=".76" transform="rotate(-170 51.181 27.611)"/>
	<rect width="1.7" height="20.44" x="50.33" y="17.39" fill="#ff6e6e" rx=".76" transform="rotate(-125 51.18 27.61)"/>
	<rect width="1.7" height="20.44" x="50.33" y="17.39" fill="#ff6e6e" rx=".76" transform="rotate(145 51.18 27.61)"/>
</svg>
