<svg xmlns="http://www.w3.org/2000/svg" width="920" height="20">
	<g opacity=".8">
		<defs>
			<clipPath id="clip_frame0_path">
				<path d="M10 7a3.002 3.002 0 0 0-2.853 3.927A3 3 0 1 0 10 7"/>
			</clipPath>
		</defs>
		<path fill="#14866d" d="M10 8a2 2 0 1 1-.001 4.001A2 2 0 0 1 10 8m3.55-2.84a6 6 0 0 1 0 9.68l-1.65-1.32a4 4 0 0 0 1.814-4.891A4 4 0 0 0 11.9 6.52zm-7.1 0L8.1 6.48a4 4 0 0 0-1.814 4.891A4 4 0 0 0 8.1 13.48l-1.65 1.36a6 6 0 0 1 0-9.68m10.29-2.55a10.01 10.01 0 0 1 2.881 10.127 10 10 0 0 1-2.881 4.653l-1.59-1.27a8 8 0 0 0 2.513-8.41 8 8 0 0 0-2.513-3.83zm-13.48 0 1.59 1.27a8 8 0 0 0-2.513 8.41 8 8 0 0 0 2.513 3.83l-1.59 1.27A10.01 10.01 0 0 1 .379 7.263 10 10 0 0 1 3.26 2.61" clip-path="url(#clip_frame0_path)"/>
	</g>
	<g opacity=".809" transform="translate(20)">
		<defs>
			<clipPath id="clip_frame1_path">
				<path d="M10 6.686c-.723 0-1.428.24-2.001.679a3.25 3.25 0 0 0-1.172 3.52 3.28 3.28 0 0 0 1.172 1.75 3.3 3.3 0 0 0 2.001.679c.723 0 1.428-.24 2.001-.679a3.25 3.25 0 0 0 1.172-3.52 3.28 3.28 0 0 0-1.172-1.75A3.3 3.3 0 0 0 10 6.686"/>
			</clipPath>
		</defs>
		<path fill="#14866d" d="M10 8a2 2 0 1 1-.001 4.001A2 2 0 0 1 10 8m3.55-2.84a6 6 0 0 1 0 9.68l-1.65-1.32a4 4 0 0 0 1.814-4.891A4 4 0 0 0 11.9 6.52zm-7.1 0L8.1 6.48a4 4 0 0 0-1.814 4.891A4 4 0 0 0 8.1 13.48l-1.65 1.36a6 6 0 0 1 0-9.68m10.29-2.55a10.01 10.01 0 0 1 2.881 10.127 10 10 0 0 1-2.881 4.653l-1.59-1.27a8 8 0 0 0 2.513-8.41 8 8 0 0 0-2.513-3.83zm-13.48 0 1.59 1.27a8 8 0 0 0-2.513 8.41 8 8 0 0 0 2.513 3.83l-1.59 1.27A10.01 10.01 0 0 1 .379 7.263 10 10 0 0 1 3.26 2.61" clip-path="url(#clip_frame1_path)"/>
	</g>
	<g opacity=".836" transform="translate(40)">
		<defs>
			<clipPath id="clip_frame2_path">
				<path d="M10 5.745c-.995 0-1.958.354-2.714.996a4.04 4.04 0 0 0-1.42 4.02 4.195 4.195 0 0 0 6.848 2.498 4.04 4.04 0 0 0 1.42-4.02A4.195 4.195 0 0 0 10 5.745"/>
			</clipPath>
		</defs>
		<path fill="#14866d" d="M10 8a2 2 0 1 1-.001 4.001A2 2 0 0 1 10 8m3.55-2.84a6 6 0 0 1 0 9.68l-1.65-1.32a4 4 0 0 0 1.814-4.891A4 4 0 0 0 11.9 6.52zm-7.1 0L8.1 6.48a4 4 0 0 0-1.814 4.891A4 4 0 0 0 8.1 13.48l-1.65 1.36a6 6 0 0 1 0-9.68m10.29-2.55a10.01 10.01 0 0 1 2.881 10.127 10 10 0 0 1-2.881 4.653l-1.59-1.27a8 8 0 0 0 2.513-8.41 8 8 0 0 0-2.513-3.83zm-13.48 0 1.59 1.27a8 8 0 0 0-2.513 8.41 8 8 0 0 0 2.513 3.83l-1.59 1.27A10.01 10.01 0 0 1 .379 7.263 10 10 0 0 1 3.26 2.61" clip-path="url(#clip_frame2_path)"/>
	</g>
	<g opacity=".881" transform="translate(60)">
		<defs>
			<clipPath id="clip_frame3_path">
				<path d="M10 4.177A5.77 5.77 0 0 0 6.096 5.7a5.52 5.52 0 0 0-1.831 4.853A5.74 5.74 0 0 0 6.096 14.3a5.766 5.766 0 0 0 7.808 0 5.52 5.52 0 0 0 1.831-4.853A5.74 5.74 0 0 0 13.904 5.7 5.77 5.77 0 0 0 10 4.177"/>
			</clipPath>
		</defs>
		<path fill="#14866d" d="M10 8a2 2 0 1 1-.001 4.001A2 2 0 0 1 10 8m3.55-2.84a6 6 0 0 1 0 9.68l-1.65-1.32a4 4 0 0 0 1.814-4.891A4 4 0 0 0 11.9 6.52zm-7.1 0L8.1 6.48a4 4 0 0 0-1.814 4.891A4 4 0 0 0 8.1 13.48l-1.65 1.36a6 6 0 0 1 0-9.68m10.29-2.55a10.01 10.01 0 0 1 2.881 10.127 10 10 0 0 1-2.881 4.653l-1.59-1.27a8 8 0 0 0 2.513-8.41 8 8 0 0 0-2.513-3.83zm-13.48 0 1.59 1.27a8 8 0 0 0-2.513 8.41 8 8 0 0 0 2.513 3.83l-1.59 1.27A10.01 10.01 0 0 1 .379 7.263 10 10 0 0 1 3.26 2.61" clip-path="url(#clip_frame3_path)"/>
	</g>
	<g opacity=".943" transform="translate(80)">
		<defs>
			<clipPath id="clip_frame4_path">
				<path d="M10 1.981c-2.08 0-4.079.813-5.568 2.263a7.77 7.77 0 0 0-2.409 6.018 7.97 7.97 0 0 0 2.409 5.494 7.984 7.984 0 0 0 11.136 0 7.77 7.77 0 0 0 2.409-6.018 7.97 7.97 0 0 0-2.409-5.494A7.98 7.98 0 0 0 10 1.981"/>
			</clipPath>
		</defs>
		<path fill="#14866d" d="M10 8a2 2 0 1 1-.001 4.001A2 2 0 0 1 10 8m3.55-2.84a6 6 0 0 1 0 9.68l-1.65-1.32a4 4 0 0 0 1.814-4.891A4 4 0 0 0 11.9 6.52zm-7.1 0L8.1 6.48a4 4 0 0 0-1.814 4.891A4 4 0 0 0 8.1 13.48l-1.65 1.36a6 6 0 0 1 0-9.68m10.29-2.55a10.01 10.01 0 0 1 2.881 10.127 10 10 0 0 1-2.881 4.653l-1.59-1.27a8 8 0 0 0 2.513-8.41 8 8 0 0 0-2.513-3.83zm-13.48 0 1.59 1.27a8 8 0 0 0-2.513 8.41 8 8 0 0 0 2.513 3.83l-1.59 1.27A10.01 10.01 0 0 1 .379 7.263 10 10 0 0 1 3.26 2.61" clip-path="url(#clip_frame4_path)"/>
	</g>
	<g opacity=".988" transform="translate(100)">
		<defs>
			<clipPath id="clip_frame5_path">
				<path d="M10 .424A9.57 9.57 0 0 0 3.251 3.21a9.52 9.52 0 0 0-2.818 6.846 9.566 9.566 0 0 0 16.316 6.734 9.52 9.52 0 0 0 2.818-6.846A9.566 9.566 0 0 0 10 .424"/>
			</clipPath>
		</defs>
		<path fill="#14866d" d="M10 8a2 2 0 1 1-.001 4.001A2 2 0 0 1 10 8m3.55-2.84a6 6 0 0 1 0 9.68l-1.65-1.32a4 4 0 0 0 1.814-4.891A4 4 0 0 0 11.9 6.52zm-7.1 0L8.1 6.48a4 4 0 0 0-1.814 4.891A4 4 0 0 0 8.1 13.48l-1.65 1.36a6 6 0 0 1 0-9.68m10.29-2.55a10.01 10.01 0 0 1 2.881 10.127 10 10 0 0 1-2.881 4.653l-1.59-1.27a8 8 0 0 0 2.513-8.41 8 8 0 0 0-2.513-3.83zm-13.48 0 1.59 1.27a8 8 0 0 0-2.513 8.41 8 8 0 0 0 2.513 3.83l-1.59 1.27A10.01 10.01 0 0 1 .379 7.263 10 10 0 0 1 3.26 2.61" clip-path="url(#clip_frame5_path)"/>
	</g>
	<g opacity=".955" transform="translate(120)">
		<defs>
			<clipPath id="clip_frame6_path">
				<path d="M10 1.561a8.4 8.4 0 0 0-5.888 2.403 8.25 8.25 0 0 0-2.519 6.243A8.403 8.403 0 0 0 10 18.439a8.4 8.4 0 0 0 5.888-2.403 8.25 8.25 0 0 0 2.519-6.243A8.403 8.403 0 0 0 10 1.561"/>
			</clipPath>
		</defs>
		<path fill="#14866d" d="M10 8a2 2 0 1 1-.001 4.001A2 2 0 0 1 10 8m3.55-2.84a6 6 0 0 1 0 9.68l-1.65-1.32a4 4 0 0 0 1.814-4.891A4 4 0 0 0 11.9 6.52zm-7.1 0L8.1 6.48a4 4 0 0 0-1.814 4.891A4 4 0 0 0 8.1 13.48l-1.65 1.36a6 6 0 0 1 0-9.68m10.29-2.55a10.01 10.01 0 0 1 2.881 10.127 10 10 0 0 1-2.881 4.653l-1.59-1.27a8 8 0 0 0 2.513-8.41 8 8 0 0 0-2.513-3.83zm-13.48 0 1.59 1.27a8 8 0 0 0-2.513 8.41 8 8 0 0 0 2.513 3.83l-1.59 1.27A10.01 10.01 0 0 1 .379 7.263 10 10 0 0 1 3.26 2.61" clip-path="url(#clip_frame6_path)"/>
	</g>
	<g opacity=".941" transform="translate(140)">
		<defs>
			<clipPath id="clip_frame7_path">
				<path d="M10 2.07c-2.054 0-4.03.801-5.502 2.232a7.69 7.69 0 0 0-2.385 5.972 7.88 7.88 0 0 0 2.385 5.424 7.897 7.897 0 0 0 11.004 0 7.69 7.69 0 0 0 2.385-5.972 7.88 7.88 0 0 0-2.385-5.424A7.9 7.9 0 0 0 10 2.07"/>
			</clipPath>
		</defs>
		<path fill="#14866d" d="M10 8a2 2 0 1 1-.001 4.001A2 2 0 0 1 10 8m3.55-2.84a6 6 0 0 1 0 9.68l-1.65-1.32a4 4 0 0 0 1.814-4.891A4 4 0 0 0 11.9 6.52zm-7.1 0L8.1 6.48a4 4 0 0 0-1.814 4.891A4 4 0 0 0 8.1 13.48l-1.65 1.36a6 6 0 0 1 0-9.68m10.29-2.55a10.01 10.01 0 0 1 2.881 10.127 10 10 0 0 1-2.881 4.653l-1.59-1.27a8 8 0 0 0 2.513-8.41 8 8 0 0 0-2.513-3.83zm-13.48 0 1.59 1.27a8 8 0 0 0-2.513 8.41 8 8 0 0 0 2.513 3.83l-1.59 1.27A10.01 10.01 0 0 1 .379 7.263 10 10 0 0 1 3.26 2.61" clip-path="url(#clip_frame7_path)"/>
	</g>
	<g opacity=".944" transform="translate(160)">
		<defs>
			<clipPath id="clip_frame8_path">
				<path d="M10 1.951a8.02 8.02 0 0 0-5.591 2.273 7.8 7.8 0 0 0-2.417 6.034 8 8 0 0 0 2.417 5.518c1.495 1.456 3.503 2.273 5.591 2.273s4.096-.817 5.591-2.273a7.8 7.8 0 0 0 2.417-6.034 8 8 0 0 0-2.417-5.518A8.02 8.02 0 0 0 10 1.951"/>
			</clipPath>
		</defs>
		<path fill="#14866d" d="M10 8a2 2 0 1 1-.001 4.001A2 2 0 0 1 10 8m3.55-2.84a6 6 0 0 1 0 9.68l-1.65-1.32a4 4 0 0 0 1.814-4.891A4 4 0 0 0 11.9 6.52zm-7.1 0L8.1 6.48a4 4 0 0 0-1.814 4.891A4 4 0 0 0 8.1 13.48l-1.65 1.36a6 6 0 0 1 0-9.68m10.29-2.55a10.01 10.01 0 0 1 2.881 10.127 10 10 0 0 1-2.881 4.653l-1.59-1.27a8 8 0 0 0 2.513-8.41 8 8 0 0 0-2.513-3.83zm-13.48 0 1.59 1.27a8 8 0 0 0-2.513 8.41 8 8 0 0 0 2.513 3.83l-1.59 1.27A10.01 10.01 0 0 1 .379 7.263 10 10 0 0 1 3.26 2.61" clip-path="url(#clip_frame8_path)"/>
	</g>
	<g opacity=".966" transform="translate(180)">
		<defs>
			<clipPath id="clip_frame9_path">
				<path d="M10 1.206a8.78 8.78 0 0 0-6.157 2.523 8.64 8.64 0 0 0-2.612 6.431A8.765 8.765 0 0 0 10 18.794a8.78 8.78 0 0 0 6.157-2.523 8.64 8.64 0 0 0 2.612-6.431A8.765 8.765 0 0 0 10 1.206"/>
			</clipPath>
		</defs>
		<path fill="#14866d" d="M10 8a2 2 0 1 1-.001 4.001A2 2 0 0 1 10 8m3.55-2.84a6 6 0 0 1 0 9.68l-1.65-1.32a4 4 0 0 0 1.814-4.891A4 4 0 0 0 11.9 6.52zm-7.1 0L8.1 6.48a4 4 0 0 0-1.814 4.891A4 4 0 0 0 8.1 13.48l-1.65 1.36a6 6 0 0 1 0-9.68m10.29-2.55a10.01 10.01 0 0 1 2.881 10.127 10 10 0 0 1-2.881 4.653l-1.59-1.27a8 8 0 0 0 2.513-8.41 8 8 0 0 0-2.513-3.83zm-13.48 0 1.59 1.27a8 8 0 0 0-2.513 8.41 8 8 0 0 0 2.513 3.83l-1.59 1.27A10.01 10.01 0 0 1 .379 7.263 10 10 0 0 1 3.26 2.61" clip-path="url(#clip_frame9_path)"/>
	</g>
	<g opacity=".997" transform="translate(200)">
		<defs>
			<clipPath id="clip_frame10_path">
				<path d="M10 .092a9.91 9.91 0 0 0-9.906 9.92A9.907 9.907 0 1 0 17.001 2.99 9.9 9.9 0 0 0 10 .092"/>
			</clipPath>
		</defs>
		<path fill="#14866d" d="M10 8a2 2 0 1 1-.001 4.001A2 2 0 0 1 10 8m3.55-2.84a6 6 0 0 1 0 9.68l-1.65-1.32a4 4 0 0 0 1.814-4.891A4 4 0 0 0 11.9 6.52zm-7.1 0L8.1 6.48a4 4 0 0 0-1.814 4.891A4 4 0 0 0 8.1 13.48l-1.65 1.36a6 6 0 0 1 0-9.68m10.29-2.55a10.01 10.01 0 0 1 2.881 10.127 10 10 0 0 1-2.881 4.653l-1.59-1.27a8 8 0 0 0 2.513-8.41 8 8 0 0 0-2.513-3.83zm-13.48 0 1.59 1.27a8 8 0 0 0-2.513 8.41 8 8 0 0 0 2.513 3.83l-1.59 1.27A10.01 10.01 0 0 1 .379 7.263 10 10 0 0 1 3.26 2.61" clip-path="url(#clip_frame10_path)"/>
	</g>
	<g opacity=".981" transform="translate(220)">
		<defs>
			<clipPath id="clip_frame11_path">
				<path d="M10 .652a9.34 9.34 0 0 0-6.577 2.709 9.26 9.26 0 0 0-2.758 6.725A9.337 9.337 0 0 0 10 19.348a9.34 9.34 0 0 0 6.577-2.709 9.26 9.26 0 0 0 2.758-6.725A9.337 9.337 0 0 0 10 .652"/>
			</clipPath>
		</defs>
		<path fill="#14866d" d="M10 8a2 2 0 1 1-.001 4.001A2 2 0 0 1 10 8m3.55-2.84a6 6 0 0 1 0 9.68l-1.65-1.32a4 4 0 0 0 1.814-4.891A4 4 0 0 0 11.9 6.52zm-7.1 0L8.1 6.48a4 4 0 0 0-1.814 4.891A4 4 0 0 0 8.1 13.48l-1.65 1.36a6 6 0 0 1 0-9.68m10.29-2.55a10.01 10.01 0 0 1 2.881 10.127 10 10 0 0 1-2.881 4.653l-1.59-1.27a8 8 0 0 0 2.513-8.41 8 8 0 0 0-2.513-3.83zm-13.48 0 1.59 1.27a8 8 0 0 0-2.513 8.41 8 8 0 0 0 2.513 3.83l-1.59 1.27A10.01 10.01 0 0 1 .379 7.263 10 10 0 0 1 3.26 2.61" clip-path="url(#clip_frame11_path)"/>
	</g>
	<g opacity=".983" transform="translate(240)">
		<defs>
			<clipPath id="clip_frame12_path">
				<path d="M10 .584a9.4 9.4 0 0 0-6.628 2.733 9.34 9.34 0 0 0-2.776 6.76 9.405 9.405 0 0 0 16.032 6.606 9.34 9.34 0 0 0 2.776-6.76A9.405 9.405 0 0 0 10 .584"/>
			</clipPath>
		</defs>
		<path fill="#14866d" d="M10 8a2 2 0 1 1-.001 4.001A2 2 0 0 1 10 8m3.55-2.84a6 6 0 0 1 0 9.68l-1.65-1.32a4 4 0 0 0 1.814-4.891A4 4 0 0 0 11.9 6.52zm-7.1 0L8.1 6.48a4 4 0 0 0-1.814 4.891A4 4 0 0 0 8.1 13.48l-1.65 1.36a6 6 0 0 1 0-9.68m10.29-2.55a10.01 10.01 0 0 1 2.881 10.127 10 10 0 0 1-2.881 4.653l-1.59-1.27a8 8 0 0 0 2.513-8.41 8 8 0 0 0-2.513-3.83zm-13.48 0 1.59 1.27a8 8 0 0 0-2.513 8.41 8 8 0 0 0 2.513 3.83l-1.59 1.27A10.01 10.01 0 0 1 .379 7.263 10 10 0 0 1 3.26 2.61" clip-path="url(#clip_frame12_path)"/>
	</g>
	<g opacity=".998" transform="translate(260)">
		<defs>
			<clipPath id="clip_frame13_path">
				<path d="M10 .071a9.928 9.928 0 1 0 0 19.856A9.928 9.928 0 0 0 10 .07z"/>
			</clipPath>
		</defs>
		<path fill="#14866d" d="M10 8a2 2 0 1 1-.001 4.001A2 2 0 0 1 10 8m3.55-2.84a6 6 0 0 1 0 9.68l-1.65-1.32a4 4 0 0 0 1.814-4.891A4 4 0 0 0 11.9 6.52zm-7.1 0L8.1 6.48a4 4 0 0 0-1.814 4.891A4 4 0 0 0 8.1 13.48l-1.65 1.36a6 6 0 0 1 0-9.68m10.29-2.55a10.01 10.01 0 0 1 2.881 10.127 10 10 0 0 1-2.881 4.653l-1.59-1.27a8 8 0 0 0 2.513-8.41 8 8 0 0 0-2.513-3.83zm-13.48 0 1.59 1.27a8 8 0 0 0-2.513 8.41 8 8 0 0 0 2.513 3.83l-1.59 1.27A10.01 10.01 0 0 1 .379 7.263 10 10 0 0 1 3.26 2.61" clip-path="url(#clip_frame13_path)"/>
	</g>
	<g opacity=".99" transform="translate(280)">
		<defs>
			<clipPath id="clip_frame14_path">
				<path d="M10 .349a9.64 9.64 0 0 0-6.806 2.812 9.6 9.6 0 0 0-2.838 6.885 9.645 9.645 0 1 0 19.288-.092A9.645 9.645 0 0 0 10 .349"/>
			</clipPath>
		</defs>
		<path fill="#14866d" d="M10 8a2 2 0 1 1-.001 4.001A2 2 0 0 1 10 8m3.55-2.84a6 6 0 0 1 0 9.68l-1.65-1.32a4 4 0 0 0 1.814-4.891A4 4 0 0 0 11.9 6.52zm-7.1 0L8.1 6.48a4 4 0 0 0-1.814 4.891A4 4 0 0 0 8.1 13.48l-1.65 1.36a6 6 0 0 1 0-9.68m10.29-2.55a10.01 10.01 0 0 1 2.881 10.127 10 10 0 0 1-2.881 4.653l-1.59-1.27a8 8 0 0 0 2.513-8.41 8 8 0 0 0-2.513-3.83zm-13.48 0 1.59 1.27a8 8 0 0 0-2.513 8.41 8 8 0 0 0 2.513 3.83l-1.59 1.27A10.01 10.01 0 0 1 .379 7.263 10 10 0 0 1 3.26 2.61" clip-path="url(#clip_frame14_path)"/>
	</g>
	<g transform="translate(300)">
		<defs>
			<clipPath id="clip_frame15_path">
				<path d="M10 0A10.003 10.003 0 0 0 0 10a10.003 10.003 0 0 0 10 10 10.003 10.003 0 0 0 10-10A10.003 10.003 0 0 0 10 0"/>
			</clipPath>
		</defs>
		<path fill="#14866d" d="M10 8a2 2 0 1 1-.001 4.001A2 2 0 0 1 10 8m3.55-2.84a6 6 0 0 1 0 9.68l-1.65-1.32a4 4 0 0 0 1.814-4.891A4 4 0 0 0 11.9 6.52zm-7.1 0L8.1 6.48a4 4 0 0 0-1.814 4.891A4 4 0 0 0 8.1 13.48l-1.65 1.36a6 6 0 0 1 0-9.68m10.29-2.55a10.01 10.01 0 0 1 2.881 10.127 10 10 0 0 1-2.881 4.653l-1.59-1.27a8 8 0 0 0 2.513-8.41 8 8 0 0 0-2.513-3.83zm-13.48 0 1.59 1.27a8 8 0 0 0-2.513 8.41 8 8 0 0 0 2.513 3.83l-1.59 1.27A10.01 10.01 0 0 1 .379 7.263 10 10 0 0 1 3.26 2.61" clip-path="url(#clip_frame15_path)"/>
	</g>
	<g transform="translate(320)">
		<defs>
			<clipPath id="clip_frame16_path">
				<path d="M10 0A10.003 10.003 0 0 0 0 10a10.003 10.003 0 0 0 10 10 10.003 10.003 0 0 0 10-10A10.003 10.003 0 0 0 10 0"/>
			</clipPath>
		</defs>
		<path fill="#14866d" d="M10 8a2 2 0 1 1-.001 4.001A2 2 0 0 1 10 8m3.55-2.84a6 6 0 0 1 0 9.68l-1.65-1.32a4 4 0 0 0 1.814-4.891A4 4 0 0 0 11.9 6.52zm-7.1 0L8.1 6.48a4 4 0 0 0-1.814 4.891A4 4 0 0 0 8.1 13.48l-1.65 1.36a6 6 0 0 1 0-9.68m10.29-2.55a10.01 10.01 0 0 1 2.881 10.127 10 10 0 0 1-2.881 4.653l-1.59-1.27a8 8 0 0 0 2.513-8.41 8 8 0 0 0-2.513-3.83zm-13.48 0 1.59 1.27a8 8 0 0 0-2.513 8.41 8 8 0 0 0 2.513 3.83l-1.59 1.27A10.01 10.01 0 0 1 .379 7.263 10 10 0 0 1 3.26 2.61" clip-path="url(#clip_frame16_path)"/>
	</g>
	<g transform="translate(340)">
		<defs>
			<clipPath id="clip_frame17_path">
				<path d="M10 0A10.003 10.003 0 0 0 0 10a10.003 10.003 0 0 0 10 10 10.003 10.003 0 0 0 10-10A10.003 10.003 0 0 0 10 0"/>
			</clipPath>
		</defs>
		<path fill="#14866d" d="M10 8a2 2 0 1 1-.001 4.001A2 2 0 0 1 10 8m3.55-2.84a6 6 0 0 1 0 9.68l-1.65-1.32a4 4 0 0 0 1.814-4.891A4 4 0 0 0 11.9 6.52zm-7.1 0L8.1 6.48a4 4 0 0 0-1.814 4.891A4 4 0 0 0 8.1 13.48l-1.65 1.36a6 6 0 0 1 0-9.68m10.29-2.55a10.01 10.01 0 0 1 2.881 10.127 10 10 0 0 1-2.881 4.653l-1.59-1.27a8 8 0 0 0 2.513-8.41 8 8 0 0 0-2.513-3.83zm-13.48 0 1.59 1.27a8 8 0 0 0-2.513 8.41 8 8 0 0 0 2.513 3.83l-1.59 1.27A10.01 10.01 0 0 1 .379 7.263 10 10 0 0 1 3.26 2.61" clip-path="url(#clip_frame17_path)"/>
	</g>
	<g transform="translate(360)">
		<defs>
			<clipPath id="clip_frame18_path">
				<path d="M10 0A10.003 10.003 0 0 0 0 10a10.003 10.003 0 0 0 10 10 10.003 10.003 0 0 0 10-10A10.003 10.003 0 0 0 10 0"/>
			</clipPath>
		</defs>
		<path fill="#14866d" d="M10 8a2 2 0 1 1-.001 4.001A2 2 0 0 1 10 8m3.55-2.84a6 6 0 0 1 0 9.68l-1.65-1.32a4 4 0 0 0 1.814-4.891A4 4 0 0 0 11.9 6.52zm-7.1 0L8.1 6.48a4 4 0 0 0-1.814 4.891A4 4 0 0 0 8.1 13.48l-1.65 1.36a6 6 0 0 1 0-9.68m10.29-2.55a10.01 10.01 0 0 1 2.881 10.127 10 10 0 0 1-2.881 4.653l-1.59-1.27a8 8 0 0 0 2.513-8.41 8 8 0 0 0-2.513-3.83zm-13.48 0 1.59 1.27a8 8 0 0 0-2.513 8.41 8 8 0 0 0 2.513 3.83l-1.59 1.27A10.01 10.01 0 0 1 .379 7.263 10 10 0 0 1 3.26 2.61" clip-path="url(#clip_frame18_path)"/>
	</g>
	<g opacity=".986" transform="translate(380)">
		<defs>
			<clipPath id="clip_frame19_path">
				<path d="M10 .49a9.5 9.5 0 0 0-6.699 2.764A9.44 9.44 0 0 0 .5 10.065a9.5 9.5 0 0 0 16.199 6.681A9.43 9.43 0 0 0 19.5 9.935 9.5 9.5 0 0 0 10 .49"/>
			</clipPath>
		</defs>
		<path fill="#14866d" d="M10 8a2 2 0 1 1-.001 4.001A2 2 0 0 1 10 8m3.55-2.84a6 6 0 0 1 0 9.68l-1.65-1.32a4 4 0 0 0 1.814-4.891A4 4 0 0 0 11.9 6.52zm-7.1 0L8.1 6.48a4 4 0 0 0-1.814 4.891A4 4 0 0 0 8.1 13.48l-1.65 1.36a6 6 0 0 1 0-9.68m10.29-2.55a10.01 10.01 0 0 1 2.881 10.127 10 10 0 0 1-2.881 4.653l-1.59-1.27a8 8 0 0 0 2.513-8.41 8 8 0 0 0-2.513-3.83zm-13.48 0 1.59 1.27a8 8 0 0 0-2.513 8.41 8 8 0 0 0 2.513 3.83l-1.59 1.27A10.01 10.01 0 0 1 .379 7.263 10 10 0 0 1 3.26 2.61" clip-path="url(#clip_frame19_path)"/>
	</g>
	<g opacity=".944" transform="translate(400)">
		<defs>
			<clipPath id="clip_frame20_path">
				<path d="M10 1.96a8 8 0 0 0-5.584 2.27 7.8 7.8 0 0 0-2.414 6.03 8.003 8.003 0 0 0 13.582 5.51 7.8 7.8 0 0 0 2.414-6.03A8.003 8.003 0 0 0 10 1.96"/>
			</clipPath>
		</defs>
		<path fill="#14866d" d="M10 8a2 2 0 1 1-.001 4.001A2 2 0 0 1 10 8m3.55-2.84a6 6 0 0 1 0 9.68l-1.65-1.32a4 4 0 0 0 1.814-4.891A4 4 0 0 0 11.9 6.52zm-7.1 0L8.1 6.48a4 4 0 0 0-1.814 4.891A4 4 0 0 0 8.1 13.48l-1.65 1.36a6 6 0 0 1 0-9.68m10.29-2.55a10.01 10.01 0 0 1 2.881 10.127 10 10 0 0 1-2.881 4.653l-1.59-1.27a8 8 0 0 0 2.513-8.41 8 8 0 0 0-2.513-3.83zm-13.48 0 1.59 1.27a8 8 0 0 0-2.513 8.41 8 8 0 0 0 2.513 3.83l-1.59 1.27A10.01 10.01 0 0 1 .379 7.263 10 10 0 0 1 3.26 2.61" clip-path="url(#clip_frame20_path)"/>
	</g>
	<g opacity=".874" transform="translate(420)">
		<defs>
			<clipPath id="clip_frame21_path">
				<path d="M10 4.411c-1.379 0-2.71.516-3.726 1.444a5.3 5.3 0 0 0-1.771 4.729 5.5 5.5 0 0 0 1.771 3.561 5.53 5.53 0 0 0 7.452 0 5.29 5.29 0 0 0 1.771-4.729 5.5 5.5 0 0 0-1.771-3.561A5.53 5.53 0 0 0 10 4.411"/>
			</clipPath>
		</defs>
		<path fill="#14866d" d="M10 8a2 2 0 1 1-.001 4.001A2 2 0 0 1 10 8m3.55-2.84a6 6 0 0 1 0 9.68l-1.65-1.32a4 4 0 0 0 1.814-4.891A4 4 0 0 0 11.9 6.52zm-7.1 0L8.1 6.48a4 4 0 0 0-1.814 4.891A4 4 0 0 0 8.1 13.48l-1.65 1.36a6 6 0 0 1 0-9.68m10.29-2.55a10.01 10.01 0 0 1 2.881 10.127 10 10 0 0 1-2.881 4.653l-1.59-1.27a8 8 0 0 0 2.513-8.41 8 8 0 0 0-2.513-3.83zm-13.48 0 1.59 1.27a8 8 0 0 0-2.513 8.41 8 8 0 0 0 2.513 3.83l-1.59 1.27A10.01 10.01 0 0 1 .379 7.263 10 10 0 0 1 3.26 2.61" clip-path="url(#clip_frame21_path)"/>
	</g>
	<g opacity=".812" transform="translate(440)">
		<defs>
			<clipPath id="clip_frame22_path">
				<path d="M10 6.576c-.755 0-1.49.253-2.085.716a3.345 3.345 0 0 0-1.201 3.579 3.38 3.38 0 0 0 1.201 1.837 3.4 3.4 0 0 0 4.17 0 3.345 3.345 0 0 0 1.201-3.579 3.38 3.38 0 0 0-1.201-1.837A3.4 3.4 0 0 0 10 6.576"/>
			</clipPath>
		</defs>
		<path fill="#14866d" d="M10 8a2 2 0 1 1-.001 4.001A2 2 0 0 1 10 8m3.55-2.84a6 6 0 0 1 0 9.68l-1.65-1.32a4 4 0 0 0 1.814-4.891A4 4 0 0 0 11.9 6.52zm-7.1 0L8.1 6.48a4 4 0 0 0-1.814 4.891A4 4 0 0 0 8.1 13.48l-1.65 1.36a6 6 0 0 1 0-9.68m10.29-2.55a10.01 10.01 0 0 1 2.881 10.127 10 10 0 0 1-2.881 4.653l-1.59-1.27a8 8 0 0 0 2.513-8.41 8 8 0 0 0-2.513-3.83zm-13.48 0 1.59 1.27a8 8 0 0 0-2.513 8.41 8 8 0 0 0 2.513 3.83l-1.59 1.27A10.01 10.01 0 0 1 .379 7.263 10 10 0 0 1 3.26 2.61" clip-path="url(#clip_frame22_path)"/>
	</g>
	<g opacity=".85" transform="translate(460)">
		<defs>
			<clipPath id="clip_frame23_path">
				<path d="M10 5.253a4.68 4.68 0 0 0-3.087 1.161 4.5 4.5 0 0 0-1.549 4.282 4.66 4.66 0 0 0 1.549 2.89 4.685 4.685 0 0 0 6.174 0 4.5 4.5 0 0 0 1.549-4.282 4.66 4.66 0 0 0-1.549-2.89A4.68 4.68 0 0 0 10 5.253"/>
			</clipPath>
		</defs>
		<path fill="#14866d" d="M10 8a2 2 0 1 1-.001 4.001A2 2 0 0 1 10 8m3.55-2.84a6 6 0 0 1 0 9.68l-1.65-1.32a4 4 0 0 0 1.814-4.891A4 4 0 0 0 11.9 6.52zm-7.1 0L8.1 6.48a4 4 0 0 0-1.814 4.891A4 4 0 0 0 8.1 13.48l-1.65 1.36a6 6 0 0 1 0-9.68m10.29-2.55a10.01 10.01 0 0 1 2.881 10.127 10 10 0 0 1-2.881 4.653l-1.59-1.27a8 8 0 0 0 2.513-8.41 8 8 0 0 0-2.513-3.83zm-13.48 0 1.59 1.27a8 8 0 0 0-2.513 8.41 8 8 0 0 0 2.513 3.83l-1.59 1.27A10.01 10.01 0 0 1 .379 7.263 10 10 0 0 1 3.26 2.61" clip-path="url(#clip_frame23_path)"/>
	</g>
	<g opacity=".86" transform="translate(480)">
		<defs>
			<clipPath id="clip_frame24_path">
				<path d="M10 4.911a5.03 5.03 0 0 0-3.347 1.276 4.81 4.81 0 0 0-1.639 4.463 5 5 0 0 0 1.639 3.163 5.03 5.03 0 0 0 6.694 0 4.82 4.82 0 0 0 1.639-4.463 5 5 0 0 0-1.639-3.163A5.03 5.03 0 0 0 10 4.911"/>
			</clipPath>
		</defs>
		<path fill="#14866d" d="M10 8a2 2 0 1 1-.001 4.001A2 2 0 0 1 10 8m3.55-2.84a6 6 0 0 1 0 9.68l-1.65-1.32a4 4 0 0 0 1.814-4.891A4 4 0 0 0 11.9 6.52zm-7.1 0L8.1 6.48a4 4 0 0 0-1.814 4.891A4 4 0 0 0 8.1 13.48l-1.65 1.36a6 6 0 0 1 0-9.68m10.29-2.55a10.01 10.01 0 0 1 2.881 10.127 10 10 0 0 1-2.881 4.653l-1.59-1.27a8 8 0 0 0 2.513-8.41 8 8 0 0 0-2.513-3.83zm-13.48 0 1.59 1.27a8 8 0 0 0-2.513 8.41 8 8 0 0 0 2.513 3.83l-1.59 1.27A10.01 10.01 0 0 1 .379 7.263 10 10 0 0 1 3.26 2.61" clip-path="url(#clip_frame24_path)"/>
	</g>
	<g opacity=".841" transform="translate(500)">
		<defs>
			<clipPath id="clip_frame25_path">
				<path d="M10 5.549A4.4 4.4 0 0 0 7.137 6.61a4.24 4.24 0 0 0-1.314 1.862 4.2 4.2 0 0 0-.157 2.263 4.36 4.36 0 0 0 1.471 2.655 4.395 4.395 0 0 0 5.726 0 4.24 4.24 0 0 0 1.314-1.862 4.2 4.2 0 0 0 .157-2.263 4.36 4.36 0 0 0-1.471-2.655A4.4 4.4 0 0 0 10 5.549"/>
			</clipPath>
		</defs>
		<path fill="#14866d" d="M10 8a2 2 0 1 1-.001 4.001A2 2 0 0 1 10 8m3.55-2.84a6 6 0 0 1 0 9.68l-1.65-1.32a4 4 0 0 0 1.814-4.891A4 4 0 0 0 11.9 6.52zm-7.1 0L8.1 6.48a4 4 0 0 0-1.814 4.891A4 4 0 0 0 8.1 13.48l-1.65 1.36a6 6 0 0 1 0-9.68m10.29-2.55a10.01 10.01 0 0 1 2.881 10.127 10 10 0 0 1-2.881 4.653l-1.59-1.27a8 8 0 0 0 2.513-8.41 8 8 0 0 0-2.513-3.83zm-13.48 0 1.59 1.27a8 8 0 0 0-2.513 8.41 8 8 0 0 0 2.513 3.83l-1.59 1.27A10.01 10.01 0 0 1 .379 7.263 10 10 0 0 1 3.26 2.61" clip-path="url(#clip_frame25_path)"/>
	</g>
	<g opacity=".803" transform="translate(520)">
		<defs>
			<clipPath id="clip_frame26_path">
				<path d="M10 6.908c-.66 0-1.303.212-1.833.604a3.07 3.07 0 0 0-1.114 3.403 3.083 3.083 0 0 0 4.78 1.573 3.07 3.07 0 0 0 1.114-3.403A3.08 3.08 0 0 0 10 6.908"/>
			</clipPath>
		</defs>
		<path fill="#14866d" d="M10 8a2 2 0 1 1-.001 4.001A2 2 0 0 1 10 8m3.55-2.84a6 6 0 0 1 0 9.68l-1.65-1.32a4 4 0 0 0 1.814-4.891A4 4 0 0 0 11.9 6.52zm-7.1 0L8.1 6.48a4 4 0 0 0-1.814 4.891A4 4 0 0 0 8.1 13.48l-1.65 1.36a6 6 0 0 1 0-9.68m10.29-2.55a10.01 10.01 0 0 1 2.881 10.127 10 10 0 0 1-2.881 4.653l-1.59-1.27a8 8 0 0 0 2.513-8.41 8 8 0 0 0-2.513-3.83zm-13.48 0 1.59 1.27a8 8 0 0 0-2.513 8.41 8 8 0 0 0 2.513 3.83l-1.59 1.27A10.01 10.01 0 0 1 .379 7.263 10 10 0 0 1 3.26 2.61" clip-path="url(#clip_frame26_path)"/>
	</g>
	<g opacity=".82" transform="translate(540)">
		<defs>
			<clipPath id="clip_frame27_path">
				<path d="M10 6.306c-.833 0-1.642.286-2.289.807a3.57 3.57 0 0 0-1.272 3.722 3.63 3.63 0 0 0 1.272 2.052 3.65 3.65 0 0 0 4.578 0 3.57 3.57 0 0 0 1.272-3.722 3.63 3.63 0 0 0-1.272-2.052A3.65 3.65 0 0 0 10 6.306"/>
			</clipPath>
		</defs>
		<path fill="#14866d" d="M10 8a2 2 0 1 1-.001 4.001A2 2 0 0 1 10 8m3.55-2.84a6 6 0 0 1 0 9.68l-1.65-1.32a4 4 0 0 0 1.814-4.891A4 4 0 0 0 11.9 6.52zm-7.1 0L8.1 6.48a4 4 0 0 0-1.814 4.891A4 4 0 0 0 8.1 13.48l-1.65 1.36a6 6 0 0 1 0-9.68m10.29-2.55a10.01 10.01 0 0 1 2.881 10.127 10 10 0 0 1-2.881 4.653l-1.59-1.27a8 8 0 0 0 2.513-8.41 8 8 0 0 0-2.513-3.83zm-13.48 0 1.59 1.27a8 8 0 0 0-2.513 8.41 8 8 0 0 0 2.513 3.83l-1.59 1.27A10.01 10.01 0 0 1 .379 7.263 10 10 0 0 1 3.26 2.61" clip-path="url(#clip_frame27_path)"/>
	</g>
	<g opacity=".809" transform="translate(560)">
		<defs>
			<clipPath id="clip_frame28_path">
				<path d="M10 6.685a3.3 3.3 0 0 0-2.002.679 3.255 3.255 0 0 0-1.173 3.521 3.29 3.29 0 0 0 5.177 1.751 3.255 3.255 0 0 0 1.173-3.521A3.29 3.29 0 0 0 10 6.685"/>
			</clipPath>
		</defs>
		<path fill="#14866d" d="M10 8a2 2 0 1 1-.001 4.001A2 2 0 0 1 10 8m3.55-2.84a6 6 0 0 1 0 9.68l-1.65-1.32a4 4 0 0 0 1.814-4.891A4 4 0 0 0 11.9 6.52zm-7.1 0L8.1 6.48a4 4 0 0 0-1.814 4.891A4 4 0 0 0 8.1 13.48l-1.65 1.36a6 6 0 0 1 0-9.68m10.29-2.55a10.01 10.01 0 0 1 2.881 10.127 10 10 0 0 1-2.881 4.653l-1.59-1.27a8 8 0 0 0 2.513-8.41 8 8 0 0 0-2.513-3.83zm-13.48 0 1.59 1.27a8 8 0 0 0-2.513 8.41 8 8 0 0 0 2.513 3.83l-1.59 1.27A10.01 10.01 0 0 1 .379 7.263 10 10 0 0 1 3.26 2.61" clip-path="url(#clip_frame28_path)"/>
	</g>
	<g opacity=".81" transform="translate(580)">
		<defs>
			<clipPath id="clip_frame29_path">
				<path d="M10 6.662c-.731 0-1.442.242-2.02.687a3.265 3.265 0 0 0-1.178 3.533 3.313 3.313 0 0 0 5.218 1.769 3.265 3.265 0 0 0 1.178-3.533A3.31 3.31 0 0 0 10 6.662"/>
			</clipPath>
		</defs>
		<path fill="#14866d" d="M10 8a2 2 0 1 1-.001 4.001A2 2 0 0 1 10 8m3.55-2.84a6 6 0 0 1 0 9.68l-1.65-1.32a4 4 0 0 0 1.814-4.891A4 4 0 0 0 11.9 6.52zm-7.1 0L8.1 6.48a4 4 0 0 0-1.814 4.891A4 4 0 0 0 8.1 13.48l-1.65 1.36a6 6 0 0 1 0-9.68m10.29-2.55a10.01 10.01 0 0 1 2.881 10.127 10 10 0 0 1-2.881 4.653l-1.59-1.27a8 8 0 0 0 2.513-8.41 8 8 0 0 0-2.513-3.83zm-13.48 0 1.59 1.27a8 8 0 0 0-2.513 8.41 8 8 0 0 0 2.513 3.83l-1.59 1.27A10.01 10.01 0 0 1 .379 7.263 10 10 0 0 1 3.26 2.61" clip-path="url(#clip_frame29_path)"/>
	</g>
	<g opacity=".8" transform="translate(600)">
		<defs>
			<clipPath id="clip_frame30_path">
				<path d="M10 7a3.002 3.002 0 0 0-2.853 3.927A3 3 0 1 0 10 7"/>
			</clipPath>
		</defs>
		<path fill="#14866d" d="M10 8a2 2 0 1 1-.001 4.001A2 2 0 0 1 10 8m3.55-2.84a6 6 0 0 1 0 9.68l-1.65-1.32a4 4 0 0 0 1.814-4.891A4 4 0 0 0 11.9 6.52zm-7.1 0L8.1 6.48a4 4 0 0 0-1.814 4.891A4 4 0 0 0 8.1 13.48l-1.65 1.36a6 6 0 0 1 0-9.68m10.29-2.55a10.01 10.01 0 0 1 2.881 10.127 10 10 0 0 1-2.881 4.653l-1.59-1.27a8 8 0 0 0 2.513-8.41 8 8 0 0 0-2.513-3.83zm-13.48 0 1.59 1.27a8 8 0 0 0-2.513 8.41 8 8 0 0 0 2.513 3.83l-1.59 1.27A10.01 10.01 0 0 1 .379 7.263 10 10 0 0 1 3.26 2.61" clip-path="url(#clip_frame30_path)"/>
	</g>
	<g opacity=".809" transform="translate(620)">
		<defs>
			<clipPath id="clip_frame31_path">
				<path d="M10 6.686c-.723 0-1.428.24-2.001.679a3.25 3.25 0 0 0-1.172 3.52 3.28 3.28 0 0 0 1.172 1.75 3.3 3.3 0 0 0 2.001.679c.723 0 1.428-.24 2.001-.679a3.25 3.25 0 0 0 1.172-3.52 3.28 3.28 0 0 0-1.172-1.75A3.3 3.3 0 0 0 10 6.686"/>
			</clipPath>
		</defs>
		<path fill="#14866d" d="M10 8a2 2 0 1 1-.001 4.001A2 2 0 0 1 10 8m3.55-2.84a6 6 0 0 1 0 9.68l-1.65-1.32a4 4 0 0 0 1.814-4.891A4 4 0 0 0 11.9 6.52zm-7.1 0L8.1 6.48a4 4 0 0 0-1.814 4.891A4 4 0 0 0 8.1 13.48l-1.65 1.36a6 6 0 0 1 0-9.68m10.29-2.55a10.01 10.01 0 0 1 2.881 10.127 10 10 0 0 1-2.881 4.653l-1.59-1.27a8 8 0 0 0 2.513-8.41 8 8 0 0 0-2.513-3.83zm-13.48 0 1.59 1.27a8 8 0 0 0-2.513 8.41 8 8 0 0 0 2.513 3.83l-1.59 1.27A10.01 10.01 0 0 1 .379 7.263 10 10 0 0 1 3.26 2.61" clip-path="url(#clip_frame31_path)"/>
	</g>
	<g opacity=".836" transform="translate(640)">
		<defs>
			<clipPath id="clip_frame32_path">
				<path d="M10 5.745c-.995 0-1.958.354-2.714.996a4.04 4.04 0 0 0-1.42 4.02 4.195 4.195 0 0 0 6.848 2.498 4.04 4.04 0 0 0 1.42-4.02A4.195 4.195 0 0 0 10 5.745"/>
			</clipPath>
		</defs>
		<path fill="#14866d" d="M10 8a2 2 0 1 1-.001 4.001A2 2 0 0 1 10 8m3.55-2.84a6 6 0 0 1 0 9.68l-1.65-1.32a4 4 0 0 0 1.814-4.891A4 4 0 0 0 11.9 6.52zm-7.1 0L8.1 6.48a4 4 0 0 0-1.814 4.891A4 4 0 0 0 8.1 13.48l-1.65 1.36a6 6 0 0 1 0-9.68m10.29-2.55a10.01 10.01 0 0 1 2.881 10.127 10 10 0 0 1-2.881 4.653l-1.59-1.27a8 8 0 0 0 2.513-8.41 8 8 0 0 0-2.513-3.83zm-13.48 0 1.59 1.27a8 8 0 0 0-2.513 8.41 8 8 0 0 0 2.513 3.83l-1.59 1.27A10.01 10.01 0 0 1 .379 7.263 10 10 0 0 1 3.26 2.61" clip-path="url(#clip_frame32_path)"/>
	</g>
	<g opacity=".881" transform="translate(660)">
		<defs>
			<clipPath id="clip_frame33_path">
				<path d="M10 4.177A5.77 5.77 0 0 0 6.096 5.7a5.51 5.51 0 0 0-1.831 4.853A5.74 5.74 0 0 0 6.096 14.3a5.766 5.766 0 0 0 7.808 0 5.51 5.51 0 0 0 1.831-4.853A5.74 5.74 0 0 0 13.904 5.7 5.77 5.77 0 0 0 10 4.177"/>
			</clipPath>
		</defs>
		<path fill="#14866d" d="M10 8a2 2 0 1 1-.001 4.001A2 2 0 0 1 10 8m3.55-2.84a6 6 0 0 1 0 9.68l-1.65-1.32a4 4 0 0 0 1.814-4.891A4 4 0 0 0 11.9 6.52zm-7.1 0L8.1 6.48a4 4 0 0 0-1.814 4.891A4 4 0 0 0 8.1 13.48l-1.65 1.36a6 6 0 0 1 0-9.68m10.29-2.55a10.01 10.01 0 0 1 2.881 10.127 10 10 0 0 1-2.881 4.653l-1.59-1.27a8 8 0 0 0 2.513-8.41 8 8 0 0 0-2.513-3.83zm-13.48 0 1.59 1.27a8 8 0 0 0-2.513 8.41 8 8 0 0 0 2.513 3.83l-1.59 1.27A10.01 10.01 0 0 1 .379 7.263 10 10 0 0 1 3.26 2.61" clip-path="url(#clip_frame33_path)"/>
	</g>
	<g opacity=".943" transform="translate(680)">
		<defs>
			<clipPath id="clip_frame34_path">
				<path d="M10 1.981c-2.08 0-4.079.813-5.568 2.263a7.78 7.78 0 0 0-2.409 6.018 7.97 7.97 0 0 0 2.409 5.494 7.984 7.984 0 0 0 11.136 0 7.8 7.8 0 0 0 2.409-6.018 7.97 7.97 0 0 0-2.409-5.494A7.98 7.98 0 0 0 10 1.981"/>
			</clipPath>
		</defs>
		<path fill="#14866d" d="M10 8a2 2 0 1 1-.001 4.001A2 2 0 0 1 10 8m3.55-2.84a6 6 0 0 1 0 9.68l-1.65-1.32a4 4 0 0 0 1.814-4.891A4 4 0 0 0 11.9 6.52zm-7.1 0L8.1 6.48a4 4 0 0 0-1.814 4.891A4 4 0 0 0 8.1 13.48l-1.65 1.36a6 6 0 0 1 0-9.68m10.29-2.55a10.01 10.01 0 0 1 2.881 10.127 10 10 0 0 1-2.881 4.653l-1.59-1.27a8 8 0 0 0 2.513-8.41 8 8 0 0 0-2.513-3.83zm-13.48 0 1.59 1.27a8 8 0 0 0-2.513 8.41 8 8 0 0 0 2.513 3.83l-1.59 1.27A10.01 10.01 0 0 1 .379 7.263 10 10 0 0 1 3.26 2.61" clip-path="url(#clip_frame34_path)"/>
	</g>
	<g opacity=".988" transform="translate(700)">
		<defs>
			<clipPath id="clip_frame35_path">
				<path d="M10 .424A9.57 9.57 0 0 0 3.251 3.21a9.5 9.5 0 0 0-2.818 6.846 9.566 9.566 0 0 0 16.316 6.734 9.5 9.5 0 0 0 2.818-6.846A9.566 9.566 0 0 0 10 .424"/>
			</clipPath>
		</defs>
		<path fill="#14866d" d="M10 8a2 2 0 1 1-.001 4.001A2 2 0 0 1 10 8m3.55-2.84a6 6 0 0 1 0 9.68l-1.65-1.32a4 4 0 0 0 1.814-4.891A4 4 0 0 0 11.9 6.52zm-7.1 0L8.1 6.48a4 4 0 0 0-1.814 4.891A4 4 0 0 0 8.1 13.48l-1.65 1.36a6 6 0 0 1 0-9.68m10.29-2.55a10.01 10.01 0 0 1 2.881 10.127 10 10 0 0 1-2.881 4.653l-1.59-1.27a8 8 0 0 0 2.513-8.41 8 8 0 0 0-2.513-3.83zm-13.48 0 1.59 1.27a8 8 0 0 0-2.513 8.41 8 8 0 0 0 2.513 3.83l-1.59 1.27A10.01 10.01 0 0 1 .379 7.263 10 10 0 0 1 3.26 2.61" clip-path="url(#clip_frame35_path)"/>
	</g>
	<g opacity=".955" transform="translate(720)">
		<defs>
			<clipPath id="clip_frame36_path">
				<path d="M10 1.561a8.4 8.4 0 0 0-5.888 2.403 8.24 8.24 0 0 0-2.519 6.243A8.403 8.403 0 0 0 10 18.439a8.4 8.4 0 0 0 5.888-2.403 8.2 8.2 0 0 0 1.927-2.856 8.3 8.3 0 0 0 .592-3.387A8.403 8.403 0 0 0 10 1.561"/>
			</clipPath>
		</defs>
		<path fill="#14866d" d="M10 8a2 2 0 1 1-.001 4.001A2 2 0 0 1 10 8m3.55-2.84a6 6 0 0 1 0 9.68l-1.65-1.32a4 4 0 0 0 1.814-4.891A4 4 0 0 0 11.9 6.52zm-7.1 0L8.1 6.48a4 4 0 0 0-1.814 4.891A4 4 0 0 0 8.1 13.48l-1.65 1.36a6 6 0 0 1 0-9.68m10.29-2.55a10.01 10.01 0 0 1 2.881 10.127 10 10 0 0 1-2.881 4.653l-1.59-1.27a8 8 0 0 0 2.513-8.41 8 8 0 0 0-2.513-3.83zm-13.48 0 1.59 1.27a8 8 0 0 0-2.513 8.41 8 8 0 0 0 2.513 3.83l-1.59 1.27A10.01 10.01 0 0 1 .379 7.263 10 10 0 0 1 3.26 2.61" clip-path="url(#clip_frame36_path)"/>
	</g>
	<g opacity=".941" transform="translate(740)">
		<defs>
			<clipPath id="clip_frame37_path">
				<path d="M10 2.07c-2.054 0-4.03.801-5.502 2.232A7.7 7.7 0 0 0 2.649 7.03a7.7 7.7 0 0 0-.536 3.244 7.88 7.88 0 0 0 2.385 5.424 7.897 7.897 0 0 0 11.004 0 7.69 7.69 0 0 0 2.385-5.972 7.88 7.88 0 0 0-2.385-5.424A7.9 7.9 0 0 0 10 2.07"/>
			</clipPath>
		</defs>
		<path fill="#14866d" d="M10 8a2 2 0 1 1-.001 4.001A2 2 0 0 1 10 8m3.55-2.84a6 6 0 0 1 0 9.68l-1.65-1.32a4 4 0 0 0 1.814-4.891A4 4 0 0 0 11.9 6.52zm-7.1 0L8.1 6.48a4 4 0 0 0-1.814 4.891A4 4 0 0 0 8.1 13.48l-1.65 1.36a6 6 0 0 1 0-9.68m10.29-2.55a10.01 10.01 0 0 1 2.881 10.127 10 10 0 0 1-2.881 4.653l-1.59-1.27a8 8 0 0 0 2.513-8.41 8 8 0 0 0-2.513-3.83zm-13.48 0 1.59 1.27a8 8 0 0 0-2.513 8.41 8 8 0 0 0 2.513 3.83l-1.59 1.27A10.01 10.01 0 0 1 .379 7.263 10 10 0 0 1 3.26 2.61" clip-path="url(#clip_frame37_path)"/>
	</g>
	<g opacity=".944" transform="translate(760)">
		<defs>
			<clipPath id="clip_frame38_path">
				<path d="M10 1.951a8.02 8.02 0 0 0-5.591 2.273 7.82 7.82 0 0 0-2.417 6.034 8 8 0 0 0 2.417 5.518c1.495 1.456 3.503 2.273 5.591 2.273s4.096-.817 5.591-2.273a7.8 7.8 0 0 0 2.417-6.034 8 8 0 0 0-2.417-5.518A8.02 8.02 0 0 0 10 1.951"/>
			</clipPath>
		</defs>
		<path fill="#14866d" d="M10 8a2 2 0 1 1-.001 4.001A2 2 0 0 1 10 8m3.55-2.84a6 6 0 0 1 0 9.68l-1.65-1.32a4 4 0 0 0 1.814-4.891A4 4 0 0 0 11.9 6.52zm-7.1 0L8.1 6.48a4 4 0 0 0-1.814 4.891A4 4 0 0 0 8.1 13.48l-1.65 1.36a6 6 0 0 1 0-9.68m10.29-2.55a10.01 10.01 0 0 1 2.881 10.127 10 10 0 0 1-2.881 4.653l-1.59-1.27a8 8 0 0 0 2.513-8.41 8 8 0 0 0-2.513-3.83zm-13.48 0 1.59 1.27a8 8 0 0 0-2.513 8.41 8 8 0 0 0 2.513 3.83l-1.59 1.27A10.01 10.01 0 0 1 .379 7.263 10 10 0 0 1 3.26 2.61" clip-path="url(#clip_frame38_path)"/>
	</g>
	<g opacity=".966" transform="translate(780)">
		<defs>
			<clipPath id="clip_frame39_path">
				<path d="M10 1.206a8.78 8.78 0 0 0-6.157 2.523 8.64 8.64 0 0 0-2.612 6.431A8.765 8.765 0 0 0 10 18.794a8.78 8.78 0 0 0 6.157-2.523 8.63 8.63 0 0 0 2.612-6.431A8.765 8.765 0 0 0 10 1.206"/>
			</clipPath>
		</defs>
		<path fill="#14866d" d="M10 8a2 2 0 1 1-.001 4.001A2 2 0 0 1 10 8m3.55-2.84a6 6 0 0 1 0 9.68l-1.65-1.32a4 4 0 0 0 1.814-4.891A4 4 0 0 0 11.9 6.52zm-7.1 0L8.1 6.48a4 4 0 0 0-1.814 4.891A4 4 0 0 0 8.1 13.48l-1.65 1.36a6 6 0 0 1 0-9.68m10.29-2.55a10.01 10.01 0 0 1 2.881 10.127 10 10 0 0 1-2.881 4.653l-1.59-1.27a8 8 0 0 0 2.513-8.41 8 8 0 0 0-2.513-3.83zm-13.48 0 1.59 1.27a8 8 0 0 0-2.513 8.41 8 8 0 0 0 2.513 3.83l-1.59 1.27A10.01 10.01 0 0 1 .379 7.263 10 10 0 0 1 3.26 2.61" clip-path="url(#clip_frame39_path)"/>
	</g>
	<g opacity=".997" transform="translate(800)">
		<defs>
			<clipPath id="clip_frame40_path">
				<path d="M10 .092a9.91 9.91 0 0 0-9.906 9.92A9.907 9.907 0 1 0 17.001 2.99 9.9 9.9 0 0 0 10 .092"/>
			</clipPath>
		</defs>
		<path fill="#14866d" d="M10 8a2 2 0 1 1-.001 4.001A2 2 0 0 1 10 8m3.55-2.84a6 6 0 0 1 0 9.68l-1.65-1.32a4 4 0 0 0 1.814-4.891A4 4 0 0 0 11.9 6.52zm-7.1 0L8.1 6.48a4 4 0 0 0-1.814 4.891A4 4 0 0 0 8.1 13.48l-1.65 1.36a6 6 0 0 1 0-9.68m10.29-2.55a10.01 10.01 0 0 1 2.881 10.127 10 10 0 0 1-2.881 4.653l-1.59-1.27a8 8 0 0 0 2.513-8.41 8 8 0 0 0-2.513-3.83zm-13.48 0 1.59 1.27a8 8 0 0 0-2.513 8.41 8 8 0 0 0 2.513 3.83l-1.59 1.27A10.01 10.01 0 0 1 .379 7.263 10 10 0 0 1 3.26 2.61" clip-path="url(#clip_frame40_path)"/>
	</g>
	<g opacity=".981" transform="translate(820)">
		<defs>
			<clipPath id="clip_frame41_path">
				<path d="M10 .652a9.34 9.34 0 0 0-6.577 2.709 9.26 9.26 0 0 0-2.758 6.725A9.337 9.337 0 0 0 10 19.348a9.34 9.34 0 0 0 6.577-2.709 9.27 9.27 0 0 0 2.758-6.725A9.337 9.337 0 0 0 10 .652"/>
			</clipPath>
		</defs>
		<path fill="#14866d" d="M10 8a2 2 0 1 1-.001 4.001A2 2 0 0 1 10 8m3.55-2.84a6 6 0 0 1 0 9.68l-1.65-1.32a4 4 0 0 0 1.814-4.891A4 4 0 0 0 11.9 6.52zm-7.1 0L8.1 6.48a4 4 0 0 0-1.814 4.891A4 4 0 0 0 8.1 13.48l-1.65 1.36a6 6 0 0 1 0-9.68m10.29-2.55a10.01 10.01 0 0 1 2.881 10.127 10 10 0 0 1-2.881 4.653l-1.59-1.27a8 8 0 0 0 2.513-8.41 8 8 0 0 0-2.513-3.83zm-13.48 0 1.59 1.27a8 8 0 0 0-2.513 8.41 8 8 0 0 0 2.513 3.83l-1.59 1.27A10.01 10.01 0 0 1 .379 7.263 10 10 0 0 1 3.26 2.61" clip-path="url(#clip_frame41_path)"/>
	</g>
	<g opacity=".983" transform="translate(840)">
		<defs>
			<clipPath id="clip_frame42_path">
				<path d="M10 .584a9.4 9.4 0 0 0-6.628 2.733 9.32 9.32 0 0 0-2.776 6.76 9.405 9.405 0 0 0 16.032 6.606 9.35 9.35 0 0 0 2.776-6.76A9.405 9.405 0 0 0 10 .584"/>
			</clipPath>
		</defs>
		<path fill="#14866d" d="M10 8a2 2 0 1 1-.001 4.001A2 2 0 0 1 10 8m3.55-2.84a6 6 0 0 1 0 9.68l-1.65-1.32a4 4 0 0 0 1.814-4.891A4 4 0 0 0 11.9 6.52zm-7.1 0L8.1 6.48a4 4 0 0 0-1.814 4.891A4 4 0 0 0 8.1 13.48l-1.65 1.36a6 6 0 0 1 0-9.68m10.29-2.55a10.01 10.01 0 0 1 2.881 10.127 10 10 0 0 1-2.881 4.653l-1.59-1.27a8 8 0 0 0 2.513-8.41 8 8 0 0 0-2.513-3.83zm-13.48 0 1.59 1.27a8 8 0 0 0-2.513 8.41 8 8 0 0 0 2.513 3.83l-1.59 1.27A10.01 10.01 0 0 1 .379 7.263 10 10 0 0 1 3.26 2.61" clip-path="url(#clip_frame42_path)"/>
	</g>
	<g opacity=".998" transform="translate(860)">
		<defs>
			<clipPath id="clip_frame43_path">
				<path d="M10 .071a9.928 9.928 0 1 0 0 19.856A9.928 9.928 0 0 0 10 .07z"/>
			</clipPath>
		</defs>
		<path fill="#14866d" d="M10 8a2 2 0 1 1-.001 4.001A2 2 0 0 1 10 8m3.55-2.84a6 6 0 0 1 0 9.68l-1.65-1.32a4 4 0 0 0 1.814-4.891A4 4 0 0 0 11.9 6.52zm-7.1 0L8.1 6.48a4 4 0 0 0-1.814 4.891A4 4 0 0 0 8.1 13.48l-1.65 1.36a6 6 0 0 1 0-9.68m10.29-2.55a10.01 10.01 0 0 1 2.881 10.127 10 10 0 0 1-2.881 4.653l-1.59-1.27a8 8 0 0 0 2.513-8.41 8 8 0 0 0-2.513-3.83zm-13.48 0 1.59 1.27a8 8 0 0 0-2.513 8.41 8 8 0 0 0 2.513 3.83l-1.59 1.27A10.01 10.01 0 0 1 .379 7.263 10 10 0 0 1 3.26 2.61" clip-path="url(#clip_frame43_path)"/>
	</g>
	<g opacity=".99" transform="translate(880)">
		<defs>
			<clipPath id="clip_frame44_path">
				<path d="M10 .349a9.64 9.64 0 0 0-6.806 2.812 9.58 9.58 0 0 0-2.838 6.885 9.645 9.645 0 0 0 16.45 6.793 9.6 9.6 0 0 0 2.115-3.158 9.6 9.6 0 0 0 .723-3.727A9.645 9.645 0 0 0 10 .349"/>
			</clipPath>
		</defs>
		<path fill="#14866d" d="M10 8a2 2 0 1 1-.001 4.001A2 2 0 0 1 10 8m3.55-2.84a6 6 0 0 1 0 9.68l-1.65-1.32a4 4 0 0 0 1.814-4.891A4 4 0 0 0 11.9 6.52zm-7.1 0L8.1 6.48a4 4 0 0 0-1.814 4.891A4 4 0 0 0 8.1 13.48l-1.65 1.36a6 6 0 0 1 0-9.68m10.29-2.55a10.01 10.01 0 0 1 2.881 10.127 10 10 0 0 1-2.881 4.653l-1.59-1.27a8 8 0 0 0 2.513-8.41 8 8 0 0 0-2.513-3.83zm-13.48 0 1.59 1.27a8 8 0 0 0-2.513 8.41 8 8 0 0 0 2.513 3.83l-1.59 1.27A10.01 10.01 0 0 1 .379 7.263 10 10 0 0 1 3.26 2.61" clip-path="url(#clip_frame44_path)"/>
	</g>
	<g transform="translate(900)">
		<defs>
			<clipPath id="clip_frame45_path">
				<path d="M10 0A10.003 10.003 0 0 0 0 10a10.003 10.003 0 0 0 10 10 10.003 10.003 0 0 0 10-10A10.003 10.003 0 0 0 10 0"/>
			</clipPath>
		</defs>
		<path fill="#14866d" d="M10 8a2 2 0 1 1-.001 4.001A2 2 0 0 1 10 8m3.55-2.84a6 6 0 0 1 0 9.68l-1.65-1.32a4 4 0 0 0 1.814-4.891A4 4 0 0 0 11.9 6.52zm-7.1 0L8.1 6.48a4 4 0 0 0-1.814 4.891A4 4 0 0 0 8.1 13.48l-1.65 1.36a6 6 0 0 1 0-9.68m10.29-2.55a10.01 10.01 0 0 1 2.881 10.127 10 10 0 0 1-2.881 4.653l-1.59-1.27a8 8 0 0 0 2.513-8.41 8 8 0 0 0-2.513-3.83zm-13.48 0 1.59 1.27a8 8 0 0 0-2.513 8.41 8 8 0 0 0 2.513 3.83l-1.59 1.27A10.01 10.01 0 0 1 .379 7.263 10 10 0 0 1 3.26 2.61" clip-path="url(#clip_frame45_path)"/>
	</g>
</svg>
