<svg xmlns="http://www.w3.org/2000/svg" viewBox="0 0 20 20">
	<title>mentor-rtl</title>
	<circle cx="8" cy="4.5" r="4.5"/>
	<path d="M15 10s-5 0-5 1.25C10 14.7 11.55 20 15 20s5-5.3 5-8.75C20 10 15 10 15 10m.62 8.75h-1.24V17.5h1.24zm.58-4.94a1.93 1.93 0 0 0-.3-1.14 1.12 1.12 0 0 0-1-.42 1 1 0 0 0-.32.06.9.9 0 0 0-.33.2 1 1 0 0 0-.27.36 1.3 1.3 0 0 0-.11.54 1.3 1.3 0 0 0 .07.45 1.1 1.1 0 0 0 .19.34 2.4 2.4 0 0 0 .27.28l.32.27a3 3 0 0 1 .36.36 1.8 1.8 0 0 1 .26.42 2.2 2.2 0 0 1 .15.56 6 6 0 0 1 .05.79h-1.1a3 3 0 0 0-.06-.64 1.5 1.5 0 0 0-.2-.46 1.6 1.6 0 0 0-.29-.35c-.11-.11-.23-.21-.37-.33l-.33-.29a2.5 2.5 0 0 1-.3-.35 1.5 1.5 0 0 1-.21-.46 2.4 2.4 0 0 1-.08-.63 2.1 2.1 0 0 1 .18-.9 1.85 1.85 0 0 1 .49-.67 2.1 2.1 0 0 1 .72-.41 2.9 2.9 0 0 1 .89-.14 2.9 2.9 0 0 1 1 .18 2.4 2.4 0 0 1 .79.52 2.3 2.3 0 0 1 .51.81 3.1 3.1 0 0 1 .17 1.05zM9 10.5a.6.6 0 0 1 .22-.45C8.83 10 8.43 10 8 10c-5.92 0-8 3-8 5v3h10.77A13.67 13.67 0 0 1 9 11.25z"/>
</svg>
