<svg xmlns="http://www.w3.org/2000/svg" viewBox="0 0 20 20">
	<title>mentor-rtl</title>
	<circle cx="8" cy="4.5" r="4.5"/>
	<path d="M15 10s-5 0-5 1.25C10 14.7 11.55 20 15 20s5-5.3 5-8.75C20 10 15 10 15 10zm.62 8.75h-1.24V17.5h1.24zm.58-4.94a1.93 1.93 0 0 0-.3-1.14 1.12 1.12 0 0 0-1-.42 1 1 0 0 0-.32.06.94.94 0 0 0-.33.2 1 1 0 0 0-.27.36 1.27 1.27 0 0 0-.11.54 1.25 1.25 0 0 0 .07.45 1.14 1.14 0 0 0 .19.34 2.37 2.37 0 0 0 .27.28l.32.27a3.05 3.05 0 0 1 .36.36 1.75 1.75 0 0 1 .26.42 2.18 2.18 0 0 1 .15.56 5.83 5.83 0 0 1 .05.79h-1.1a2.84 2.84 0 0 0-.06-.64 1.49 1.49 0 0 0-.2-.46 1.64 1.64 0 0 0-.29-.35c-.11-.11-.23-.21-.37-.33l-.33-.29a2.52 2.52 0 0 1-.3-.35 1.5 1.5 0 0 1-.21-.46 2.35 2.35 0 0 1-.08-.63 2.13 2.13 0 0 1 .18-.9 1.85 1.85 0 0 1 .49-.67 2.12 2.12 0 0 1 .72-.41 2.86 2.86 0 0 1 .89-.14 2.89 2.89 0 0 1 1 .18 2.41 2.41 0 0 1 .79.52 2.33 2.33 0 0 1 .51.81 3.12 3.12 0 0 1 .17 1.05zM9 10.5a.61.61 0 0 1 .22-.45C8.83 10 8.43 10 8 10c-5.92 0-8 3-8 5v3h10.77A13.67 13.67 0 0 1 9 11.25z"/>
</svg>
