<svg xmlns="http://www.w3.org/2000/svg" viewBox="0 0 20 20">
	<title>mentor-ltr</title>
	<circle cx="8" cy="4.5" r="4.5"/>
	<path d="M15 10s-5 0-5 1.25C10 14.7 11.55 20 15 20s5-5.3 5-8.75C20 10 15 10 15 10m.62 8.75h-1.24V17.5h1.24zm1.7-4.75a1.5 1.5 0 0 1-.21.46 2.5 2.5 0 0 1-.3.35l-.33.29c-.14.12-.26.22-.37.33a1.6 1.6 0 0 0-.29.35 1.5 1.5 0 0 0-.2.46 3 3 0 0 0-.06.64h-1.14a6 6 0 0 1 .05-.79 2.2 2.2 0 0 1 .15-.56 1.8 1.8 0 0 1 .26-.42 3 3 0 0 1 .36-.36l.32-.27a2.4 2.4 0 0 0 .27-.28 1.1 1.1 0 0 0 .19-.34 1.3 1.3 0 0 0 .07-.45 1.3 1.3 0 0 0-.11-.54 1 1 0 0 0-.27-.36.9.9 0 0 0-.33-.2 1 1 0 0 0-.32-.06 1.12 1.12 0 0 0-1 .42 1.93 1.93 0 0 0-.3 1.14H12.6a3.1 3.1 0 0 1 .17-1.05 2.3 2.3 0 0 1 .51-.81 2.4 2.4 0 0 1 .79-.52 2.9 2.9 0 0 1 1-.18 2.9 2.9 0 0 1 .89.14 2.1 2.1 0 0 1 .72.41 1.85 1.85 0 0 1 .49.67 2.1 2.1 0 0 1 .18.9 2.4 2.4 0 0 1-.03.63m-7.56 1.49A10.4 10.4 0 0 1 9 12a1.1 1.1 0 0 1 .05-.33c0-.4-.05-.8-.05-1.17a.6.6 0 0 1 .22-.45C8.83 10 8.43 10 8 10c-5.92 0-8 3-8 5v3h10.81a12.5 12.5 0 0 1-1.05-2.51"/>
</svg>
