<svg xmlns="http://www.w3.org/2000/svg" width="210" height="183" viewBox="0 0 210 183">
	<g filter="url(#filter0_d_3470_112901)">
		<path fill="#3161c5" d="M149.549 61.9 74.626 47.715a9.53 9.53 0 0 0-11.139 7.592L47.53 139.595l22.277-15.184 65.558 12.412c5.172.979 10.159-2.42 11.138-7.592l10.639-56.192c.979-5.173-2.42-10.16-7.592-11.139Zm-22.278 15.187a7.148 7.148 0 1 1-2.66 14.048 7.15 7.15 0 0 1 2.66-14.048M89.81 69.995a7.149 7.149 0 1 1-2.66 14.048 7.149 7.149 0 0 1 2.66-14.048m11.638 41.01c-12.222-2.314-22.024-7.419-23.798-19.057l52.915 10.018c-5.906 10.184-16.896 11.353-29.117 9.039"/>
	</g>
	<path fill="#95dbcd" d="m199.871 135.212-17.887 4.313a2.3 2.3 0 0 0-1.697 2.775l4.852 20.122 3.394-5.55 15.651-3.774a2.3 2.3 0 0 0 1.697-2.775l-3.235-13.415a2.3 2.3 0 0 0-2.775-1.696m-3.393 5.55a1.726 1.726 0 1 1 .807 3.356 1.726 1.726 0 0 1-.807-3.356m-8.944 2.157a1.724 1.724 0 1 1 .809 3.353 1.724 1.724 0 0 1-.809-3.353m6.628 7.864c-2.917.704-5.58.553-7.125-1.83l12.633-3.046c-.289 2.825-2.59 4.173-5.508 4.876"/>
	<path fill="#fcefc6" d="M15.416 46.91 1.789 59.273a2.3 2.3 0 0 0-.158 3.249l13.909 15.33.316-6.498 11.923-10.817a2.3 2.3 0 0 0 .158-3.25l-9.272-10.22a2.3 2.3 0 0 0-3.25-.157Zm-.315 6.498a1.725 1.725 0 1 1 2.318 2.555 1.725 1.725 0 0 1-2.318-2.555M8.287 59.59a1.725 1.725 0 1 1 2.318 2.555 1.725 1.725 0 0 1-2.318-2.555m9.589 3.722c-2.223 2.017-4.632 3.161-7.13 1.81l9.624-8.731c1.102 2.618-.271 4.904-2.494 6.92Z"/>
	<path fill="#fbe8e6" d="M113.599 2.112 101.747.235a1.5 1.5 0 0 0-1.716 1.247l-2.112 13.333 3.433-2.493 10.37 1.642a1.5 1.5 0 0 0 1.716-1.247l1.408-8.889a1.5 1.5 0 0 0-1.247-1.716m-3.432 2.494a1.125 1.125 0 1 1-.351 2.224 1.125 1.125 0 0 1 .351-2.224m-5.926-.938a1.126 1.126 0 1 1-.353 2.223 1.126 1.126 0 0 1 .353-2.223m2.025 6.395c-1.934-.306-3.5-1.063-3.834-2.885l8.371 1.325c-.881 1.63-2.604 1.866-4.537 1.56"/>
	<path fill="#adbee5" d="M102.8 171h-9.6a1.2 1.2 0 0 0-1.2 1.2V183l2.4-2.4h8.4a1.2 1.2 0 0 0 1.2-1.2v-7.2a1.2 1.2 0 0 0-1.2-1.2m-2.4 2.4a.9.9 0 1 1 0 1.8.9.9 0 0 1 0-1.8m-4.8 0a.9.9 0 1 1 0 1.8.9.9 0 0 1 0-1.8m2.4 4.8c-1.566 0-2.898-.402-3.39-1.8h6.78c-.492 1.398-1.824 1.8-3.39 1.8M9.169 148.856h-8a1 1 0 0 0-1 1v9l2-2h7a1 1 0 0 0 1-1v-6a1 1 0 0 0-1-1m-2 2a.75.75 0 1 1 0 1.5.75.75 0 0 1 0-1.5m-4 0a.75.75 0 1 1 0 1.5.75.75 0 0 1 0-1.5m2 4c-1.305 0-2.415-.335-2.825-1.5h5.65c-.41 1.165-1.52 1.5-2.825 1.5"/>
	<path fill="#e0f3ee" d="M208.8 61h-9.6a1.2 1.2 0 0 0-1.2 1.2V73l2.4-2.4h8.4a1.2 1.2 0 0 0 1.2-1.2v-7.2a1.2 1.2 0 0 0-1.2-1.2m-2.4 2.4a.9.9 0 1 1 0 1.8.9.9 0 0 1 0-1.8m-4.8 0a.9.9 0 1 1 0 1.8.9.9 0 0 1 0-1.8m2.4 4.8c-1.566 0-2.898-.402-3.39-1.8h6.78c-.492 1.398-1.824 1.8-3.39 1.8"/>
	<defs>
		<filter id="filter0_d_3470_112901" width="113.78" height="96.049" x="45.529" y="47.547" color-interpolation-filters="sRGB" filterUnits="userSpaceOnUse">
			<feFlood flood-opacity="0" result="BackgroundImageFix"/>
			<feColorMatrix in="SourceAlpha" result="hardAlpha" values="0 0 0 0 0 0 0 0 0 0 0 0 0 0 0 0 0 0 127 0"/>
			<feOffset dy="2"/>
			<feGaussianBlur stdDeviation="1"/>
			<feComposite in2="hardAlpha" operator="out"/>
			<feColorMatrix values="0 0 0 0 0 0 0 0 0 0 0 0 0 0 0 0 0 0 0.25 0"/>
			<feBlend in2="BackgroundImageFix" result="effect1_dropShadow_3470_112901"/>
			<feBlend in="SourceGraphic" in2="effect1_dropShadow_3470_112901" result="shape"/>
		</filter>
	</defs>
</svg>
