<svg xmlns="http://www.w3.org/2000/svg" width="400" height="64">
    <defs>
        <path id="strikethrough-s" d="M5.6 9h5.89l-.39-.16-1.43-.47a7.06 7.06 0 01-1.25-.52 2.86 2.86 0 01-.88-.72 1.64 1.64 0 01-.34-1.06 2.32 2.32 0 01.18-.92 2 2 0 01.54-.73 2.53 2.53 0 01.88-.48 3.89 3.89 0 011.2-.18 3.9 3.9 0 011.3.24 5.83 5.83 0 01.94.41q.4.22.67.41a.9.9 0 00.49.18.58.58 0 00.35-.1 1 1 0 00.25-.34l.66-1.29A6 6 0 0012.61 2 7.37 7.37 0 0010 1.54a6.11 6.11 0 00-2.26.39A5 5 0 006.07 3a4.48 4.48 0 00-1.38 3.21A4.66 4.66 0 005 8.09a4 4 0 00.6.91zM19 11H1v2h11.4a2.27 2.27 0 01.08.58 2.5 2.5 0 01-.8 2 3.29 3.29 0 01-2.26.71A4.31 4.31 0 017.87 16a6 6 0 01-1.1-.54q-.46-.29-.78-.54a1 1 0 00-.59-.25.7.7 0 00-.36.09.76.76 0 00-.27.25L4 16.32a6.43 6.43 0 001.07.9 7.18 7.18 0 001.28.69 8 8 0 001.44.44 7.67 7.67 0 001.55.16 6.53 6.53 0 002.4-.41 5.11 5.11 0 001.77-1.13 4.88 4.88 0 001.1-1.69 5.62 5.62 0 00.39-2.09V13h4z"/>
        <path id="references" d="M0 3v16h5V3zm4 12H1v-1h3zm0-3H1v-1h3zm2-9v16h5V3zm4 12H7v-1h3zm0-3H7v-1h3zm1-8.5l4.1 15.4 4.8-1.3-4-15.3zm7 10.6l-2.9.8-.3-1 2.9-.8zm-.8-2.9l-2.9.8-.2-1 2.9-.8z"/>
        <path id="calendar" d="M15 3V1h-2v2H7V1H5v2H2a2 2 0 00-2 2v12a2 2 0 002 2h16a2 2 0 002-2V5a2 2 0 00-2-2zm3 14H2V8h16zm-2-6h-4v4h4z"/>
        <path id="stripe-summary" d="M1 7h18v2H1zm0 4h14v2H1z"/>
        <path id="article" d="M5 1a2 2 0 00-2 2v14a2 2 0 002 2h10a2 2 0 002-2V3a2 2 0 00-2-2zm0 3h5v1H5zm0 2h5v1H5zm0 2h5v1H5zm10 7H5v-1h10zm0-2H5v-1h10zm0-2H5v-1h10zm0-2h-4V4h4z"/>
        <g id="link">
            <path d="M4.83 15h2.91a4.88 4.88 0 01-1.55-2H5a3 3 0 110-6h3a3 3 0 012.82 4h2.1a4.82 4.82 0 00.08-.83v-.34A4.83 4.83 0 008.17 5H4.83A4.83 4.83 0 000 9.83v.34A4.83 4.83 0 004.83 15z"/>
            <path d="M15.17 5h-2.91a4.88 4.88 0 011.55 2H15a3 3 0 110 6h-3a3 3 0 01-2.82-4h-2.1a4.82 4.82 0 00-.08.83v.34A4.83 4.83 0 0011.83 15h3.34A4.83 4.83 0 0020 10.17v-.34A4.83 4.83 0 0015.17 5z"/>
        </g>
    </defs>
    <use x="5" y="9" fill="#14886d" href="#strikethrough-s" transform="scale(2)"/>
    <use x="40" y="9" fill="#14886d" href="#link" transform="scale(2)"/>
    <use x="75" y="9" fill="#ac6600" href="#references" transform="scale(2)"/>
    <use x="110" y="9" fill="#ac6600" href="#calendar" transform="scale(2)"/>
    <use x="145" y="9" fill="#b32424" href="#stripe-summary" transform="scale(2)"/>
    <use x="180" y="9" fill="#b32424" href="#article" transform="scale(2)"/>
</svg>
