<svg xmlns="http://www.w3.org/2000/svg" width="360" height="128" fill="none" viewBox="0 0 360 128">
	<path fill="#eaf3ff" d="M0 0h360v128H0z"/>
	<mask id="mask0_2_2006" width="360" height="128" x="0" y="0" maskUnits="userSpaceOnUse" style="mask-type:alpha">
		<path fill="#fff" d="M0 0h360v128H0z"/>
	</mask>
	<g mask="url(#mask0_2_2006)">
		<path fill="#fff" d="M311.365 74.511h33.774a7 7 0 0 0 .038-.758c0-4.047-3.231-7.327-7.217-7.327a7 7 0 0 0-.453.014c-.978-5.05-5.362-8.858-10.622-8.858-4.155 0-7.762 2.375-9.577 5.861-3.785.437-6.725 3.698-6.725 7.657 0 1.225.281 2.383.782 3.411M74.118 36.668h41.679q.047-.456.047-.923c0-4.927-3.988-8.92-8.907-8.92a9 9 0 0 0-.559.017c-1.207-6.147-6.617-10.784-13.108-10.784-5.127 0-9.579 2.892-11.819 7.136a9.38 9.38 0 0 0-8.298 9.321c0 1.491.347 2.9.965 4.153m86.248 45.914h-47.428a11 11 0 0 1-.053-1.054c0-5.631 4.537-10.196 10.135-10.196a10 10 0 0 1 .636.02c1.373-7.025 7.53-12.324 14.916-12.324 5.834 0 10.9 3.305 13.449 8.155 5.314.607 9.443 5.145 9.443 10.653 0 1.704-.395 3.315-1.098 4.746"/>
		<path fill="#fc3" d="M143.489 75h-9.318l2.313-2.717 1.668 1.818 2.334-2.725.335.404v-2.23h-2.669v-1.21h-3.981c-.354 0-.693.127-.943.354s-.391.535-.391.856v6.054c0 .322.141.63.391.857s.589.354.943.354h9.318c.354 0 .693-.127.943-.354s.391-.535.391-.857v-3.632h-3.837z"/>
		<path fill="#fc3" d="M143.489 67.128v-2.421h-1.334v2.421h-2.668v1.211h2.668v2.422h1.334v-2.422h2.668v-1.21h-2.668Z"/>
		<path fill="#fff" d="M49.935 108.162h-30.9a7 7 0 0 1-.035-.692c0-3.695 2.956-6.691 6.603-6.691a8 8 0 0 1 .415.013c.895-4.61 4.905-8.087 9.718-8.087 3.8 0 7.101 2.168 8.762 5.351 3.462.399 6.152 3.377 6.152 6.991a7.1 7.1 0 0 1-.715 3.115"/>
		<path fill="#14866d" fill-rule="evenodd" d="m38.183 99.918.857-.883a.44.44 0 0 0 0-.623l-1.475-1.457a.44.44 0 0 0-.623 0l-.865.857zm-2.566-1.638-4.398 4.399v2.097h2.097l4.399-4.398z" clip-rule="evenodd"/>
		<path fill="#fff" d="M76.57 98.969h33.774a7 7 0 0 0 .039-.725c0-3.871-3.232-7.01-7.218-7.01a7 7 0 0 0-.453.014c-.978-4.83-5.362-8.473-10.622-8.473-4.154 0-7.762 2.272-9.577 5.607-3.785.417-6.725 3.537-6.725 7.324 0 1.171.281 2.279.782 3.263"/>
		<path fill="#14866d" fill-rule="evenodd" d="m92.333 94.28-1.143 1.143a2.684 2.684 0 0 1-3.796 0l-.133-.134a2.684 2.684 0 0 1 0-3.795l1.312-1.312a2.684 2.684 0 0 1 3.796 0l.133.133q.163.165.295.358l-.825.825a1.667 1.667 0 0 0-2.68-.464l-1.179 1.179a1.667 1.667 0 0 0 2.358 2.357l.467-.467c.442.18.923.241 1.395.177m-2.153-5.705 1.143-1.144a2.684 2.684 0 0 1 3.796 0l.133.134a2.684 2.684 0 0 1 0 3.795l-1.312 1.313a2.684 2.684 0 0 1-3.795 0l-.134-.134a2.7 2.7 0 0 1-.295-.358l.826-.825a1.667 1.667 0 0 0 2.68.464l1.178-1.179a1.667 1.667 0 1 0-2.358-2.357l-.467.467a2.7 2.7 0 0 0-1.395-.176" clip-rule="evenodd"/>
		<path fill="#fff" d="M292.266 27.155h-42.397a9 9 0 0 1-.048-.956c0-5.103 4.056-9.24 9.06-9.24a9 9 0 0 1 .569.019c1.228-6.367 6.731-11.169 13.334-11.169 5.215 0 9.744 2.995 12.023 7.39 4.75.55 8.441 4.663 8.441 9.655a9.8 9.8 0 0 1-.982 4.3Z"/>
		<g clip-path="url(#clip0_2_2006)">
			<path fill="#d33" d="M268.774 13.464h8.833v1.178h-8.833zm0 3.533h6.072v1.178h-6.072zm0 3.533h3.864v1.178h-3.864zm9.804-1.831.595-.655a.34.34 0 0 0 .089-.23.34.34 0 0 0-.089-.23l-1.024-1.08a.3.3 0 0 0-.216-.095.3.3 0 0 0-.216.095l-.602.634 1.463 1.56zm-1.781-1.214-3.055 3.258v1.554h1.457l3.055-3.258z"/>
		</g>
		<path fill="#14866d" d="m74.31 85.31 10.39 4.618-10.39 4.618v-9.237Z"/>
		<path fill="#ebebeb" d="M72 83h2.309v31.174H72z"/>
		<path fill="#f6f6f6" d="M73.154 83h1.155v31.174h-1.155z"/>
		<path fill="#c80000" d="M249.563 10.383h12.285l-2.835 3.78 2.835 3.78h-9.922z"/>
		<path fill="#f34848" d="M243.893 8.493h9.45l2.835 7.56h-12.285z"/>
		<path fill="#960000" d="M251.453 16.053h4.725l-4.252 1.89z"/>
		<path fill="#ebebeb" d="M242.003 6.603h1.89v25.515h-1.89z"/>
		<path fill="#f6f6f6" d="M242.948 6.603h.945v25.515h-.945z"/>
		<path fill="#fc3" d="M173.493 51.343h12.171l-3.175 4.234 3.175 4.233h-12.171z"/>
		<path fill="#ebebeb" d="M171.376 48.168h2.117v28.576h-2.117z"/>
		<path fill="#f6f6f6" d="M172.434 48.168h1.058v28.576h-1.058z"/>
		<path fill="#c8ccd1" d="M243.233 28 133.397 144.195H356z"/>
		<path fill="#a2a9b1" d="M243.233 28 133.397 144.195h110.452z"/>
		<path fill="#fff" d="m206.466 71.946 6.543-11.9L243.233 28l34.12 35.178 2.181 12.525-15.268-13.778-4.362 6.89-9.815-6.89-6.544 11.273-7.634-13.151-16.358 18.788v-16.91l-13.087 10.02Z"/>
		<path fill="#ebebeb" d="m206.466 71.946 6.597-11.9L243.233 28l.617 45.198-7.697-13.151-16.493 18.788v-16.91z"/>
		<path fill="#a2a9b1" d="m172.754 68 86.924 76.195H83.828z"/>
		<path fill="#c8ccd1" d="m172.424 68.29 87.254 75.905h-87.254z"/>
		<path fill="#ebebeb" d="m201.956 96.954-5.169-7.78L172.754 68l-27.018 23.205-1.502 8.206 12.061-9.009 3.446 4.504 7.754-4.504 5.259 7.3 5.941-8.528 12.923 12.284V90.402z"/>
		<path fill="#fff" d="m201.956 96.954-5.212-7.78L172.754 68v29.703l5.873-8.53 12.906 12.285V90.402z"/>
		<path fill="#c8ccd1" d="M72.601 99.465 13 144.5h120.99z"/>
		<path fill="#a2a9b1" d="M72.908 99 13 144.5h59.908z"/>
		<path fill="#fff" d="m58.803 111.096 2.46-3.157L72.909 99l12.555 9.77.82 3.323-5.742-3.656-1.64 1.828-3.692-1.828-2.301 2.875-3.203-3.373-6.057 4.985v-4.487z"/>
		<path fill="#ebebeb" d="m58.803 111.096 2.424-3.157L72.907 99v12.312l-3.193-3.373-6.062 4.985v-4.487z"/>
		<path fill="#fff" d="M209.452 91.136h37.368q.042-.44.042-.89c0-4.75-3.575-8.602-7.986-8.602a7 7 0 0 0-.501.017c-1.082-5.928-5.932-10.399-11.752-10.399-4.596 0-8.588 2.789-10.596 6.88-4.187.513-7.44 4.342-7.44 8.99 0 1.437.311 2.797.865 4.004"/>
		<path fill="#fc3" fill-rule="evenodd" d="M229.197 76.268v5.3l-1.637-1.638-1.637 1.637v-5.3h-2.615c-.65 0-1.178.528-1.178 1.178v8.244c0 .65.528 1.178 1.178 1.178h5.889c.65 0 1.177-.528 1.177-1.178v-8.244c0-.65-.527-1.177-1.177-1.177" clip-rule="evenodd"/>
	</g>
	<defs>
		<clipPath id="clip0_2_2006">
			<path fill="#fff" d="M268.222 11.698h11.041v11.777h-11.041z"/>
		</clipPath>
	</defs>
</svg>
