<svg xmlns="http://www.w3.org/2000/svg" width="360" height="128" viewBox="0 0 360 128">
	<path fill="#eaf3ff" d="M0 0h360v128H0z"/>
	<mask id="mask0_3_524" width="360" height="128" x="0" y="0" maskUnits="userSpaceOnUse" style="mask-type:alpha">
		<path fill="#fff" d="M0 0h360v128H0z"/>
	</mask>
	<g mask="url(#mask0_3_524)">
		<path fill="#fff" d="M.782 63.93h33.775q.038-.375.038-.759c0-4.047-3.232-7.327-7.218-7.327a7 7 0 0 0-.453.014C25.946 50.808 21.562 47 16.302 47c-4.154 0-7.762 2.375-9.577 5.861C2.94 53.298 0 56.56 0 60.518a7.8 7.8 0 0 0 .782 3.411Zm266.183-34.32h41.679q.047-.456.047-.923c0-4.927-3.987-8.92-8.907-8.92a9 9 0 0 0-.558.017C298.018 13.636 292.608 9 286.117 9c-5.126 0-9.578 2.892-11.819 7.135A9.38 9.38 0 0 0 266 25.457c0 1.491.347 2.9.965 4.153m-70.599 52.972h-47.428a11 11 0 0 1-.053-1.054c0-5.631 4.537-10.196 10.135-10.196a10 10 0 0 1 .636.02c1.373-7.025 7.53-12.324 14.916-12.324 5.834 0 10.9 3.305 13.449 8.155 5.314.607 9.443 5.145 9.443 10.653 0 1.704-.395 3.315-1.098 4.746"/>
		<path fill="#fc3" d="M171.506 75h9.317l-2.312-2.717-1.669 1.818-2.334-2.725-.334.404v-2.23h2.668v-1.21h3.981c.354 0 .693.127.943.354.251.227.391.535.391.856v6.054c0 .322-.14.63-.391.857-.25.227-.589.354-.943.354h-9.317c-.354 0-.694-.127-.944-.354a1.16 1.16 0 0 1-.39-.857v-3.632h3.837z"/>
		<path fill="#fc3" d="M171.505 67.128v-2.421h1.334v2.421h2.669v1.211h-2.669v2.422h-1.334v-2.422h-2.668v-1.21h2.668Z"/>
		<path fill="#fff" d="M287.935 99.457h-30.9a7 7 0 0 1-.035-.692c0-3.695 2.956-6.69 6.603-6.69a7 7 0 0 1 .415.013c.895-4.61 4.905-8.088 9.718-8.088 3.801 0 7.101 2.169 8.762 5.352 3.462.398 6.152 3.376 6.152 6.99a7.1 7.1 0 0 1-.715 3.115"/>
		<path fill="#14866d" fill-rule="evenodd" d="m276.183 91.214.857-.884a.44.44 0 0 0 0-.622l-1.475-1.458a.44.44 0 0 0-.623 0l-.866.857zm-2.566-1.639-4.398 4.399v2.098h2.097l4.399-4.399z"/>
		<path fill="#fff" d="M303.57 98.969h33.774a7 7 0 0 0 .039-.725c0-3.871-3.232-7.01-7.218-7.01a7 7 0 0 0-.453.014c-.978-4.83-5.362-8.473-10.622-8.473-4.154 0-7.762 2.272-9.577 5.607-3.785.417-6.725 3.537-6.725 7.324 0 1.171.281 2.279.782 3.263"/>
		<path fill="#14866d" fill-rule="evenodd" d="m319.333 94.28-1.143 1.143a2.684 2.684 0 0 1-3.796 0l-.133-.134a2.684 2.684 0 0 1 0-3.795l1.312-1.312a2.685 2.685 0 0 1 3.796 0l.133.133q.163.165.295.358l-.825.825a1.668 1.668 0 0 0-2.68-.464l-1.179 1.179a1.667 1.667 0 1 0 2.358 2.357l.467-.467c.442.18.923.241 1.395.177m-2.153-5.705 1.143-1.144a2.684 2.684 0 0 1 3.796 0l.133.134a2.68 2.68 0 0 1 0 3.795l-1.312 1.313a2.683 2.683 0 0 1-3.795 0l-.134-.134a3 3 0 0 1-.295-.358l.826-.825a1.664 1.664 0 0 0 2.679.464l1.179-1.179a1.667 1.667 0 1 0-2.358-2.357l-.467.467a2.7 2.7 0 0 0-1.395-.176"/>
		<path fill="#14866d" d="m301.309 85.31 10.392 4.617-10.392 4.619z"/>
		<path fill="#ebebeb" d="M299 83h2.309v31.174H299z"/>
		<path fill="#f6f6f6" d="M300.155 83h1.155v31.174h-1.155z"/>
		<path fill="#c80000" d="M113.167 10.383h12.285l-2.835 3.78 2.835 3.78h-9.923z"/>
		<path fill="#f34848" d="M107.497 8.493h9.449l2.835 7.56h-12.284z"/>
		<path fill="#960000" d="M115.057 16.053h4.725l-4.253 1.89z"/>
		<path fill="#ebebeb" d="M105.607 6.603h1.89v25.515h-1.89z"/>
		<path fill="#f6f6f6" d="M106.552 6.603h.945v25.515h-.945z"/>
		<path fill="#fc3" d="M209.493 51.343h12.171l-3.175 4.234 3.175 4.233h-12.171z"/>
		<path fill="#ebebeb" d="M207.376 48.168h2.117v28.576h-2.117z"/>
		<path fill="#f6f6f6" d="M208.434 48.168h1.058v28.576h-1.058z"/>
		<path fill="#c8ccd1" d="M106.836 28-3 144.195h222.603z"/>
		<path fill="#a2a9b1" d="M106.836 28-3 144.195h110.452z"/>
		<path fill="#fff" d="m70.07 71.946 6.543-11.9L106.836 28l34.12 35.178 2.182 12.525-15.268-13.778-4.363 6.89-9.815-6.89-6.543 11.273-7.634-13.151-16.359 18.788v-16.91L70.07 71.945Z"/>
		<path fill="#ebebeb" d="m70.07 71.946 6.597-11.9L106.835 28l.617 45.198-7.697-13.151-16.492 18.788v-16.91l-13.195 10.02Z"/>
		<path fill="#a2a9b1" d="m208.754 68 86.924 76.195h-175.85z"/>
		<path fill="#c8ccd1" d="m208.424 68.29 87.254 75.905h-87.254z"/>
		<path fill="#ebebeb" d="m237.956 96.954-5.169-7.78L208.754 68l-27.018 23.205-1.502 8.206 12.061-9.009 3.446 4.504 7.754-4.504 5.259 7.3 5.941-8.528 12.923 12.284V90.402z"/>
		<path fill="#fff" d="m237.956 96.954-5.212-7.78L208.754 68v29.703l5.873-8.53 12.906 12.285V90.402z"/>
		<path fill="#c8ccd1" d="M299.601 99.465 240 144.5h120.99z"/>
		<path fill="#a2a9b1" d="M299.908 99 240 144.5h59.908z"/>
		<path fill="#fff" d="m285.802 111.096 2.462-3.157 11.644-8.94 12.555 9.771.821 3.323-5.743-3.656-1.64 1.828-3.692-1.828-2.301 2.875-3.203-3.373-6.057 4.985v-4.487z"/>
		<path fill="#ebebeb" d="m285.802 111.096 2.425-3.157 11.681-8.94v12.313l-3.194-3.373-6.062 4.985v-4.487z"/>
		<path fill="#fff" d="M224.865 73.874h37.368q.042-.44.042-.89c0-4.751-3.575-8.602-7.986-8.602a7 7 0 0 0-.5.016C252.706 58.471 247.856 54 242.036 54c-4.596 0-8.588 2.788-10.596 6.88-4.187.513-7.44 4.342-7.44 8.99a9.6 9.6 0 0 0 .865 4.004"/>
		<path fill="#fc3" fill-rule="evenodd" d="M238.721 59.005v5.3l1.637-1.637 1.637 1.637v-5.3h2.614c.651 0 1.178.527 1.178 1.178v8.244c0 .65-.527 1.177-1.178 1.177h-5.888c-.65 0-1.178-.527-1.178-1.177v-8.244c0-.65.528-1.178 1.178-1.178"/>
		<path fill="#fff" d="M92.445 30.346H50.048A10 10 0 0 1 50 29.39c0-5.103 4.056-9.24 9.06-9.24a9 9 0 0 1 .569.019C60.857 13.802 66.36 9 72.963 9c5.215 0 9.744 2.995 12.023 7.39 4.75.55 8.441 4.663 8.441 9.655a9.8 9.8 0 0 1-.982 4.3Z"/>
		<path fill="#d33" d="M68.767 16.19h9.412v1.177h-9.412v-1.176Zm6.471 3.53h2.941v1.177h-2.94V19.72Zm-2.353 3.53h5.294v1.177h-5.294zm1.081-2.484-.634.654-1.558-1.56.64-.633a.327.327 0 0 1 .461 0l1.091 1.078a.327.327 0 0 1 0 .46Zm-5.786 2.696 3.254-3.255 1.553 1.552-3.255 3.255h-1.553z"/>
	</g>
</svg>
