<svg xmlns="http://www.w3.org/2000/svg" width="144" height="144" fill="none" viewBox="0 0 144 144">
	<path fill="#C8CCD1" fill-rule="evenodd" d="M29 8a2 2 0 0 0-2 2v116a2 2 0 0 0 2 2h86a2 2 0 0 0 2-2V10a2 2 0 0 0-2-2H29Zm1 2a1 1 0 0 0-1 1v114a1 1 0 0 0 1 1h84a1 1 0 0 0 1-1V11a1 1 0 0 0-1-1H30Z" clip-rule="evenodd"/>
	<path fill="#C8CCD1" d="M106.859 82h-69.77c-.53 0-.96.428-.96.955 0 .527.43.955.96.955h69.77c.53 0 .96-.428.96-.955a.958.958 0 0 0-.96-.955Zm0 22h-69.77c-.53 0-.96.672-.96 1.5s.43 1.5.96 1.5h69.77c.53 0 .96-.672.96-1.5s-.43-1.5-.96-1.5Zm0 6h-69.77c-.53 0-.96.672-.96 1.5s.43 1.5.96 1.5h69.77c.53 0 .96-.672.96-1.5s-.43-1.5-.96-1.5Zm0 6h-69.77c-.53 0-.96.672-.96 1.5s.43 1.5.96 1.5h69.77c.53 0 .96-.672.96-1.5s-.43-1.5-.96-1.5Z"/>
	<path fill="#EAECF0" d="M36 90h4v12h-4zm36 0h4v12h-4zm-30 0h4v12h-4zm36 0h4v12h-4zm-30 0h4v12h-4zm36 0h4v12h-4zm-30 0h4v12h-4zm36 0h4v12h-4zm-30 0h4v12h-4zm36 0h4v12h-4zm-30 0h4v12h-4zm36 0h4v12h-4z"/>
	<path fill="#C8CCD1" d="M36 62.295v21.41c0 .163.448.295 1 .295s1-.132 1-.295v-21.41c0-.163-.448-.295-1-.295s-1 .132-1 .295Zm70.799 28.435h-10.31a1.04 1.04 0 0 0-1.04 1.04v.01c0 .574.466 1.04 1.04 1.04h10.31a1.04 1.04 0 0 0 1.04-1.04v-.01a1.04 1.04 0 0 0-1.04-1.04ZM105.85 52H37.86A1.86 1.86 0 0 0 36 53.86v1.28A1.86 1.86 0 0 0 37.86 57h67.99a1.86 1.86 0 0 0 1.86-1.86v-1.28a1.86 1.86 0 0 0-1.86-1.86Z"/>
	<path fill="#EAECF0" d="M114 10H30a1 1 0 0 0-1 1v35h86V11a1 1 0 0 0-1-1Z"/>
	<path fill="#fff" d="M69.647 27H34.61c-.266 0-.482.448-.482 1s.216 1 .482 1h35.036c.266 0 .482-.448.482-1s-.216-1-.482-1Zm40.871 0H75.482c-.266 0-.482.448-.482 1s.216 1 .482 1h35.036c.266 0 .482-.448.482-1s-.216-1-.482-1ZM73.5 41.735v-27.25c0-.207-.428-.375-.955-.375-.527 0-.955.168-.955.375v27.25c0 .207.428.375.955.375.527 0 .955-.168.955-.375Z"/>
	<path fill="#C8CCD1" d="M101 136c13.255 0 24-10.745 24-24s-10.745-24-24-24-24 10.745-24 24 10.745 24 24 24Z"/>
	<path fill="#A2A9B1" d="M101 89.5A22.5 22.5 0 1 1 78.5 112 22.519 22.519 0 0 1 101 89.5Zm0-1.5a24 24 0 1 0 0 48.001A24 24 0 0 0 101 88Z"/>
	<path fill="#fff" d="m115.46 120-12.17-21a2.775 2.775 0 0 0-2.29-1.68A2.749 2.749 0 0 0 98.72 99l-12.18 21c-1.26 2.18-.23 4 2.28 4h24.36c2.51 0 3.54-1.78 2.28-4Zm-13-.54h-3v-3h3v3Zm0-6h-3v-9h3v9Z"/>
	<path stroke="#A2A9B1" stroke-linecap="round" stroke-width="2" d="M37.5 76.5C41.5 71 52 69.2 58 74c7.5 6 17.659-2.844 21-4 13-4.5 20 4 28 0"/>
</svg>
