<svg xmlns="http://www.w3.org/2000/svg" width="75" height="22">
	<g fill="#202122" opacity=".5">
		<path d="M10.93 4.57a3.68 3.68 0 0 0 2.18 2.55 7.29 7.29 0 1 1-8.09 1.27l1.36 1.27.64.64.45-.45.28 1.53-1.54-.26.45-.45-.64-.64a5.2 5.2 0 0 0-1.45 3.46h.91v-.73l1.26.91-1.26.91v-.73h-.91a5.7 5.7 0 0 0 1.45 3.45l.63-.65-.45-.45 1.54-.26-.27 1.54-.45-.45-.63.64a5.2 5.2 0 0 0 3.45 1.45v-.91h-.73l.91-1.27.91 1.27h-.73v.91a5.7 5.7 0 0 0 3.45-1.45l-.64-.64-.45.45-.26-1.54 1.53.27-.45.45.64.64a5.2 5.2 0 0 0 1.45-3.46h-.91v.73l-1.26-.91 1.26-.91v.73h.91a5.7 5.7 0 0 0-1.45-3.45l-.62.65.45.45-1.54.26.26-1.54.45.45.64-.63a9 9 0 0 0-2-1.18 5.13 5.13 0 0 1-2-2 5.1 5.1 0 0 1-.55-1.91l-1.82.91L10.02.94l2.73 4.54s-1.73-.82-1.82-.91m-.91 11.57a2.5 2.5 0 1 0 0-5 2.5 2.5 0 0 0 0 5"/>
		<path d="M33.344 4.4 31.528 10h-1.696L28.76 6.592 27.64 10h-1.696l-1.816-5.6h1.632l1.128 3.576L28.072 4.4h1.456l1.128 3.608L31.832 4.4zm.568 0h1.584V10h-1.584zm4.87 3.568-.591.632V10h-1.569V4.4h1.569v2.328L40.358 4.4h1.745l-2.288 2.48L42.222 10h-1.84zM42.639 4.4h1.584V10h-1.584zm7.767 5.6-.016-2.968-1.44 2.416h-.704l-1.432-2.336V10H45.35V4.4h1.304l1.968 3.232 1.92-3.232h1.304l.016 5.6zm7.073-1.224V10h-4.496V4.4h4.392v1.224H54.55v.944h2.488v1.184H54.55v1.024h2.928zm.879-4.376h2.648q.92 0 1.632.344a2.6 2.6 0 0 1 1.104.976q.392.632.392 1.48c0 .848-.13 1.059-.392 1.48q-.392.632-1.104.976-.713.345-1.632.344h-2.648zm2.584 4.336q.72 0 1.152-.408.44-.408.44-1.128t-.44-1.128q-.432-.408-1.152-.408h-1v3.072zM64.966 4.4h1.584V10h-1.584zm6.463 4.512h-2.368L68.621 10h-1.616l2.472-5.6h1.56l2.48 5.6H71.87l-.44-1.088zm-.464-1.168-.72-1.792-.72 1.792zM27.352 18.112a3.4 3.4 0 0 1-1.584-.368 2.8 2.8 0 0 1-1.096-1.04 2.86 2.86 0 0 1-.4-1.504q0-.84.4-1.504a2.76 2.76 0 0 1 1.096-1.032q.704-.376 1.584-.376.768 0 1.384.272t1.024.784l-1.008.912q-.545-.656-1.32-.656-.456 0-.816.2a1.4 1.4 0 0 0-.552.568 1.74 1.74 0 0 0-.192.832q0 .473.192.84.2.36.552.56.36.2.816.2.775 0 1.32-.656l1.008.912a2.66 2.66 0 0 1-1.024.784q-.616.272-1.384.272m5.821 0a3.4 3.4 0 0 1-1.6-.376 2.86 2.86 0 0 1-1.112-1.04 2.84 2.84 0 0 1-.4-1.496q0-.832.4-1.496a2.86 2.86 0 0 1 1.112-1.04 3.4 3.4 0 0 1 1.6-.376q.888 0 1.592.376.712.375 1.112 1.04a2.8 2.8 0 0 1 .408 1.496 2.8 2.8 0 0 1-.408 1.496 2.8 2.8 0 0 1-1.112 1.04q-.704.376-1.592.376m0-1.312a1.5 1.5 0 0 0 .768-.2q.344-.2.544-.56.2-.367.2-.84 0-.472-.2-.832a1.43 1.43 0 0 0-.544-.568 1.5 1.5 0 0 0-.768-.2 1.5 1.5 0 0 0-.768.2q-.344.2-.544.568-.2.36-.2.832 0 .473.2.84.2.36.544.56t.768.2m8.998 1.2-.016-2.968-1.44 2.416h-.704l-1.432-2.336V18h-1.464v-5.6h1.304l1.968 3.232 1.92-3.232h1.304l.016 5.6zm7.633 0-.017-2.968-1.44 2.416h-.703l-1.432-2.336V18h-1.465v-5.6h1.304l1.968 3.232 1.92-3.232h1.304l.017 5.6zm5.4.112a3.4 3.4 0 0 1-1.6-.376 2.86 2.86 0 0 1-1.112-1.04 2.84 2.84 0 0 1-.4-1.496q0-.832.4-1.496.408-.665 1.112-1.04a3.4 3.4 0 0 1 1.6-.376q.888 0 1.592.376.713.375 1.112 1.04a2.8 2.8 0 0 1 .408 1.496 2.8 2.8 0 0 1-.408 1.496 2.8 2.8 0 0 1-1.112 1.04q-.704.376-1.592.376m0-1.312a1.5 1.5 0 0 0 .768-.2q.345-.2.544-.56.2-.367.2-.84 0-.472-.2-.832a1.43 1.43 0 0 0-.544-.568 1.5 1.5 0 0 0-.768-.2 1.5 1.5 0 0 0-.768.2q-.343.2-.544.568-.2.36-.2.832 0 .473.2.84.2.36.544.56t.768.2m9.27-4.4V18H63.17l-2.472-2.984V18h-1.552v-5.6h1.304l2.472 2.984V12.4zm3.085 5.712q-.68 0-1.32-.168t-1.04-.448l.52-1.168q.376.248.872.4.495.152.976.152.912 0 .912-.456 0-.24-.264-.352-.255-.12-.832-.248a9 9 0 0 1-1.056-.288 1.8 1.8 0 0 1-.728-.504q-.303-.345-.304-.928 0-.512.28-.92.28-.416.832-.656.561-.24 1.368-.24.552 0 1.088.128.537.12.944.36l-.488 1.176q-.8-.432-1.552-.432-.471 0-.688.144-.216.135-.216.36c0 .225.086.261.256.336q.256.112.824.232.64.136 1.056.296.425.152.728.496.312.335.312.92 0 .504-.28.912-.279.407-.84.656-.56.24-1.36.24"/>
	</g>
</svg>
