<svg xmlns="http://www.w3.org/2000/svg" width="75" height="22" fill="none">
	<g fill="#202122" opacity=".5">
		<path fill-rule="evenodd" d="M10.93 4.57a3.68 3.68 0 0 0 2.18 2.55 7.29 7.29 0 1 1-8.09 1.27l1.36 1.27.64.64.45-.45.28 1.53-1.54-.26.45-.45-.64-.64a5.21 5.21 0 0 0-1.45 3.46h.91v-.73l1.26.91-1.26.91v-.73h-.91a5.69 5.69 0 0 0 1.45 3.45l.63-.65-.45-.45 1.54-.26-.27 1.54-.45-.45-.63.64a5.21 5.21 0 0 0 3.45 1.45v-.91h-.73l.91-1.27.91 1.27h-.73v.91a5.69 5.69 0 0 0 3.45-1.45l-.64-.64-.45.45-.26-1.54 1.53.27-.45.45.64.64a5.21 5.21 0 0 0 1.45-3.46h-.91v.73l-1.26-.91 1.26-.91v.73h.91a5.69 5.69 0 0 0-1.45-3.45l-.62.65.45.45-1.54.26.26-1.54.45.45.64-.63a8.859 8.859 0 0 0-2-1.18 5.13 5.13 0 0 1-2-2 5.08 5.08 0 0 1-.55-1.91l-1.82.91L10.02.94l2.73 4.54s-1.73-.82-1.82-.91zm-.91 11.57a2.5 2.5 0 1 0 0-5 2.5 2.5 0 0 0 0 5z" clip-rule="evenodd"/>
		<path d="M33.344 4.4 31.528 10h-1.696L28.76 6.592 27.64 10h-1.696l-1.816-5.6h1.632l1.128 3.576L28.072 4.4h1.456l1.128 3.608L31.832 4.4h1.512zm.568 0h1.584V10h-1.584V4.4zm4.87 3.568-.591.632V10h-1.569V4.4h1.569v2.328L40.358 4.4h1.745l-2.288 2.48L42.222 10h-1.84l-1.6-2.032zM42.639 4.4h1.584V10h-1.584V4.4zm7.767 5.6-.016-2.968-1.44 2.416h-.704l-1.432-2.336V10H45.35V4.4h1.304l1.968 3.232 1.92-3.232h1.304l.016 5.6h-1.456zm7.073-1.224V10h-4.496V4.4h4.392v1.224H54.55v.944h2.488v1.184H54.55v1.024h2.928zm.879-4.376h2.648c.613 0 1.157.115 1.632.344a2.6 2.6 0 0 1 1.104.976c.261.421.392.915.392 1.48s-.13 1.059-.392 1.48c-.261.421-.63.747-1.104.976-.475.23-1.019.344-1.632.344h-2.648V4.4zm2.584 4.336c.48 0 .864-.136 1.152-.408.293-.272.44-.648.44-1.128 0-.48-.147-.856-.44-1.128-.288-.272-.672-.408-1.152-.408h-1v3.072h1zM64.966 4.4h1.584V10h-1.584V4.4zm6.463 4.512h-2.368L68.621 10h-1.616l2.472-5.6h1.56l2.48 5.6H71.87l-.44-1.088zm-.464-1.168-.72-1.792-.72 1.792h1.44zM27.352 18.112a3.367 3.367 0 0 1-1.584-.368 2.818 2.818 0 0 1-1.096-1.04 2.857 2.857 0 0 1-.4-1.504c0-.56.133-1.061.4-1.504a2.76 2.76 0 0 1 1.096-1.032c.47-.25.997-.376 1.584-.376.512 0 .973.09 1.384.272.41.181.752.443 1.024.784l-1.008.912c-.363-.437-.803-.656-1.32-.656-.304 0-.576.067-.816.2a1.415 1.415 0 0 0-.552.568 1.74 1.74 0 0 0-.192.832c0 .315.064.595.192.84.133.24.317.427.552.56.24.133.512.2.816.2.517 0 .957-.219 1.32-.656l1.008.912a2.663 2.663 0 0 1-1.024.784c-.41.181-.872.272-1.384.272zm5.821 0a3.372 3.372 0 0 1-1.6-.376 2.86 2.86 0 0 1-1.112-1.04 2.842 2.842 0 0 1-.4-1.496c0-.555.133-1.053.4-1.496a2.86 2.86 0 0 1 1.112-1.04 3.372 3.372 0 0 1 1.6-.376c.592 0 1.123.125 1.592.376.475.25.845.597 1.112 1.04a2.8 2.8 0 0 1 .408 1.496 2.8 2.8 0 0 1-.408 1.496 2.79 2.79 0 0 1-1.112 1.04c-.47.25-1 .376-1.592.376zm0-1.312a1.5 1.5 0 0 0 .768-.2c.23-.133.41-.32.544-.56.133-.245.2-.525.2-.84 0-.315-.067-.592-.2-.832a1.432 1.432 0 0 0-.544-.568 1.5 1.5 0 0 0-.768-.2 1.5 1.5 0 0 0-.768.2c-.23.133-.41.323-.544.568-.133.24-.2.517-.2.832 0 .315.067.595.2.84.133.24.315.427.544.56.23.133.485.2.768.2zm8.998 1.2-.016-2.968-1.44 2.416h-.704l-1.432-2.336V18h-1.464v-5.6h1.304l1.968 3.232 1.92-3.232h1.304l.016 5.6H42.17zm7.633 0-.017-2.968-1.44 2.416h-.703l-1.432-2.336V18h-1.465v-5.6h1.304l1.968 3.232 1.92-3.232h1.304l.017 5.6h-1.456zm5.4.112a3.373 3.373 0 0 1-1.6-.376 2.856 2.856 0 0 1-1.112-1.04 2.842 2.842 0 0 1-.4-1.496c0-.555.134-1.053.4-1.496.272-.443.643-.79 1.112-1.04a3.373 3.373 0 0 1 1.6-.376c.592 0 1.123.125 1.592.376.475.25.846.597 1.112 1.04a2.8 2.8 0 0 1 .408 1.496 2.8 2.8 0 0 1-.408 1.496 2.79 2.79 0 0 1-1.112 1.04c-.469.25-1 .376-1.592.376zm0-1.312a1.5 1.5 0 0 0 .768-.2c.23-.133.411-.32.544-.56.134-.245.2-.525.2-.84 0-.315-.066-.592-.2-.832a1.432 1.432 0 0 0-.544-.568 1.5 1.5 0 0 0-.768-.2 1.5 1.5 0 0 0-.768.2c-.229.133-.41.323-.544.568-.133.24-.2.517-.2.832 0 .315.067.595.2.84.134.24.315.427.544.56.23.133.486.2.768.2zm9.27-4.4V18H63.17l-2.472-2.984V18h-1.552v-5.6h1.304l2.472 2.984V12.4h1.552zm3.085 5.712c-.453 0-.893-.056-1.32-.168-.426-.112-.773-.261-1.04-.448l.52-1.168c.25.165.542.299.872.4.33.101.656.152.976.152.608 0 .912-.152.912-.456 0-.16-.088-.277-.264-.352-.17-.08-.448-.163-.832-.248a8.486 8.486 0 0 1-1.056-.288 1.813 1.813 0 0 1-.728-.504c-.202-.23-.304-.539-.304-.928 0-.341.094-.648.28-.92.187-.277.464-.496.832-.656.374-.16.83-.24 1.368-.24.368 0 .73.043 1.088.128.358.08.672.2.944.36l-.488 1.176c-.533-.288-1.05-.432-1.552-.432-.314 0-.544.048-.688.144-.144.09-.216.21-.216.36s.086.261.256.336c.17.075.446.152.824.232.427.09.779.19 1.056.296.283.101.526.267.728.496.208.224.312.53.312.92 0 .336-.093.64-.28.912-.186.272-.466.49-.84.656-.373.16-.826.24-1.36.24z"/>
	</g>
</svg>
