<svg xmlns="http://www.w3.org/2000/svg" width="360" height="216" viewBox="0 0 360 216">
	<g clip-path="url(#clip0_4168_72736)">
		<g filter="url(#filter0_d_4168_72736)">
			<rect width="268" height="192" x="46" y="32" fill="#eaecf0" rx="4"/>
			<rect width="270" height="194" x="45" y="31" stroke="#a2a9b1" stroke-linecap="square" stroke-width="2" rx="5"/>
		</g>
		<path fill="#a2a9b1" stroke="#a2a9b1" stroke-linecap="square" d="M46 36a4 4 0 0 1 4-4h260a4 4 0 0 1 4 4v2H46z"/>
		<path fill="#fff" d="M44 36h272v180H44z"/>
		<path fill="#fc3" fill-opacity=".5" d="M44 36h272v180H44z"/>
		<path fill="#a2a9b1" d="M57.754 124h242.14v6H57.754zm0 32h242.14v6H57.754zm0 12h148.105v6H57.754zm151.632 0h90.509v6h-90.509zM57.754 180h65.825v6H57.754zm0-38h103.439v8H57.754zm0-30h83.456v6H57.754zm90.509 0h151.632v6H148.263zm-90.509-12h242.14v6H57.754zm0-12h242.14v6H57.754zM234.07 76h65.825v6H234.07zM57.754 76h171.614v6H57.754zm0-22h64.649v14H57.754z"/>
		<path stroke="#fc3" stroke-width="4" d="M44 36h272v180H44z"/>
		<g filter="url(#filter1_d_4168_72736)">
			<path fill="#fff" d="M126 127h108v90H126z"/>
			<path fill="#eaecf0" d="M126 193h108v24H126z"/>
			<rect width="16" height="12" x="132" y="199" fill="#eaecf0" stroke="#a2a9b1" stroke-linecap="square" rx="2"/>
			<path fill="#54595d" fill-rule="evenodd" d="M138.8 206.668 137.132 205l-.564.564 2.232 2.236 4.8-4.8-.564-.568z" clip-rule="evenodd"/>
			<rect width="16" height="12" x="212" y="199" fill="#eaecf0" stroke="#a2a9b1" stroke-linecap="square" rx="2"/>
			<path fill="#54595d" fill-rule="evenodd" d="m218.5 201.4-.6.6 3 3-3 3 .6.6 3.6-3.6z" clip-rule="evenodd"/>
			<rect width="16" height="12" x="154" y="199" fill="#eaecf0" stroke="#a2a9b1" stroke-linecap="square" rx="2"/>
			<path fill="#54595d" fill-rule="evenodd" d="m162.565 204.999 2.546-2.545-.566-.566-2.546 2.546-2.544-2.545-.566.565 2.545 2.545-2.546 2.546.566.565 2.545-2.545 2.547 2.546.565-.565z" clip-rule="evenodd"/>
			<path fill="#eaecf0" d="M126 127h108v70H126z"/>
			<path fill="#a2a9b1" d="M183 167h45v4h-45zm-51-20h96v4h-96zm51 27h45v4h-45zm0-19h36v8h-36z"/>
			<rect width="6" height="6" x="203" y="182" fill="#a2a9b1" rx="3"/>
			<path fill="#a2a9b1" d="M212 183h16v4h-16z"/>
			<path fill="#eaf3ff" d="M126 127h108v14H126z"/>
			<path fill="#c8ccd1" d="M132 155h48v32h-48z"/>
			<path fill="#f8f9fa" fill-rule="evenodd" d="M162.4 164.6h-12.8a1.6 1.6 0 0 0-1.6 1.6v9.6a1.6 1.6 0 0 0 1.6 1.6h12.8a1.6 1.6 0 0 0 1.6-1.6v-9.6a1.6 1.6 0 0 0-1.6-1.6M149.464 175l3.272-4.2 2.336 2.808 3.264-4.208 4.2 5.6z" clip-rule="evenodd"/>
			<path fill="#54595d" fill-rule="evenodd" d="M136.75 131.5h-3.252a1 1 0 0 0-.998.998V136h3.5v1h-2.502a.997.997 0 0 0-.998 1v1h9v-1c0-.553-.447-1-.998-1H138v-1h3.5v-3.502a1 1 0 0 0-.998-.998h-3.252v-1.043a.75.75 0 1 0-.5 0zm2 3a.75.75 0 1 1 0-1.5.75.75 0 0 1 0 1.5m-3.5 0a.75.75 0 1 1 0-1.5.75.75 0 0 1 0 1.5" clip-rule="evenodd"/>
			<path stroke="#a2a9b1" stroke-linecap="square" d="M125.5 126.5h109v91h-109z"/>
		</g>
	</g>
	<defs>
		<filter id="filter0_d_4168_72736" width="280" height="204" x="40" y="30" color-interpolation-filters="sRGB" filterUnits="userSpaceOnUse">
			<feFlood flood-opacity="0" result="BackgroundImageFix"/>
			<feColorMatrix in="SourceAlpha" result="hardAlpha" values="0 0 0 0 0 0 0 0 0 0 0 0 0 0 0 0 0 0 127 0"/>
			<feOffset dy="4"/>
			<feGaussianBlur stdDeviation="2"/>
			<feComposite in2="hardAlpha" operator="out"/>
			<feColorMatrix values="0 0 0 0 0 0 0 0 0 0 0 0 0 0 0 0 0 0 0.25 0"/>
			<feBlend in2="BackgroundImageFix" result="effect1_dropShadow_4168_72736"/>
			<feBlend in="SourceGraphic" in2="effect1_dropShadow_4168_72736" result="shape"/>
		</filter>
		<filter id="filter1_d_4168_72736" width="112" height="94" x="124" y="124" color-interpolation-filters="sRGB" filterUnits="userSpaceOnUse">
			<feFlood flood-opacity="0" result="BackgroundImageFix"/>
			<feColorMatrix in="SourceAlpha" result="hardAlpha" values="0 0 0 0 0 0 0 0 0 0 0 0 0 0 0 0 0 0 127 0"/>
			<feOffset dy="-1"/>
			<feGaussianBlur stdDeviation=".5"/>
			<feComposite in2="hardAlpha" operator="out"/>
			<feColorMatrix values="0 0 0 0 0 0 0 0 0 0 0 0 0 0 0 0 0 0 0.1 0"/>
			<feBlend in2="BackgroundImageFix" result="effect1_dropShadow_4168_72736"/>
			<feBlend in="SourceGraphic" in2="effect1_dropShadow_4168_72736" result="shape"/>
		</filter>
		<clipPath id="clip0_4168_72736">
			<path fill="#fff" d="M0 0h360v216H0z"/>
		</clipPath>
	</defs>
</svg>
