<svg xmlns="http://www.w3.org/2000/svg" width="360" height="216" fill="none" viewBox="0 0 360 216">
	<g clip-path="url(#clip0_4168_71808)">
		<g filter="url(#filter0_d_4168_71808)">
			<rect width="228" height="192" x="112" y="32" fill="#eaecf0" rx="4"/>
			<rect width="230" height="194" x="111" y="31" stroke="#a2a9b1" stroke-linecap="square" stroke-width="2" rx="5"/>
		</g>
		<path fill="#a2a9b1" stroke="#a2a9b1" stroke-linecap="square" d="M112 36a4 4 0 0 1 4-4h220a4 4 0 0 1 4 4v2H112z"/>
		<path fill="#eaecf0" d="M112 38h228v176H112z"/>
		<path fill="#a2a9b1" d="M122 124h206v6H122zm0 32h206v6H122zm0 12h126v6H122zm129 0h77v6h-77zm-129 12h56v6h-56zm0-38h88v8h-88zm0-30h71v6h-71zm77 0h129v6H199zm-77-12h206v6H122zm0-12h206v6H122zm150-12h56v6h-56zm-150 0h146v6H122zm0-22h55v14h-55z"/>
		<g filter="url(#filter1_d_4168_71808)">
			<path fill="#fff" d="M172 127h108v90H172z"/>
			<path fill="#fff" d="M172 193h108v24H172z"/>
			<rect width="16" height="12" x="178" y="199" fill="#eaecf0" stroke="#a2a9b1" stroke-linecap="square" rx="2"/>
			<path fill="#54595d" fill-rule="evenodd" d="M184.8 206.668 183.132 205l-.564.564 2.232 2.236 4.8-4.8-.564-.568z"/>
			<rect width="16" height="12" x="258" y="199" fill="#eaecf0" stroke="#a2a9b1" stroke-linecap="square" rx="2"/>
			<path fill="#54595d" fill-rule="evenodd" d="m264.5 201.4-.6.6 3 3-3 3 .6.6 3.6-3.6z"/>
			<rect width="16" height="12" x="200" y="199" fill="#eaecf0" stroke="#a2a9b1" stroke-linecap="square" rx="2"/>
			<path fill="#54595d" fill-rule="evenodd" d="m208.565 204.999 2.546-2.545-.566-.566-2.546 2.546-2.544-2.545-.566.565 2.545 2.545-2.546 2.546.566.565 2.545-2.545 2.547 2.546.565-.565z"/>
			<path fill="#fff" d="M172 127h108v70H172z"/>
			<path fill="#a2a9b1" d="M229 167h45v4h-45zm-51-20h96v4h-96zm51 27h45v4h-45zm0-19h36v8h-36z"/>
			<rect width="6" height="6" x="249" y="182" fill="#a2a9b1" rx="3"/>
			<path fill="#a2a9b1" d="M258 183h16v4h-16z"/>
			<path fill="#eaf3ff" d="M172 127h108v14H172z"/>
			<path fill="#eaecf0" d="M178 155h48v32h-48z"/>
			<path fill="#a2a9b1" fill-rule="evenodd" d="M208.4 166.6h-12.8a1.6 1.6 0 0 0-1.6 1.6v9.6a1.6 1.6 0 0 0 1.6 1.6h12.8a1.6 1.6 0 0 0 1.6-1.6v-9.6a1.6 1.6 0 0 0-1.6-1.6M195.464 177l3.272-4.2 2.336 2.808 3.264-4.208 4.2 5.6z"/>
			<path fill="#54595d" fill-rule="evenodd" d="M182.75 131.5h-3.252a1 1 0 0 0-.998.998V136h3.5v1h-2.502a.997.997 0 0 0-.998 1v1h9v-1c0-.553-.447-1-.998-1H184v-1h3.5v-3.502a1 1 0 0 0-.998-.998h-3.252v-1.043a.75.75 0 1 0-.5 0zm2 3a.75.75 0 1 1 0-1.5.75.75 0 0 1 0 1.5m-3.5 0a.75.75 0 1 1 0-1.5.75.75 0 0 1 0 1.5"/>
			<path stroke="#a2a9b1" stroke-linecap="square" d="M171.5 126.5h109v91h-109z"/>
		</g>
		<path fill="#fc3" stroke="#fc3" stroke-linecap="square" d="M172 127.341h-.5v65h109v-65z" opacity=".5"/>
		<path fill="#fc3" fill-opacity=".5" stroke="#fc3" stroke-width="2" d="m183.5 202-163.524-.976a4 4 0 0 1-3.976-4V86a4 4 0 0 1 4-4h164l97 45v65z"/>
		<rect width="166" height="115" x="18" y="84" fill="#fff" rx="4"/>
		<path fill="#a2a9b1" d="M105.5 149H173v6h-67.5zM29 116h144v6H29zm76.5 43.5H173v6h-67.5zm0-28.5h54v12h-54z"/>
		<rect width="9" height="9" x="135.5" y="174.5" fill="#a2a9b1" rx="4.5"/>
		<path fill="#a2a9b1" d="M149 176h24v6h-24z"/>
		<path fill="#eaf3ff" d="M20 86h162v21H20z"/>
		<path fill="#eaecf0" d="M29 131h72v54H29z"/>
		<path fill="#a2a9b1" fill-rule="evenodd" d="M77 146H53a3 3 0 0 0-3 3v18a3 3 0 0 0 3 3h24a3 3 0 0 0 3-3v-18a3 3 0 0 0-3-3m-24.255 19.5 6.135-7.875 4.38 5.265 6.12-7.89 7.875 10.5z"/>
		<path fill="#54595d" fill-rule="evenodd" d="M36.125 92.75h-4.879c-.826 0-1.496.671-1.496 1.497V99.5H35v1.5h-3.754c-.826 0-1.496.666-1.496 1.5v1.5h13.5v-1.5c0-.828-.67-1.5-1.496-1.5H38v-1.5h5.25v-5.252c0-.827-.67-1.498-1.496-1.498h-4.879v-1.563a1.125 1.125 0 1 0-.75 0zm3 4.5a1.125 1.125 0 1 1 0-2.25 1.125 1.125 0 0 1 0 2.25m-5.25 0a1.125 1.125 0 1 1 0-2.25 1.125 1.125 0 0 1 0 2.25"/>
		<rect width="166" height="115" x="18" y="84" stroke="#fc3" stroke-linecap="square" stroke-width="4" rx="4"/>
	</g>
	<defs>
		<filter id="filter0_d_4168_71808" width="240" height="204" x="106" y="30" color-interpolation-filters="sRGB" filterUnits="userSpaceOnUse">
			<feFlood flood-opacity="0" result="BackgroundImageFix"/>
			<feColorMatrix in="SourceAlpha" result="hardAlpha" values="0 0 0 0 0 0 0 0 0 0 0 0 0 0 0 0 0 0 127 0"/>
			<feOffset dy="4"/>
			<feGaussianBlur stdDeviation="2"/>
			<feComposite in2="hardAlpha" operator="out"/>
			<feColorMatrix values="0 0 0 0 0 0 0 0 0 0 0 0 0 0 0 0 0 0 0.25 0"/>
			<feBlend in2="BackgroundImageFix" result="effect1_dropShadow_4168_71808"/>
			<feBlend in="SourceGraphic" in2="effect1_dropShadow_4168_71808" result="shape"/>
		</filter>
		<filter id="filter1_d_4168_71808" width="112" height="94" x="170" y="124" color-interpolation-filters="sRGB" filterUnits="userSpaceOnUse">
			<feFlood flood-opacity="0" result="BackgroundImageFix"/>
			<feColorMatrix in="SourceAlpha" result="hardAlpha" values="0 0 0 0 0 0 0 0 0 0 0 0 0 0 0 0 0 0 127 0"/>
			<feOffset dy="-1"/>
			<feGaussianBlur stdDeviation=".5"/>
			<feComposite in2="hardAlpha" operator="out"/>
			<feColorMatrix values="0 0 0 0 0 0 0 0 0 0 0 0 0 0 0 0 0 0 0.1 0"/>
			<feBlend in2="BackgroundImageFix" result="effect1_dropShadow_4168_71808"/>
			<feBlend in="SourceGraphic" in2="effect1_dropShadow_4168_71808" result="shape"/>
		</filter>
		<clipPath id="clip0_4168_71808">
			<path fill="#fff" d="M0 0h360v216H0z"/>
		</clipPath>
	</defs>
</svg>
