<svg xmlns="http://www.w3.org/2000/svg" width="360" height="216" fill="none" viewBox="0 0 360 216">
	<g clip-path="url(#clip0_4167_70950)">
		<g filter="url(#filter0_d_4167_70950)">
			<path fill="#fff" d="M25 50h234v168H25z"/>
		</g>
		<path fill="#A2A9B1" d="M37 167.993h94v5.996H37zm0 11.996h86v5.996H37zm0 11.996h211v5.996H37zm0 11.997h180v5.996H37zm89-23.993h122v5.996H126zm-50-23.993h68v5.996H76zm-39 0h36v5.996H37zM37 144h88v5.996H37zm0-20h88v5.996H37zm80-12h27v5.996h-27zm-27 0h24v5.996H90zm-53 0h50v5.996H37zm0-12h107.437v5.996H37z"/>
		<path fill="#C8CCD1" d="M37 88h210v1H37z"/>
		<path fill="#54595D" d="M85.021 80c-1.184 0-2.232-.253-3.146-.759a5.442 5.442 0 0 1-2.114-2.103C79.254 76.23 79 75.184 79 74s.26-2.224.778-3.12a5.528 5.528 0 0 1 2.131-2.121c.913-.506 1.95-.759 3.112-.759.609 0 1.269.103 1.979.31v1.19c-.925 0-1.736.19-2.436.569a4.064 4.064 0 0 0-1.606 1.586c-.384.667-.575 1.448-.575 2.345 0 .885.191 1.667.575 2.345a4.064 4.064 0 0 0 1.606 1.586c.7.38 1.511.569 2.436.569v1.19c-.722.207-1.381.31-1.979.31zm.507-.793c-.845-.172-1.578-.506-2.198-1a5.192 5.192 0 0 1-1.455-1.828A5.55 5.55 0 0 1 81.368 74c0-.862.169-1.655.507-2.38a5.192 5.192 0 0 1 1.455-1.827c.62-.494 1.353-.828 2.198-1-1.116 0-2.085.236-2.909.707a5.143 5.143 0 0 0-1.928 1.897c-.45.781-.676 1.649-.676 2.603 0 .954.225 1.828.676 2.62a5.185 5.185 0 0 0 1.928 1.88c.824.471 1.793.707 2.91.707z"/>
		<path fill="#A2A9B1" d="M37 70h37.114v9.994H37z"/>
		<path fill="url(#paint0_linear_4167_70950)" d="M155 100h92v68h-92z"/>
		<path fill="#FEF6E7" d="M155 100h92v68h-92z"/>
		<path stroke="#FC3" stroke-dasharray="2 4" stroke-linecap="round" d="M155 100h92v68h-92z"/>
		<path fill="#FC3" fill-rule="evenodd" d="M211.6 124.4h-19.2a2.4 2.4 0 0 0-2.4 2.4v14.4a2.4 2.4 0 0 0 2.4 2.4h19.2a2.4 2.4 0 0 0 2.4-2.4v-14.4a2.4 2.4 0 0 0-2.4-2.4zM192.196 140l4.908-6.3 3.504 4.212 4.896-6.312 6.3 8.4h-19.608z" clip-rule="evenodd"/>
		<path fill="#fff" stroke="#72777D" stroke-width="2" d="M222 154.638v-90.6S222 60 226.261 60h110.478c2.353 0 4.261.703 4.261 4.038v90.639a5 5 0 0 1-5 5h-34.794V172l-12.042-12.323h-62.903c-2.353 0-4.261-1.704-4.261-5.039z"/>
		<path fill="#54595D" fill-rule="evenodd" d="M327.003 145.994a1.89 1.89 0 0 1 1.77-1.998h.23a1.868 1.868 0 0 1 2 1.728c.01.09.01.18 0 .27a1.868 1.868 0 0 1-1.73 1.998c-.089.01-.18.01-.27 0a1.88 1.88 0 0 1-2-1.748 1.045 1.045 0 0 1 0-.25zm2.061-15.986c2.94 0 4.94 1.888 4.94 4.526a4.585 4.585 0 0 1-2.29 4.076c-1.42.92-1.82 1.529-1.82 2.708v.68h-2.51v-.81a3.835 3.835 0 0 1 2-3.837c1.34-.899 1.79-1.528 1.79-2.707a2.1 2.1 0 0 0-2.08-2.139h-.17a2.298 2.298 0 0 0-2.38 2.219v.169h-2.54a4.706 4.706 0 0 1 4.51-4.885c.183-.011.366-.011.55 0zM312 185.998h-13.01a3.994 3.994 0 0 0-3.99 3.994v14.006h14v4h-10.01a3.985 3.985 0 0 0-3.99 4v4h36v-4c0-2.21-1.786-4-3.99-4H317v-4h14v-14.006a3.992 3.992 0 0 0-3.99-3.994H314v-4.17a2.999 2.999 0 0 0-1-5.828 3 3 0 0 0-1 5.828v4.17zm8 12a3 3 0 1 1 0-6 3 3 0 0 1 0 6zm-14 0a3 3 0 1 1 0-6 3 3 0 0 1 0 6z" clip-rule="evenodd"/>
		<g filter="url(#filter1_dd_4167_70950)">
			<path fill="url(#paint1_linear_4167_70950)" d="M234 94h80v56h-80V94z"/>
			<path fill="#2A4B8D" d="M234 94h80v56h-80V94z" style="mix-blend-mode:overlay"/>
			<path fill="#FEF6E7" d="m310.113 118.09-2.187 1.55-.248 2.67-1.548-2.188-2.668-.248 2.187-1.551.247-2.67 1.549 2.189 2.668.248zm-30.006-22.37.587 1.135 1.134.588-1.134.587-.587 1.136-.587-1.136-1.134-.587 1.134-.588.587-1.136zm-43.033 48.246.587 1.136 1.134.587-1.134.587-.587 1.136-.587-1.136-1.134-.587 1.134-.587.587-1.136z"/>
			<path fill="#C8CCD1" stroke="#FEF6E7" d="M289.368 113.215c5.448 9.445 2.215 21.521-7.219 26.974-9.435 5.452-21.499 2.217-26.946-7.228-5.447-9.445-2.215-21.521 7.22-26.973 9.434-5.453 21.498-2.217 26.945 7.227z"/>
			<g filter="url(#filter2_i_4167_70950)">
				<path fill="#FEF6E7" d="M260.274 129.563c8.451 14.654 22.165 10.391 22.165 10.391-9.875 5.707-22.373 2.543-27.916-7.067-5.542-9.61-2.031-22.027 7.844-27.734 0 0-10.544 9.757-2.093 24.41z"/>
			</g>
			<ellipse fill="#72777D" rx="3.013" ry="3.015" transform="rotate(-30.025 386.514 -455.424) skewX(-.051)"/>
			<path fill="#A2A9B1" d="M289.933 118.914c.824 1.43 1.482 4.407.053 5.232a2.984 2.984 0 0 1-4.079-1.094 2.992 2.992 0 0 1 1.093-4.084c1.428-.825 2.108-1.484 2.933-.054z"/>
			<ellipse fill="#72777D" rx="2.152" ry="2.153" transform="rotate(-30.025 353.383 -424.118) skewX(-.051)"/>
			<path fill="#A2A9B1" stroke="#FEF6E7" d="M279.088 116.039a5.102 5.102 0 0 1-1.865 6.966 5.091 5.091 0 0 1-6.959-1.867 5.102 5.102 0 0 1 1.865-6.966 5.091 5.091 0 0 1 6.959 1.867zm-2.321-10.853a2.516 2.516 0 0 1-.919 3.435 2.51 2.51 0 0 1-3.432-.92 2.517 2.517 0 0 1 .919-3.436 2.51 2.51 0 0 1 3.432.921z"/>
		</g>
		<path fill="#FC3" d="M185.039 112.117a1 1 0 0 0 1.237.685l8.651-2.482a.999.999 0 1 0-.552-1.922l-7.69 2.206-2.206-7.69a.999.999 0 1 0-1.922.552l2.482 8.651zm1.836.209c5.784-10.439 17.098-15.563 28.668-15.484 11.574.079 23.224 5.366 29.61 15.531l1.694-1.064c-6.814-10.845-19.164-16.385-31.29-16.467-12.13-.083-24.216 5.297-30.432 16.514l1.75.97z"/>
		<path fill="#72777D" fill-rule="evenodd" d="M240.93 69.57a3.677 3.677 0 0 0 2.18 2.55 7.29 7.29 0 1 1-8.09 1.27l1.36 1.27.64.64.45-.45.28 1.53-1.54-.26.45-.45-.64-.64a5.212 5.212 0 0 0-1.45 3.46h.91v-.73l1.26.91-1.26.91v-.73h-.91a5.684 5.684 0 0 0 1.45 3.45l.63-.65-.45-.45 1.54-.26-.27 1.54-.45-.45-.63.64a5.21 5.21 0 0 0 3.45 1.45v-.91h-.73l.91-1.27.91 1.27h-.73v.91a5.692 5.692 0 0 0 3.45-1.45l-.64-.64-.45.45-.26-1.54 1.53.27-.45.45.64.64a5.211 5.211 0 0 0 1.45-3.46h-.91v.73l-1.26-.91 1.26-.91v.73h.91a5.696 5.696 0 0 0-1.45-3.45l-.62.65.45.45-1.54.26.26-1.54.45.45.64-.63a8.875 8.875 0 0 0-2-1.18 5.128 5.128 0 0 1-2-2 5.09 5.09 0 0 1-.55-1.91l-1.82.91 2.73-4.55 2.73 4.54s-1.73-.82-1.82-.91zm-.91 11.57a2.5 2.5 0 1 0 0-5 2.5 2.5 0 0 0 0 5z" clip-rule="evenodd"/>
		<path fill="#72777D" d="m261.68 69-2.27 7h-2.12l-1.34-4.26-1.4 4.26h-2.12l-2.27-7h2.04l1.41 4.47 1.48-4.47h1.82l1.41 4.51 1.47-4.51h1.89zm.709 0h1.98v7h-1.98v-7zm6.089 4.46-.74.79V76h-1.96v-7h1.96v2.91l2.71-2.91h2.18l-2.86 3.1 3.01 3.9h-2.3l-2-2.54zm4.82-4.46h1.98v7h-1.98v-7zm9.708 7-.02-3.71-1.8 3.02h-.88l-1.79-2.92V76h-1.83v-7h1.63l2.46 4.04 2.4-4.04h1.63l.02 7h-1.82zm8.841-1.53V76h-5.62v-7h5.49v1.53h-3.53v1.18h3.11v1.48h-3.11v1.28h3.66zm1.099-5.47h3.31c.767 0 1.447.143 2.04.43a3.243 3.243 0 0 1 1.38 1.22c.327.527.49 1.143.49 1.85 0 .707-.163 1.323-.49 1.85a3.243 3.243 0 0 1-1.38 1.22c-.593.287-1.273.43-2.04.43h-3.31v-7zm3.23 5.42c.6 0 1.08-.17 1.44-.51.367-.34.55-.81.55-1.41 0-.6-.183-1.07-.55-1.41-.36-.34-.84-.51-1.44-.51h-1.25v3.84h1.25zm5.032-5.42h1.98v7h-1.98v-7zm8.078 5.64h-2.96l-.55 1.36h-2.02l3.09-7h1.95l3.1 7h-2.06l-.55-1.36zm-.58-1.46-.9-2.24-.9 2.24h1.8zM254.19 84.14c-.733 0-1.393-.153-1.98-.46a3.52 3.52 0 0 1-1.37-1.3c-.333-.553-.5-1.18-.5-1.88s.167-1.327.5-1.88c.333-.553.79-.983 1.37-1.29.587-.313 1.247-.47 1.98-.47.64 0 1.217.113 1.73.34.513.227.94.553 1.28.98l-1.26 1.14c-.453-.547-1.003-.82-1.65-.82-.38 0-.72.083-1.02.25a1.774 1.774 0 0 0-.69.71c-.16.3-.24.647-.24 1.04s.08.743.24 1.05c.167.3.397.533.69.7.3.167.64.25 1.02.25.647 0 1.197-.273 1.65-.82l1.26 1.14c-.34.427-.767.753-1.28.98-.513.227-1.09.34-1.73.34zm7.276 0c-.74 0-1.406-.157-2-.47a3.581 3.581 0 0 1-1.39-1.3 3.556 3.556 0 0 1-.5-1.87c0-.693.167-1.317.5-1.87.34-.553.804-.987 1.39-1.3.594-.313 1.26-.47 2-.47s1.404.157 1.99.47a3.48 3.48 0 0 1 1.39 1.3 3.5 3.5 0 0 1 .51 1.87 3.5 3.5 0 0 1-.51 1.87 3.48 3.48 0 0 1-1.39 1.3c-.586.313-1.25.47-1.99.47zm0-1.64c.354 0 .674-.083.96-.25a1.8 1.8 0 0 0 .68-.7 2.16 2.16 0 0 0 .25-1.05c0-.393-.083-.74-.25-1.04a1.783 1.783 0 0 0-.68-.71 1.871 1.871 0 0 0-.96-.25c-.353 0-.673.083-.96.25a1.797 1.797 0 0 0-.68.71c-.166.3-.25.647-.25 1.04s.084.743.25 1.05c.167.3.394.533.68.7.287.167.607.25.96.25zm11.247 1.5-.02-3.71-1.8 3.02h-.88l-1.79-2.92V84h-1.83v-7h1.63l2.46 4.04 2.4-4.04h1.63l.02 7h-1.82zm9.541 0-.02-3.71-1.8 3.02h-.88l-1.79-2.92V84h-1.83v-7h1.63l2.46 4.04 2.4-4.04h1.63l.02 7h-1.82zm6.751.14c-.74 0-1.406-.157-2-.47a3.581 3.581 0 0 1-1.39-1.3 3.556 3.556 0 0 1-.5-1.87c0-.693.167-1.317.5-1.87.34-.553.804-.987 1.39-1.3.594-.313 1.26-.47 2-.47s1.404.157 1.99.47a3.48 3.48 0 0 1 1.39 1.3 3.5 3.5 0 0 1 .51 1.87 3.5 3.5 0 0 1-.51 1.87 3.48 3.48 0 0 1-1.39 1.3c-.586.313-1.25.47-1.99.47zm0-1.64c.354 0 .674-.083.96-.25a1.8 1.8 0 0 0 .68-.7 2.16 2.16 0 0 0 .25-1.05c0-.393-.083-.74-.25-1.04a1.783 1.783 0 0 0-.68-.71 1.871 1.871 0 0 0-.96-.25c-.353 0-.673.083-.96.25a1.797 1.797 0 0 0-.68.71c-.166.3-.25.647-.25 1.04s.084.743.25 1.05c.167.3.394.533.68.7.287.167.607.25.96.25zm11.587-5.5v7h-1.63l-3.09-3.73V84h-1.94v-7h1.63l3.09 3.73V77h1.94zm3.857 7.14c-.567 0-1.117-.07-1.65-.21-.533-.14-.967-.327-1.3-.56l.65-1.46c.313.207.677.373 1.09.5.413.127.82.19 1.22.19.76 0 1.14-.19 1.14-.57 0-.2-.11-.347-.33-.44-.213-.1-.56-.203-1.04-.31a10.553 10.553 0 0 1-1.32-.36 2.265 2.265 0 0 1-.91-.63c-.253-.287-.38-.673-.38-1.16 0-.427.117-.81.35-1.15.233-.347.58-.62 1.04-.82.467-.2 1.037-.3 1.71-.3.46 0 .913.053 1.36.16.447.1.84.25 1.18.45l-.61 1.47c-.667-.36-1.313-.54-1.94-.54-.393 0-.68.06-.86.18-.18.113-.27.263-.27.45s.107.327.32.42c.213.093.557.19 1.03.29a8.95 8.95 0 0 1 1.32.37c.353.127.657.333.91.62.26.28.39.663.39 1.15 0 .42-.117.8-.35 1.14-.233.34-.583.613-1.05.82-.467.2-1.033.3-1.7.3z"/>
	</g>
	<defs>
		<filter id="filter0_d_4167_70950" width="238" height="172" x="23" y="49" color-interpolation-filters="sRGB" filterUnits="userSpaceOnUse">
			<feFlood flood-opacity="0" result="BackgroundImageFix"/>
			<feColorMatrix in="SourceAlpha" result="hardAlpha" values="0 0 0 0 0 0 0 0 0 0 0 0 0 0 0 0 0 0 127 0"/>
			<feOffset dy="1"/>
			<feGaussianBlur stdDeviation="1"/>
			<feColorMatrix values="0 0 0 0 0 0 0 0 0 0 0 0 0 0 0 0 0 0 0.1 0"/>
			<feBlend in2="BackgroundImageFix" result="effect1_dropShadow_4167_70950"/>
			<feBlend in="SourceGraphic" in2="effect1_dropShadow_4167_70950" result="shape"/>
		</filter>
		<filter id="filter1_dd_4167_70950" width="82" height="58" x="233" y="93" color-interpolation-filters="sRGB" filterUnits="userSpaceOnUse">
			<feFlood flood-opacity="0" result="BackgroundImageFix"/>
			<feColorMatrix in="SourceAlpha" result="hardAlpha" values="0 0 0 0 0 0 0 0 0 0 0 0 0 0 0 0 0 0 127 0"/>
			<feOffset dx="1" dy="1"/>
			<feComposite in2="hardAlpha" operator="out"/>
			<feColorMatrix values="0 0 0 0 0 0 0 0 0 0 0 0 0 0 0 0 0 0 0.25 0"/>
			<feBlend in2="BackgroundImageFix" result="effect1_dropShadow_4167_70950"/>
			<feColorMatrix in="SourceAlpha" result="hardAlpha" values="0 0 0 0 0 0 0 0 0 0 0 0 0 0 0 0 0 0 127 0"/>
			<feOffset dx="-1" dy="-1"/>
			<feComposite in2="hardAlpha" operator="out"/>
			<feColorMatrix values="0 0 0 0 0 0 0 0 0 0 0 0 0 0 0 0 0 0 0.25 0"/>
			<feBlend in2="effect1_dropShadow_4167_70950" result="effect2_dropShadow_4167_70950"/>
			<feBlend in="SourceGraphic" in2="effect2_dropShadow_4167_70950" result="shape"/>
		</filter>
		<filter id="filter2_i_4167_70950" width="30.543" height="37.641" x="251.896" y="105.153" color-interpolation-filters="sRGB" filterUnits="userSpaceOnUse">
			<feFlood flood-opacity="0" result="BackgroundImageFix"/>
			<feBlend in="SourceGraphic" in2="BackgroundImageFix" result="shape"/>
			<feColorMatrix in="SourceAlpha" result="hardAlpha" values="0 0 0 0 0 0 0 0 0 0 0 0 0 0 0 0 0 0 127 0"/>
			<feOffset dx="1"/>
			<feComposite in2="hardAlpha" k2="-1" k3="1" operator="arithmetic"/>
			<feColorMatrix values="0 0 0 0 0 0 0 0 0 0 0 0 0 0 0 0 0 0 0.25 0"/>
			<feBlend in2="shape" result="effect1_innerShadow_4167_70950"/>
		</filter>
		<linearGradient id="paint0_linear_4167_70950" x1="201" x2="201" y1="100" y2="168" gradientUnits="userSpaceOnUse">
			<stop stop-color="#54595D"/>
			<stop offset="1" stop-color="#72777D"/>
		</linearGradient>
		<linearGradient id="paint1_linear_4167_70950" x1="269" x2="269" y1="94" y2="150" gradientUnits="userSpaceOnUse">
			<stop stop-color="#54595D"/>
			<stop offset="1" stop-color="#72777D"/>
		</linearGradient>
		<clipPath id="clip0_4167_70950">
			<path fill="#fff" d="M0 0h360v216H0z"/>
		</clipPath>
	</defs>
</svg>
