<svg xmlns="http://www.w3.org/2000/svg" width="360" height="216" viewBox="0 0 360 216">
	<g clip-path="url(#clip0_4167_71057)">
		<g filter="url(#filter0_d_4167_71057)">
			<path fill="#fff" d="M105 50h234v168H105z"/>
		</g>
		<path fill="#a2a9b1" d="M233 167.993h94v5.996h-94zm-116 11.996h86v5.996h-86zm0 11.996h211v5.996H117zm30 11.997h180v5.996H147zm59-23.993h122v5.996H206zm53-23.993h68v5.996h-68zm-39 0h36v5.996h-36zM239 144h88v5.996h-88zm0-20h88v5.996h-88zm61-12h27v5.996h-27zm-27 0h24v5.996h-24zm-53 0h50v5.996h-50zm0-12h107.437v5.996H220z"/>
		<path fill="#c8ccd1" d="M117 88h210v1H117z"/>
		<path fill="#54595d" d="M280.021 80q-1.776 0-3.146-.759a5.44 5.44 0 0 1-2.114-2.103q-.76-1.362-.761-3.138c-.001-1.776.259-2.224.778-3.12a5.53 5.53 0 0 1 2.131-2.121q1.37-.759 3.112-.759.914 0 1.979.31v1.19q-1.387 0-2.436.569a4.06 4.06 0 0 0-1.606 1.586q-.576 1-.575 2.345 0 1.328.575 2.345a4.06 4.06 0 0 0 1.606 1.586q1.05.57 2.436.569v1.19q-1.082.31-1.979.31m.508-.793q-1.269-.258-2.199-1a5.2 5.2 0 0 1-1.455-1.828 5.6 5.6 0 0 1-.507-2.379q0-1.293.507-2.38a5.2 5.2 0 0 1 1.455-1.827q.93-.742 2.199-1-1.675 0-2.91.707a5.15 5.15 0 0 0-1.928 1.897q-.676 1.172-.676 2.603t.676 2.62a5.2 5.2 0 0 0 1.928 1.88q1.235.707 2.91.707"/>
		<path fill="#a2a9b1" d="M290 70h37.114v9.994H290z"/>
		<path fill="url(#paint0_linear_4167_71057)" d="M117 100h92v68h-92z"/>
		<path fill="#fef6e7" d="M117 100h92v68h-92z"/>
		<path stroke="#fc3" stroke-dasharray="2 4" stroke-linecap="round" d="M117 100h92v68h-92z"/>
		<path fill="#fc3" fill-rule="evenodd" d="M173.6 124.4h-19.2a2.4 2.4 0 0 0-2.4 2.4v14.4a2.4 2.4 0 0 0 2.4 2.4h19.2a2.4 2.4 0 0 0 2.4-2.4v-14.4a2.4 2.4 0 0 0-2.4-2.4M154.196 140l4.908-6.3 3.504 4.212 4.896-6.312 6.3 8.4z" clip-rule="evenodd"/>
		<path fill="#fff" stroke="#72777d" stroke-width="2" d="M20 153.638v-90.6S20 59 24.261 59h94.478c2.353 0 4.261.703 4.261 4.038v90.639a5 5 0 0 1-5 5H99.206l-12 12.323-.043-12.323H24.261c-2.353 0-4.261-1.704-4.261-5.039z"/>
		<path fill="#54595d" fill-rule="evenodd" d="M69 185.998H55.99a3.994 3.994 0 0 0-3.99 3.994v14.006h14v4H55.99a3.985 3.985 0 0 0-3.99 4v4h36v-4c0-2.21-1.786-4-3.99-4H74v-4h14v-14.006a3.99 3.99 0 0 0-3.99-3.994H71v-4.17a3 3 0 1 0-2 0zm8 12a3 3 0 1 1 0-6 3 3 0 0 1 0 6m-14 0a3 3 0 1 1 0-6 3 3 0 0 1 0 6" clip-rule="evenodd"/>
		<g filter="url(#filter1_dd_4167_71057)">
			<path fill="url(#paint1_linear_4167_71057)" d="M32 94h80v56H32z"/>
			<path fill="#2a4b8d" d="M32 94h80v56H32z" style="mix-blend-mode:overlay"/>
			<path fill="#fef6e7" d="m108.113 118.09-2.187 1.55-.248 2.67-1.548-2.188-2.668-.248 2.187-1.551.247-2.67 1.549 2.189zM78.107 95.72l.587 1.135 1.134.588-1.134.587-.587 1.136-.587-1.136-1.134-.587 1.134-.588zm-43.033 48.246.587 1.136 1.134.587-1.135.587-.586 1.136-.587-1.136-1.135-.587 1.135-.587z"/>
			<path fill="#c8ccd1" stroke="#fef6e7" d="M87.368 113.215c5.448 9.445 2.215 21.521-7.22 26.974s-21.498 2.217-26.945-7.228-2.215-21.521 7.22-26.973c9.434-5.453 21.498-2.217 26.945 7.227z"/>
			<g filter="url(#filter2_i_4167_71057)">
				<path fill="#fef6e7" d="M58.274 129.563c8.451 14.654 22.165 10.391 22.165 10.391-9.875 5.707-22.373 2.543-27.916-7.067s-2.03-22.027 7.844-27.734c0 0-10.544 9.757-2.093 24.41"/>
			</g>
			<ellipse fill="#72777d" rx="3.013" ry="3.015" transform="rotate(-30.025 285.514 -78.822)skewX(-.051)"/>
			<path fill="#a2a9b1" d="M87.933 118.914c.824 1.43 1.482 4.407.053 5.232a2.984 2.984 0 0 1-4.08-1.094A2.99 2.99 0 0 1 85 118.968c1.428-.825 2.108-1.484 2.933-.054"/>
			<ellipse fill="#72777d" rx="2.152" ry="2.153" transform="rotate(-30.025 252.383 -47.516)skewX(-.051)"/>
			<path fill="#a2a9b1" stroke="#fef6e7" d="M77.088 116.039a5.1 5.1 0 0 1-1.865 6.966 5.09 5.09 0 0 1-6.959-1.867 5.1 5.1 0 0 1 1.865-6.966 5.09 5.09 0 0 1 6.959 1.867zm-2.321-10.853a2.516 2.516 0 0 1-.92 3.435 2.51 2.51 0 0 1-3.431-.92 2.516 2.516 0 0 1 .92-3.436 2.51 2.51 0 0 1 3.431.921z"/>
		</g>
		<path fill="#fc3" d="M155.777 112.816a1 1 0 0 0 1.198-.753l2.003-8.774a1 1 0 0 0-1.95-.445l-1.78 7.799-7.8-1.78a1 1 0 0 0-.445 1.95zm-58.902-.49c5.784-10.439 17.098-15.563 28.668-15.484 11.574.079 23.224 5.366 29.61 15.531l1.694-1.064c-6.814-10.845-19.164-16.385-31.29-16.467-12.13-.083-24.216 5.297-30.432 16.514z"/>
		<path fill="#72777d" d="m43.68 69-2.27 7h-2.12l-1.34-4.26-1.4 4.26h-2.12l-2.27-7h2.04l1.41 4.47L37.09 69h1.82l1.41 4.51L41.79 69zm.71 0h1.98v7h-1.98zm6.088 4.46-.74.79V76h-1.96v-7h1.96v2.91l2.71-2.91h2.18l-2.86 3.1 3.01 3.9h-2.3zm4.82-4.46h1.98v7h-1.98zm9.708 7-.02-3.71-1.8 3.02h-.88l-1.79-2.92V76h-1.83v-7h1.63l2.46 4.04 2.4-4.04h1.63l.02 7zm8.841-1.53V76h-5.62v-7h5.49v1.53h-3.53v1.18h3.11v1.48h-3.11v1.28zm1.1-5.47h3.31q1.149 0 2.04.43a3.24 3.24 0 0 1 1.38 1.22q.49.79.49 1.85t-.49 1.85a3.24 3.24 0 0 1-1.38 1.22q-.891.43-2.04.43h-3.31zm3.23 5.42q.9 0 1.44-.51.55-.51.55-1.41t-.55-1.41q-.54-.51-1.44-.51h-1.25v3.84zm5.03-5.42h1.98v7h-1.98zm8.08 5.64h-2.96l-.55 1.36h-2.02l3.09-7h1.95l3.1 7h-2.06zm-.58-1.46-.9-2.24-.9 2.24zM36.19 84.14q-1.1 0-1.98-.46a3.5 3.5 0 0 1-1.37-1.3q-.5-.83-.5-1.88c0-1.05.167-1.327.5-1.88a3.45 3.45 0 0 1 1.37-1.29q.88-.47 1.98-.47.96 0 1.73.34t1.28.98l-1.26 1.14q-.68-.82-1.65-.82-.57 0-1.02.25a1.77 1.77 0 0 0-.69.71q-.24.45-.24 1.04c0 .59.08.743.24 1.05q.25.45.69.7.45.25 1.02.25.97 0 1.65-.82l1.26 1.14q-.51.64-1.28.98t-1.73.34m7.276 0q-1.11 0-2-.47a3.6 3.6 0 0 1-1.39-1.3 3.55 3.55 0 0 1-.5-1.87q0-1.04.5-1.87.51-.83 1.39-1.3.89-.47 2-.47c1.11 0 1.404.157 1.99.47a3.5 3.5 0 0 1 1.39 1.3 3.5 3.5 0 0 1 .51 1.87 3.5 3.5 0 0 1-.51 1.87 3.5 3.5 0 0 1-1.39 1.3q-.88.47-1.99.47m0-1.64q.531 0 .96-.25.43-.25.68-.7.25-.46.25-1.05c0-.59-.083-.74-.25-1.04a1.8 1.8 0 0 0-.68-.71 1.9 1.9 0 0 0-.96-.25q-.53 0-.96.25a1.8 1.8 0 0 0-.68.71q-.25.45-.25 1.04c0 .59.084.743.25 1.05q.25.45.68.7t.96.25M54.713 84l-.02-3.71-1.8 3.02h-.88l-1.79-2.92V84h-1.83v-7h1.63l2.46 4.04 2.4-4.04h1.63l.02 7zm9.541 0-.02-3.71-1.8 3.02h-.88l-1.79-2.92V84h-1.83v-7h1.63l2.46 4.04 2.4-4.04h1.63l.02 7zm6.751.14q-1.11 0-2-.47a3.6 3.6 0 0 1-1.39-1.3 3.55 3.55 0 0 1-.5-1.87q0-1.04.5-1.87.51-.83 1.39-1.3.89-.47 2-.47c1.11 0 1.404.157 1.99.47a3.5 3.5 0 0 1 1.39 1.3 3.5 3.5 0 0 1 .51 1.87 3.5 3.5 0 0 1-.51 1.87 3.5 3.5 0 0 1-1.39 1.3q-.88.47-1.99.47m0-1.64q.531 0 .96-.25.43-.25.68-.7.25-.46.25-1.05c0-.59-.083-.74-.25-1.04a1.8 1.8 0 0 0-.68-.71 1.9 1.9 0 0 0-.96-.25q-.53 0-.96.25a1.8 1.8 0 0 0-.68.71q-.25.45-.25 1.04c0 .59.084.743.25 1.05q.25.45.68.7t.96.25M82.592 77v7h-1.63l-3.09-3.73V84h-1.94v-7h1.63l3.09 3.73V77zm3.857 7.14q-.85 0-1.65-.21t-1.3-.56l.65-1.46q.47.31 1.09.5t1.22.19q1.14 0 1.14-.57 0-.3-.33-.44-.32-.15-1.04-.31a11 11 0 0 1-1.32-.36 2.26 2.26 0 0 1-.91-.63q-.38-.43-.38-1.16 0-.64.35-1.15.35-.52 1.04-.82.7-.3 1.71-.3.69 0 1.36.16.67.15 1.18.45l-.61 1.47q-1-.54-1.94-.54-.59 0-.86.18-.27.17-.27.45c0 .28.107.327.32.42q.32.14 1.03.29a9 9 0 0 1 1.32.37q.53.19.91.62.39.42.39 1.15 0 .63-.35 1.14t-1.05.82q-.7.3-1.7.3"/>
		<path fill="#72777d" fill-rule="evenodd" d="M106.93 69.57a3.68 3.68 0 0 0 2.18 2.55 7.29 7.29 0 1 1-8.09 1.27l1.36 1.27.64.64.45-.45.28 1.53-1.54-.26.45-.45-.64-.64a5.2 5.2 0 0 0-1.45 3.46h.91v-.73l1.26.91-1.26.91v-.73h-.91a5.7 5.7 0 0 0 1.45 3.45l.63-.65-.45-.45 1.54-.26-.27 1.54-.45-.45-.63.64a5.2 5.2 0 0 0 3.45 1.45v-.91h-.73l.91-1.27.91 1.27h-.73v.91a5.7 5.7 0 0 0 3.45-1.45l-.64-.64-.45.45-.26-1.54 1.53.27-.45.45.64.64a5.2 5.2 0 0 0 1.45-3.46h-.91v.73l-1.26-.91 1.26-.91v.73h.91a5.7 5.7 0 0 0-1.45-3.45l-.62.65.45.45-1.54.26.26-1.54.45.45.64-.63a9 9 0 0 0-2-1.18 5.13 5.13 0 0 1-2-2 5.1 5.1 0 0 1-.55-1.91l-1.82.91 2.73-4.55 2.73 4.54s-1.73-.82-1.82-.91m-.91 11.57a2.5 2.5 0 1 0 0-5 2.5 2.5 0 0 0 0 5" clip-rule="evenodd"/>
	</g>
	<defs>
		<filter id="filter0_d_4167_71057" width="238" height="172" x="103" y="49" color-interpolation-filters="sRGB" filterUnits="userSpaceOnUse">
			<feFlood flood-opacity="0" result="BackgroundImageFix"/>
			<feColorMatrix in="SourceAlpha" result="hardAlpha" values="0 0 0 0 0 0 0 0 0 0 0 0 0 0 0 0 0 0 127 0"/>
			<feOffset dy="1"/>
			<feGaussianBlur stdDeviation="1"/>
			<feColorMatrix values="0 0 0 0 0 0 0 0 0 0 0 0 0 0 0 0 0 0 0.1 0"/>
			<feBlend in2="BackgroundImageFix" result="effect1_dropShadow_4167_71057"/>
			<feBlend in="SourceGraphic" in2="effect1_dropShadow_4167_71057" result="shape"/>
		</filter>
		<filter id="filter1_dd_4167_71057" width="82" height="58" x="31" y="93" color-interpolation-filters="sRGB" filterUnits="userSpaceOnUse">
			<feFlood flood-opacity="0" result="BackgroundImageFix"/>
			<feColorMatrix in="SourceAlpha" result="hardAlpha" values="0 0 0 0 0 0 0 0 0 0 0 0 0 0 0 0 0 0 127 0"/>
			<feOffset dx="1" dy="1"/>
			<feComposite in2="hardAlpha" operator="out"/>
			<feColorMatrix values="0 0 0 0 0 0 0 0 0 0 0 0 0 0 0 0 0 0 0.25 0"/>
			<feBlend in2="BackgroundImageFix" result="effect1_dropShadow_4167_71057"/>
			<feColorMatrix in="SourceAlpha" result="hardAlpha" values="0 0 0 0 0 0 0 0 0 0 0 0 0 0 0 0 0 0 127 0"/>
			<feOffset dx="-1" dy="-1"/>
			<feComposite in2="hardAlpha" operator="out"/>
			<feColorMatrix values="0 0 0 0 0 0 0 0 0 0 0 0 0 0 0 0 0 0 0.25 0"/>
			<feBlend in2="effect1_dropShadow_4167_71057" result="effect2_dropShadow_4167_71057"/>
			<feBlend in="SourceGraphic" in2="effect2_dropShadow_4167_71057" result="shape"/>
		</filter>
		<filter id="filter2_i_4167_71057" width="30.543" height="37.641" x="49.895" y="105.153" color-interpolation-filters="sRGB" filterUnits="userSpaceOnUse">
			<feFlood flood-opacity="0" result="BackgroundImageFix"/>
			<feBlend in="SourceGraphic" in2="BackgroundImageFix" result="shape"/>
			<feColorMatrix in="SourceAlpha" result="hardAlpha" values="0 0 0 0 0 0 0 0 0 0 0 0 0 0 0 0 0 0 127 0"/>
			<feOffset dx="1"/>
			<feComposite in2="hardAlpha" k2="-1" k3="1" operator="arithmetic"/>
			<feColorMatrix values="0 0 0 0 0 0 0 0 0 0 0 0 0 0 0 0 0 0 0.25 0"/>
			<feBlend in2="shape" result="effect1_innerShadow_4167_71057"/>
		</filter>
		<linearGradient id="paint0_linear_4167_71057" x1="163" x2="163" y1="100" y2="168" gradientUnits="userSpaceOnUse">
			<stop stop-color="#54595d"/>
			<stop offset="1" stop-color="#72777d"/>
		</linearGradient>
		<linearGradient id="paint1_linear_4167_71057" x1="67" x2="67" y1="94" y2="150" gradientUnits="userSpaceOnUse">
			<stop stop-color="#54595d"/>
			<stop offset="1" stop-color="#72777d"/>
		</linearGradient>
		<clipPath id="clip0_4167_71057">
			<path fill="#fff" d="M0 0h360v216H0z"/>
		</clipPath>
	</defs>
</svg>
