<svg xmlns="http://www.w3.org/2000/svg" width="360" height="216" fill="none" viewBox="0 0 360 216">
	<g clip-path="url(#clip0)">
		<g filter="url(#filter0_d)">
			<path fill="#fff" d="m184.056 4 161.328 28.447-34.055 193.139L150 197.14z"/>
		</g>
		<path fill="#A2A9B1" d="m164.366 182.101 69.303 12.22-1.002 5.68-69.303-12.22zm1.803-10.225 132.925 23.438-1.001 5.68-132.926-23.438zm62.217-.743 62.486 11.018-1.002 5.68-62.486-11.018zm-60.214-10.618 28.403 5.008-1.002 5.68-28.403-5.008zm31.811 5.61 24.994 4.407-1.001 5.68-24.995-4.407zm-29.808-16.971 134.062 23.639-1.002 5.68-134.062-23.639zm3.206-18.178 130.653 23.038-1.001 5.68-130.654-23.038zm104.254 6.669 36.356 6.41-1.001 5.68-36.357-6.41zm-28.404-5.009 24.994 4.407-1.001 5.68-24.995-4.407zm-73.847-13.021 70.44 12.42-1.002 5.68-70.44-12.42zm18.662-105.84 37.492 6.61-1.803 10.226-37.492-6.61z"/>
		<path fill="url(#paint0_linear)" d="M190.44 34.225h140.744v74.987H190.44z" transform="rotate(10 190.44 34.225)"/>
		<path fill="#FEF6E7" d="m190.44 34.225 138.606 24.44-13.022 73.848-138.605-24.44z"/>
		<path stroke="#FC3" stroke-dasharray="2 4" stroke-linecap="round" d="m190.44 34.225 138.606 24.44-13.022 73.848-138.605-24.44z"/>
		<path fill="#54595D" d="M240.81 32.31c-1.103-.194-2.04-.598-2.809-1.21a5.107 5.107 0 0 1-1.631-2.27c-.326-.913-.394-1.91-.203-2.992s.6-1.99 1.228-2.725a5.177 5.177 0 0 1 2.327-1.588c.932-.312 1.939-.372 3.021-.182.568.1 1.165.303 1.794.609l-.192 1.087c-.861-.152-1.648-.112-2.361.12a3.81 3.81 0 0 0-1.752 1.186c-.465.546-.769 1.229-.914 2.048-.142.81-.09 1.555.158 2.238a3.815 3.815 0 0 0 1.241 1.713c.591.462 1.316.768 2.178.92l-.192 1.088c-.706.07-1.337.056-1.893-.042zm.6-.641c-.76-.297-1.389-.722-1.887-1.275a4.837 4.837 0 0 1-1.061-1.91 5.074 5.074 0 0 1-.089-2.257 5.068 5.068 0 0 1 .856-2.091 4.828 4.828 0 0 1 1.65-1.432c.657-.35 1.394-.534 2.209-.553-1.04-.183-1.981-.127-2.824.169a4.824 4.824 0 0 0-2.102 1.416 4.68 4.68 0 0 0-1.05 2.268 4.773 4.773 0 0 0 .208 2.506 4.87 4.87 0 0 0 1.494 2.035c.691.566 1.556.94 2.596 1.124z"/>
		<path fill="#FC3" fill-rule="evenodd" d="m262.886 74.482-18.178-3.205a2.307 2.307 0 0 0-2.673 1.871l-2.404 13.634a2.308 2.308 0 0 0 1.872 2.673l18.177 3.205a2.307 2.307 0 0 0 2.673-1.872l2.404-13.633a2.306 2.306 0 0 0-1.871-2.673zm-20.976 11.53 5.699-5.145 2.614 4.573 5.689-5.159 4.563 9.005-18.565-3.274z" clip-rule="evenodd"/>
		<path fill="#fff" stroke="#72777D" stroke-width="2" d="M32 153.638v-97.6S32 50 36.261 50H166.74c2.353 0 4.261 2.703 4.261 6.038v98.639a5 5 0 0 1-5 5H90.206V172l-12.043-12.323H36.261c-2.353 0-4.261-2.704-4.261-6.039z"/>
		<path fill="#54595D" fill-rule="evenodd" d="M157.003 137.994a1.89 1.89 0 0 1 1.77-1.998h.23a1.868 1.868 0 0 1 2 1.728c.01.09.01.18 0 .27a1.868 1.868 0 0 1-1.73 1.998c-.089.01-.18.01-.27 0a1.88 1.88 0 0 1-2-1.748 1.045 1.045 0 0 1 0-.25zm2.061-15.986c2.94 0 4.94 1.888 4.94 4.526a4.585 4.585 0 0 1-2.29 4.076c-1.42.92-1.82 1.529-1.82 2.708v.68h-2.51v-.81a3.835 3.835 0 0 1 2-3.837c1.34-.899 1.79-1.528 1.79-2.707a2.1 2.1 0 0 0-2.08-2.139h-.17a2.298 2.298 0 0 0-2.38 2.219v.169h-2.54a4.706 4.706 0 0 1 4.51-4.885c.183-.011.366-.011.55 0zM122 185.998h-13.01a3.994 3.994 0 0 0-3.99 3.994v14.006h14v4h-10.01a3.985 3.985 0 0 0-3.99 4v4h36v-4c0-2.21-1.786-4-3.99-4H127v-4h14v-14.006a3.992 3.992 0 0 0-3.99-3.994H124v-4.17a2.999 2.999 0 0 0-1-5.828 3 3 0 0 0-1 5.828v4.17zm8 12a3 3 0 1 1 0-6 3 3 0 0 1 0 6zm-14 0a3 3 0 1 1 0-6 3 3 0 0 1 0 6z" clip-rule="evenodd"/>
		<g filter="url(#filter1_dd)">
			<path fill="url(#paint1_linear)" d="M44 86h100v56H44z"/>
			<path fill="#2A4B8D" d="M44 86h100v56H44z" style="mix-blend-mode:overlay"/>
			<path fill="#FEF6E7" d="m135.112 110.09-2.186 1.55-.248 2.67-1.549-2.188-2.667-.248 2.186-1.551.248-2.67 1.548 2.189 2.668.248zm-30.005-22.37.587 1.135 1.134.588-1.134.587-.587 1.136-.587-1.136-1.134-.587 1.134-.588.587-1.136zm-43.034 48.246.587 1.136 1.135.587-1.135.587-.587 1.136-.586-1.136-1.135-.587 1.135-.587.586-1.136z"/>
			<path fill="#C8CCD1" stroke="#FEF6E7" d="M109.368 104.215c5.448 9.445 2.215 21.521-7.219 26.974-9.435 5.452-21.499 2.217-26.946-7.228-5.447-9.445-2.215-21.521 7.22-26.974 9.434-5.452 21.498-2.216 26.945 7.228z"/>
			<g filter="url(#filter2_i)">
				<path fill="#FEF6E7" d="M80.274 120.563c8.451 14.654 22.165 10.391 22.165 10.391-9.875 5.707-22.373 2.543-27.916-7.067-5.542-9.61-2.03-22.027 7.844-27.734 0 0-10.544 9.757-2.093 24.41z"/>
			</g>
			<ellipse fill="#72777D" rx="3.013" ry="3.015" transform="rotate(-30.025 279.735 -124.337) skewX(-.051)"/>
			<path fill="#A2A9B1" d="M109.932 109.914c.825 1.43 1.482 4.407.054 5.232a2.985 2.985 0 0 1-4.08-1.094 2.992 2.992 0 0 1 1.094-4.084c1.428-.825 2.107-1.484 2.932-.054z"/>
			<ellipse fill="#72777D" rx="2.152" ry="2.153" transform="rotate(-30.025 246.604 -93.032) skewX(-.051)"/>
			<path fill="#A2A9B1" stroke="#FEF6E7" d="M99.088 107.039a5.103 5.103 0 0 1-1.865 6.966 5.091 5.091 0 0 1-6.96-1.867 5.102 5.102 0 0 1 1.865-6.966 5.091 5.091 0 0 1 6.96 1.867zm-2.321-10.853a2.517 2.517 0 0 1-.92 3.435 2.51 2.51 0 0 1-3.431-.92 2.517 2.517 0 0 1 .92-3.436 2.511 2.511 0 0 1 3.431.92z"/>
		</g>
		<path fill="#FC3" d="M225.811 98.574a1 1 0 0 0 1.171-.793l1.703-8.837a1 1 0 0 0-1.964-.378l-1.514 7.855-7.855-1.513a1 1 0 1 0-.379 1.963l8.838 1.703zm-98.952-.47c9.768-16.362 28.88-24.385 48.385-24.262 19.504.124 39.155 8.397 49.928 24.31l1.656-1.12c-11.227-16.586-31.576-25.063-51.572-25.19-19.995-.126-39.883 8.1-50.115 25.238l1.718 1.025z"/>
		<path fill="#72777D" fill-rule="evenodd" d="M50.93 61.57a3.68 3.68 0 0 0 2.18 2.55 7.29 7.29 0 1 1-8.09 1.27l1.36 1.27.64.64.45-.45.28 1.53-1.54-.26.45-.45-.64-.64a5.21 5.21 0 0 0-1.45 3.46h.91v-.73l1.26.91-1.26.91v-.73h-.91a5.69 5.69 0 0 0 1.45 3.45l.63-.65-.45-.45 1.54-.26-.27 1.54-.45-.45-.63.64a5.21 5.21 0 0 0 3.45 1.45v-.91h-.73l.91-1.27.91 1.27h-.73v.91a5.69 5.69 0 0 0 3.45-1.45l-.64-.64-.45.45-.26-1.54 1.53.27-.45.45.64.64a5.21 5.21 0 0 0 1.45-3.46h-.91v.73l-1.26-.91 1.26-.91v.73h.91a5.69 5.69 0 0 0-1.45-3.45l-.62.65.45.45-1.54.26.26-1.54.45.45.64-.63a8.862 8.862 0 0 0-2-1.18 5.13 5.13 0 0 1-2-2 5.08 5.08 0 0 1-.55-1.91l-1.82.91 2.73-4.55 2.73 4.54s-1.73-.82-1.82-.91zm-.91 11.57a2.5 2.5 0 1 0 0-5 2.5 2.5 0 0 0 0 5z" clip-rule="evenodd"/>
		<path fill="#72777D" d="m71.68 61-2.27 7h-2.12l-1.34-4.26-1.4 4.26h-2.12l-2.27-7h2.04l1.41 4.47L65.09 61h1.82l1.41 4.51L69.79 61h1.89zm.71 0h1.98v7h-1.98v-7zm6.088 4.46-.74.79V68h-1.96v-7h1.96v2.91l2.71-2.91h2.18l-2.86 3.1 3.01 3.9h-2.3l-2-2.54zm4.82-4.46h1.98v7h-1.98v-7zm9.708 7-.02-3.71-1.8 3.02h-.88l-1.79-2.92V68h-1.83v-7h1.63l2.46 4.04 2.4-4.04h1.63l.02 7h-1.82zm8.841-1.53V68h-5.62v-7h5.49v1.53h-3.53v1.18h3.11v1.48h-3.11v1.28h3.66zm1.099-5.47h3.31c.767 0 1.447.143 2.04.43a3.243 3.243 0 0 1 1.38 1.22c.327.527.49 1.143.49 1.85 0 .707-.163 1.323-.49 1.85a3.243 3.243 0 0 1-1.38 1.22c-.593.287-1.273.43-2.04.43h-3.31v-7zm3.23 5.42c.6 0 1.08-.17 1.44-.51.367-.34.55-.81.55-1.41 0-.6-.183-1.07-.55-1.41-.36-.34-.84-.51-1.44-.51h-1.25v3.84h1.25zm5.032-5.42h1.98v7h-1.98v-7zm8.078 5.64h-2.96l-.55 1.36h-2.02l3.09-7h1.95l3.1 7h-2.06l-.55-1.36zm-.58-1.46-.9-2.24-.9 2.24h1.8zM64.19 76.14c-.733 0-1.393-.153-1.98-.46a3.522 3.522 0 0 1-1.37-1.3c-.333-.553-.5-1.18-.5-1.88s.167-1.327.5-1.88a3.45 3.45 0 0 1 1.37-1.29c.587-.313 1.247-.47 1.98-.47.64 0 1.217.113 1.73.34.513.227.94.553 1.28.98l-1.26 1.14c-.453-.547-1.003-.82-1.65-.82-.38 0-.72.083-1.02.25a1.77 1.77 0 0 0-.69.71c-.16.3-.24.647-.24 1.04s.08.743.24 1.05c.167.3.397.533.69.7.3.167.64.25 1.02.25.647 0 1.197-.273 1.65-.82l1.26 1.14c-.34.427-.767.753-1.28.98-.513.227-1.09.34-1.73.34zm7.276 0c-.74 0-1.406-.157-2-.47a3.577 3.577 0 0 1-1.39-1.3 3.553 3.553 0 0 1-.5-1.87c0-.693.167-1.317.5-1.87.34-.553.804-.987 1.39-1.3.594-.313 1.26-.47 2-.47s1.404.157 1.99.47a3.487 3.487 0 0 1 1.39 1.3 3.5 3.5 0 0 1 .51 1.87 3.5 3.5 0 0 1-.51 1.87 3.487 3.487 0 0 1-1.39 1.3c-.586.313-1.25.47-1.99.47zm0-1.64c.354 0 .674-.083.96-.25.287-.167.514-.4.68-.7.167-.307.25-.657.25-1.05s-.083-.74-.25-1.04a1.79 1.79 0 0 0-.68-.71 1.874 1.874 0 0 0-.96-.25c-.353 0-.673.083-.96.25a1.79 1.79 0 0 0-.68.71c-.166.3-.25.647-.25 1.04s.084.743.25 1.05c.167.3.394.533.68.7.287.167.607.25.96.25zM82.713 76l-.02-3.71-1.8 3.02h-.88l-1.79-2.92V76h-1.83v-7h1.63l2.46 4.04 2.4-4.04h1.63l.02 7h-1.82zm9.541 0-.02-3.71-1.8 3.02h-.88l-1.79-2.92V76h-1.83v-7h1.63l2.46 4.04 2.4-4.04h1.63l.02 7h-1.82zm6.751.14c-.74 0-1.406-.157-2-.47a3.576 3.576 0 0 1-1.39-1.3 3.553 3.553 0 0 1-.5-1.87c0-.693.167-1.317.5-1.87.34-.553.804-.987 1.39-1.3.594-.313 1.26-.47 2-.47s1.404.157 1.99.47a3.48 3.48 0 0 1 1.39 1.3 3.5 3.5 0 0 1 .51 1.87 3.5 3.5 0 0 1-.51 1.87 3.48 3.48 0 0 1-1.39 1.3c-.586.313-1.25.47-1.99.47zm0-1.64c.354 0 .674-.083.96-.25.287-.167.514-.4.68-.7a2.16 2.16 0 0 0 .25-1.05c0-.393-.083-.74-.25-1.04a1.785 1.785 0 0 0-.68-.71 1.875 1.875 0 0 0-.96-.25c-.353 0-.673.083-.96.25a1.79 1.79 0 0 0-.68.71c-.166.3-.25.647-.25 1.04s.084.743.25 1.05c.167.3.394.533.68.7.287.167.607.25.96.25zm11.587-5.5v7h-1.63l-3.09-3.73V76h-1.94v-7h1.63l3.09 3.73V69h1.94zm3.857 7.14c-.567 0-1.117-.07-1.65-.21-.533-.14-.967-.327-1.3-.56l.65-1.46c.313.207.677.373 1.09.5.413.127.82.19 1.22.19.76 0 1.14-.19 1.14-.57 0-.2-.11-.347-.33-.44-.213-.1-.56-.203-1.04-.31a10.553 10.553 0 0 1-1.32-.36 2.265 2.265 0 0 1-.91-.63c-.253-.287-.38-.673-.38-1.16 0-.427.117-.81.35-1.15.233-.347.58-.62 1.04-.82.467-.2 1.037-.3 1.71-.3.46 0 .913.053 1.36.16.447.1.84.25 1.18.45l-.61 1.47c-.667-.36-1.313-.54-1.94-.54-.393 0-.68.06-.86.18-.18.113-.27.263-.27.45s.107.327.32.42c.213.093.557.19 1.03.29a8.95 8.95 0 0 1 1.32.37c.353.127.657.333.91.62.26.28.39.663.39 1.15 0 .42-.117.8-.35 1.14-.233.34-.583.613-1.05.82-.467.2-1.033.3-1.7.3z"/>
	</g>
	<defs>
		<filter id="filter0_d" width="199.384" height="225.586" x="148" y="3" color-interpolation-filters="sRGB" filterUnits="userSpaceOnUse">
			<feFlood flood-opacity="0" result="BackgroundImageFix"/>
			<feColorMatrix in="SourceAlpha" result="hardAlpha" values="0 0 0 0 0 0 0 0 0 0 0 0 0 0 0 0 0 0 127 0"/>
			<feOffset dy="1"/>
			<feGaussianBlur stdDeviation="1"/>
			<feColorMatrix values="0 0 0 0 0 0 0 0 0 0 0 0 0 0 0 0 0 0 0.1 0"/>
			<feBlend in2="BackgroundImageFix" result="effect1_dropShadow"/>
			<feBlend in="SourceGraphic" in2="effect1_dropShadow" result="shape"/>
		</filter>
		<filter id="filter1_dd" width="102" height="58" x="43" y="85" color-interpolation-filters="sRGB" filterUnits="userSpaceOnUse">
			<feFlood flood-opacity="0" result="BackgroundImageFix"/>
			<feColorMatrix in="SourceAlpha" result="hardAlpha" values="0 0 0 0 0 0 0 0 0 0 0 0 0 0 0 0 0 0 127 0"/>
			<feOffset dx="1" dy="1"/>
			<feComposite in2="hardAlpha" operator="out"/>
			<feColorMatrix values="0 0 0 0 0 0 0 0 0 0 0 0 0 0 0 0 0 0 0.25 0"/>
			<feBlend in2="BackgroundImageFix" result="effect1_dropShadow"/>
			<feColorMatrix in="SourceAlpha" result="hardAlpha" values="0 0 0 0 0 0 0 0 0 0 0 0 0 0 0 0 0 0 127 0"/>
			<feOffset dx="-1" dy="-1"/>
			<feComposite in2="hardAlpha" operator="out"/>
			<feColorMatrix values="0 0 0 0 0 0 0 0 0 0 0 0 0 0 0 0 0 0 0.25 0"/>
			<feBlend in2="effect1_dropShadow" result="effect2_dropShadow"/>
			<feBlend in="SourceGraphic" in2="effect2_dropShadow" result="shape"/>
		</filter>
		<filter id="filter2_i" width="30.543" height="37.641" x="71.895" y="96.153" color-interpolation-filters="sRGB" filterUnits="userSpaceOnUse">
			<feFlood flood-opacity="0" result="BackgroundImageFix"/>
			<feBlend in="SourceGraphic" in2="BackgroundImageFix" result="shape"/>
			<feColorMatrix in="SourceAlpha" result="hardAlpha" values="0 0 0 0 0 0 0 0 0 0 0 0 0 0 0 0 0 0 127 0"/>
			<feOffset dx="1"/>
			<feComposite in2="hardAlpha" k2="-1" k3="1" operator="arithmetic"/>
			<feColorMatrix values="0 0 0 0 0 0 0 0 0 0 0 0 0 0 0 0 0 0 0.25 0"/>
			<feBlend in2="shape" result="effect1_innerShadow"/>
		</filter>
		<linearGradient id="paint0_linear" x1="260.813" x2="260.813" y1="34.225" y2="109.212" gradientUnits="userSpaceOnUse">
			<stop stop-color="#54595D"/>
			<stop offset="1" stop-color="#72777D"/>
		</linearGradient>
		<linearGradient id="paint1_linear" x1="94" x2="94" y1="86" y2="142" gradientUnits="userSpaceOnUse">
			<stop stop-color="#54595D"/>
			<stop offset="1" stop-color="#72777D"/>
		</linearGradient>
		<clipPath id="clip0">
			<path fill="#fff" d="M0 0h360v216H0z"/>
		</clipPath>
	</defs>
</svg>
