<svg xmlns="http://www.w3.org/2000/svg" width="360" height="216" fill="none" viewBox="0 0 360 216">
	<g clip-path="url(#clip0_2:126)">
		<path fill="#eaecf0" d="M154 32H54a4 4 0 0 0-4 4v184a4 4 0 0 0 4 4h100a4 4 0 0 0 4-4V36a4 4 0 0 0-4-4"/>
		<path stroke="#a2a9b1" stroke-linecap="square" stroke-width="2" d="M154 31H54a5 5 0 0 0-5 5v184a5 5 0 0 0 5 5h100a5 5 0 0 0 5-5V36a5 5 0 0 0-5-5z"/>
		<path fill="#a2a9b1" stroke="#a2a9b1" stroke-linecap="square" d="M50 36a4 4 0 0 1 4-4h100a4 4 0 0 1 4 4v2H50z"/>
		<path fill="#fff" d="M50 38h108v82H50z"/>
		<path fill="#a2a9b1" d="M56 116h96v6H56zm0-12h28v6H56zm30 0h58v6H86zM56 92h96v6H56zm0-12h96v6H56zm74-12h22v6h-22zm-74 0h72v6H56zm0-22h56v14H56z"/>
		<path fill="#fff" d="M50 119h108v98H50z"/>
		<path fill="#fff" d="M50 193h108v24H50z"/>
		<path fill="#eaecf0" stroke="#a2a9b1" stroke-linecap="square" d="M70 199H58a2 2 0 0 0-2 2v8a2 2 0 0 0 2 2h12a2 2 0 0 0 2-2v-8a2 2 0 0 0-2-2z"/>
		<path fill="#54595d" fill-rule="evenodd" d="M62.8 206.668 61.132 205l-.564.564L62.8 207.8l4.8-4.8-.564-.568z"/>
		<path fill="#eaecf0" stroke="#a2a9b1" stroke-linecap="square" d="M150 199h-12a2 2 0 0 0-2 2v8a2 2 0 0 0 2 2h12a2 2 0 0 0 2-2v-8a2 2 0 0 0-2-2z"/>
		<path fill="#54595d" fill-rule="evenodd" d="m142.5 201.4-.6.6 3 3-3 3 .6.6 3.6-3.6z"/>
		<path fill="#eaecf0" stroke="#a2a9b1" stroke-linecap="square" d="M92 199H80a2 2 0 0 0-2 2v8a2 2 0 0 0 2 2h12a2 2 0 0 0 2-2v-8a2 2 0 0 0-2-2z"/>
		<path fill="#54595d" fill-rule="evenodd" d="m86.565 204.999 2.546-2.545-.566-.566-2.546 2.546-2.544-2.545-.566.565 2.545 2.545-2.546 2.546.566.565 2.545-2.545 2.547 2.546.565-.565z"/>
		<path fill="#fff" d="M50 119h108v74H50z"/>
		<path fill="#a2a9b1" d="M107 161h45v4h-45zm-51-22h96v4H56zm51 29h45v4h-45zm0-19h36v8h-36zm26 32a3 3 0 1 0-6 0 3 3 0 0 0 6 0m3-2h16v4h-16z"/>
		<path fill="#eaf3ff" d="M50 119h108v14H50z"/>
		<path fill="#eaecf0" d="M56 149h48v36H56z"/>
		<path fill="#a2a9b1" fill-rule="evenodd" d="M85.887 163.999a.94.94 0 0 0-.885 1 .94.94 0 0 0 1 1 .94.94 0 0 0 .729-.271.94.94 0 0 0 .271-.729.936.936 0 0 0-1-1zm2.615-4.735c0-1.32-1-2.265-2.47-2.265a3 3 0 0 0-.275 0 2.356 2.356 0 0 0-2.255 2.445h1.27v-.085a1.15 1.15 0 0 1 .747-1.038c.141-.053.292-.077.443-.072h.085a1.06 1.06 0 0 1 .966.664q.078.195.074.406c0 .59-.225.905-.895 1.355a1.92 1.92 0 0 0-1 1.92v.405h1.255v-.34c0-.59.2-.895.91-1.355a2.29 2.29 0 0 0 1.145-2.04M73 174h14l-3.75-5-.25-.33-.5-.67-3.5 4.5-2.5-3zm12.514-6.5h.766a2.85 2.85 0 0 0 2.72-2v9.5a2 2 0 0 1-2 2H73a2 2 0 0 1-2-2v-10a2 2 0 0 1 2-2h10v2.25a2.53 2.53 0 0 0 2.514 2.25"/>
		<path fill="#54595d" fill-rule="evenodd" d="M60.75 123.5h-3.252a1 1 0 0 0-.998.998V128H60v1h-2.502a1 1 0 0 0-.707.292 1 1 0 0 0-.291.708v1h9v-1c0-.553-.447-1-.998-1H62v-1h3.5v-3.502a.997.997 0 0 0-.998-.998H61.25v-1.043a.749.749 0 1 0-.5 0zm2 3a.749.749 0 0 1-.53-1.28.749.749 0 1 1 1.06 1.06.75.75 0 0 1-.53.22m-3.5 0a.749.749 0 0 1-.53-1.28.749.749 0 1 1 1.06 1.06.75.75 0 0 1-.53.22"/>
		<path stroke="#a2a9b1" stroke-linecap="square" d="M49.5 118.5h109v99h-109z"/>
		<path fill="#fc3" fill-opacity=".5" stroke="#fc3" stroke-width="2" d="M148.612 184H310a4 4 0 0 0 2.828-1.172A4 4 0 0 0 314 180V57.45a4 4 0 0 0-3.591-3.979L160 38H50v79.841l97.493 65.817c.33.223.72.342 1.119.342z"/>
		<path fill="#fc3" stroke="#fc3" stroke-linecap="square" d="M50 37.5h-.5v80h109v-80z" opacity=".5"/>
		<path fill="#fff" d="M308 55.841H150a4 4 0 0 0-4 4v118a4 4 0 0 0 4 4h158a4 4 0 0 0 4-4v-118a4 4 0 0 0-4-4"/>
		<path fill="#a2a9b1" d="M157 174.841h144v9H157zm0-18h42v9h-42zm45 0h87v9h-87zm-45-18h144v9H157zm0-18h144v9H157zm111-18h33v9h-33zm-111 0h108v9H157zm0-33h84v21h-84z"/>
		<path stroke="#fc3" stroke-linecap="square" stroke-width="4" d="M308 55.841H150a4 4 0 0 0-4 4v118a4 4 0 0 0 4 4h158a4 4 0 0 0 4-4v-118a4 4 0 0 0-4-4z"/>
	</g>
	<defs>
		<clipPath id="clip0_2:126">
			<path fill="#fff" d="M0 0h360v216H0z"/>
		</clipPath>
	</defs>
</svg>
