<svg xmlns="http://www.w3.org/2000/svg" width="360" height="216" fill="none" viewBox="0 0 360 216">
	<g clip-path="url(#clip0)">
		<g filter="url(#filter0_d)">
			<rect width="108" height="192" x="202" y="32" fill="#eaecf0" rx="4"/>
			<rect width="110" height="194" x="201" y="31" stroke="#a2a9b1" stroke-linecap="square" stroke-width="2" rx="5"/>
		</g>
		<path fill="#a2a9b1" stroke="#a2a9b1" stroke-linecap="square" d="M202 36a4 4 0 0 1 4-4h100a4 4 0 0 1 4 4v2H202z"/>
		<g clip-path="url(#clip1)">
			<path fill="#eaecf0" d="M202 38h108v82H202z"/>
			<path fill="#a2a9b1" d="M208 116h96v6h-96zm0-12h28v6h-28zm30 0h58v6h-58zm-30-12h96v6h-96zm0-12h96v6h-96zm74-12h22v6h-22zm-74 0h72v6h-72zm0-22h56v14h-56z"/>
		</g>
		<g filter="url(#filter1_d)">
			<path fill="#fff" d="M202 119h108v98H202z"/>
			<path fill="#fff" d="M202 193h108v24H202z"/>
			<rect width="16" height="12" x="208" y="199" fill="#eaecf0" stroke="#a2a9b1" stroke-linecap="square" rx="2"/>
			<path fill="#54595d" fill-rule="evenodd" d="M214.8 206.668 213.132 205l-.564.564 2.232 2.236 4.8-4.8-.564-.568z" clip-rule="evenodd"/>
			<rect width="16" height="12" x="288" y="199" fill="#eaecf0" stroke="#a2a9b1" stroke-linecap="square" rx="2"/>
			<path fill="#54595d" fill-rule="evenodd" d="m294.5 201.4-.6.6 3 3-3 3 .6.6 3.6-3.6z" clip-rule="evenodd"/>
			<rect width="16" height="12" x="230" y="199" fill="#eaecf0" stroke="#a2a9b1" stroke-linecap="square" rx="2"/>
			<path fill="#54595d" fill-rule="evenodd" d="m238.565 204.999 2.546-2.545-.566-.566-2.546 2.546-2.544-2.545-.566.565 2.545 2.545-2.546 2.546.566.565 2.545-2.545 2.547 2.546.565-.565z" clip-rule="evenodd"/>
			<path fill="#fff" d="M202 119h108v74H202z"/>
			<path fill="#a2a9b1" d="M259 161h45v4h-45zm-51-22h96v4h-96zm51 29h45v4h-45zm0-19h36v8h-36z"/>
			<rect width="6" height="6" x="279" y="178" fill="#a2a9b1" rx="3"/>
			<path fill="#a2a9b1" d="M288 179h16v4h-16z"/>
			<path fill="#eaf3ff" d="M202 119h108v14H202z"/>
			<path fill="#eaecf0" d="M208 149h48v36h-48z"/>
			<path fill="#a2a9b1" fill-rule="evenodd" d="M240 159h-16a2 2 0 0 0-2 2v12a2 2 0 0 0 2 2h16a2 2 0 0 0 2-2v-12a2 2 0 0 0-2-2m-16.17 13 4.09-5.25 2.92 3.51 4.08-5.26 5.25 7z" clip-rule="evenodd"/>
			<path fill="#54595d" fill-rule="evenodd" d="M212.75 123.5h-3.252a1 1 0 0 0-.998.998V128h3.5v1h-2.502a.997.997 0 0 0-.998 1v1h9v-1c0-.553-.447-1-.998-1H214v-1h3.5v-3.502a1 1 0 0 0-.998-.998h-3.252v-1.043a.75.75 0 1 0-.5 0zm2 3a.75.75 0 1 1 0-1.5.75.75 0 0 1 0 1.5m-3.5 0a.75.75 0 1 1 0-1.5.75.75 0 0 1 0 1.5" clip-rule="evenodd"/>
			<path stroke="#a2a9b1" stroke-linecap="square" d="M201.5 118.5h109v99h-109z"/>
		</g>
		<path fill="#fc3" stroke="#fc3" stroke-linecap="square" d="M202 118.341h-.5v75h109v-75z" opacity=".5"/>
		<path fill="#fc3" fill-opacity=".5" stroke="#fc3" stroke-width="2" d="M203.5 192 49.721 181.26A4 4 0 0 1 46 177.27V66a4 4 0 0 1 4-4h164l97 57v73z"/>
		<rect width="166" height="115" x="48" y="64" fill="#fff" rx="4"/>
		<path fill="#a2a9b1" d="M135.5 129H203v6h-67.5zM59 96h144v6H59zm76.5 43.5H203v6h-67.5zm0-28.5h54v12h-54z"/>
		<rect width="9" height="9" x="165.5" y="154.5" fill="#a2a9b1" rx="4.5"/>
		<path fill="#a2a9b1" d="M179 156h24v6h-24z"/>
		<path fill="#eaf3ff" d="M50 66h162v21H50z"/>
		<path fill="#eaecf0" d="M59 111h72v54H59z"/>
		<path fill="#a2a9b1" fill-rule="evenodd" d="M103.83 133.498c-.78.049-1.374.72-1.327 1.5a.7.7 0 0 0 0 .188 1.41 1.41 0 0 0 1.5 1.312 1.402 1.402 0 0 0 1.5-1.5 1.403 1.403 0 0 0-1.5-1.5zm3.923-7.102c0-1.98-1.5-3.398-3.705-3.398a4 4 0 0 0-.413 0 3.533 3.533 0 0 0-3.382 3.668h1.905v-.128a1.73 1.73 0 0 1 1.785-1.665h.127a1.573 1.573 0 0 1 1.56 1.605c0 .885-.337 1.358-1.342 2.033a2.88 2.88 0 0 0-1.5 2.88v.607h1.882v-.51c0-.885.3-1.342 1.365-2.032a3.44 3.44 0 0 0 1.718-3.06M84.5 148.5h21l-5.625-7.5-.375-.495-.75-1.005-5.25 6.75-3.75-4.5zm18.771-9.75h1.148a4.28 4.28 0 0 0 4.081-3V150a3 3 0 0 1-3 3h-21a3 3 0 0 1-3-3v-15a3 3 0 0 1 3-3h15v3.375a3.795 3.795 0 0 0 3.771 3.375" clip-rule="evenodd"/>
		<path fill="#54595d" fill-rule="evenodd" d="M66.125 72.75h-4.879c-.826 0-1.496.671-1.496 1.497V79.5H65V81h-3.754c-.826 0-1.496.666-1.496 1.5V84h13.5v-1.5c0-.828-.67-1.5-1.496-1.5H68v-1.5h5.25v-5.252c0-.827-.67-1.498-1.496-1.498h-4.879v-1.563a1.125 1.125 0 1 0-.75 0zm3 4.5a1.125 1.125 0 1 1 0-2.25 1.125 1.125 0 0 1 0 2.25m-5.25 0a1.125 1.125 0 1 1 0-2.25 1.125 1.125 0 0 1 0 2.25" clip-rule="evenodd"/>
		<rect width="166" height="115" x="48" y="64" stroke="#fc3" stroke-linecap="square" stroke-width="4" rx="4"/>
	</g>
	<defs>
		<clipPath id="clip0">
			<path fill="#fff" d="M0 0h360v216H0z"/>
		</clipPath>
		<clipPath id="clip1">
			<path fill="#fff" d="M202 38h108v82H202z"/>
		</clipPath>
		<filter id="filter0_d" width="120" height="204" x="196" y="30" color-interpolation-filters="sRGB" filterUnits="userSpaceOnUse">
			<feFlood flood-opacity="0" result="BackgroundImageFix"/>
			<feColorMatrix in="SourceAlpha" result="hardAlpha" values="0 0 0 0 0 0 0 0 0 0 0 0 0 0 0 0 0 0 127 0"/>
			<feOffset dy="4"/>
			<feGaussianBlur stdDeviation="2"/>
			<feComposite in2="hardAlpha" operator="out"/>
			<feColorMatrix values="0 0 0 0 0 0 0 0 0 0 0 0 0 0 0 0 0 0 0.25 0"/>
			<feBlend in2="BackgroundImageFix" result="effect1_dropShadow"/>
			<feBlend in="SourceGraphic" in2="effect1_dropShadow" result="shape"/>
		</filter>
		<filter id="filter1_d" width="112" height="102" x="200" y="116" color-interpolation-filters="sRGB" filterUnits="userSpaceOnUse">
			<feFlood flood-opacity="0" result="BackgroundImageFix"/>
			<feColorMatrix in="SourceAlpha" result="hardAlpha" values="0 0 0 0 0 0 0 0 0 0 0 0 0 0 0 0 0 0 127 0"/>
			<feOffset dy="-1"/>
			<feGaussianBlur stdDeviation=".5"/>
			<feComposite in2="hardAlpha" operator="out"/>
			<feColorMatrix values="0 0 0 0 0 0 0 0 0 0 0 0 0 0 0 0 0 0 0.1 0"/>
			<feBlend in2="BackgroundImageFix" result="effect1_dropShadow"/>
			<feBlend in="SourceGraphic" in2="effect1_dropShadow" result="shape"/>
		</filter>
	</defs>
</svg>
