<svg xmlns="http://www.w3.org/2000/svg" width="360" height="216" fill="none" viewBox="0 0 360 216">
	<g clip-path="url(#clip0)">
		<g filter="url(#filter0_d)">
			<path fill="#fff" d="M176.329 4 15.001 32.446l34.055 193.14 161.329-28.446z"/>
		</g>
		<path fill="#a2a9b1" d="m196.018 182.102-69.303 12.22 1.002 5.68 69.303-12.22zm-1.803-10.226L61.29 195.314l1.001 5.68 132.926-23.438zm-62.217-.744L69.512 182.15l1.002 5.68L133 176.812zm60.214-10.617-28.403 5.008 1.002 5.68 28.403-5.008zm-31.811 5.61-24.994 4.407 1.001 5.68 24.995-4.407zm29.808-16.971L56.147 172.793l1.002 5.68 134.062-23.639zm-3.206-18.178L56.35 154.014l1.001 5.68 130.654-23.038zM82.75 137.645l-36.357 6.41 1.002 5.68 36.356-6.41zm28.403-5.009-24.994 4.407 1.001 5.68 24.995-4.407zM185 119.615l-70.44 12.42 1.002 5.68 70.44-12.42zm-18.662-105.84-37.492 6.61 1.803 10.226 37.492-6.61z"/>
		<path fill="url(#paint0_linear)" d="M0 0h140.744v74.987H0z" transform="scale(-1 1)rotate(10 -280.57 -954.123)"/>
		<path fill="#fef6e7" d="M169.944 34.225 31.338 58.665l13.022 73.848 138.605-24.44z"/>
		<path stroke="#fc3" stroke-dasharray="2 4" stroke-linecap="round" d="M169.944 34.225 31.338 58.665l13.022 73.848 138.605-24.44z"/>
		<path fill="#54595d" d="M122.5 32.495q-1.654.291-3.053-.177a5.1 5.1 0 0 1-2.308-1.575q-.928-1.119-1.215-2.743t.222-2.98a5.2 5.2 0 0 1 1.643-2.288q1.155-.919 2.777-1.204a7 7 0 0 1 1.894-.042l.192 1.087q-1.292.229-2.178.92a3.8 3.8 0 0 0-1.241 1.714q-.374 1.008-.158 2.238.214 1.212.914 2.048.699.835 1.752 1.186 1.07.348 2.361.12l.192 1.087q-.958.461-1.794.609m.345-.809q-1.223-.028-2.209-.552a4.8 4.8 0 0 1-1.65-1.432 5.1 5.1 0 0 1-.856-2.09 5.1 5.1 0 0 1 .089-2.258 4.8 4.8 0 0 1 1.061-1.91q.747-.83 1.887-1.275-1.56.275-2.596 1.124a4.8 4.8 0 0 0-1.491 2.05 4.7 4.7 0 0 0-.211 2.49 4.77 4.77 0 0 0 1.053 2.285 4.86 4.86 0 0 0 2.099 1.4q1.264.444 2.824.168"/>
		<path fill="#fc3" d="m97.499 74.482 18.177-3.205a2.307 2.307 0 0 1 2.673 1.871l2.404 13.634a2.306 2.306 0 0 1-1.871 2.673l-18.178 3.205a2.307 2.307 0 0 1-2.673-1.872l-2.404-13.633a2.307 2.307 0 0 1 1.872-2.673m20.975 11.53-5.699-5.145-2.614 4.573-5.689-5.159-4.562 9.005z"/>
		<path fill="#fff" stroke="#72777d" stroke-width="2" d="M328 153.638v-97.6S328 50 323.739 50H193.261c-2.353 0-4.261 2.703-4.261 6.038v98.639a5 5 0 0 0 5 5h75.794V172l12.042-12.323h41.903c2.353 0 4.261-2.704 4.261-6.039z"/>
		<path fill="#54595d" d="M238 185.998h13.01a3.994 3.994 0 0 1 3.99 3.994v14.006h-14v4h10.01a3.985 3.985 0 0 1 3.99 4v4h-36v-4c0-2.21 1.786-4 3.99-4H233v-4h-14v-14.006a3.99 3.99 0 0 1 3.99-3.994H236v-4.17a2.999 2.999 0 0 1 1-5.828 3 3 0 0 1 1 5.828zm-8 12a3 3 0 1 0 0-6 3 3 0 0 0 0 6m14 0a3 3 0 1 0 0-6 3 3 0 0 0 0 6"/>
		<g filter="url(#filter1_dd)">
			<path fill="url(#paint1_linear)" d="M0 0h114v56H0z" transform="matrix(-1 0 0 1 317 86)"/>
			<path fill="#2a4b8d" d="M0 0h114v56H0z" style="mix-blend-mode:overlay" transform="matrix(-1 0 0 1 317 86)"/>
			<path fill="#fef6e7" d="m220.888 110.09 2.186 1.55.248 2.67 1.549-2.188 2.667-.248-2.186-1.551-.248-2.67-1.548 2.189zm30.005-22.37-.587 1.135-1.134.588 1.134.587.587 1.136.587-1.136 1.134-.587-1.134-.588zm43.034 48.246-.587 1.136-1.135.587 1.135.587.587 1.136.586-1.136 1.135-.587-1.135-.587z"/>
			<path fill="#c8ccd1" stroke="#fef6e7" d="M246.632 104.215c-5.448 9.445-2.215 21.521 7.219 26.974s21.499 2.217 26.946-7.228 2.215-21.521-7.22-26.974-21.498-2.216-26.945 7.228z"/>
			<g filter="url(#filter2_i)">
				<path fill="#fef6e7" d="M275.726 120.563c-8.451 14.654-22.165 10.391-22.165 10.391 9.875 5.707 22.373 2.543 27.916-7.067s2.031-22.027-7.844-27.734c0 0 10.544 9.757 2.093 24.41"/>
			</g>
			<ellipse fill="#72777d" rx="3.013" ry="3.015" transform="matrix(-.8658 -.50038 -.49962 .86625 256.244 123.289)"/>
			<path fill="#a2a9b1" d="M246.068 109.914c-.825 1.43-1.482 4.407-.054 5.232a2.985 2.985 0 0 0 4.08-1.094 2.99 2.99 0 0 0-1.094-4.084c-1.428-.825-2.107-1.484-2.932-.054"/>
			<ellipse fill="#72777d" rx="2.152" ry="2.153" transform="matrix(-.8658 -.50038 -.49962 .86625 276.355 110.912)"/>
			<path fill="#a2a9b1" stroke="#fef6e7" d="M256.913 107.039a5.1 5.1 0 0 0 1.864 6.966 5.09 5.09 0 0 0 6.959-1.867 5.1 5.1 0 0 0-1.864-6.966 5.09 5.09 0 0 0-6.959 1.867zm2.32-10.853a2.517 2.517 0 0 0 .919 3.435 2.51 2.51 0 0 0 3.432-.92 2.517 2.517 0 0 0-.919-3.436 2.51 2.51 0 0 0-3.432.92z"/>
		</g>
		<path fill="#72777d" d="m247.68 61-2.27 7h-2.12l-1.34-4.26-1.4 4.26h-2.12l-2.27-7h2.04l1.41 4.47 1.48-4.47h1.82l1.41 4.51 1.47-4.51zm.709 0h1.98v7h-1.98zm6.089 4.46-.74.79V68h-1.96v-7h1.96v2.91l2.71-2.91h2.18l-2.86 3.1 3.01 3.9h-2.3zm4.82-4.46h1.98v7h-1.98zm9.708 7-.02-3.71-1.8 3.02h-.88l-1.79-2.92V68h-1.83v-7h1.63l2.46 4.04 2.4-4.04h1.63l.02 7zm8.841-1.53V68h-5.62v-7h5.49v1.53h-3.53v1.18h3.11v1.48h-3.11v1.28zm1.099-5.47h3.31q1.15 0 2.04.43a3.24 3.24 0 0 1 1.38 1.22q.49.79.49 1.85t-.49 1.85a3.24 3.24 0 0 1-1.38 1.22q-.89.43-2.04.43h-3.31zm3.23 5.42q.9 0 1.44-.51.55-.51.55-1.41t-.55-1.41q-.54-.51-1.44-.51h-1.25v3.84zm5.032-5.42h1.98v7h-1.98zm8.078 5.64h-2.96l-.55 1.36h-2.02l3.09-7h1.95l3.1 7h-2.06zm-.58-1.46-.9-2.24-.9 2.24zM240.19 76.14q-1.1 0-1.98-.46a3.5 3.5 0 0 1-1.37-1.3q-.5-.83-.5-1.88c0-1.05.167-1.327.5-1.88q.5-.83 1.37-1.29.88-.47 1.98-.47.96 0 1.73.34t1.28.98l-1.26 1.14q-.68-.82-1.65-.82-.57 0-1.02.25a1.77 1.77 0 0 0-.69.71q-.24.45-.24 1.04c0 .59.08.743.24 1.05q.25.45.69.7.45.25 1.02.25.97 0 1.65-.82l1.26 1.14q-.51.64-1.28.98t-1.73.34m7.276 0q-1.11 0-2-.47a3.6 3.6 0 0 1-1.39-1.3 3.56 3.56 0 0 1-.5-1.87q0-1.04.5-1.87.51-.83 1.39-1.3.89-.47 2-.47c1.11 0 1.404.157 1.99.47a3.5 3.5 0 0 1 1.39 1.3 3.5 3.5 0 0 1 .51 1.87 3.5 3.5 0 0 1-.51 1.87 3.5 3.5 0 0 1-1.39 1.3q-.88.47-1.99.47m0-1.64q.531 0 .96-.25a1.8 1.8 0 0 0 .68-.7 2.16 2.16 0 0 0 .25-1.05q0-.59-.25-1.04a1.8 1.8 0 0 0-.68-.71 1.87 1.87 0 0 0-.96-.25q-.53 0-.96.25a1.8 1.8 0 0 0-.68.71q-.25.45-.25 1.04c0 .59.084.743.25 1.05q.25.45.68.7t.96.25m11.247 1.5-.02-3.71-1.8 3.02h-.88l-1.79-2.92V76h-1.83v-7h1.63l2.46 4.04 2.4-4.04h1.63l.02 7zm9.541 0-.02-3.71-1.8 3.02h-.88l-1.79-2.92V76h-1.83v-7h1.63l2.46 4.04 2.4-4.04h1.63l.02 7zm6.751.14q-1.11 0-2-.47a3.6 3.6 0 0 1-1.39-1.3 3.56 3.56 0 0 1-.5-1.87q0-1.04.5-1.87.51-.83 1.39-1.3.89-.47 2-.47c1.11 0 1.404.157 1.99.47a3.5 3.5 0 0 1 1.39 1.3 3.5 3.5 0 0 1 .51 1.87 3.5 3.5 0 0 1-.51 1.87 3.5 3.5 0 0 1-1.39 1.3q-.88.47-1.99.47m0-1.64q.531 0 .96-.25a1.8 1.8 0 0 0 .68-.7 2.16 2.16 0 0 0 .25-1.05q0-.59-.25-1.04a1.8 1.8 0 0 0-.68-.71 1.87 1.87 0 0 0-.96-.25q-.53 0-.96.25a1.8 1.8 0 0 0-.68.71q-.25.45-.25 1.04c0 .59.084.743.25 1.05q.25.45.68.7t.96.25m11.587-5.5v7h-1.63l-3.09-3.73V76h-1.94v-7h1.63l3.09 3.73V69zm3.857 7.14q-.85 0-1.65-.21t-1.3-.56l.65-1.46q.47.31 1.09.5t1.22.19q1.14 0 1.14-.57 0-.3-.33-.44-.32-.15-1.04-.31a11 11 0 0 1-1.32-.36 2.3 2.3 0 0 1-.91-.63q-.38-.43-.38-1.16 0-.64.35-1.15.35-.52 1.04-.82.7-.3 1.71-.3.69 0 1.36.16.67.15 1.18.45l-.61 1.47q-1-.54-1.94-.54-.59 0-.86.18-.27.17-.27.45c0 .28.107.327.32.42q.32.14 1.03.29a9 9 0 0 1 1.32.37q.53.19.91.62.39.42.39 1.15 0 .63-.35 1.14t-1.05.82q-.7.3-1.7.3"/>
		<path fill="#72777d" d="M310.93 61.57a3.68 3.68 0 0 0 2.18 2.55 7.29 7.29 0 1 1-8.09 1.27l1.36 1.27.64.64.45-.45.28 1.53-1.54-.26.45-.45-.64-.64a5.2 5.2 0 0 0-1.45 3.46h.91v-.73l1.26.91-1.26.91v-.73h-.91a5.7 5.7 0 0 0 1.45 3.45l.63-.65-.45-.45 1.54-.26-.27 1.54-.45-.45-.63.64a5.2 5.2 0 0 0 3.45 1.45v-.91h-.73l.91-1.27.91 1.27h-.73v.91a5.7 5.7 0 0 0 3.45-1.45l-.64-.64-.45.45-.26-1.54 1.53.27-.45.45.64.64a5.2 5.2 0 0 0 1.45-3.46h-.91v.73l-1.26-.91 1.26-.91v.73h.91a5.7 5.7 0 0 0-1.45-3.45l-.62.65.45.45-1.54.26.26-1.54.45.45.64-.63a9 9 0 0 0-2-1.18 5.13 5.13 0 0 1-2-2 5.1 5.1 0 0 1-.55-1.91l-1.82.91 2.73-4.55 2.73 4.54s-1.73-.82-1.82-.91m-.91 11.57a2.5 2.5 0 1 0 0-5 2.5 2.5 0 0 0 0 5"/>
		<path fill="#fc3" d="M126.189 98.574a1 1 0 0 1-1.171-.793l-1.703-8.837a1 1 0 0 1 1.964-.378l1.514 7.855 7.855-1.513a1 1 0 1 1 .379 1.963zm98.952-.47c-9.768-16.362-28.88-24.385-48.385-24.262s-39.155 8.397-49.928 24.31l-1.656-1.12c11.227-16.586 31.576-25.063 51.572-25.19 19.995-.126 39.883 8.1 50.115 25.238l-1.718 1.025z"/>
	</g>
	<defs>
		<filter id="filter0_d" width="199.384" height="225.586" x="13" y="3" color-interpolation-filters="sRGB" filterUnits="userSpaceOnUse">
			<feFlood flood-opacity="0" result="BackgroundImageFix"/>
			<feColorMatrix in="SourceAlpha" result="hardAlpha" values="0 0 0 0 0 0 0 0 0 0 0 0 0 0 0 0 0 0 127 0"/>
			<feOffset dy="1"/>
			<feGaussianBlur stdDeviation="1"/>
			<feColorMatrix values="0 0 0 0 0 0 0 0 0 0 0 0 0 0 0 0 0 0 0.1 0"/>
			<feBlend in2="BackgroundImageFix" result="effect1_dropShadow"/>
			<feBlend in="SourceGraphic" in2="effect1_dropShadow" result="shape"/>
		</filter>
		<filter id="filter1_dd" width="116" height="58" x="202" y="85" color-interpolation-filters="sRGB" filterUnits="userSpaceOnUse">
			<feFlood flood-opacity="0" result="BackgroundImageFix"/>
			<feColorMatrix in="SourceAlpha" result="hardAlpha" values="0 0 0 0 0 0 0 0 0 0 0 0 0 0 0 0 0 0 127 0"/>
			<feOffset dx="1" dy="1"/>
			<feComposite in2="hardAlpha" operator="out"/>
			<feColorMatrix values="0 0 0 0 0 0 0 0 0 0 0 0 0 0 0 0 0 0 0.25 0"/>
			<feBlend in2="BackgroundImageFix" result="effect1_dropShadow"/>
			<feColorMatrix in="SourceAlpha" result="hardAlpha" values="0 0 0 0 0 0 0 0 0 0 0 0 0 0 0 0 0 0 127 0"/>
			<feOffset dx="-1" dy="-1"/>
			<feComposite in2="hardAlpha" operator="out"/>
			<feColorMatrix values="0 0 0 0 0 0 0 0 0 0 0 0 0 0 0 0 0 0 0.25 0"/>
			<feBlend in2="effect1_dropShadow" result="effect2_dropShadow"/>
			<feBlend in="SourceGraphic" in2="effect2_dropShadow" result="shape"/>
		</filter>
		<filter id="filter2_i" width="30.543" height="37.641" x="253.562" y="96.153" color-interpolation-filters="sRGB" filterUnits="userSpaceOnUse">
			<feFlood flood-opacity="0" result="BackgroundImageFix"/>
			<feBlend in="SourceGraphic" in2="BackgroundImageFix" result="shape"/>
			<feColorMatrix in="SourceAlpha" result="hardAlpha" values="0 0 0 0 0 0 0 0 0 0 0 0 0 0 0 0 0 0 127 0"/>
			<feOffset dx="1"/>
			<feComposite in2="hardAlpha" k2="-1" k3="1" operator="arithmetic"/>
			<feColorMatrix values="0 0 0 0 0 0 0 0 0 0 0 0 0 0 0 0 0 0 0.25 0"/>
			<feBlend in2="shape" result="effect1_innerShadow"/>
		</filter>
		<linearGradient id="paint0_linear" x1="70.372" x2="70.372" y1="0" y2="74.987" gradientUnits="userSpaceOnUse">
			<stop stop-color="#54595d"/>
			<stop offset="1" stop-color="#72777d"/>
		</linearGradient>
		<linearGradient id="paint1_linear" x1="57" x2="57" y1="0" y2="56" gradientUnits="userSpaceOnUse">
			<stop stop-color="#54595d"/>
			<stop offset="1" stop-color="#72777d"/>
		</linearGradient>
		<clipPath id="clip0">
			<path fill="#fff" d="M0 0h360v216H0z"/>
		</clipPath>
	</defs>
</svg>
