<svg xmlns="http://www.w3.org/2000/svg" width="360" height="216" fill="none" viewBox="0 0 360 216">
	<g clip-path="url(#clip0)">
		<g filter="url(#filter0_d)">
			<path fill="#fff" d="M176.329 4 15.001 32.446l34.055 193.14 161.329-28.446z"/>
		</g>
		<path fill="#A2A9B1" d="m196.018 182.102-69.303 12.22 1.002 5.68 69.303-12.22zm-1.803-10.226L61.29 195.314l1.001 5.68 132.926-23.438zm-62.217-.744L69.512 182.15l1.002 5.68L133 176.812zm60.214-10.617-28.403 5.008 1.002 5.68 28.403-5.008zm-31.811 5.61-24.994 4.407 1.001 5.68 24.995-4.407zm29.808-16.971L56.147 172.793l1.002 5.68 134.062-23.639zm-3.206-18.178L56.35 154.014l1.001 5.68 130.654-23.038zM82.75 137.645l-36.357 6.41 1.002 5.68 36.356-6.41zm28.403-5.009-24.994 4.407 1.001 5.68 24.995-4.407zM185 119.615l-70.44 12.42 1.002 5.68 70.44-12.42zm-18.662-105.84-37.492 6.61 1.803 10.226 37.492-6.61z"/>
		<path fill="url(#paint0_linear)" d="M0 0h140.744v74.987H0z" transform="scale(-1 1) rotate(10 -280.57 -954.123)"/>
		<path fill="#FEF6E7" d="M169.944 34.225 31.338 58.665l13.022 73.848 138.605-24.44z"/>
		<path stroke="#FC3" stroke-dasharray="2 4" stroke-linecap="round" d="M169.944 34.225 31.338 58.665l13.022 73.848 138.605-24.44z"/>
		<path fill="#54595D" d="M122.5 32.495c-1.103.194-2.12.135-3.053-.177a5.098 5.098 0 0 1-2.308-1.575c-.619-.746-1.024-1.66-1.215-2.743-.191-1.082-.117-2.075.222-2.98a5.187 5.187 0 0 1 1.643-2.288c.77-.612 1.696-1.014 2.777-1.204a6.848 6.848 0 0 1 1.894-.042l.192 1.087c-.862.152-1.587.46-2.178.92a3.815 3.815 0 0 0-1.241 1.714c-.25.672-.302 1.418-.158 2.238.143.808.447 1.491.914 2.048.466.557 1.05.952 1.752 1.186.713.232 1.5.272 2.361.12l.192 1.087c-.639.308-1.237.51-1.794.609zm.345-.809c-.815-.018-1.552-.203-2.209-.552a4.826 4.826 0 0 1-1.65-1.432 5.068 5.068 0 0 1-.856-2.09 5.074 5.074 0 0 1 .089-2.258 4.837 4.837 0 0 1 1.061-1.91c.498-.553 1.127-.978 1.887-1.275-1.04.184-1.905.558-2.596 1.124a4.824 4.824 0 0 0-1.491 2.05 4.686 4.686 0 0 0-.211 2.49 4.766 4.766 0 0 0 1.053 2.285 4.863 4.863 0 0 0 2.099 1.4c.843.296 1.784.352 2.824.168z"/>
		<path fill="#FC3" fill-rule="evenodd" d="m97.499 74.482 18.177-3.205a2.307 2.307 0 0 1 2.673 1.871l2.404 13.634a2.306 2.306 0 0 1-1.871 2.673l-18.178 3.205a2.307 2.307 0 0 1-2.673-1.872l-2.404-13.633a2.307 2.307 0 0 1 1.872-2.673zm20.975 11.53-5.699-5.145-2.614 4.573-5.689-5.159-4.562 9.005 18.564-3.274z" clip-rule="evenodd"/>
		<path fill="#fff" stroke="#72777D" stroke-width="2" d="M328 153.638v-97.6S328 50 323.739 50H193.261c-2.353 0-4.261 2.703-4.261 6.038v98.639a5 5 0 0 0 5 5h75.794V172l12.042-12.323h41.903c2.353 0 4.261-2.704 4.261-6.039z"/>
		<path fill="#54595D" fill-rule="evenodd" d="M238 185.998h13.01a3.994 3.994 0 0 1 3.99 3.994v14.006h-14v4h10.01a3.985 3.985 0 0 1 3.99 4v4h-36v-4c0-2.21 1.786-4 3.99-4H233v-4h-14v-14.006a3.992 3.992 0 0 1 3.99-3.994H236v-4.17a2.999 2.999 0 0 1 1-5.828 3 3 0 0 1 1 5.828v4.17zm-8 12a3 3 0 1 0 0-6 3 3 0 0 0 0 6zm14 0a3 3 0 1 0 0-6 3 3 0 0 0 0 6z" clip-rule="evenodd"/>
		<g filter="url(#filter1_dd)">
			<path fill="url(#paint1_linear)" d="M0 0h114v56H0z" transform="matrix(-1 0 0 1 317 86)"/>
			<path fill="#2A4B8D" d="M0 0h114v56H0z" style="mix-blend-mode:overlay" transform="matrix(-1 0 0 1 317 86)"/>
			<path fill="#FEF6E7" d="m220.888 110.09 2.186 1.55.248 2.67 1.549-2.188 2.667-.248-2.186-1.551-.248-2.67-1.548 2.189-2.668.248zm30.005-22.37-.587 1.135-1.134.588 1.134.587.587 1.136.587-1.136 1.134-.587-1.134-.588-.587-1.136zm43.034 48.246-.587 1.136-1.135.587 1.135.587.587 1.136.586-1.136 1.135-.587-1.135-.587-.586-1.136z"/>
			<path fill="#C8CCD1" stroke="#FEF6E7" d="M246.632 104.215c-5.448 9.445-2.215 21.521 7.219 26.974 9.435 5.452 21.499 2.217 26.946-7.228 5.447-9.445 2.215-21.521-7.22-26.974-9.434-5.452-21.498-2.216-26.945 7.228z"/>
			<g filter="url(#filter2_i)">
				<path fill="#FEF6E7" d="M275.726 120.563c-8.451 14.654-22.165 10.391-22.165 10.391 9.875 5.707 22.373 2.543 27.916-7.067 5.542-9.61 2.031-22.027-7.844-27.734 0 0 10.544 9.757 2.093 24.41z"/>
			</g>
			<ellipse fill="#72777D" rx="3.013" ry="3.015" transform="matrix(-.8658 -.50038 -.49962 .86625 256.244 123.289)"/>
			<path fill="#A2A9B1" d="M246.068 109.914c-.825 1.43-1.482 4.407-.054 5.232a2.985 2.985 0 0 0 4.08-1.094 2.992 2.992 0 0 0-1.094-4.084c-1.428-.825-2.107-1.484-2.932-.054z"/>
			<ellipse fill="#72777D" rx="2.152" ry="2.153" transform="matrix(-.8658 -.50038 -.49962 .86625 276.355 110.912)"/>
			<path fill="#A2A9B1" stroke="#FEF6E7" d="M256.913 107.039a5.102 5.102 0 0 0 1.864 6.966 5.091 5.091 0 0 0 6.959-1.867 5.102 5.102 0 0 0-1.864-6.966 5.091 5.091 0 0 0-6.959 1.867zm2.32-10.853a2.517 2.517 0 0 0 .919 3.435 2.51 2.51 0 0 0 3.432-.92 2.517 2.517 0 0 0-.919-3.436 2.51 2.51 0 0 0-3.432.92z"/>
		</g>
		<path fill="#72777D" d="m247.68 61-2.27 7h-2.12l-1.34-4.26-1.4 4.26h-2.12l-2.27-7h2.04l1.41 4.47 1.48-4.47h1.82l1.41 4.51 1.47-4.51h1.89zm.709 0h1.98v7h-1.98v-7zm6.089 4.46-.74.79V68h-1.96v-7h1.96v2.91l2.71-2.91h2.18l-2.86 3.1 3.01 3.9h-2.3l-2-2.54zm4.82-4.46h1.98v7h-1.98v-7zm9.708 7-.02-3.71-1.8 3.02h-.88l-1.79-2.92V68h-1.83v-7h1.63l2.46 4.04 2.4-4.04h1.63l.02 7h-1.82zm8.841-1.53V68h-5.62v-7h5.49v1.53h-3.53v1.18h3.11v1.48h-3.11v1.28h3.66zm1.099-5.47h3.31c.767 0 1.447.143 2.04.43a3.243 3.243 0 0 1 1.38 1.22c.327.527.49 1.143.49 1.85 0 .707-.163 1.323-.49 1.85a3.243 3.243 0 0 1-1.38 1.22c-.593.287-1.273.43-2.04.43h-3.31v-7zm3.23 5.42c.6 0 1.08-.17 1.44-.51.367-.34.55-.81.55-1.41 0-.6-.183-1.07-.55-1.41-.36-.34-.84-.51-1.44-.51h-1.25v3.84h1.25zm5.032-5.42h1.98v7h-1.98v-7zm8.078 5.64h-2.96l-.55 1.36h-2.02l3.09-7h1.95l3.1 7h-2.06l-.55-1.36zm-.58-1.46-.9-2.24-.9 2.24h1.8zM240.19 76.14c-.733 0-1.393-.153-1.98-.46a3.52 3.52 0 0 1-1.37-1.3c-.333-.553-.5-1.18-.5-1.88s.167-1.327.5-1.88c.333-.553.79-.983 1.37-1.29.587-.313 1.247-.47 1.98-.47.64 0 1.217.113 1.73.34.513.227.94.553 1.28.98l-1.26 1.14c-.453-.547-1.003-.82-1.65-.82-.38 0-.72.083-1.02.25a1.774 1.774 0 0 0-.69.71c-.16.3-.24.647-.24 1.04s.08.743.24 1.05c.167.3.397.533.69.7.3.167.64.25 1.02.25.647 0 1.197-.273 1.65-.82l1.26 1.14c-.34.427-.767.753-1.28.98-.513.227-1.09.34-1.73.34zm7.276 0c-.74 0-1.406-.157-2-.47a3.581 3.581 0 0 1-1.39-1.3 3.556 3.556 0 0 1-.5-1.87c0-.693.167-1.317.5-1.87.34-.553.804-.987 1.39-1.3.594-.313 1.26-.47 2-.47s1.404.157 1.99.47a3.48 3.48 0 0 1 1.39 1.3 3.5 3.5 0 0 1 .51 1.87 3.5 3.5 0 0 1-.51 1.87 3.48 3.48 0 0 1-1.39 1.3c-.586.313-1.25.47-1.99.47zm0-1.64c.354 0 .674-.083.96-.25a1.8 1.8 0 0 0 .68-.7 2.16 2.16 0 0 0 .25-1.05c0-.393-.083-.74-.25-1.04a1.783 1.783 0 0 0-.68-.71 1.871 1.871 0 0 0-.96-.25c-.353 0-.673.083-.96.25a1.797 1.797 0 0 0-.68.71c-.166.3-.25.647-.25 1.04s.084.743.25 1.05c.167.3.394.533.68.7.287.167.607.25.96.25zm11.247 1.5-.02-3.71-1.8 3.02h-.88l-1.79-2.92V76h-1.83v-7h1.63l2.46 4.04 2.4-4.04h1.63l.02 7h-1.82zm9.541 0-.02-3.71-1.8 3.02h-.88l-1.79-2.92V76h-1.83v-7h1.63l2.46 4.04 2.4-4.04h1.63l.02 7h-1.82zm6.751.14c-.74 0-1.406-.157-2-.47a3.581 3.581 0 0 1-1.39-1.3 3.556 3.556 0 0 1-.5-1.87c0-.693.167-1.317.5-1.87.34-.553.804-.987 1.39-1.3.594-.313 1.26-.47 2-.47s1.404.157 1.99.47a3.48 3.48 0 0 1 1.39 1.3 3.5 3.5 0 0 1 .51 1.87 3.5 3.5 0 0 1-.51 1.87 3.48 3.48 0 0 1-1.39 1.3c-.586.313-1.25.47-1.99.47zm0-1.64c.354 0 .674-.083.96-.25a1.8 1.8 0 0 0 .68-.7 2.16 2.16 0 0 0 .25-1.05c0-.393-.083-.74-.25-1.04a1.783 1.783 0 0 0-.68-.71 1.871 1.871 0 0 0-.96-.25c-.353 0-.673.083-.96.25a1.797 1.797 0 0 0-.68.71c-.166.3-.25.647-.25 1.04s.084.743.25 1.05c.167.3.394.533.68.7.287.167.607.25.96.25zm11.587-5.5v7h-1.63l-3.09-3.73V76h-1.94v-7h1.63l3.09 3.73V69h1.94zm3.857 7.14c-.567 0-1.117-.07-1.65-.21-.533-.14-.967-.327-1.3-.56l.65-1.46c.313.207.677.373 1.09.5.413.127.82.19 1.22.19.76 0 1.14-.19 1.14-.57 0-.2-.11-.347-.33-.44-.213-.1-.56-.203-1.04-.31a10.553 10.553 0 0 1-1.32-.36 2.265 2.265 0 0 1-.91-.63c-.253-.287-.38-.673-.38-1.16 0-.427.117-.81.35-1.15.233-.347.58-.62 1.04-.82.467-.2 1.037-.3 1.71-.3.46 0 .913.053 1.36.16.447.1.84.25 1.18.45l-.61 1.47c-.667-.36-1.313-.54-1.94-.54-.393 0-.68.06-.86.18-.18.113-.27.263-.27.45s.107.327.32.42c.213.093.557.19 1.03.29a8.95 8.95 0 0 1 1.32.37c.353.127.657.333.91.62.26.28.39.663.39 1.15 0 .42-.117.8-.35 1.14-.233.34-.583.613-1.05.82-.467.2-1.033.3-1.7.3z"/>
		<path fill="#72777D" fill-rule="evenodd" d="M310.93 61.57a3.677 3.677 0 0 0 2.18 2.55 7.29 7.29 0 1 1-8.09 1.27l1.36 1.27.64.64.45-.45.28 1.53-1.54-.26.45-.45-.64-.64a5.212 5.212 0 0 0-1.45 3.46h.91v-.73l1.26.91-1.26.91v-.73h-.91a5.684 5.684 0 0 0 1.45 3.45l.63-.65-.45-.45 1.54-.26-.27 1.54-.45-.45-.63.64a5.21 5.21 0 0 0 3.45 1.45v-.91h-.73l.91-1.27.91 1.27h-.73v.91a5.692 5.692 0 0 0 3.45-1.45l-.64-.64-.45.45-.26-1.54 1.53.27-.45.45.64.64a5.211 5.211 0 0 0 1.45-3.46h-.91v.73l-1.26-.91 1.26-.91v.73h.91a5.696 5.696 0 0 0-1.45-3.45l-.62.65.45.45-1.54.26.26-1.54.45.45.64-.63a8.875 8.875 0 0 0-2-1.18 5.128 5.128 0 0 1-2-2 5.09 5.09 0 0 1-.55-1.91l-1.82.91 2.73-4.55 2.73 4.54s-1.73-.82-1.82-.91zm-.91 11.57a2.5 2.5 0 1 0 0-5 2.5 2.5 0 0 0 0 5z" clip-rule="evenodd"/>
		<path fill="#FC3" d="M126.189 98.574a1 1 0 0 1-1.171-.793l-1.703-8.837a1 1 0 0 1 1.964-.378l1.514 7.855 7.855-1.513a1 1 0 1 1 .379 1.963l-8.838 1.703zm98.952-.47c-9.768-16.362-28.88-24.385-48.385-24.262-19.504.124-39.155 8.397-49.928 24.31l-1.656-1.12c11.227-16.586 31.576-25.063 51.572-25.19 19.995-.126 39.883 8.1 50.115 25.238l-1.718 1.025z"/>
	</g>
	<defs>
		<filter id="filter0_d" width="199.384" height="225.586" x="13" y="3" color-interpolation-filters="sRGB" filterUnits="userSpaceOnUse">
			<feFlood flood-opacity="0" result="BackgroundImageFix"/>
			<feColorMatrix in="SourceAlpha" result="hardAlpha" values="0 0 0 0 0 0 0 0 0 0 0 0 0 0 0 0 0 0 127 0"/>
			<feOffset dy="1"/>
			<feGaussianBlur stdDeviation="1"/>
			<feColorMatrix values="0 0 0 0 0 0 0 0 0 0 0 0 0 0 0 0 0 0 0.1 0"/>
			<feBlend in2="BackgroundImageFix" result="effect1_dropShadow"/>
			<feBlend in="SourceGraphic" in2="effect1_dropShadow" result="shape"/>
		</filter>
		<filter id="filter1_dd" width="116" height="58" x="202" y="85" color-interpolation-filters="sRGB" filterUnits="userSpaceOnUse">
			<feFlood flood-opacity="0" result="BackgroundImageFix"/>
			<feColorMatrix in="SourceAlpha" result="hardAlpha" values="0 0 0 0 0 0 0 0 0 0 0 0 0 0 0 0 0 0 127 0"/>
			<feOffset dx="1" dy="1"/>
			<feComposite in2="hardAlpha" operator="out"/>
			<feColorMatrix values="0 0 0 0 0 0 0 0 0 0 0 0 0 0 0 0 0 0 0.25 0"/>
			<feBlend in2="BackgroundImageFix" result="effect1_dropShadow"/>
			<feColorMatrix in="SourceAlpha" result="hardAlpha" values="0 0 0 0 0 0 0 0 0 0 0 0 0 0 0 0 0 0 127 0"/>
			<feOffset dx="-1" dy="-1"/>
			<feComposite in2="hardAlpha" operator="out"/>
			<feColorMatrix values="0 0 0 0 0 0 0 0 0 0 0 0 0 0 0 0 0 0 0.25 0"/>
			<feBlend in2="effect1_dropShadow" result="effect2_dropShadow"/>
			<feBlend in="SourceGraphic" in2="effect2_dropShadow" result="shape"/>
		</filter>
		<filter id="filter2_i" width="30.543" height="37.641" x="253.562" y="96.153" color-interpolation-filters="sRGB" filterUnits="userSpaceOnUse">
			<feFlood flood-opacity="0" result="BackgroundImageFix"/>
			<feBlend in="SourceGraphic" in2="BackgroundImageFix" result="shape"/>
			<feColorMatrix in="SourceAlpha" result="hardAlpha" values="0 0 0 0 0 0 0 0 0 0 0 0 0 0 0 0 0 0 127 0"/>
			<feOffset dx="1"/>
			<feComposite in2="hardAlpha" k2="-1" k3="1" operator="arithmetic"/>
			<feColorMatrix values="0 0 0 0 0 0 0 0 0 0 0 0 0 0 0 0 0 0 0.25 0"/>
			<feBlend in2="shape" result="effect1_innerShadow"/>
		</filter>
		<linearGradient id="paint0_linear" x1="70.372" x2="70.372" y1="0" y2="74.987" gradientUnits="userSpaceOnUse">
			<stop stop-color="#54595D"/>
			<stop offset="1" stop-color="#72777D"/>
		</linearGradient>
		<linearGradient id="paint1_linear" x1="57" x2="57" y1="0" y2="56" gradientUnits="userSpaceOnUse">
			<stop stop-color="#54595D"/>
			<stop offset="1" stop-color="#72777D"/>
		</linearGradient>
		<clipPath id="clip0">
			<path fill="#fff" d="M0 0h360v216H0z"/>
		</clipPath>
	</defs>
</svg>
