<svg xmlns="http://www.w3.org/2000/svg" width="60" height="60" viewBox="0 0 60 60">
	<path fill="#ac6600" fill-rule="evenodd" d="M12.34 21.006a2.835 2.835 0 0 1 2.655 3q.023.187 0 .374a2.82 2.82 0 0 1-3 2.625q-.202.023-.405 0a2.804 2.804 0 0 1-2.595-3 2 2 0 0 1 0-.404 2.805 2.805 0 0 1 3-2.595zM4.495 6.805c0-3.96 3-6.794 7.41-6.794q.412-.022.825 0a7.064 7.064 0 0 1 6.764 7.334h-3.81V7.09a3.45 3.45 0 0 0-3.57-3.33h-.255a3.15 3.15 0 0 0-3.12 3.21c0 1.77.676 2.714 2.685 4.064a5.76 5.76 0 0 1 3 5.758v1.215H10.66v-1.02c0-1.77-.6-2.684-2.73-4.064a6.88 6.88 0 0 1-3.435-6.118M33 18H21v6.75a7.59 7.59 0 0 1-7.541 6.75H11.16a8.55 8.55 0 0 1-8.16-6V54a6 6 0 0 0 6 6h42a6 6 0 0 0 6-6V24a6 6 0 0 0-6-6zM9 51h42L39.75 36l-.75-.99L37.5 33 27 46.5l-7.5-9z" clip-rule="evenodd" opacity=".8"/>
</svg>
