<svg width="60" height="61" fill="none" xmlns="http://www.w3.org/2000/svg"><path fill-rule="evenodd" clip-rule="evenodd" d="M47.66 21.997a2.835 2.835 0 00-2.654 3c-.016.124-.016.25 0 .375a2.82 2.82 0 003 2.625c.134.015.27.015.404 0a2.805 2.805 0 002.596-3c.014-.135.014-.27 0-.405a2.805 2.805 0 00-3-2.595h-.346zm7.846-14.205c0-3.96-3-6.795-7.41-6.795a7.5 7.5 0 00-.825 0 7.065 7.065 0 00-6.766 7.335h3.81v-.255a3.45 3.45 0 013.57-3.33h.256a3.15 3.15 0 013.12 3.21c0 1.77-.675 2.715-2.686 4.065a5.76 5.76 0 00-3 5.76v1.215h3.765v-1.02c0-1.77.6-2.685 2.73-4.065a6.885 6.885 0 003.435-6.12zM9 52h42L39.75 37l-.75-.99L37.5 34 27 47.5l-7.5-9L9 52zm37.541-19.5h2.298a8.55 8.55 0 008.161-6V55a6 6 0 01-6 6H9a6 6 0 01-6-6V25a6 6 0 016-6h30v6.75a7.588 7.588 0 007.541 6.75z" fill="#F8F9FA" opacity=".8"/></svg>