<svg xmlns="http://www.w3.org/2000/svg" width="60" height="61" fill="none">
	<path fill="#ac6600" fill-rule="evenodd" d="M47.66 21.997a2.835 2.835 0 0 0-2.654 3 1.5 1.5 0 0 0 0 .375 2.82 2.82 0 0 0 3 2.625q.202.023.404 0a2.805 2.805 0 0 0 2.596-3q.021-.203 0-.405a2.805 2.805 0 0 0-3-2.595zm7.846-14.205c0-3.96-3-6.795-7.41-6.795a8 8 0 0 0-.825 0 7.065 7.065 0 0 0-6.766 7.335h3.81v-.255a3.45 3.45 0 0 1 3.57-3.33h.256a3.15 3.15 0 0 1 3.12 3.21c0 1.77-.675 2.715-2.686 4.065a5.76 5.76 0 0 0-3 5.76v1.215h3.765v-1.02c0-1.77.6-2.685 2.73-4.065a6.89 6.89 0 0 0 3.435-6.12zM9 52h42L39.75 37l-.75-.99L37.5 34 27 47.5l-7.5-9zm37.541-19.5h2.298a8.55 8.55 0 0 0 8.161-6V55a6 6 0 0 1-6 6H9a6 6 0 0 1-6-6V25a6 6 0 0 1 6-6h30v6.75a7.59 7.59 0 0 0 7.541 6.75" opacity=".8"/>
</svg>
