<svg xmlns="http://www.w3.org/2000/svg" width="360" height="216" viewBox="0 0 360 216">
	<g clip-path="url(#clip0_548_46077)">
		<mask id="mask0_548_46077" width="360" height="216" x="0" y="0" maskUnits="userSpaceOnUse" style="mask-type:luminance">
			<path fill="#fff" d="M0 0h360v216H0z"/>
		</mask>
		<g mask="url(#mask0_548_46077)">
			<mask id="mask1_548_46077" width="360" height="216" x="0" y="0" maskUnits="userSpaceOnUse" style="mask-type:luminance">
				<path fill="#fff" d="M360 0H0v216h360z"/>
			</mask>
			<g mask="url(#mask1_548_46077)">
				<path fill="#fff" d="M316 28H44v180h272z"/>
				<path fill="#fc3" fill-opacity=".5" d="M316-14H44v229h272z"/>
				<path fill="#a2a9b1" d="M57.106 116h242.14v6H57.106zm0 32h242.14v6H57.106zm94.035 12h148.105v6H151.14v-6zm-94.036 0h90.509v6H57.105zm176.316 12h65.825v6h-65.825zm-37.614-38h103.439v8H195.807zm19.983-30h83.456v6H215.79zm-158.685 0h151.632v6H57.105zm.001-12h242.14v6H57.106zm0-12h242.14v6H57.106zm-.001-12h65.825v6H57.105zm70.527 0h171.614v6H127.632zm106.964-22h64.65v14h-64.65zM57 22h152v6H57zm157 0h86v6h-86zM57 10h243v6H57zm0-12h243v6H57z"/>
				<path stroke="#fc3" stroke-width="4" d="M316-8H44v229h272z"/>
				<g filter="url(#filter0_d_548_46077)">
					<path fill="#fff" d="M126 119h108v90H126z"/>
					<path fill="#eaecf0" d="M126 185h108v24H126z"/>
					<path fill="#eaecf0" stroke="#a2a9b1" stroke-linecap="square" d="M214 191h12a2 2 0 0 1 2 2v8a2 2 0 0 1-2 2h-12a2 2 0 0 1-2-2v-8a2 2 0 0 1 2-2Z"/>
					<path fill="#54595d" fill-rule="evenodd" d="M218.632 198.668 216.964 197l-.564.564 2.232 2.236 4.8-4.8-.564-.568z" clip-rule="evenodd"/>
					<path fill="#eaecf0" stroke="#a2a9b1" stroke-linecap="square" d="M134 191h12a2 2 0 0 1 2 2v8a2 2 0 0 1-2 2h-12a2 2 0 0 1-2-2v-8a2 2 0 0 1 2-2Z"/>
					<path fill="#54595d" fill-rule="evenodd" d="m141.5 193.4.6.6-3 3 3 3-.6.6-3.6-3.6z" clip-rule="evenodd"/>
					<path fill="#eaecf0" stroke="#a2a9b1" stroke-linecap="square" d="M192 191h12a2 2 0 0 1 2 2v8a2 2 0 0 1-2 2h-12a2 2 0 0 1-2-2v-8a2 2 0 0 1 2-2Z"/>
					<path fill="#54595d" fill-rule="evenodd" d="m197.435 196.999-2.546-2.545.566-.566 2.546 2.546 2.544-2.545.566.565-2.545 2.545 2.546 2.546-.566.565-2.545-2.545-2.547 2.546-.565-.565z" clip-rule="evenodd"/>
					<path fill="#eaecf0" d="M126 119h108v70H126z"/>
					<path fill="#a2a9b1" d="M132 159h45v4h-45zm0-20h96v4h-96zm0 27h45v4h-45zm9-19h36v8h-36zm10 30c0-.796.316-1.559.879-2.121a2.996 2.996 0 0 1 4.242 0 2.996 2.996 0 0 1 0 4.242 2.996 2.996 0 0 1-4.242 0A3 3 0 0 1 151 177m-19-2h16v4h-16z"/>
					<path fill="#eaf3ff" d="M234 119H126v14h108z"/>
					<path fill="#c8ccd1" d="M180 147h48v32h-48z"/>
					<path fill="#f8f9fa" fill-rule="evenodd" d="M197.6 156.6h12.8a1.6 1.6 0 0 1 1.6 1.6v9.6a1.6 1.6 0 0 1-1.6 1.6h-12.8a1.6 1.6 0 0 1-1.6-1.6v-9.6a1.6 1.6 0 0 1 1.6-1.6m12.936 10.4-3.272-4.2-2.336 2.808-3.264-4.208-4.2 5.6z" clip-rule="evenodd"/>
					<path fill="#54595d" fill-rule="evenodd" d="M223.25 123.5h3.252a.997.997 0 0 1 .998.998V128H224v1h2.502a1 1 0 0 1 .707.293 1 1 0 0 1 .291.707v1h-9v-1c0-.553.447-1 .998-1H222v-1h-3.5v-3.502a1 1 0 0 1 .616-.922c.121-.05.251-.076.382-.076h3.252v-1.043a.75.75 0 1 1 .5 0zm-2 3c.199 0 .39-.079.53-.22a.747.747 0 0 0 0-1.06.747.747 0 0 0-1.06 0 .747.747 0 0 0 0 1.06c.14.141.331.22.53.22m3.5 0c.199 0 .39-.079.53-.22a.747.747 0 0 0 0-1.06.747.747 0 0 0-1.06 0 .747.747 0 0 0 0 1.06c.14.141.331.22.53.22" clip-rule="evenodd"/>
					<path stroke="#a2a9b1" stroke-linecap="square" d="M125.5 118.5h109v91h-109z"/>
				</g>
			</g>
		</g>
	</g>
	<defs>
		<clipPath id="clip0_548_46077">
			<path fill="#fff" d="M0 0h360v216H0z"/>
		</clipPath>
		<filter id="filter0_d_548_46077" width="112" height="94" x="124" y="116" color-interpolation-filters="sRGB" filterUnits="userSpaceOnUse">
			<feFlood flood-opacity="0" result="BackgroundImageFix"/>
			<feColorMatrix in="SourceAlpha" result="hardAlpha" values="0 0 0 0 0 0 0 0 0 0 0 0 0 0 0 0 0 0 127 0"/>
			<feOffset dy="-1"/>
			<feGaussianBlur stdDeviation=".5"/>
			<feComposite in2="hardAlpha" operator="out"/>
			<feColorMatrix values="0 0 0 0 0 0 0 0 0 0 0 0 0 0 0 0 0 0 0.1 0"/>
			<feBlend in2="BackgroundImageFix" result="effect1_dropShadow_548_46077"/>
			<feBlend in="SourceGraphic" in2="effect1_dropShadow_548_46077" result="shape"/>
		</filter>
	</defs>
</svg>
