<svg xmlns="http://www.w3.org/2000/svg" width="360" height="216" fill="none" viewBox="0 0 360 216">
	<g clip-path="url(#clip0_547_45930)">
		<mask id="mask0_547_45930" width="360" height="216" x="0" y="0" maskUnits="userSpaceOnUse" style="mask-type:luminance">
			<path fill="#fff" d="M0 0h360v216H0z"/>
		</mask>
		<g mask="url(#mask0_547_45930)">
			<mask id="mask1_547_45930" width="360" height="216" x="0" y="0" maskUnits="userSpaceOnUse" style="mask-type:luminance">
				<path fill="#fff" d="M360 0H0v216h360z"/>
			</mask>
			<g mask="url(#mask1_547_45930)">
				<path fill="#a2a9b1" d="M268 170H122v6h146z"/>
				<g filter="url(#filter0_d_547_45930)">
					<path fill="#eaecf0" d="M246-16H26c-2.209 0-4 2.239-4 5v230c0 2.761 1.791 5 4 5h220c2.209 0 4-2.239 4-5V-11c0-2.761-1.791-5-4-5"/>
					<path stroke="#a2a9b1" stroke-linecap="square" stroke-width="2" d="M246-14H26c-2.761 0-5 2.758-5 6.16v226.68c0 3.402 2.239 6.16 5 6.16h220c2.761 0 5-2.758 5-6.16V-7.84c0-3.402-2.239-6.16-5-6.16Z"/>
				</g>
				<path fill="#a2a9b1" d="M32.754 114h206v6h-206zm0 32h206v6h-206zm80 12h126v6h-126zm-80 0h77v6h-77zm150 12h56v6h-56zm-32-38h88v8h-88zm17-30h71v6h-71zm-135 0h129v6h-129zm0-80h129v6h-129zm0 184h129v6h-129zm133-184h73v6h-73zm0 184h73v6h-73zm-133-116h206v6h-206zm0-80h206v6h-206zm0 184h206v6h-206zm0-116h206v6h-206zm0-80h206v6h-206zm0 184h206v6h-206zm0-116h56v6h-56zm0 104h56v6h-56zm60-104h146v6h-146zm81.596-21H239v14h-64.65z"/>
				<g filter="url(#filter1_d_547_45930)">
					<path fill="#fff" d="M84 117h108v90H84z"/>
					<path fill="#fff" d="M84 183h108v24H84z"/>
					<path fill="#eaecf0" stroke="#a2a9b1" stroke-linecap="square" d="M172 189h12a2 2 0 0 1 2 2v8a2 2 0 0 1-2 2h-12a2 2 0 0 1-2-2v-8a2 2 0 0 1 2-2Z"/>
					<path fill="#54595d" fill-rule="evenodd" d="M176.632 196.668 174.964 195l-.564.564 2.232 2.236 4.8-4.8-.564-.568z" clip-rule="evenodd"/>
					<path fill="#eaecf0" stroke="#a2a9b1" stroke-linecap="square" d="M92 189h12a2 2 0 0 1 2 2v8a2 2 0 0 1-2 2H92a2 2 0 0 1-2-2v-8a2 2 0 0 1 2-2Z"/>
					<path fill="#54595d" fill-rule="evenodd" d="m99.5 191.4.6.6-3 3 3 3-.6.6-3.6-3.6z" clip-rule="evenodd"/>
					<path fill="#eaecf0" stroke="#a2a9b1" stroke-linecap="square" d="M150 189h12a2 2 0 0 1 2 2v8a2 2 0 0 1-2 2h-12a2 2 0 0 1-2-2v-8a2 2 0 0 1 2-2Z"/>
					<path fill="#54595d" fill-rule="evenodd" d="m155.435 194.999-2.546-2.545.566-.566 2.546 2.546 2.544-2.545.566.565-2.545 2.545 2.546 2.546-.566.565-2.545-2.545-2.547 2.546-.565-.565z" clip-rule="evenodd"/>
					<path fill="#fff" d="M84 117h108v70H84z"/>
					<path fill="#a2a9b1" d="M90 157h45v4H90zm0-20h96v4H90zm0 27h45v4H90zm9-19h36v8H99zm10 30c0-.796.316-1.559.879-2.121a2.996 2.996 0 0 1 4.242 0 2.996 2.996 0 0 1 0 4.242 2.996 2.996 0 0 1-4.242 0A3 3 0 0 1 109 175m-19-2h16v4H90z"/>
					<path fill="#eaf3ff" d="M192 117H84v14h108z"/>
					<path fill="#eaecf0" d="M138 145h48v32h-48z"/>
					<path fill="#a2a9b1" fill-rule="evenodd" d="M155.6 156.6h12.8a1.6 1.6 0 0 1 1.6 1.6v9.6a1.6 1.6 0 0 1-1.6 1.6h-12.8a1.6 1.6 0 0 1-1.6-1.6v-9.6a1.6 1.6 0 0 1 1.6-1.6m12.936 10.4-3.272-4.2-2.336 2.808-3.264-4.208-4.2 5.6z" clip-rule="evenodd"/>
					<path fill="#54595d" fill-rule="evenodd" d="M181.25 121.5h3.252a.997.997 0 0 1 .998.998V126H182v1h2.502a1 1 0 0 1 .707.293 1 1 0 0 1 .291.707v1h-9v-1c0-.553.447-1 .998-1H180v-1h-3.5v-3.502a1 1 0 0 1 .998-.998h3.252v-1.043a.75.75 0 1 1 .5 0zm-2 3c.199 0 .39-.079.53-.22a.747.747 0 0 0 0-1.06.747.747 0 0 0-1.06 0 .747.747 0 0 0 0 1.06c.14.141.331.22.53.22m3.5 0c.199 0 .39-.079.53-.22a.747.747 0 0 0 0-1.06.747.747 0 0 0-1.06 0 .747.747 0 0 0 0 1.06c.14.141.331.22.53.22" clip-rule="evenodd"/>
					<path stroke="#a2a9b1" stroke-linecap="square" d="M83.5 116.5h109v91h-109z"/>
				</g>
				<path fill="#fc3" stroke="#fc3" stroke-linecap="square" d="M172 117.341h-.5v65h109v-65z" opacity=".5"/>
				<path fill="#fc3" fill-opacity=".5" stroke="#fc3" stroke-width="2" d="m180.5 192 163.524-.976a4 4 0 0 0 3.976-4V76a3.997 3.997 0 0 0-4-4H180l-97 45v65z"/>
				<path fill="#fff" d="M184 74h158a4 4 0 0 1 4 4v107a4 4 0 0 1-1.172 2.828A4 4 0 0 1 342 189H184a4 4 0 0 1-2.828-1.172A4 4 0 0 1 180 185V78a3.997 3.997 0 0 1 4-4"/>
				<path fill="#a2a9b1" d="M191 139h67.5v6H191zm0-33h144v6H191zm0 43.5h67.5v6H191zm13.5-28.5h54v12h-54zm15 48a4.496 4.496 0 0 1 6.222-4.157A4.5 4.5 0 0 1 228.5 169a4.5 4.5 0 0 1-9 0m-28.5-3h24v6h-24z"/>
				<path fill="#eaf3ff" d="M344 76H182v21h162z"/>
				<path fill="#eaecf0" d="M263 121h72v54h-72z"/>
				<path fill="#a2a9b1" fill-rule="evenodd" d="M287 136h24a3 3 0 0 1 3 3v18c0 .796-.316 1.559-.879 2.121A3 3 0 0 1 311 160h-24a3 3 0 0 1-2.121-.879A3 3 0 0 1 284 157v-18c0-.796.316-1.559.879-2.121A3 3 0 0 1 287 136m24.255 19.5-6.135-7.875-4.38 5.265-6.12-7.89-7.875 10.5z" clip-rule="evenodd"/>
				<path fill="#54595d" fill-rule="evenodd" d="M327.875 82.75h4.879c.826 0 1.496.671 1.496 1.497V89.5H329V91h3.754c.826 0 1.496.666 1.496 1.5V94h-13.5v-1.5c0-.828.67-1.5 1.496-1.5H326v-1.5h-5.25v-5.252c0-.827.67-1.498 1.496-1.498h4.879v-1.563a1.124 1.124 0 0 1-.35-1.92 1.126 1.126 0 1 1 1.1 1.92zm-3 4.5A1.123 1.123 0 0 0 326 86.125a1.126 1.126 0 1 0-1.125 1.125m5.25 0a1.123 1.123 0 0 0 1.125-1.125 1.126 1.126 0 1 0-1.125 1.125" clip-rule="evenodd"/>
				<path stroke="#fc3" stroke-linecap="square" stroke-width="4" d="M184 74h158a4 4 0 0 1 4 4v107a4 4 0 0 1-1.172 2.828A4 4 0 0 1 342 189H184a4 4 0 0 1-2.828-1.172A4 4 0 0 1 180 185V78a3.997 3.997 0 0 1 4-4Z"/>
			</g>
		</g>
	</g>
	<defs>
		<filter id="filter0_d_547_45930" width="240" height="250" x="16" y="-16" color-interpolation-filters="sRGB" filterUnits="userSpaceOnUse">
			<feFlood flood-opacity="0" result="BackgroundImageFix"/>
			<feColorMatrix in="SourceAlpha" result="hardAlpha" values="0 0 0 0 0 0 0 0 0 0 0 0 0 0 0 0 0 0 127 0"/>
			<feOffset dy="4"/>
			<feGaussianBlur stdDeviation="2"/>
			<feComposite in2="hardAlpha" operator="out"/>
			<feColorMatrix values="0 0 0 0 0 0 0 0 0 0 0 0 0 0 0 0 0 0 0.25 0"/>
			<feBlend in2="BackgroundImageFix" result="effect1_dropShadow_547_45930"/>
			<feBlend in="SourceGraphic" in2="effect1_dropShadow_547_45930" result="shape"/>
		</filter>
		<filter id="filter1_d_547_45930" width="112" height="94" x="82" y="114" color-interpolation-filters="sRGB" filterUnits="userSpaceOnUse">
			<feFlood flood-opacity="0" result="BackgroundImageFix"/>
			<feColorMatrix in="SourceAlpha" result="hardAlpha" values="0 0 0 0 0 0 0 0 0 0 0 0 0 0 0 0 0 0 127 0"/>
			<feOffset dy="-1"/>
			<feGaussianBlur stdDeviation=".5"/>
			<feComposite in2="hardAlpha" operator="out"/>
			<feColorMatrix values="0 0 0 0 0 0 0 0 0 0 0 0 0 0 0 0 0 0 0.1 0"/>
			<feBlend in2="BackgroundImageFix" result="effect1_dropShadow_547_45930"/>
			<feBlend in="SourceGraphic" in2="effect1_dropShadow_547_45930" result="shape"/>
		</filter>
		<clipPath id="clip0_547_45930">
			<path fill="#fff" d="M0 0h360v216H0z"/>
		</clipPath>
	</defs>
</svg>
