<svg width="360" height="216" viewBox="0 0 360 216" fill="none" xmlns="http://www.w3.org/2000/svg">
<g clip-path="url(#clip0_4167_70950)">
<g filter="url(#filter0_d_4167_70950)">
<rect x="25" y="50" width="234" height="168" fill="white"/>
</g>
<rect x="37" y="167.993" width="94" height="5.99635" fill="#A2A9B1"/>
<rect x="37" y="179.989" width="86" height="5.99635" fill="#A2A9B1"/>
<rect x="37" y="191.985" width="211" height="5.99634" fill="#A2A9B1"/>
<rect x="37" y="203.982" width="180" height="5.99635" fill="#A2A9B1"/>
<rect x="126" y="179.989" width="122" height="5.99635" fill="#A2A9B1"/>
<rect x="76" y="155.996" width="68" height="5.99635" fill="#A2A9B1"/>
<rect x="37" y="155.996" width="36" height="5.99635" fill="#A2A9B1"/>
<rect x="37" y="144" width="88" height="5.99635" fill="#A2A9B1"/>
<rect x="37" y="124" width="88" height="5.99635" fill="#A2A9B1"/>
<rect x="117" y="112" width="27" height="5.99635" fill="#A2A9B1"/>
<rect x="90" y="112" width="24" height="5.99635" fill="#A2A9B1"/>
<rect x="37" y="112" width="50" height="5.99635" fill="#A2A9B1"/>
<rect x="37" y="100" width="107.437" height="5.99635" fill="#A2A9B1"/>
<rect x="37" y="88" width="210" height="1" fill="#C8CCD1"/>
<path d="M85.0211 80C83.8372 80 82.7886 79.7471 81.8753 79.2414C80.9732 78.7356 80.2685 78.0345 79.7611 77.1379C79.2537 76.2299 79 75.1839 79 74C79 72.8161 79.2593 71.7759 79.778 70.8793C80.2967 69.9713 81.007 69.2644 81.9091 68.7586C82.8224 68.2529 83.8598 68 85.0211 68C85.63 68 86.2896 68.1034 87 68.3103V69.5C86.0754 69.5 85.2636 69.6897 84.5645 70.069C83.8767 70.4483 83.3411 70.977 82.9577 71.6552C82.5743 72.3218 82.3827 73.1034 82.3827 74C82.3827 74.8851 82.5743 75.6667 82.9577 76.3448C83.3411 77.023 83.8767 77.5517 84.5645 77.931C85.2636 78.3103 86.0754 78.5 87 78.5V79.6897C86.2784 79.8966 85.6187 80 85.0211 80ZM85.5285 79.2069C84.6829 79.0345 83.95 78.7011 83.3298 78.2069C82.7097 77.7126 82.2248 77.1034 81.8753 76.3793C81.537 75.6552 81.3679 74.8621 81.3679 74C81.3679 73.1379 81.537 72.3448 81.8753 71.6207C82.2248 70.8966 82.7097 70.2874 83.3298 69.7931C83.95 69.2989 84.6829 68.9655 85.5285 68.7931C84.4123 68.7931 83.4426 69.0287 82.6195 69.5C81.7963 69.9713 81.1536 70.6034 80.6913 71.3966C80.2403 72.1782 80.0148 73.046 80.0148 74C80.0148 74.954 80.2403 75.8276 80.6913 76.6207C81.1536 77.4023 81.7963 78.0287 82.6195 78.5C83.4426 78.9713 84.4123 79.2069 85.5285 79.2069Z" fill="#54595D"/>
<rect x="37" y="70" width="37.1145" height="9.99392" fill="#A2A9B1"/>
<rect x="155" y="100" width="92" height="68" fill="url(#paint0_linear_4167_70950)"/>
<rect x="155" y="100" width="92" height="68" fill="#FEF6E7"/>
<rect x="155" y="100" width="92" height="68" stroke="#FFCC33" stroke-linecap="round" stroke-dasharray="2 4"/>
<path fill-rule="evenodd" clip-rule="evenodd" d="M211.6 124.4H192.4C191.075 124.4 190 125.474 190 126.8V141.2C190 142.525 191.075 143.6 192.4 143.6H211.6C212.925 143.6 214 142.525 214 141.2V126.8C214 125.474 212.925 124.4 211.6 124.4ZM192.196 140L197.104 133.7L200.608 137.912L205.504 131.6L211.804 140H192.196Z" fill="#FFCC33"/>
<path d="M222 154.638L222 64.0384C222 64.0384 222 60 226.261 60L336.739 60C339.092 60 341 60.7035 341 64.0384L341 154.677C341 157.438 338.761 159.677 336 159.677L301.206 159.677L301.206 172L289.164 159.677L226.261 159.677C223.908 159.677 222 157.973 222 154.638Z" fill="white" stroke="#72777D" stroke-width="2"/>
<path fill-rule="evenodd" clip-rule="evenodd" d="M327.003 145.994C326.941 144.954 327.733 144.06 328.773 143.996L329.003 143.996C330.033 143.921 330.929 144.695 331.003 145.724C331.013 145.814 331.013 145.904 331.003 145.994C331.078 147.023 330.303 147.918 329.273 147.992C329.184 148.002 329.093 148.002 329.003 147.992C327.968 148.061 327.073 147.278 327.003 146.244C326.993 146.161 326.993 146.077 327.003 145.994ZM329.064 130.008C332.004 130.008 334.004 131.896 334.004 134.534C334.043 136.209 333.165 137.771 331.714 138.61C330.294 139.53 329.894 140.139 329.894 141.318L329.894 141.998L327.384 141.998L327.384 141.188C327.196 139.62 327.99 138.097 329.384 137.351C330.724 136.452 331.174 135.823 331.174 134.644C331.184 134.084 330.971 133.543 330.58 133.141C330.189 132.74 329.654 132.511 329.094 132.505L328.924 132.505C328.314 132.484 327.72 132.706 327.273 133.122C326.827 133.538 326.565 134.114 326.544 134.724L326.544 134.893L324.004 134.893C323.902 132.301 325.919 130.116 328.514 130.008C328.697 129.997 328.88 129.997 329.064 130.008Z" fill="#54595D"/>
<path fill-rule="evenodd" clip-rule="evenodd" d="M312 185.998L298.99 185.998C296.786 185.998 295 187.79 295 189.992L295 203.998L309 203.998L309 207.998L298.99 207.998C296.786 207.998 295 209.774 295 211.998L295 215.998L331 215.998L331 211.998C331 209.788 329.214 207.998 327.01 207.998L317 207.998L317 203.998L331 203.998L331 189.992C331 187.786 329.214 185.998 327.01 185.998L314 185.998L314 181.828C315.378 181.341 316.204 179.933 315.957 178.493C315.71 177.053 314.461 176 313 176C311.539 176 310.29 177.053 310.043 178.493C309.796 179.933 310.622 181.341 312 181.828L312 185.998ZM320 197.998C318.343 197.998 317 196.655 317 194.998C317 193.342 318.343 191.998 320 191.998C321.657 191.998 323 193.342 323 194.998C323 196.655 321.657 197.998 320 197.998ZM306 197.998C304.343 197.998 303 196.655 303 194.998C303 193.342 304.343 191.998 306 191.998C307.657 191.998 309 193.342 309 194.998C309 196.655 307.657 197.998 306 197.998Z" fill="#54595D"/>
<g filter="url(#filter1_dd_4167_70950)">
<path d="M234 94L314 94V150L234 150V94Z" fill="url(#paint1_linear_4167_70950)"/>
<path d="M234 94L314 94V150L234 150V94Z" fill="#2A4B8D" style="mix-blend-mode:overlay"/>
<path d="M310.113 118.09L307.926 119.64L307.678 122.31L306.13 120.122L303.462 119.874L305.649 118.323L305.896 115.653L307.445 117.842L310.113 118.09Z" fill="#FEF6E7"/>
<path d="M280.107 95.7195L280.694 96.8553L281.828 97.4426L280.694 98.0298L280.107 99.1656L279.52 98.0298L278.386 97.4426L279.52 96.8553L280.107 95.7195Z" fill="#FEF6E7"/>
<path d="M237.074 143.966L237.661 145.102L238.795 145.689L237.661 146.276L237.074 147.412L236.487 146.276L235.353 145.689L236.487 145.102L237.074 143.966Z" fill="#FEF6E7"/>
<path d="M289.368 113.215C294.816 122.66 291.583 134.736 282.149 140.189C272.714 145.641 260.65 142.406 255.203 132.961C249.756 123.516 252.988 111.44 262.423 105.988C271.857 100.535 283.921 103.771 289.368 113.215Z" fill="#C8CCD1" stroke="#FEF6E7"/>
<g filter="url(#filter2_i_4167_70950)">
<path d="M260.274 129.563C268.725 144.217 282.439 139.954 282.439 139.954C272.564 145.661 260.066 142.497 254.523 132.887C248.981 123.277 252.492 110.86 262.367 105.153C262.367 105.153 251.823 114.91 260.274 129.563Z" fill="#FEF6E7"/>
</g>
<ellipse cx="3.01307" cy="3.01461" rx="3.01307" ry="3.01461" transform="matrix(0.865803 -0.500384 0.499616 0.866247 275.642 131.185)" fill="#72777D"/>
<path d="M289.933 118.914C290.757 120.344 291.415 123.321 289.986 124.146C288.558 124.972 286.732 124.482 285.907 123.052C285.082 121.622 285.572 119.794 287 118.968C288.428 118.143 289.108 117.484 289.933 118.914Z" fill="#A2A9B1"/>
<ellipse cx="2.15219" cy="2.15329" rx="2.15219" ry="2.15329" transform="matrix(0.865803 -0.500384 0.499616 0.866247 256.706 119.124)" fill="#72777D"/>
<path d="M279.088 116.039C280.495 118.478 279.66 121.597 277.223 123.005C274.787 124.413 271.671 123.578 270.264 121.138C268.857 118.699 269.692 115.58 272.129 114.172C274.565 112.764 277.681 113.599 279.088 116.039Z" fill="#A2A9B1" stroke="#FEF6E7"/>
<path d="M276.767 105.186C277.461 106.389 277.049 107.927 275.848 108.621C274.646 109.316 273.11 108.904 272.416 107.701C271.722 106.497 272.134 104.959 273.335 104.265C274.537 103.57 276.073 103.982 276.767 105.186Z" fill="#A2A9B1" stroke="#FEF6E7"/>
</g>
<path d="M185.039 112.117C185.191 112.647 185.745 112.954 186.276 112.802L194.927 110.32C195.458 110.168 195.765 109.614 195.612 109.083C195.46 108.552 194.906 108.245 194.375 108.398L186.685 110.604L184.479 102.914C184.327 102.383 183.773 102.076 183.242 102.229C182.711 102.381 182.405 102.935 182.557 103.466L185.039 112.117ZM186.875 112.326C192.659 101.887 203.973 96.7628 215.543 96.8417C227.117 96.9206 238.767 102.208 245.153 112.373L246.847 111.309C240.033 100.464 227.683 94.9244 215.557 94.8417C203.427 94.759 191.341 100.139 185.125 111.356L186.875 112.326Z" fill="#FFCC33"/>
<path fill-rule="evenodd" clip-rule="evenodd" d="M240.93 69.5699C241.204 70.721 242.015 71.6699 243.11 72.1199C246.005 73.4854 247.671 76.5799 247.216 79.7487C246.762 82.9174 244.293 85.4188 241.131 85.9153C237.968 86.4117 234.852 84.787 233.448 81.91C232.045 79.033 232.682 75.5769 235.02 73.3899L236.38 74.6599L237.02 75.2999L237.47 74.8499L237.75 76.3799L236.21 76.1199L236.66 75.6699L236.02 75.0299C235.124 75.9632 234.607 77.1966 234.57 78.4899H235.48V77.7599L236.74 78.6699L235.48 79.5799V78.8499L234.57 78.8499C234.65 80.1305 235.161 81.3463 236.02 82.2999L236.65 81.6499L236.2 81.1999L237.74 80.9399L237.47 82.4799L237.02 82.0299L236.39 82.6699C237.321 83.5639 238.55 84.0806 239.84 84.1199V83.2099H239.11L240.02 81.9399L240.93 83.2099H240.2V84.1199C241.48 84.0394 242.696 83.5284 243.65 82.6699L243.01 82.0299L242.56 82.4799L242.3 80.9399L243.83 81.2099L243.38 81.6599L244.02 82.2999C244.916 81.3667 245.433 80.1333 245.47 78.8399H244.56V79.5699L243.3 78.6599L244.56 77.7499V78.4799L245.47 78.4799C245.389 77.1993 244.878 75.9836 244.02 75.0299L243.4 75.6799L243.85 76.1299L242.31 76.3899L242.57 74.8499L243.02 75.2999L243.66 74.6699C243.048 74.1906 242.375 73.7938 241.66 73.4899C240.819 73.0239 240.126 72.3309 239.66 71.4899C239.353 70.8957 239.166 70.2466 239.11 69.5799L237.29 70.4899L240.02 65.9399L242.75 70.4799C242.75 70.4799 241.02 69.6599 240.93 69.5699ZM240.02 81.1399C241.401 81.1399 242.52 80.0207 242.52 78.6399C242.52 77.2592 241.401 76.1399 240.02 76.1399C238.639 76.1399 237.52 77.2592 237.52 78.6399C237.52 80.0207 238.639 81.1399 240.02 81.1399Z" fill="#72777D"/>
<path d="M261.68 69L259.41 76H257.29L255.95 71.74L254.55 76H252.43L250.16 69H252.2L253.61 73.47L255.09 69H256.91L258.32 73.51L259.79 69H261.68ZM262.389 69H264.369V76H262.389V69ZM268.478 73.46L267.738 74.25V76H265.778V69H267.738V71.91L270.448 69H272.628L269.768 72.1L272.778 76H270.478L268.478 73.46ZM273.298 69H275.278V76H273.298V69ZM283.006 76L282.986 72.29L281.186 75.31H280.306L278.516 72.39V76H276.686V69H278.316L280.776 73.04L283.176 69H284.806L284.826 76H283.006ZM291.847 74.47V76H286.227V69H291.717V70.53H288.187V71.71H291.297V73.19H288.187V74.47H291.847ZM292.946 69H296.256C297.023 69 297.703 69.1433 298.296 69.43C298.889 69.7167 299.349 70.1233 299.676 70.65C300.003 71.1767 300.166 71.7933 300.166 72.5C300.166 73.2067 300.003 73.8233 299.676 74.35C299.349 74.8767 298.889 75.2833 298.296 75.57C297.703 75.8567 297.023 76 296.256 76H292.946V69ZM296.176 74.42C296.776 74.42 297.256 74.25 297.616 73.91C297.983 73.57 298.166 73.1 298.166 72.5C298.166 71.9 297.983 71.43 297.616 71.09C297.256 70.75 296.776 70.58 296.176 70.58H294.926V74.42H296.176ZM301.208 69H303.188V76H301.208V69ZM309.286 74.64H306.326L305.776 76H303.756L306.846 69H308.796L311.896 76H309.836L309.286 74.64ZM308.706 73.18L307.806 70.94L306.906 73.18H308.706ZM254.19 84.14C253.457 84.14 252.797 83.9867 252.21 83.68C251.63 83.3667 251.173 82.9333 250.84 82.38C250.507 81.8267 250.34 81.2 250.34 80.5C250.34 79.8 250.507 79.1733 250.84 78.62C251.173 78.0667 251.63 77.6367 252.21 77.33C252.797 77.0167 253.457 76.86 254.19 76.86C254.83 76.86 255.407 76.9733 255.92 77.2C256.433 77.4267 256.86 77.7533 257.2 78.18L255.94 79.32C255.487 78.7733 254.937 78.5 254.29 78.5C253.91 78.5 253.57 78.5833 253.27 78.75C252.977 78.9167 252.747 79.1533 252.58 79.46C252.42 79.76 252.34 80.1067 252.34 80.5C252.34 80.8933 252.42 81.2433 252.58 81.55C252.747 81.85 252.977 82.0833 253.27 82.25C253.57 82.4167 253.91 82.5 254.29 82.5C254.937 82.5 255.487 82.2267 255.94 81.68L257.2 82.82C256.86 83.2467 256.433 83.5733 255.92 83.8C255.407 84.0267 254.83 84.14 254.19 84.14ZM261.466 84.14C260.726 84.14 260.06 83.9833 259.466 83.67C258.88 83.3567 258.416 82.9233 258.076 82.37C257.743 81.8167 257.576 81.1933 257.576 80.5C257.576 79.8067 257.743 79.1833 258.076 78.63C258.416 78.0767 258.88 77.6433 259.466 77.33C260.06 77.0167 260.726 76.86 261.466 76.86C262.206 76.86 262.87 77.0167 263.456 77.33C264.05 77.6433 264.513 78.0767 264.846 78.63C265.186 79.1833 265.356 79.8067 265.356 80.5C265.356 81.1933 265.186 81.8167 264.846 82.37C264.513 82.9233 264.05 83.3567 263.456 83.67C262.87 83.9833 262.206 84.14 261.466 84.14ZM261.466 82.5C261.82 82.5 262.14 82.4167 262.426 82.25C262.713 82.0833 262.94 81.85 263.106 81.55C263.273 81.2433 263.356 80.8933 263.356 80.5C263.356 80.1067 263.273 79.76 263.106 79.46C262.94 79.1533 262.713 78.9167 262.426 78.75C262.14 78.5833 261.82 78.5 261.466 78.5C261.113 78.5 260.793 78.5833 260.506 78.75C260.22 78.9167 259.993 79.1533 259.826 79.46C259.66 79.76 259.576 80.1067 259.576 80.5C259.576 80.8933 259.66 81.2433 259.826 81.55C259.993 81.85 260.22 82.0833 260.506 82.25C260.793 82.4167 261.113 82.5 261.466 82.5ZM272.713 84L272.693 80.29L270.893 83.31H270.013L268.223 80.39V84H266.393V77H268.023L270.483 81.04L272.883 77H274.513L274.533 84H272.713ZM282.254 84L282.234 80.29L280.434 83.31H279.554L277.764 80.39V84H275.934V77H277.564L280.024 81.04L282.424 77H284.054L284.074 84H282.254ZM289.005 84.14C288.265 84.14 287.599 83.9833 287.005 83.67C286.419 83.3567 285.955 82.9233 285.615 82.37C285.282 81.8167 285.115 81.1933 285.115 80.5C285.115 79.8067 285.282 79.1833 285.615 78.63C285.955 78.0767 286.419 77.6433 287.005 77.33C287.599 77.0167 288.265 76.86 289.005 76.86C289.745 76.86 290.409 77.0167 290.995 77.33C291.589 77.6433 292.052 78.0767 292.385 78.63C292.725 79.1833 292.895 79.8067 292.895 80.5C292.895 81.1933 292.725 81.8167 292.385 82.37C292.052 82.9233 291.589 83.3567 290.995 83.67C290.409 83.9833 289.745 84.14 289.005 84.14ZM289.005 82.5C289.359 82.5 289.679 82.4167 289.965 82.25C290.252 82.0833 290.479 81.85 290.645 81.55C290.812 81.2433 290.895 80.8933 290.895 80.5C290.895 80.1067 290.812 79.76 290.645 79.46C290.479 79.1533 290.252 78.9167 289.965 78.75C289.679 78.5833 289.359 78.5 289.005 78.5C288.652 78.5 288.332 78.5833 288.045 78.75C287.759 78.9167 287.532 79.1533 287.365 79.46C287.199 79.76 287.115 80.1067 287.115 80.5C287.115 80.8933 287.199 81.2433 287.365 81.55C287.532 81.85 287.759 82.0833 288.045 82.25C288.332 82.4167 288.652 82.5 289.005 82.5ZM300.592 77V84H298.962L295.872 80.27V84H293.932V77H295.562L298.652 80.73V77H300.592ZM304.449 84.14C303.882 84.14 303.332 84.07 302.799 83.93C302.266 83.79 301.832 83.6033 301.499 83.37L302.149 81.91C302.462 82.1167 302.826 82.2833 303.239 82.41C303.652 82.5367 304.059 82.6 304.459 82.6C305.219 82.6 305.599 82.41 305.599 82.03C305.599 81.83 305.489 81.6833 305.269 81.59C305.056 81.49 304.709 81.3867 304.229 81.28C303.702 81.1667 303.262 81.0467 302.909 80.92C302.556 80.7867 302.252 80.5767 301.999 80.29C301.746 80.0033 301.619 79.6167 301.619 79.13C301.619 78.7033 301.736 78.32 301.969 77.98C302.202 77.6333 302.549 77.36 303.009 77.16C303.476 76.96 304.046 76.86 304.719 76.86C305.179 76.86 305.632 76.9133 306.079 77.02C306.526 77.12 306.919 77.27 307.259 77.47L306.649 78.94C305.982 78.58 305.336 78.4 304.709 78.4C304.316 78.4 304.029 78.46 303.849 78.58C303.669 78.6933 303.579 78.8433 303.579 79.03C303.579 79.2167 303.686 79.3567 303.899 79.45C304.112 79.5433 304.456 79.64 304.929 79.74C305.462 79.8533 305.902 79.9767 306.249 80.11C306.602 80.2367 306.906 80.4433 307.159 80.73C307.419 81.01 307.549 81.3933 307.549 81.88C307.549 82.3 307.432 82.68 307.199 83.02C306.966 83.36 306.616 83.6333 306.149 83.84C305.682 84.04 305.116 84.14 304.449 84.14Z" fill="#72777D"/>
</g>
<defs>
<filter id="filter0_d_4167_70950" x="23" y="49" width="238" height="172" filterUnits="userSpaceOnUse" color-interpolation-filters="sRGB">
<feFlood flood-opacity="0" result="BackgroundImageFix"/>
<feColorMatrix in="SourceAlpha" type="matrix" values="0 0 0 0 0 0 0 0 0 0 0 0 0 0 0 0 0 0 127 0" result="hardAlpha"/>
<feOffset dy="1"/>
<feGaussianBlur stdDeviation="1"/>
<feColorMatrix type="matrix" values="0 0 0 0 0 0 0 0 0 0 0 0 0 0 0 0 0 0 0.1 0"/>
<feBlend mode="normal" in2="BackgroundImageFix" result="effect1_dropShadow_4167_70950"/>
<feBlend mode="normal" in="SourceGraphic" in2="effect1_dropShadow_4167_70950" result="shape"/>
</filter>
<filter id="filter1_dd_4167_70950" x="233" y="93" width="82" height="58" filterUnits="userSpaceOnUse" color-interpolation-filters="sRGB">
<feFlood flood-opacity="0" result="BackgroundImageFix"/>
<feColorMatrix in="SourceAlpha" type="matrix" values="0 0 0 0 0 0 0 0 0 0 0 0 0 0 0 0 0 0 127 0" result="hardAlpha"/>
<feOffset dx="1" dy="1"/>
<feComposite in2="hardAlpha" operator="out"/>
<feColorMatrix type="matrix" values="0 0 0 0 0 0 0 0 0 0 0 0 0 0 0 0 0 0 0.25 0"/>
<feBlend mode="normal" in2="BackgroundImageFix" result="effect1_dropShadow_4167_70950"/>
<feColorMatrix in="SourceAlpha" type="matrix" values="0 0 0 0 0 0 0 0 0 0 0 0 0 0 0 0 0 0 127 0" result="hardAlpha"/>
<feOffset dx="-1" dy="-1"/>
<feComposite in2="hardAlpha" operator="out"/>
<feColorMatrix type="matrix" values="0 0 0 0 0 0 0 0 0 0 0 0 0 0 0 0 0 0 0.25 0"/>
<feBlend mode="normal" in2="effect1_dropShadow_4167_70950" result="effect2_dropShadow_4167_70950"/>
<feBlend mode="normal" in="SourceGraphic" in2="effect2_dropShadow_4167_70950" result="shape"/>
</filter>
<filter id="filter2_i_4167_70950" x="251.896" y="105.153" width="30.543" height="37.6414" filterUnits="userSpaceOnUse" color-interpolation-filters="sRGB">
<feFlood flood-opacity="0" result="BackgroundImageFix"/>
<feBlend mode="normal" in="SourceGraphic" in2="BackgroundImageFix" result="shape"/>
<feColorMatrix in="SourceAlpha" type="matrix" values="0 0 0 0 0 0 0 0 0 0 0 0 0 0 0 0 0 0 127 0" result="hardAlpha"/>
<feOffset dx="1"/>
<feComposite in2="hardAlpha" operator="arithmetic" k2="-1" k3="1"/>
<feColorMatrix type="matrix" values="0 0 0 0 0 0 0 0 0 0 0 0 0 0 0 0 0 0 0.25 0"/>
<feBlend mode="normal" in2="shape" result="effect1_innerShadow_4167_70950"/>
</filter>
<linearGradient id="paint0_linear_4167_70950" x1="201" y1="100" x2="201" y2="168" gradientUnits="userSpaceOnUse">
<stop stop-color="#54595D"/>
<stop offset="1" stop-color="#72777D"/>
</linearGradient>
<linearGradient id="paint1_linear_4167_70950" x1="269" y1="94" x2="269" y2="150" gradientUnits="userSpaceOnUse">
<stop stop-color="#54595D"/>
<stop offset="1" stop-color="#72777D"/>
</linearGradient>
<clipPath id="clip0_4167_70950">
<rect width="360" height="216" fill="white"/>
</clipPath>
</defs>
</svg>
