<svg xmlns="http://www.w3.org/2000/svg" width="360" height="216" fill="none" viewBox="0 0 360 216">
	<g clip-path="url(#clip0_547_45969)">
		<mask id="mask0_547_45969" width="360" height="216" x="0" y="0" maskUnits="userSpaceOnUse" style="mask-type:luminance">
			<path fill="#fff" d="M0 0h360v216H0V0Z"/>
		</mask>
		<g mask="url(#mask0_547_45969)">
			<mask id="mask1_547_45969" width="360" height="216" x="0" y="0" maskUnits="userSpaceOnUse" style="mask-type:luminance">
				<path fill="#fff" d="M360 0H0v216h360V0Z"/>
			</mask>
			<g mask="url(#mask1_547_45969)">
				<g filter="url(#filter0_d_547_45969)">
					<path fill="#fff" d="M332 0H98v218h234V0Z"/>
				</g>
				<path fill="#A2A9B1" d="M225 167.993h94v5.996h-94v-5.996Zm8 11.996h86v5.996h-86v-5.996Zm-125 11.996h211v5.996H108v-5.996Zm31 11.997h180v5.996H139v-5.996Zm-31-23.993h122v5.996H108v-5.996Zm104-23.993h68v5.996h-68v-5.996Zm71 0h36v5.996h-36v-5.996ZM231 144h88v5.996h-88V144Zm-6-128.007h94v5.996h-94v-5.996ZM110 16h112v6H110v-6Zm123 11.989h86v5.996h-86v-5.996Zm-21 12.01h107v6H212v-6Z"/>
				<path fill="#A2A9B1" d="M212 40h107v6H212v-6Zm-104 0h101v6H108v-6Zm163 35h48v10h-48V75Zm-2-23h50v6h-50v-6Zm-80 0h77v6h-77v-6Zm-69-24h110v6H120v-6Zm92-24.004h68v5.996h-68V3.996ZM119 4h90v6h-90V4Zm164-.004h36v5.996h-36V3.996ZM231 124h88v5.996h-88V124Zm-19-12h27v5.996h-27V112Zm30 0h24v5.996h-24V112Zm27 0h50v5.996h-50V112Zm-57.437-12H319v5.996H211.563V100Z"/>
				<path fill="#C8CCD1" d="M249 88H39v1h210v-1Z"/>
				<path fill="url(#paint0_linear_547_45969)" d="M202 100h-92v68h92v-68Z"/>
				<path fill="#FEF6E7" d="M202 100h-92v68h92v-68Z"/>
				<path stroke="#FC3" stroke-dasharray="2 4" stroke-linecap="round" d="M202 100h-92v68h92v-68Z"/>
				<path fill="#FC3" fill-rule="evenodd" d="M166.6 124.4h-19.2a2.4 2.4 0 0 0-2.4 2.4v14.4a2.401 2.401 0 0 0 2.4 2.4h19.2a2.4 2.4 0 0 0 2.4-2.4v-14.4a2.4 2.4 0 0 0-2.4-2.4ZM147.196 140l4.908-6.3 3.504 4.212 4.896-6.312 6.3 8.4h-19.608Z" clip-rule="evenodd"/>
				<path fill="#fff" stroke="#72777D" stroke-width="2" d="M138 154.638v-90.6S138 60 133.739 60H23.261C20.908 60 19 60.703 19 64.038v90.639a5.002 5.002 0 0 0 5 5h34.794V172l12.042-12.323h62.903c2.353 0 4.261-1.704 4.261-5.039Z"/>
				<g filter="url(#filter1_dd_547_45969)">
					<path fill="url(#paint1_linear_547_45969)" d="M126 94H46v56h80V94Z"/>
					<path fill="#2A4B8D" d="M126 94H46v56h80V94Z" style="mix-blend-mode:overlay"/>
					<path fill="#FEF6E7" d="m49.887 118.09 2.187 1.55.248 2.67 1.548-2.188 2.668-.248-2.187-1.551-.247-2.67-1.549 2.189-2.668.248Zm30.006-22.37-.587 1.135-1.134.588 1.134.587.587 1.136.587-1.136 1.134-.587-1.134-.588-.587-1.135Zm43.033 48.246-.587 1.136-1.134.587 1.134.587.587 1.136.587-1.136 1.134-.587-1.134-.587-.587-1.136Z"/>
					<path fill="#C8CCD1" stroke="#FEF6E7" d="M70.632 113.215c-5.448 9.445-2.215 21.521 7.219 26.974 9.435 5.452 21.499 2.217 26.946-7.228 5.447-9.445 2.215-21.521-7.22-26.973-9.434-5.453-21.498-2.217-26.945 7.227Z"/>
					<g filter="url(#filter2_d_547_45969)">
						<path fill="#FEF6E7" d="M99.726 129.563c-8.451 14.654-22.165 10.391-22.165 10.391 9.875 5.707 22.373 2.543 27.916-7.067 5.542-9.61 2.031-22.027-7.844-27.734 0 0 10.544 9.757 2.093 24.41Z"/>
					</g>
					<path fill="#72777D" d="M78.737 134.9a3.017 3.017 0 0 1 1.899-5.601 3.017 3.017 0 0 1 2.517 2.209 3.018 3.018 0 0 1-2.13 3.693 2.996 2.996 0 0 1-2.286-.301Z"/>
					<path fill="#A2A9B1" d="M70.067 118.914c-.824 1.43-1.482 4.407-.053 5.232a2.985 2.985 0 0 0 4.377-3.362A2.99 2.99 0 0 0 73 118.968c-1.428-.825-2.108-1.484-2.933-.054Z"/>
					<path fill="#72777D" d="M99.279 121.778a2.157 2.157 0 0 1-.788-2.943 2.148 2.148 0 0 1 2.145-1.057c.281.037.551.129.795.271a2.137 2.137 0 0 1 1.003 1.307 2.153 2.153 0 0 1-.769 2.265 2.154 2.154 0 0 1-2.386.157Z"/>
					<path fill="#A2A9B1" stroke="#FEF6E7" d="M80.912 116.039a5.102 5.102 0 0 0 3.748 7.606 5.087 5.087 0 0 0 3.766-1.011 5.102 5.102 0 0 0-2.438-9.101 5.078 5.078 0 0 0-5.076 2.506Zm2.321-10.853a2.517 2.517 0 0 0 1.847 3.751 2.522 2.522 0 0 0 1.858-.498 2.517 2.517 0 0 0-1.202-4.49 2.504 2.504 0 0 0-1.857.499 2.51 2.51 0 0 0-.646.738Z"/>
				</g>
				<path fill="#FC3" d="M175.326 112.117a1 1 0 0 1-1.237.685l-8.651-2.482a.998.998 0 0 1-.506-1.584.996.996 0 0 1 1.058-.338l7.69 2.206 2.206-7.69a1.001 1.001 0 0 1 1.836-.208c.128.232.159.505.086.76l-2.482 8.651Zm-1.836.209c-5.784-10.439-17.098-15.563-28.668-15.484-11.574.079-23.224 5.366-29.61 15.531l-1.694-1.064c6.814-10.845 19.164-16.385 31.29-16.467 12.13-.083 24.216 5.297 30.432 16.514l-1.75.97Z"/>
				<path fill="#72777D" fill-rule="evenodd" d="M120.93 69.57a3.676 3.676 0 0 0 2.18 2.55 7.294 7.294 0 0 1 2.079 11.714 7.287 7.287 0 0 1-11.74-1.924 7.29 7.29 0 0 1 1.571-8.52l1.36 1.27.64.64.45-.45.28 1.53-1.54-.26.45-.45-.64-.64a5.212 5.212 0 0 0-1.45 3.46h.91v-.73l1.26.91-1.26.91v-.73h-.91a5.683 5.683 0 0 0 1.45 3.45l.63-.65-.45-.45 1.54-.26-.27 1.54-.45-.45-.63.64a5.21 5.21 0 0 0 3.45 1.45v-.91h-.73l.91-1.27.91 1.27h-.73v.91a5.691 5.691 0 0 0 3.45-1.45l-.64-.64-.45.45-.26-1.54 1.53.27-.45.45.64.64a5.211 5.211 0 0 0 1.45-3.46h-.91v.73l-1.26-.91 1.26-.91v.73h.91a5.697 5.697 0 0 0-1.45-3.45l-.62.65.45.45-1.54.26.26-1.54.45.45.64-.63a8.864 8.864 0 0 0-2-1.18 5.128 5.128 0 0 1-2-2 5.09 5.09 0 0 1-.55-1.91l-1.82.91 2.73-4.55 2.73 4.54s-1.73-.82-1.82-.91Zm-.91 11.57a2.501 2.501 0 1 0 0-5.002 2.501 2.501 0 0 0 0 5.002Z" clip-rule="evenodd"/>
				<path fill="#72777D" d="m59.68 69-2.27 7h-2.12l-1.34-4.26-1.4 4.26h-2.12l-2.27-7h2.04l1.41 4.47L53.09 69h1.82l1.41 4.51L57.79 69h1.89Zm.709 0h1.98v7h-1.98v-7Zm6.089 4.46-.74.79V76h-1.96v-7h1.96v2.91l2.71-2.91h2.18l-2.86 3.1 3.01 3.9h-2.3l-2-2.54Zm4.82-4.46h1.98v7h-1.98v-7Zm9.708 7-.02-3.71-1.8 3.02h-.88l-1.79-2.92V76h-1.83v-7h1.63l2.46 4.04 2.4-4.04h1.63l.02 7h-1.82Zm8.841-1.53V76h-5.62v-7h5.49v1.53h-3.53v1.18h3.11v1.48h-3.11v1.28h3.66ZM90.946 69h3.31c.767 0 1.447.143 2.04.43a3.242 3.242 0 0 1 1.38 1.22c.327.527.49 1.143.49 1.85 0 .707-.163 1.323-.49 1.85a3.242 3.242 0 0 1-1.38 1.22c-.593.287-1.273.43-2.04.43h-3.31v-7Zm3.23 5.42c.6 0 1.08-.17 1.44-.51.367-.34.55-.81.55-1.41 0-.6-.183-1.07-.55-1.41-.36-.34-.84-.51-1.44-.51h-1.25v3.84h1.25ZM99.208 69h1.98v7h-1.98v-7Zm8.078 5.64h-2.96l-.55 1.36h-2.02l3.09-7h1.95l3.1 7h-2.06l-.55-1.36Zm-.58-1.46-.9-2.24-.9 2.24h1.8ZM52.19 84.14c-.733 0-1.393-.153-1.98-.46a3.52 3.52 0 0 1-1.37-1.3c-.333-.553-.5-1.18-.5-1.88s.167-1.327.5-1.88c.333-.553.79-.983 1.37-1.29.587-.313 1.247-.47 1.98-.47.64 0 1.217.113 1.73.34.513.227.94.553 1.28.98l-1.26 1.14c-.453-.547-1.003-.82-1.65-.82-.38 0-.72.083-1.02.25a1.774 1.774 0 0 0-.69.71c-.16.3-.24.647-.24 1.04s.08.743.24 1.05c.167.3.397.533.69.7.3.167.64.25 1.02.25.647 0 1.197-.273 1.65-.82l1.26 1.14c-.34.427-.767.753-1.28.98-.513.227-1.09.34-1.73.34Zm7.276 0c-.74 0-1.406-.157-2-.47a3.58 3.58 0 0 1-1.39-1.3 3.556 3.556 0 0 1-.5-1.87c0-.693.167-1.317.5-1.87.34-.553.804-.987 1.39-1.3.594-.313 1.26-.47 2-.47s1.404.157 1.99.47a3.48 3.48 0 0 1 1.39 1.3c.343.563.52 1.211.51 1.87a3.499 3.499 0 0 1-.51 1.87 3.48 3.48 0 0 1-1.39 1.3c-.586.313-1.25.47-1.99.47Zm0-1.64c.354 0 .674-.083.96-.25a1.8 1.8 0 0 0 .68-.7 2.16 2.16 0 0 0 .25-1.05c0-.393-.083-.74-.25-1.04a1.783 1.783 0 0 0-.68-.71 1.87 1.87 0 0 0-.96-.25c-.353 0-.673.083-.96.25a1.798 1.798 0 0 0-.68.71c-.166.3-.25.647-.25 1.04s.084.743.25 1.05c.167.3.394.533.68.7.287.167.607.25.96.25ZM70.713 84l-.02-3.71-1.8 3.02h-.88l-1.79-2.92V84h-1.83v-7h1.63l2.46 4.04 2.4-4.04h1.63l.02 7h-1.82Zm9.541 0-.02-3.71-1.8 3.02h-.88l-1.79-2.92V84h-1.83v-7h1.63l2.46 4.04 2.4-4.04h1.63l.02 7h-1.82Zm6.751.14c-.74 0-1.406-.157-2-.47a3.58 3.58 0 0 1-1.39-1.3 3.556 3.556 0 0 1-.5-1.87c0-.693.167-1.317.5-1.87.34-.553.804-.987 1.39-1.3.594-.313 1.26-.47 2-.47s1.404.157 1.99.47a3.48 3.48 0 0 1 1.39 1.3c.343.563.52 1.211.51 1.87a3.499 3.499 0 0 1-.51 1.87 3.48 3.48 0 0 1-1.39 1.3c-.586.313-1.25.47-1.99.47Zm0-1.64c.354 0 .674-.083.96-.25a1.8 1.8 0 0 0 .68-.7 2.16 2.16 0 0 0 .25-1.05c0-.393-.083-.74-.25-1.04a1.783 1.783 0 0 0-.68-.71 1.87 1.87 0 0 0-.96-.25c-.353 0-.673.083-.96.25a1.798 1.798 0 0 0-.68.71c-.166.3-.25.647-.25 1.04s.084.743.25 1.05c.167.3.394.533.68.7.287.167.607.25.96.25ZM98.592 77v7h-1.63l-3.09-3.73V84h-1.94v-7h1.63l3.09 3.73V77h1.94Zm3.857 7.14c-.567 0-1.117-.07-1.65-.21-.533-.14-.967-.327-1.3-.56l.65-1.46c.313.207.677.373 1.09.5.413.127.82.19 1.22.19.76 0 1.14-.19 1.14-.57 0-.2-.11-.347-.33-.44-.213-.1-.56-.203-1.04-.31a10.581 10.581 0 0 1-1.32-.36 2.266 2.266 0 0 1-.91-.63c-.253-.287-.38-.673-.38-1.16 0-.427.117-.81.35-1.15.233-.347.58-.62 1.04-.82.467-.2 1.037-.3 1.71-.3.46 0 .913.053 1.36.16.447.1.84.25 1.18.45l-.61 1.47c-.667-.36-1.313-.54-1.94-.54-.393 0-.68.06-.86.18-.18.113-.27.263-.27.45s.107.327.32.42c.213.093.557.19 1.03.29.449.09.89.213 1.32.37.353.127.657.333.91.62.26.28.39.663.39 1.15 0 .42-.117.8-.35 1.14-.233.34-.583.613-1.05.82-.467.2-1.033.3-1.7.3Z"/>
			</g>
		</g>
		<path fill="#54595D" d="M33.525 144.629c.332.375.501.866.472 1.365.01.083.01.167 0 .25a1.88 1.88 0 0 1-2 1.748c-.09.01-.181.01-.27 0a1.857 1.857 0 0 1-1.28-.64 1.872 1.872 0 0 1-.45-1.358c-.01-.09-.01-.18 0-.27a1.866 1.866 0 0 1 2-1.728h.23c.5.031.966.259 1.298.633Zm-6.529-10.095c0-2.638 2-4.526 4.94-4.526.184-.011.367-.011.55 0a4.706 4.706 0 0 1 4.51 4.885h-2.54v-.169a2.296 2.296 0 0 0-2.38-2.219h-.17a2.11 2.11 0 0 0-1.486.636 2.101 2.101 0 0 0-.594 1.503c0 1.179.45 1.808 1.79 2.707a3.834 3.834 0 0 1 2 3.837v.81h-2.51v-.68c0-1.179-.4-1.788-1.82-2.708a4.589 4.589 0 0 1-2.29-4.076Z"/>
		<path fill="#54595D" fill-rule="evenodd" d="M48 185.998h13.01a3.993 3.993 0 0 1 3.99 3.994v14.006H51v4h10.01a3.977 3.977 0 0 1 2.826 1.171A3.98 3.98 0 0 1 65 211.998v4H29v-4c0-2.21 1.786-4 3.99-4H43v-4H29v-14.006a3.995 3.995 0 0 1 3.99-3.994H46v-4.17A2.998 2.998 0 0 1 47 176a3 3 0 0 1 1 5.828v4.17Zm-8 12a2.999 2.999 0 0 0 2.121-5.121 2.999 2.999 0 1 0-4.242 4.242 2.999 2.999 0 0 0 2.121.879Zm14 0a2.999 2.999 0 0 0 2.121-5.121 2.999 2.999 0 1 0-4.242 4.242 2.999 2.999 0 0 0 2.121.879Z" clip-rule="evenodd"/>
	</g>
	<defs>
		<filter id="filter0_d_547_45969" width="238" height="222" x="96" y="-1" color-interpolation-filters="sRGB" filterUnits="userSpaceOnUse">
			<feFlood flood-opacity="0" result="BackgroundImageFix"/>
			<feColorMatrix in="SourceAlpha" result="hardAlpha" values="0 0 0 0 0 0 0 0 0 0 0 0 0 0 0 0 0 0 127 0"/>
			<feOffset dy="1"/>
			<feGaussianBlur stdDeviation="1"/>
			<feColorMatrix values="0 0 0 0 0 0 0 0 0 0 0 0 0 0 0 0 0 0 0.1 0"/>
			<feBlend in2="BackgroundImageFix" result="effect1_dropShadow_547_45969"/>
			<feBlend in="SourceGraphic" in2="effect1_dropShadow_547_45969" result="shape"/>
		</filter>
		<filter id="filter1_dd_547_45969" width="82" height="58" x="45" y="93" color-interpolation-filters="sRGB" filterUnits="userSpaceOnUse">
			<feFlood flood-opacity="0" result="BackgroundImageFix"/>
			<feColorMatrix in="SourceAlpha" result="hardAlpha" values="0 0 0 0 0 0 0 0 0 0 0 0 0 0 0 0 0 0 127 0"/>
			<feOffset dx="1" dy="1"/>
			<feComposite in2="hardAlpha" operator="out"/>
			<feColorMatrix values="0 0 0 0 0 0 0 0 0 0 0 0 0 0 0 0 0 0 0.25 0"/>
			<feBlend in2="BackgroundImageFix" result="effect1_dropShadow_547_45969"/>
			<feColorMatrix in="SourceAlpha" result="hardAlpha" values="0 0 0 0 0 0 0 0 0 0 0 0 0 0 0 0 0 0 127 0"/>
			<feOffset dx="-1" dy="-1"/>
			<feComposite in2="hardAlpha" operator="out"/>
			<feColorMatrix values="0 0 0 0 0 0 0 0 0 0 0 0 0 0 0 0 0 0 0.25 0"/>
			<feBlend in2="effect1_dropShadow_547_45969" result="effect2_dropShadow_547_45969"/>
			<feBlend in="SourceGraphic" in2="effect2_dropShadow_547_45969" result="shape"/>
		</filter>
		<filter id="filter2_d_547_45969" width="31.544" height="37.641" x="77.561" y="105.153" color-interpolation-filters="sRGB" filterUnits="userSpaceOnUse">
			<feFlood flood-opacity="0" result="BackgroundImageFix"/>
			<feColorMatrix in="SourceAlpha" result="hardAlpha" values="0 0 0 0 0 0 0 0 0 0 0 0 0 0 0 0 0 0 127 0"/>
			<feOffset dx="1"/>
			<feComposite in2="hardAlpha" operator="out"/>
			<feColorMatrix values="0 0 0 0 0 0 0 0 0 0 0 0 0 0 0 0 0 0 0.25 0"/>
			<feBlend in2="BackgroundImageFix" result="effect1_dropShadow_547_45969"/>
			<feBlend in="SourceGraphic" in2="effect1_dropShadow_547_45969" result="shape"/>
		</filter>
		<linearGradient id="paint0_linear_547_45969" x1="156" x2="156" y1="100" y2="168" gradientUnits="userSpaceOnUse">
			<stop stop-color="#54595D"/>
			<stop offset="1" stop-color="#72777D"/>
		</linearGradient>
		<linearGradient id="paint1_linear_547_45969" x1="91" x2="91" y1="94" y2="150" gradientUnits="userSpaceOnUse">
			<stop stop-color="#54595D"/>
			<stop offset="1" stop-color="#72777D"/>
		</linearGradient>
		<clipPath id="clip0_547_45969">
			<path fill="#fff" d="M0 0h360v216H0z"/>
		</clipPath>
	</defs>
</svg>
