<svg width="360" height="216" viewBox="0 0 360 216" fill="none" xmlns="http://www.w3.org/2000/svg">
<g clip-path="url(#clip0_547_45969)">
<mask id="mask0_547_45969" style="mask-type:luminance" maskUnits="userSpaceOnUse" x="0" y="0" width="360" height="216">
<path d="M0 0H360V216H0V0Z" fill="white"/>
</mask>
<g mask="url(#mask0_547_45969)">
<mask id="mask1_547_45969" style="mask-type:luminance" maskUnits="userSpaceOnUse" x="0" y="0" width="360" height="216">
<path d="M360 0H0V216H360V0Z" fill="white"/>
</mask>
<g mask="url(#mask1_547_45969)">
<g filter="url(#filter0_d_547_45969)">
<path d="M332 0H98V218H332V0Z" fill="white"/>
</g>
<path d="M225 167.993H319V173.989H225V167.993ZM233 179.989H319V185.985H233V179.989ZM108 191.985H319V197.981H108V191.985ZM139 203.982H319V209.978H139V203.982ZM108 179.989H230V185.985H108V179.989ZM212 155.996H280V161.992H212V155.996ZM283 155.996H319V161.992H283V155.996ZM231 144H319V149.996H231V144ZM225 15.9929H319V21.9889H225V15.9929ZM110 15.9999H222V21.9999H110V15.9999ZM233 27.9889H319V33.9849H233V27.9889ZM212 39.9999H319V45.9999H212V39.9999Z" fill="#A2A9B1"/>
<path d="M212 40.0001H319V46.0001H212V40.0001ZM108 40.0001H209V46.0001H108V40.0001ZM271 75.0001H319V85.0001H271V75.0001ZM269 52.0001H319V58.0001H269V52.0001ZM189 52.0001H266V58.0001H189V52.0001ZM120 28.0001H230V34.0001H120V28.0001ZM212 3.99609H280V9.99209H212V3.99609ZM119 4.00009H209V10.0001H119V4.00009ZM283 3.99609H319V9.99209H283V3.99609ZM231 124H319V129.996H231V124ZM212 112H239V117.996H212V112ZM242 112H266V117.996H242V112ZM269 112H319V117.996H269V112ZM211.563 100H319V105.996H211.563V100Z" fill="#A2A9B1"/>
<path d="M249 88H39V89H249V88Z" fill="#C8CCD1"/>
<path d="M202 100H110V168H202V100Z" fill="url(#paint0_linear_547_45969)"/>
<path d="M202 100H110V168H202V100Z" fill="#FEF6E7"/>
<path d="M202 100H110V168H202V100Z" stroke="#FFCC33" stroke-linecap="round" stroke-dasharray="2 4"/>
<path fill-rule="evenodd" clip-rule="evenodd" d="M166.6 124.4H147.4C146.763 124.4 146.153 124.653 145.703 125.103C145.253 125.553 145 126.163 145 126.8V141.2C145 141.836 145.253 142.447 145.703 142.897C146.153 143.347 146.763 143.6 147.4 143.6H166.6C167.237 143.6 167.847 143.347 168.297 142.897C168.747 142.447 169 141.836 169 141.2V126.8C169 126.163 168.747 125.553 168.297 125.103C167.847 124.653 167.237 124.4 166.6 124.4ZM147.196 140L152.104 133.7L155.608 137.912L160.504 131.6L166.804 140H147.196Z" fill="#FFCC33"/>
<path d="M138 154.638V64.038C138 64.038 138 60 133.739 60H23.261C20.908 60 19 60.703 19 64.038V154.677C19 156.003 19.5268 157.275 20.4645 158.213C21.4022 159.15 22.6739 159.677 24 159.677H58.794V172L70.836 159.677H133.739C136.092 159.677 138 157.973 138 154.638Z" fill="white" stroke="#72777D" stroke-width="2"/>
<g filter="url(#filter1_dd_547_45969)">
<path d="M126 94H46V150H126V94Z" fill="url(#paint1_linear_547_45969)"/>
<g style="mix-blend-mode:overlay">
<path d="M126 94H46V150H126V94Z" fill="#2A4B8D"/>
</g>
<path d="M49.887 118.09L52.074 119.64L52.322 122.31L53.87 120.122L56.538 119.874L54.351 118.323L54.104 115.653L52.555 117.842L49.887 118.09ZM79.893 95.72L79.306 96.855L78.172 97.443L79.306 98.03L79.893 99.166L80.48 98.03L81.614 97.443L80.48 96.855L79.893 95.72ZM122.926 143.966L122.339 145.102L121.205 145.689L122.339 146.276L122.926 147.412L123.513 146.276L124.647 145.689L123.513 145.102L122.926 143.966Z" fill="#FEF6E7"/>
<path d="M70.632 113.215C65.184 122.66 68.417 134.736 77.851 140.189C87.286 145.641 99.35 142.406 104.797 132.961C110.244 123.516 107.012 111.44 97.577 105.988C88.143 100.535 76.079 103.771 70.632 113.215Z" fill="#C8CCD1" stroke="#FEF6E7"/>
<g filter="url(#filter2_d_547_45969)">
<path d="M99.726 129.563C91.275 144.217 77.561 139.954 77.561 139.954C87.436 145.661 99.934 142.497 105.477 132.887C111.019 123.277 107.508 110.86 97.633 105.153C97.633 105.153 108.177 114.91 99.726 129.563Z" fill="#FEF6E7"/>
</g>
<path d="M78.7371 134.9C78.0452 134.5 77.5404 133.841 77.3336 133.069C77.1268 132.296 77.2349 131.474 77.6341 130.781C77.8317 130.438 78.0949 130.138 78.4087 129.897C78.7225 129.656 79.0807 129.479 79.4629 129.377C79.845 129.274 80.2436 129.248 80.6358 129.299C81.0281 129.351 81.4064 129.479 81.7491 129.677C82.4412 130.077 82.9461 130.736 83.1529 131.508C83.3597 132.281 83.2515 133.103 82.8521 133.796C82.6546 134.139 82.3915 134.44 82.0777 134.681C81.7639 134.922 81.4057 135.099 81.0235 135.201C80.6413 135.304 80.2426 135.33 79.8503 135.278C79.458 135.227 79.0797 135.098 78.7371 134.9Z" fill="#72777D"/>
<path d="M70.067 118.914C69.243 120.344 68.585 123.321 70.014 124.146C70.3536 124.342 70.7286 124.47 71.1175 124.521C71.5063 124.572 71.9015 124.546 72.2803 124.445C72.6592 124.343 73.0143 124.168 73.3253 123.929C73.6364 123.69 73.8972 123.392 74.093 123.052C74.489 122.365 74.5962 121.55 74.3913 120.784C74.1864 120.018 73.686 119.365 73 118.968C71.572 118.143 70.892 117.484 70.067 118.914Z" fill="#A2A9B1"/>
<path d="M99.279 121.778C98.7846 121.492 98.4239 121.021 98.2761 120.47C98.1284 119.918 98.2057 119.33 98.491 118.835C98.6324 118.59 98.8207 118.376 99.045 118.204C99.2693 118.032 99.5253 117.906 99.7984 117.833C100.071 117.76 100.356 117.741 100.636 117.778C100.917 117.815 101.187 117.907 101.431 118.049C101.676 118.19 101.891 118.378 102.063 118.603C102.235 118.827 102.361 119.083 102.434 119.356C102.507 119.629 102.525 119.914 102.488 120.194C102.451 120.474 102.359 120.744 102.218 120.989C102.077 121.234 101.889 121.449 101.665 121.621C101.441 121.793 101.185 121.919 100.912 121.993C100.639 122.066 100.354 122.085 100.074 122.048C99.7939 122.011 99.5237 121.919 99.279 121.778Z" fill="#72777D"/>
<path d="M80.912 116.039C80.2363 117.21 80.0533 118.602 80.403 119.908C80.7526 121.214 81.6065 122.328 82.777 123.005C83.3564 123.34 83.9961 123.557 84.6596 123.645C85.3231 123.732 85.9973 123.688 86.6436 123.514C87.29 123.341 87.8958 123.042 88.4264 122.634C88.957 122.226 89.402 121.718 89.736 121.138C90.4117 119.967 90.5948 118.575 90.2451 117.269C89.8954 115.963 89.0415 114.849 87.871 114.172C87.2916 113.837 86.6519 113.62 85.9884 113.533C85.325 113.445 84.6508 113.489 84.0045 113.663C83.3581 113.836 82.7523 114.135 82.2217 114.543C81.691 114.951 81.246 115.459 80.912 116.039ZM83.233 105.186C82.8998 105.764 82.8095 106.45 82.9818 107.094C83.1541 107.738 83.575 108.287 84.152 108.621C84.4377 108.786 84.7532 108.894 85.0804 108.937C85.4075 108.98 85.7401 108.958 86.0588 108.873C86.3776 108.787 86.6764 108.64 86.9381 108.439C87.1998 108.238 87.4193 107.987 87.584 107.701C87.9173 107.123 88.0077 106.437 87.8354 105.793C87.6631 105.149 87.2421 104.599 86.665 104.265C86.3793 104.1 86.0638 103.993 85.7365 103.949C85.4093 103.906 85.0768 103.928 84.758 104.014C84.4392 104.099 84.1404 104.247 83.8788 104.448C83.6171 104.649 83.3977 104.9 83.233 105.186Z" fill="#A2A9B1" stroke="#FEF6E7"/>
</g>
<path d="M175.326 112.117C175.253 112.372 175.082 112.587 174.85 112.716C174.618 112.844 174.344 112.875 174.089 112.802L165.438 110.32C165.312 110.284 165.194 110.223 165.091 110.141C164.989 110.059 164.903 109.958 164.84 109.843C164.776 109.729 164.736 109.602 164.721 109.472C164.706 109.341 164.717 109.209 164.753 109.083C164.789 108.957 164.85 108.839 164.932 108.736C165.014 108.634 165.115 108.548 165.23 108.484C165.345 108.421 165.471 108.38 165.601 108.366C165.732 108.351 165.864 108.362 165.99 108.398L173.68 110.604L175.886 102.914C175.959 102.659 176.131 102.444 176.363 102.315C176.595 102.187 176.868 102.156 177.123 102.229C177.378 102.302 177.593 102.474 177.722 102.706C177.85 102.938 177.881 103.211 177.808 103.466L175.326 112.117ZM173.49 112.326C167.706 101.887 156.392 96.763 144.822 96.842C133.248 96.921 121.598 102.208 115.212 112.373L113.518 111.309C120.332 100.464 132.682 94.924 144.808 94.842C156.938 94.759 169.024 100.139 175.24 111.356L173.49 112.326Z" fill="#FFCC33"/>
<path fill-rule="evenodd" clip-rule="evenodd" d="M120.93 69.5699C121.065 70.1374 121.333 70.6647 121.712 71.108C122.091 71.5514 122.57 71.8983 123.11 72.1199C124.52 72.7851 125.68 73.885 126.42 75.2581C127.159 76.6312 127.438 78.2051 127.217 79.7487C126.995 81.2922 126.285 82.7241 125.189 83.8341C124.094 84.944 122.672 85.6734 121.131 85.9153C119.59 86.1571 118.013 85.8986 116.63 85.1777C115.248 84.4568 114.132 83.3115 113.449 81.91C112.765 80.5085 112.549 78.9247 112.831 77.3912C113.114 75.8577 113.881 74.4553 115.02 73.3899L116.38 74.6599L117.02 75.2999L117.47 74.8499L117.75 76.3799L116.21 76.1199L116.66 75.6699L116.02 75.0299C115.124 75.9633 114.607 77.1966 114.57 78.4899H115.48V77.7599L116.74 78.6699L115.48 79.5799V78.8499H114.57C114.65 80.1306 115.161 81.3466 116.02 82.2999L116.65 81.6499L116.2 81.1999L117.74 80.9399L117.47 82.4799L117.02 82.0299L116.39 82.6699C117.321 83.5639 118.55 84.0806 119.84 84.1199V83.2099H119.11L120.02 81.9399L120.93 83.2099H120.2V84.1199C121.481 84.0393 122.696 83.5283 123.65 82.6699L123.01 82.0299L122.56 82.4799L122.3 80.9399L123.83 81.2099L123.38 81.6599L124.02 82.2999C124.916 81.3666 125.433 80.1333 125.47 78.8399H124.56V79.5699L123.3 78.6599L124.56 77.7499V78.4799H125.47C125.389 77.1995 124.878 75.9838 124.02 75.0299L123.4 75.6799L123.85 76.1299L122.31 76.3899L122.57 74.8499L123.02 75.2999L123.66 74.6699C123.048 74.1907 122.376 73.794 121.66 73.4899C120.819 73.0239 120.126 72.3309 119.66 71.4899C119.353 70.8956 119.166 70.2466 119.11 69.5799L117.29 70.4899L120.02 65.9399L122.75 70.4799C122.75 70.4799 121.02 69.6599 120.93 69.5699ZM120.02 81.1399C120.683 81.1399 121.319 80.8765 121.788 80.4077C122.257 79.9389 122.52 79.303 122.52 78.6399C122.52 77.9769 122.257 77.341 121.788 76.8722C121.319 76.4033 120.683 76.1399 120.02 76.1399C119.357 76.1399 118.721 76.4033 118.252 76.8722C117.783 77.341 117.52 77.9769 117.52 78.6399C117.52 79.303 117.783 79.9389 118.252 80.4077C118.721 80.8765 119.357 81.1399 120.02 81.1399Z" fill="#72777D"/>
<path d="M59.68 69L57.41 76H55.29L53.95 71.74L52.55 76H50.43L48.16 69H50.2L51.61 73.47L53.09 69H54.91L56.32 73.51L57.79 69H59.68ZM60.389 69H62.369V76H60.389V69ZM66.478 73.46L65.738 74.25V76H63.778V69H65.738V71.91L68.448 69H70.628L67.768 72.1L70.778 76H68.478L66.478 73.46ZM71.298 69H73.278V76H71.298V69ZM81.006 76L80.986 72.29L79.186 75.31H78.306L76.516 72.39V76H74.686V69H76.316L78.776 73.04L81.176 69H82.806L82.826 76H81.006ZM89.847 74.47V76H84.227V69H89.717V70.53H86.187V71.71H89.297V73.19H86.187V74.47H89.847ZM90.946 69H94.256C95.023 69 95.703 69.143 96.296 69.43C96.8643 69.6947 97.3436 70.1185 97.676 70.65C98.003 71.177 98.166 71.793 98.166 72.5C98.166 73.207 98.003 73.823 97.676 74.35C97.3436 74.8815 96.8643 75.3053 96.296 75.57C95.703 75.857 95.023 76 94.256 76H90.946V69ZM94.176 74.42C94.776 74.42 95.256 74.25 95.616 73.91C95.983 73.57 96.166 73.1 96.166 72.5C96.166 71.9 95.983 71.43 95.616 71.09C95.256 70.75 94.776 70.58 94.176 70.58H92.926V74.42H94.176ZM99.208 69H101.188V76H99.208V69ZM107.286 74.64H104.326L103.776 76H101.756L104.846 69H106.796L109.896 76H107.836L107.286 74.64ZM106.706 73.18L105.806 70.94L104.906 73.18H106.706ZM52.19 84.14C51.457 84.14 50.797 83.987 50.21 83.68C49.6435 83.3796 49.1697 82.93 48.84 82.38C48.507 81.827 48.34 81.2 48.34 80.5C48.34 79.8 48.507 79.173 48.84 78.62C49.173 78.067 49.63 77.637 50.21 77.33C50.797 77.017 51.457 76.86 52.19 76.86C52.83 76.86 53.407 76.973 53.92 77.2C54.433 77.427 54.86 77.753 55.2 78.18L53.94 79.32C53.487 78.773 52.937 78.5 52.29 78.5C51.91 78.5 51.57 78.583 51.27 78.75C50.9773 78.9164 50.738 79.1626 50.58 79.46C50.42 79.76 50.34 80.107 50.34 80.5C50.34 80.893 50.42 81.243 50.58 81.55C50.747 81.85 50.977 82.083 51.27 82.25C51.57 82.417 51.91 82.5 52.29 82.5C52.937 82.5 53.487 82.227 53.94 81.68L55.2 82.82C54.86 83.247 54.433 83.573 53.92 83.8C53.407 84.027 52.83 84.14 52.19 84.14ZM59.466 84.14C58.726 84.14 58.06 83.983 57.466 83.67C56.8939 83.37 56.4136 82.9208 56.076 82.37C55.7396 81.8049 55.5666 81.1576 55.576 80.5C55.576 79.807 55.743 79.183 56.076 78.63C56.416 78.077 56.88 77.643 57.466 77.33C58.06 77.017 58.726 76.86 59.466 76.86C60.206 76.86 60.87 77.017 61.456 77.33C62.0312 77.6258 62.5125 78.0759 62.846 78.63C63.1887 79.1929 63.3655 79.8411 63.356 80.5C63.3655 81.1589 63.1887 81.8071 62.846 82.37C62.5125 82.9241 62.0312 83.3742 61.456 83.67C60.87 83.983 60.206 84.14 59.466 84.14ZM59.466 82.5C59.82 82.5 60.14 82.417 60.426 82.25C60.7128 82.0837 60.9481 81.8415 61.106 81.55C61.2769 81.2268 61.3629 80.8655 61.356 80.5C61.356 80.107 61.273 79.76 61.106 79.46C60.9504 79.1643 60.7147 78.9183 60.426 78.75C60.1343 78.5818 59.8027 78.4954 59.466 78.5C59.113 78.5 58.793 78.583 58.506 78.75C58.2178 78.9189 57.9823 79.1647 57.826 79.46C57.66 79.76 57.576 80.107 57.576 80.5C57.576 80.893 57.66 81.243 57.826 81.55C57.993 81.85 58.22 82.083 58.506 82.25C58.793 82.417 59.113 82.5 59.466 82.5ZM70.713 84L70.693 80.29L68.893 83.31H68.013L66.223 80.39V84H64.393V77H66.023L68.483 81.04L70.883 77H72.513L72.533 84H70.713ZM80.254 84L80.234 80.29L78.434 83.31H77.554L75.764 80.39V84H73.934V77H75.564L78.024 81.04L80.424 77H82.054L82.074 84H80.254ZM87.005 84.14C86.265 84.14 85.599 83.983 85.005 83.67C84.4329 83.37 83.9526 82.9208 83.615 82.37C83.2786 81.8049 83.1056 81.1576 83.115 80.5C83.115 79.807 83.282 79.183 83.615 78.63C83.955 78.077 84.419 77.643 85.005 77.33C85.599 77.017 86.265 76.86 87.005 76.86C87.745 76.86 88.409 77.017 88.995 77.33C89.5702 77.6258 90.0515 78.0759 90.385 78.63C90.7277 79.1929 90.9045 79.8411 90.895 80.5C90.9045 81.1589 90.7277 81.8071 90.385 82.37C90.0515 82.9241 89.5702 83.3742 88.995 83.67C88.409 83.983 87.745 84.14 87.005 84.14ZM87.005 82.5C87.359 82.5 87.679 82.417 87.965 82.25C88.2518 82.0837 88.4871 81.8415 88.645 81.55C88.8159 81.2268 88.9019 80.8655 88.895 80.5C88.895 80.107 88.812 79.76 88.645 79.46C88.4894 79.1643 88.2537 78.9183 87.965 78.75C87.6734 78.5818 87.3417 78.4954 87.005 78.5C86.652 78.5 86.332 78.583 86.045 78.75C85.7568 78.9189 85.5213 79.1647 85.365 79.46C85.199 79.76 85.115 80.107 85.115 80.5C85.115 80.893 85.199 81.243 85.365 81.55C85.532 81.85 85.759 82.083 86.045 82.25C86.332 82.417 86.652 82.5 87.005 82.5ZM98.592 77V84H96.962L93.872 80.27V84H91.932V77H93.562L96.652 80.73V77H98.592ZM102.449 84.14C101.882 84.14 101.332 84.07 100.799 83.93C100.266 83.79 99.832 83.603 99.499 83.37L100.149 81.91C100.462 82.117 100.826 82.283 101.239 82.41C101.652 82.537 102.059 82.6 102.459 82.6C103.219 82.6 103.599 82.41 103.599 82.03C103.599 81.83 103.489 81.683 103.269 81.59C103.056 81.49 102.709 81.387 102.229 81.28C101.782 81.1887 101.341 81.0684 100.909 80.92C100.558 80.7885 100.246 80.572 99.999 80.29C99.746 80.003 99.619 79.617 99.619 79.13C99.619 78.703 99.736 78.32 99.969 77.98C100.202 77.633 100.549 77.36 101.009 77.16C101.476 76.96 102.046 76.86 102.719 76.86C103.179 76.86 103.632 76.913 104.079 77.02C104.526 77.12 104.919 77.27 105.259 77.47L104.649 78.94C103.982 78.58 103.336 78.4 102.709 78.4C102.316 78.4 102.029 78.46 101.849 78.58C101.669 78.693 101.579 78.843 101.579 79.03C101.579 79.217 101.686 79.357 101.899 79.45C102.112 79.543 102.456 79.64 102.929 79.74C103.378 79.8294 103.819 79.9531 104.249 80.11C104.602 80.237 104.906 80.443 105.159 80.73C105.419 81.01 105.549 81.393 105.549 81.88C105.549 82.3 105.432 82.68 105.199 83.02C104.966 83.36 104.616 83.633 104.149 83.84C103.682 84.04 103.116 84.14 102.449 84.14Z" fill="#72777D"/>
</g>
</g>
<path d="M33.5249 144.629C33.8567 145.004 34.0264 145.495 33.9968 145.994C34.0068 146.077 34.0068 146.161 33.9968 146.244C33.963 146.741 33.7333 147.204 33.3584 147.532C32.9834 147.859 32.4937 148.025 31.9968 147.992C31.9068 148.002 31.8158 148.002 31.7268 147.992C31.482 147.975 31.243 147.909 31.0236 147.799C30.8041 147.689 30.6084 147.537 30.4478 147.352C30.2871 147.166 30.1646 146.951 30.0872 146.718C30.0098 146.485 29.9791 146.239 29.9968 145.994C29.9868 145.904 29.9868 145.814 29.9968 145.724C30.0146 145.479 30.0804 145.24 30.1905 145.021C30.3007 144.801 30.4529 144.606 30.6387 144.445C30.8244 144.285 31.04 144.163 31.273 144.086C31.5061 144.008 31.752 143.978 31.9968 143.996H32.2268C32.7262 144.027 33.1931 144.255 33.5249 144.629Z" fill="#54595D"/>
<path d="M26.9958 134.534C26.9958 131.896 28.9958 130.008 31.9358 130.008C32.1198 129.997 32.3028 129.997 32.4858 130.008C33.7312 130.059 34.9056 130.602 35.7511 131.518C36.5966 132.434 37.0443 133.647 36.9958 134.893H34.4558V134.724C34.4456 134.422 34.3759 134.125 34.2507 133.85C34.1255 133.575 33.9473 133.327 33.7262 133.121C33.5051 132.915 33.2456 132.754 32.9624 132.648C32.6792 132.543 32.3779 132.494 32.0758 132.505H31.9058C31.6284 132.508 31.3543 132.565 31.0993 132.674C30.8442 132.783 30.6133 132.942 30.4199 133.141C30.2265 133.34 30.0745 133.575 29.9725 133.833C29.8705 134.091 29.8207 134.367 29.8258 134.644C29.8258 135.823 30.2758 136.452 31.6158 137.351C32.2967 137.715 32.8518 138.276 33.2087 138.961C33.5655 139.645 33.7074 140.421 33.6158 141.188V141.998H31.1058V141.318C31.1058 140.139 30.7058 139.53 29.2858 138.61C28.5736 138.198 27.9852 137.603 27.5823 136.886C27.1794 136.169 26.9768 135.356 26.9958 134.534Z" fill="#54595D"/>
<path fill-rule="evenodd" clip-rule="evenodd" d="M48 185.998H61.01C62.0686 185.999 63.0834 186.42 63.8316 187.169C64.5797 187.918 65 188.933 65 189.992V203.998H51V207.998H61.01C61.535 207.997 62.0549 208.1 62.54 208.301C63.025 208.502 63.4656 208.797 63.8363 209.169C64.2071 209.54 64.5008 209.982 64.7005 210.467C64.9002 210.953 65.0019 211.473 65 211.998V215.998H29V211.998C29 209.788 30.786 207.998 32.99 207.998H43V203.998H29V189.992C28.9997 189.468 29.1027 188.949 29.3031 188.464C29.5034 187.98 29.7973 187.54 30.1678 187.169C30.5383 186.798 30.9782 186.504 31.4625 186.303C31.9467 186.102 32.4657 185.998 32.99 185.998H46V181.828C45.3319 181.593 44.7685 181.129 44.4097 180.518C44.0509 179.908 43.9197 179.19 44.0395 178.492C44.1593 177.794 44.5222 177.161 45.0641 176.705C45.6059 176.249 46.2917 175.999 47 176C47.7074 176 48.392 176.251 48.9329 176.707C49.4737 177.163 49.8359 177.795 49.9556 178.493C50.0752 179.19 49.9446 179.907 49.5867 180.517C49.2289 181.128 48.6669 181.592 48 181.828V185.998ZM40 197.998C40.7956 197.998 41.5587 197.682 42.1213 197.119C42.6839 196.557 43 195.794 43 194.998C43 194.202 42.6839 193.439 42.1213 192.877C41.5587 192.314 40.7956 191.998 40 191.998C39.2043 191.998 38.4413 192.314 37.8787 192.877C37.3161 193.439 37 194.202 37 194.998C37 195.794 37.3161 196.557 37.8787 197.119C38.4413 197.682 39.2043 197.998 40 197.998ZM54 197.998C54.7956 197.998 55.5587 197.682 56.1213 197.119C56.6839 196.557 57 195.794 57 194.998C57 194.202 56.6839 193.439 56.1213 192.877C55.5587 192.314 54.7956 191.998 54 191.998C53.2043 191.998 52.4413 192.314 51.8787 192.877C51.3161 193.439 51 194.202 51 194.998C51 195.794 51.3161 196.557 51.8787 197.119C52.4413 197.682 53.2043 197.998 54 197.998Z" fill="#54595D"/>
</g>
<defs>
<filter id="filter0_d_547_45969" x="96" y="-1" width="238" height="222" filterUnits="userSpaceOnUse" color-interpolation-filters="sRGB">
<feFlood flood-opacity="0" result="BackgroundImageFix"/>
<feColorMatrix in="SourceAlpha" type="matrix" values="0 0 0 0 0 0 0 0 0 0 0 0 0 0 0 0 0 0 127 0" result="hardAlpha"/>
<feOffset dy="1"/>
<feGaussianBlur stdDeviation="1"/>
<feColorMatrix type="matrix" values="0 0 0 0 0 0 0 0 0 0 0 0 0 0 0 0 0 0 0.1 0"/>
<feBlend mode="normal" in2="BackgroundImageFix" result="effect1_dropShadow_547_45969"/>
<feBlend mode="normal" in="SourceGraphic" in2="effect1_dropShadow_547_45969" result="shape"/>
</filter>
<filter id="filter1_dd_547_45969" x="45" y="93" width="82" height="58" filterUnits="userSpaceOnUse" color-interpolation-filters="sRGB">
<feFlood flood-opacity="0" result="BackgroundImageFix"/>
<feColorMatrix in="SourceAlpha" type="matrix" values="0 0 0 0 0 0 0 0 0 0 0 0 0 0 0 0 0 0 127 0" result="hardAlpha"/>
<feOffset dx="1" dy="1"/>
<feComposite in2="hardAlpha" operator="out"/>
<feColorMatrix type="matrix" values="0 0 0 0 0 0 0 0 0 0 0 0 0 0 0 0 0 0 0.25 0"/>
<feBlend mode="normal" in2="BackgroundImageFix" result="effect1_dropShadow_547_45969"/>
<feColorMatrix in="SourceAlpha" type="matrix" values="0 0 0 0 0 0 0 0 0 0 0 0 0 0 0 0 0 0 127 0" result="hardAlpha"/>
<feOffset dx="-1" dy="-1"/>
<feComposite in2="hardAlpha" operator="out"/>
<feColorMatrix type="matrix" values="0 0 0 0 0 0 0 0 0 0 0 0 0 0 0 0 0 0 0.25 0"/>
<feBlend mode="normal" in2="effect1_dropShadow_547_45969" result="effect2_dropShadow_547_45969"/>
<feBlend mode="normal" in="SourceGraphic" in2="effect2_dropShadow_547_45969" result="shape"/>
</filter>
<filter id="filter2_d_547_45969" x="77.5609" y="105.153" width="31.5435" height="37.6411" filterUnits="userSpaceOnUse" color-interpolation-filters="sRGB">
<feFlood flood-opacity="0" result="BackgroundImageFix"/>
<feColorMatrix in="SourceAlpha" type="matrix" values="0 0 0 0 0 0 0 0 0 0 0 0 0 0 0 0 0 0 127 0" result="hardAlpha"/>
<feOffset dx="1"/>
<feComposite in2="hardAlpha" operator="out"/>
<feColorMatrix type="matrix" values="0 0 0 0 0 0 0 0 0 0 0 0 0 0 0 0 0 0 0.25 0"/>
<feBlend mode="normal" in2="BackgroundImageFix" result="effect1_dropShadow_547_45969"/>
<feBlend mode="normal" in="SourceGraphic" in2="effect1_dropShadow_547_45969" result="shape"/>
</filter>
<linearGradient id="paint0_linear_547_45969" x1="156" y1="100" x2="156" y2="168" gradientUnits="userSpaceOnUse">
<stop stop-color="#54595D"/>
<stop offset="1" stop-color="#72777D"/>
</linearGradient>
<linearGradient id="paint1_linear_547_45969" x1="91" y1="94" x2="91" y2="150" gradientUnits="userSpaceOnUse">
<stop stop-color="#54595D"/>
<stop offset="1" stop-color="#72777D"/>
</linearGradient>
<clipPath id="clip0_547_45969">
<rect width="360" height="216" fill="white"/>
</clipPath>
</defs>
</svg>
