<svg xmlns="http://www.w3.org/2000/svg" width="360" height="216" fill="none" viewBox="0 0 360 216">
  <g clip-path="url(#a)">
    <mask id="b" width="360" height="216" x="0" y="0" maskUnits="userSpaceOnUse" style="mask-type:luminance">
      <path fill="#fff" d="M360 0H0v216h360V0Z"/>
    </mask>
    <g mask="url(#b)">
      <g filter="url(#c)">
        <path fill="#EAECF0" d="M244-6.81H24c-2.21 0-4 2.133-4 4.764v219.092c0 2.631 1.79 4.763 4 4.763h220c2.209 0 4-2.132 4-4.763V-2.046c0-2.63-1.791-4.763-4-4.763Z"/>
        <path stroke="#A2A9B1" stroke-linecap="square" stroke-width="2" d="M244-8H24c-2.761 0-5 2.666-5 5.954v219.092c0 3.288 2.239 5.954 5 5.954h220c2.761 0 5-2.666 5-5.954V-2.046C249-5.334 246.761-8 244-8Z"/>
      </g>
      <path fill="#EAECF0" d="M248 29H20v176h228V29Z"/>
      <path fill="#A2A9B1" d="M236 115H30v6h206v-6Zm0 32H30v6h206v-6Zm-80 12H30v6h126v-6Zm80 0h-77v6h77v-6ZM86 171H30v6h56v-6Zm32-38H30v8h88v-8Zm-17-30H30v6h71v-6Zm135 0H107v6h129v-6Zm0-12H30v6h206v-6Zm0 116H30v6h206v-6Zm0-128H30v6h206v-6Zm0 116H30v6h206v-6Zm0-128h-56v6h56v-6Zm0 116h-56v6h56v-6ZM176 67H30v6h146v-6Zm0 116H30v6h146v-6ZM85 45H30v14h55V45Zm151-23H107v6h129v-6Zm-133 0H30v6h73v-6Zm133-12H30v6h206v-6Zm0-12H30v6h206v-6Z"/>
      <g filter="url(#d)">
        <path fill="#fff" d="M188 118H80v90h108v-90Z"/>
        <path fill="#fff" d="M188 184H80v24h108v-24Z"/>
        <path fill="#EAECF0" stroke="#A2A9B1" stroke-linecap="square" d="M100 190H88a2 2 0 0 0-2 2v8a2 2 0 0 0 2 2h12a2 2 0 0 0 2-2v-8a2 2 0 0 0-2-2Z"/>
        <path fill="#54595D" fill-rule="evenodd" d="M92.8 197.668 91.132 196l-.564.564L92.8 198.8l4.8-4.8-.564-.568-4.236 4.236Z" clip-rule="evenodd"/>
        <path fill="#EAECF0" stroke="#A2A9B1" stroke-linecap="square" d="M180 190h-12a2 2 0 0 0-2 2v8a2 2 0 0 0 2 2h12a2 2 0 0 0 2-2v-8a2 2 0 0 0-2-2Z"/>
        <path fill="#54595D" fill-rule="evenodd" d="m172.5 192.4-.6.6 3 3-3 3 .6.6 3.6-3.6-3.6-3.6Z" clip-rule="evenodd"/>
        <path fill="#EAECF0" stroke="#A2A9B1" stroke-linecap="square" d="M122 190h-12a2 2 0 0 0-2 2v8a2 2 0 0 0 2 2h12a2 2 0 0 0 2-2v-8a2 2 0 0 0-2-2Z"/>
        <path fill="#54595D" fill-rule="evenodd" d="m116.565 195.999 2.545-2.545-.565-.566-2.546 2.546-2.545-2.545-.565.565 2.545 2.545-2.546 2.546.566.565 2.545-2.545 2.547 2.546.565-.565-2.546-2.547Z" clip-rule="evenodd"/>
        <path fill="#fff" d="M188 118H80v70h108v-70Z"/>
        <path fill="#A2A9B1" d="M182 158h-45v4h45v-4Zm0-20H86v4h96v-4Zm0 27h-45v4h45v-4Zm-9-19h-36v8h36v-8Zm-10 30a3 3 0 1 0-6 0 3 3 0 0 0 6 0Zm19-2h-16v4h16v-4Z"/>
        <path fill="#EAF3FF" d="M80 118h108v14H80v-14Z"/>
        <path fill="#EAECF0" d="M134 146H86v32h48v-32Z"/>
        <path fill="#A2A9B1" fill-rule="evenodd" d="M116.4 157.6h-12.8a1.6 1.6 0 0 0-1.6 1.6v9.6a1.6 1.6 0 0 0 1.6 1.6h12.8a1.6 1.6 0 0 0 1.6-1.6v-9.6a1.6 1.6 0 0 0-1.6-1.6ZM103.464 168l3.272-4.2 2.336 2.808 3.264-4.208 4.2 5.6h-13.072Z" clip-rule="evenodd"/>
        <path fill="#54595D" fill-rule="evenodd" d="M90.75 122.5h-3.252a.998.998 0 0 0-.998.998V127H90v1h-2.502a.996.996 0 0 0-.998 1v1h9v-1c0-.553-.447-1-.998-1H92v-1h3.5v-3.502a.998.998 0 0 0-.998-.998H91.25v-1.043a.75.75 0 1 0-.5 0v1.043Zm2 3a.75.75 0 1 1 0-1.5.75.75 0 0 1 0 1.5Zm-3.5 0a.75.75 0 1 1 0-1.5.75.75 0 0 1 0 1.5Z" clip-rule="evenodd"/>
        <path stroke="#A2A9B1" stroke-linecap="square" d="M188.5 117.5h-109v91h109v-91Z"/>
      </g>
      <path fill="#FC3" fill-opacity=".5" stroke="#FC3" stroke-width="2" d="m190.382 204.833 153.216-66.786A4 4 0 0 0 346 134.38V101.5a4 4 0 0 0-4-4H180L80 183v22h109.583c.275 0 .547-.057.799-.167Z"/>
      <path fill="#fff" d="M342 97H184a4 4 0 0 0-4 4v32a4 4 0 0 0 4 4h158a4 4 0 0 0 4-4v-32a4 4 0 0 0-4-4Z"/>
      <path fill="#EAECF0" stroke="#A2A9B1" stroke-linecap="square" d="M213 108h-20a2 2 0 0 0-2 2v14a2 2 0 0 0 2 2h20a2 2 0 0 0 2-2v-14a2 2 0 0 0-2-2Z"/>
      <path fill="#54595D" fill-rule="evenodd" d="M201.2 119.502 198.698 117l-.846.846 3.348 3.354 7.2-7.2-.846-.852-6.354 6.354Z" clip-rule="evenodd"/>
      <path fill="#EAECF0" stroke="#A2A9B1" stroke-linecap="square" d="M333 108h-20a2 2 0 0 0-2 2v14a2 2 0 0 0 2 2h20a2 2 0 0 0 2-2v-14a2 2 0 0 0-2-2Z"/>
      <path fill="#54595D" fill-rule="evenodd" d="m320.75 111.6-.9.9 4.499 4.5-4.499 4.5.9.9 5.4-5.4-5.4-5.4Z" clip-rule="evenodd"/>
      <path fill="#EAECF0" stroke="#A2A9B1" stroke-linecap="square" d="M246 108h-20a2 2 0 0 0-2 2v14a2 2 0 0 0 2 2h20a2 2 0 0 0 2-2v-14a2 2 0 0 0-2-2Z"/>
      <path fill="#54595D" fill-rule="evenodd" d="m236.847 116.999 3.819-3.819-.849-.848-3.818 3.818-3.817-3.817-.849.849 3.817 3.817-3.818 3.818.848.849 3.819-3.819 3.819 3.82.849-.849-3.82-3.819Z" clip-rule="evenodd"/>
      <path stroke="#FC3" stroke-linecap="square" stroke-width="4" d="M342 97H184a4 4 0 0 0-4 4v32a4 4 0 0 0 4 4h158a4 4 0 0 0 4-4v-32a4 4 0 0 0-4-4Z"/>
      <path fill="#FC3" stroke="#FC3" stroke-linecap="square" d="M80 183.5h-.5v22h109v-22H80Z" opacity=".5"/>
    </g>
  </g>
  <defs>
    <filter id="c" width="240" height="241" x="14" y="-9" color-interpolation-filters="sRGB" filterUnits="userSpaceOnUse">
      <feFlood flood-opacity="0" result="BackgroundImageFix"/>
      <feColorMatrix in="SourceAlpha" result="hardAlpha" values="0 0 0 0 0 0 0 0 0 0 0 0 0 0 0 0 0 0 127 0"/>
      <feOffset dy="4"/>
      <feGaussianBlur stdDeviation="2"/>
      <feComposite in2="hardAlpha" operator="out"/>
      <feColorMatrix values="0 0 0 0 0 0 0 0 0 0 0 0 0 0 0 0 0 0 0.25 0"/>
      <feBlend in2="BackgroundImageFix" result="effect1_dropShadow_3_544"/>
      <feBlend in="SourceGraphic" in2="effect1_dropShadow_3_544" result="shape"/>
    </filter>
    <filter id="d" width="112" height="94" x="78" y="115" color-interpolation-filters="sRGB" filterUnits="userSpaceOnUse">
      <feFlood flood-opacity="0" result="BackgroundImageFix"/>
      <feColorMatrix in="SourceAlpha" result="hardAlpha" values="0 0 0 0 0 0 0 0 0 0 0 0 0 0 0 0 0 0 127 0"/>
      <feOffset dy="-1"/>
      <feGaussianBlur stdDeviation=".5"/>
      <feComposite in2="hardAlpha" operator="out"/>
      <feColorMatrix values="0 0 0 0 0 0 0 0 0 0 0 0 0 0 0 0 0 0 0.1 0"/>
      <feBlend in2="BackgroundImageFix" result="effect1_dropShadow_3_544"/>
      <feBlend in="SourceGraphic" in2="effect1_dropShadow_3_544" result="shape"/>
    </filter>
    <clipPath id="a">
      <path fill="#fff" d="M0 0h360v216H0z"/>
    </clipPath>
  </defs>
</svg>
