<svg xmlns="http://www.w3.org/2000/svg" width="360" height="216" fill="none" viewBox="0 0 360 216">
	<g clip-path="url(#a)">
		<mask id="b" width="360" height="216" x="0" y="0" maskUnits="userSpaceOnUse" style="mask-type:luminance">
			<path fill="#fff" d="M360 0H0v216h360z"/>
		</mask>
		<g mask="url(#b)">
			<g filter="url(#c)">
				<path fill="#eaecf0" d="M336-16H116c-2.209 0-4 2.239-4 5v230c0 2.761 1.791 5 4 5h220c2.209 0 4-2.239 4-5V-11c0-2.761-1.791-5-4-5"/>
				<path stroke="#a2a9b1" stroke-linecap="square" stroke-width="2" d="M336-14H116c-2.761 0-5 2.758-5 6.16v226.68c0 3.402 2.239 6.16 5 6.16h220c2.761 0 5-2.758 5-6.16V-7.84c0-3.402-2.239-6.16-5-6.16Z"/>
			</g>
			<path fill="#a2a9b1" d="M328 114H122v6h206zm0 32H122v6h206zm-80 12H122v6h126zm80 0h-77v6h77zm-150 12h-56v6h56zm32-38h-88v8h88zm-17-30h-71v6h71zm135 0H199v6h129zm0-80H199v6h129zm0 184H199v6h129zM195 22h-73v6h73zm0 184h-73v6h73zM328 90H122v6h206zm0-80H122v6h206zm0 184H122v6h206zm0-116H122v6h206zm0-80H122v6h206zm0 184H122v6h206zm0-116h-56v6h56zm0 104h-56v6h56zM268 66H122v6h146zm-81.596-21h-64.65v14h64.65z"/>
			<path fill="#a2a9b1" d="M268 170H122v6h146z"/>
			<g filter="url(#d)">
				<path fill="#fff" d="M280 117H172v90h108z"/>
				<path fill="#fff" d="M280 183H172v24h108z"/>
				<path fill="#eaecf0" stroke="#a2a9b1" stroke-linecap="square" d="M192 189h-12a2 2 0 0 0-2 2v8a2 2 0 0 0 2 2h12a2 2 0 0 0 2-2v-8a2 2 0 0 0-2-2Z"/>
				<path fill="#54595d" fill-rule="evenodd" d="M184.8 196.668 183.132 195l-.564.564 2.232 2.236 4.8-4.8-.564-.568z" clip-rule="evenodd"/>
				<path fill="#eaecf0" stroke="#a2a9b1" stroke-linecap="square" d="M272 189h-12a2 2 0 0 0-2 2v8a2 2 0 0 0 2 2h12a2 2 0 0 0 2-2v-8a2 2 0 0 0-2-2Z"/>
				<path fill="#54595d" fill-rule="evenodd" d="m264.5 191.4-.6.6 3 3-3 3 .6.6 3.6-3.6z" clip-rule="evenodd"/>
				<path fill="#eaecf0" stroke="#a2a9b1" stroke-linecap="square" d="M214 189h-12a2 2 0 0 0-2 2v8a2 2 0 0 0 2 2h12a2 2 0 0 0 2-2v-8a2 2 0 0 0-2-2Z"/>
				<path fill="#54595d" fill-rule="evenodd" d="m208.565 194.999 2.546-2.545-.566-.566-2.546 2.546-2.544-2.545-.566.565 2.545 2.545-2.546 2.546.566.565 2.545-2.545 2.547 2.546.565-.565z" clip-rule="evenodd"/>
				<path fill="#fff" d="M280 117H172v70h108z"/>
				<path fill="#a2a9b1" d="M274 157h-45v4h45zm0-20h-96v4h96zm0 27h-45v4h45zm-9-19h-36v8h36zm-10 30a3 3 0 1 0-6 0 3 3 0 0 0 6 0m19-2h-16v4h16z"/>
				<path fill="#eaf3ff" d="M172 117h108v14H172z"/>
				<path fill="#eaecf0" d="M226 145h-48v32h48z"/>
				<path fill="#a2a9b1" fill-rule="evenodd" d="M208.4 156.6h-12.8a1.6 1.6 0 0 0-1.6 1.6v9.6a1.6 1.6 0 0 0 1.6 1.6h12.8a1.6 1.6 0 0 0 1.6-1.6v-9.6a1.6 1.6 0 0 0-1.6-1.6M195.464 167l3.272-4.2 2.336 2.808 3.264-4.208 4.2 5.6z" clip-rule="evenodd"/>
				<path fill="#54595d" fill-rule="evenodd" d="M182.75 121.5h-3.252a1 1 0 0 0-.998.998V126h3.5v1h-2.502a.997.997 0 0 0-.998 1v1h9v-1c0-.553-.447-1-.998-1H184v-1h3.5v-3.502a1 1 0 0 0-.998-.998h-3.252v-1.043a.75.75 0 1 0-.5 0zm2 3a.75.75 0 1 1 0-1.5.75.75 0 0 1 0 1.5m-3.5 0a.75.75 0 1 1 0-1.5.75.75 0 0 1 0 1.5" clip-rule="evenodd"/>
				<path stroke="#a2a9b1" stroke-linecap="square" d="M280.5 116.5h-109v91h109z"/>
			</g>
			<path fill="#fc3" stroke="#fc3" stroke-linecap="square" d="M172 117.341h-.5v65h109v-65z" opacity=".5"/>
			<path fill="#fc3" fill-opacity=".5" stroke="#fc3" stroke-width="2" d="m183.5 192-163.524-.976a4 4 0 0 1-3.976-4V76a4 4 0 0 1 4-4h164l97 45v65z"/>
			<path fill="#fff" d="M180 74H22a4 4 0 0 0-4 4v107a4 4 0 0 0 4 4h158a4 4 0 0 0 4-4V78a4 4 0 0 0-4-4"/>
			<path fill="#a2a9b1" d="M173 139h-67.5v6H173zm0-33H29v6h144zm0 43.5h-67.5v6H173zM159.5 121h-54v12h54zm-15 48a4.5 4.5 0 1 0-9 0 4.5 4.5 0 0 0 9 0m28.5-3h-24v6h24z"/>
			<path fill="#eaf3ff" d="M20 76h162v21H20z"/>
			<path fill="#eaecf0" d="M101 121H29v54h72z"/>
			<path fill="#a2a9b1" fill-rule="evenodd" d="M77 136H53a3 3 0 0 0-3 3v18a3 3 0 0 0 3 3h24a3 3 0 0 0 3-3v-18a3 3 0 0 0-3-3m-24.255 19.5 6.135-7.875 4.38 5.265 6.12-7.89 7.875 10.5z" clip-rule="evenodd"/>
			<path fill="#54595d" fill-rule="evenodd" d="M36.125 82.75h-4.879c-.826 0-1.496.671-1.496 1.497V89.5H35V91h-3.754c-.826 0-1.496.666-1.496 1.5V94h13.5v-1.5c0-.828-.67-1.5-1.496-1.5H38v-1.5h5.25v-5.252c0-.827-.67-1.498-1.496-1.498h-4.879v-1.563a1.125 1.125 0 1 0-.75 0zm3 4.5a1.125 1.125 0 1 1 0-2.25 1.125 1.125 0 0 1 0 2.25m-5.25 0a1.125 1.125 0 1 1 0-2.25 1.125 1.125 0 0 1 0 2.25" clip-rule="evenodd"/>
			<path stroke="#fc3" stroke-linecap="square" stroke-width="4" d="M180 74H22a4 4 0 0 0-4 4v107a4 4 0 0 0 4 4h158a4 4 0 0 0 4-4V78a4 4 0 0 0-4-4Z"/>
		</g>
	</g>
	<defs>
		<filter id="c" width="240" height="250" x="106" y="-16" color-interpolation-filters="sRGB" filterUnits="userSpaceOnUse">
			<feFlood flood-opacity="0" result="BackgroundImageFix"/>
			<feColorMatrix in="SourceAlpha" result="hardAlpha" values="0 0 0 0 0 0 0 0 0 0 0 0 0 0 0 0 0 0 127 0"/>
			<feOffset dy="4"/>
			<feGaussianBlur stdDeviation="2"/>
			<feComposite in2="hardAlpha" operator="out"/>
			<feColorMatrix values="0 0 0 0 0 0 0 0 0 0 0 0 0 0 0 0 0 0 0.25 0"/>
			<feBlend in2="BackgroundImageFix" result="effect1_dropShadow_1_235"/>
			<feBlend in="SourceGraphic" in2="effect1_dropShadow_1_235" result="shape"/>
		</filter>
		<filter id="d" width="112" height="94" x="170" y="114" color-interpolation-filters="sRGB" filterUnits="userSpaceOnUse">
			<feFlood flood-opacity="0" result="BackgroundImageFix"/>
			<feColorMatrix in="SourceAlpha" result="hardAlpha" values="0 0 0 0 0 0 0 0 0 0 0 0 0 0 0 0 0 0 127 0"/>
			<feOffset dy="-1"/>
			<feGaussianBlur stdDeviation=".5"/>
			<feComposite in2="hardAlpha" operator="out"/>
			<feColorMatrix values="0 0 0 0 0 0 0 0 0 0 0 0 0 0 0 0 0 0 0.1 0"/>
			<feBlend in2="BackgroundImageFix" result="effect1_dropShadow_1_235"/>
			<feBlend in="SourceGraphic" in2="effect1_dropShadow_1_235" result="shape"/>
		</filter>
		<clipPath id="a">
			<path fill="#fff" d="M0 0h360v216H0z"/>
		</clipPath>
	</defs>
</svg>
