<svg xmlns="http://www.w3.org/2000/svg" width="41" height="40" viewBox="0 0 41 40">
	<g fill="#ac6600" opacity=".8">
		<path fill-rule="evenodd" d="M35.427 15.733h-16a2 2 0 0 0-2 2v12a2 2 0 0 0 2 2h16a2 2 0 0 0 2-2v-12a2 2 0 0 0-2-2m-16.17 13 4.09-5.25 2.92 3.51 4.08-5.26 5.25 7z" clip-rule="evenodd"/>
		<rect width="36" height="3.333" x="2.094" y="2.667" rx="1.667"/>
		<rect width="36" height="3.333" x="2.094" y="8.666" rx="1.667"/>
		<rect width="36" height="3.333" x="2.094" y="35.334" rx="1.667"/>
		<path fill-rule="evenodd" d="M9.762 30.67a1.89 1.89 0 0 0-1.77-2h-.23a1.87 1.87 0 0 0-2 1.73q-.015.135 0 .27a1.87 1.87 0 0 0 1.73 2q.135.015.27 0a1.88 1.88 0 0 0 2-1.75 1 1 0 0 0 0-.25m-2.06-15.996c-2.94 0-4.94 1.89-4.94 4.529a4.59 4.59 0 0 0 2.29 4.079c1.42.92 1.82 1.53 1.82 2.71v.68h2.51v-.81a3.84 3.84 0 0 0-2-3.84c-1.34-.9-1.79-1.53-1.79-2.71a2.1 2.1 0 0 1 2.08-2.139h.17a2.3 2.3 0 0 1 2.38 2.22v.17h2.54a4.71 4.71 0 0 0-4.51-4.889 5 5 0 0 0-.55 0" clip-rule="evenodd"/>
	</g>
</svg>
