<svg xmlns="http://www.w3.org/2000/svg" width="60" height="61" fill="none" viewBox="0 0 78 75">
	<g fill="#ac6600" opacity=".8">
		<path d="M41.5 29.5H10.375c-2.149 0-3.89 1.68-3.89 3.75v22.5c0 2.071 1.741 3.75 3.89 3.75H41.5c2.149 0 3.89-1.679 3.89-3.75v-22.5c0-2.07-1.741-3.75-3.89-3.75M10.045 53.876 18 44.032l5.68 6.581 7.937-9.862L41.83 53.876z"/>
		<rect width="70.031" height="6.25" x="3.891" y="5" rx="2"/>
		<rect width="70.031" height="6.25" x="3.891" y="16.25" rx="2"/>
		<rect width="70.031" height="6.25" x="3.891" y="66.25" rx="2"/>
		<path d="M59.663 57.507c-.122-1.951 1.42-3.629 3.444-3.75h.447c2.004-.139 3.745 1.313 3.89 3.244q.03.253 0 .506c.145 1.93-1.361 3.609-3.365 3.749q-.262.028-.525 0c-2.014.129-3.756-1.34-3.89-3.28a1.8 1.8 0 0 1 0-.47Zm4.008-29.993c5.719 0 9.61 3.543 9.61 8.492.076 3.142-1.632 6.074-4.455 7.648-2.762 1.725-3.54 2.868-3.54 5.08v1.275h-4.883V48.49c-.365-2.942 1.18-5.799 3.89-7.198 2.607-1.687 3.482-2.868 3.482-5.08a3.86 3.86 0 0 0-1.155-2.819 4.16 4.16 0 0 0-2.89-1.193h-.332a4.57 4.57 0 0 0-3.21 1.156 4.25 4.25 0 0 0-1.42 3.006v.319h-4.94c-.198-4.864 3.726-8.964 8.773-9.167a10 10 0 0 1 1.07 0"/>
	</g>
</svg>
