<svg xmlns="http://www.w3.org/2000/svg" width="360" height="216" fill="none">
	<g clip-path="url(#clip0)">
		<path fill="#fff" d="M360 0H0v216h360z"/>
		<path fill="#EAF3FF" fill-opacity=".5" d="M360 0H0v216h360z"/>
		<g filter="url(#filter0_d)">
			<path fill="#fff" d="M185 47H43v170h142z"/>
		</g>
		<path fill="#A2A9B1" d="M175 202h-61v5h61zm0-9H58v5h117z"/>
		<rect width="55" height="5" fill="#C8CCD1" stroke="#36C" stroke-linecap="square" stroke-width="2" rx="2" transform="matrix(-1 0 0 1 122 183)"/>
		<path fill="#A2A9B1" d="M175 183h-25v5h25zm-28 0h-22v5h22zm28-10H57v5h118zm0-16H60v5h115zm-90-10H53v5h32zm25 0H88v5h22zm65 0h-62v5h62zm0-10H53v5h122zm0-12h-33v9h33z"/>
		<rect width="122" height="65" x="53" y="54" fill="url(#paint0_linear)" rx="2"/>
		<rect width="122" height="65" x="53" y="54" fill="#2A4B8D" rx="2" style="mix-blend-mode:overlay"/>
		<path fill="#FEF6E7" d="m158.864 81.96-2.541 1.8-.288 3.1-1.799-2.54-3.1-.289 2.541-1.799.288-3.1 1.799 2.541zM124 55.996l.682 1.318 1.318.682-1.318.682-.682 1.318-.682-1.318-1.318-.682 1.318-.682zm-50 56 .682 1.318 1.318.682-1.318.682-.682 1.318-.682-1.318-1.318-.682 1.318-.682z"/>
		<circle cx="109.102" cy="86.602" r="23" fill="#C8CCD1" stroke="#FEF6E7" transform="rotate(-30 109.102 86.602)"/>
		<g filter="url(#filter1_i)">
			<path fill="#FEF6E7" d="M95.146 94.118c9.819 17.008 25.753 12.061 25.753 12.061-11.473 6.624-25.995 2.951-32.435-8.204-6.44-11.154-2.36-25.567 9.113-32.19 0 0-12.251 11.325-2.431 28.333"/>
		</g>
		<circle cx="117.781" cy="97.281" r="3.5" fill="#72777D" transform="rotate(-30 117.781 97.281)"/>
		<path fill="#A2A9B1" d="M129.606 81.757c.958 1.66 1.722 5.114.062 6.073a3.47 3.47 0 0 1-3.47-6.01c1.66-.959 2.45-1.723 3.408-.063"/>
		<circle cx="94.415" cy="82.915" r="2.5" fill="#72777D" transform="rotate(-30 94.415 82.915)"/>
		<circle cx="111.879" cy="81.379" r="6" fill="#A2A9B1" stroke="#FEF6E7" transform="rotate(-30 111.879 81.38)"/>
		<circle cx="111.781" cy="67.281" r="3" fill="#A2A9B1" stroke="#FEF6E7" transform="rotate(-30 111.781 67.281)"/>
		<path fill="#fff" stroke="#72777D" stroke-width="2" d="M331 156.1V76.9s0-4.9-4.246-4.9H196.739c-2.345 0-4.247 2.194-4.247 4.9V156a5 5 0 0 0 5 5H273v10l12-10h41.754c2.345 0 4.246-2.194 4.246-4.9z"/>
		<path fill="#36C" fill-rule="evenodd" d="M311.752 94h2.91a4.83 4.83 0 0 0 4.83-4.83v-.34a4.83 4.83 0 0 0-4.83-4.83h-3.34a4.83 4.83 0 0 0-4.83 4.83v.34q.005.418.08.83h2.1a3 3 0 0 1 2.82-4h3a3 3 0 1 1 0 6h-1.19a4.87 4.87 0 0 1-1.55 2m-4.52-10h-2.91a4.83 4.83 0 0 0-4.83 4.83v.34a4.83 4.83 0 0 0 4.83 4.83h3.34a4.83 4.83 0 0 0 4.83-4.83v-.34a4.7 4.7 0 0 0-.08-.83h-2.1a2.998 2.998 0 0 1-2.82 4h-3a3 3 0 0 1 0-6h1.19a4.9 4.9 0 0 1 1.55-2" clip-rule="evenodd"/>
		<rect width="117.549" height="46" x="-1" y="1" fill="#fff" stroke="#C8CCD1" stroke-width="2" rx="1" transform="matrix(-1 0 0 1 318.492 105)"/>
		<path fill="#A2A9B1" d="M267.692 131h-59.774v5h59.774z"/>
		<path fill="#FEF6E7" d="M317.504 108h-43.835v43h43.835z"/>
		<path fill="#AC6600" fill-rule="evenodd" d="m281.3 127.352 29.042-3.887v16.843l-18.539 2.482a2 2 0 0 0-.266-1.058 1.99 1.99 0 0 0-2.722-.732 2 2 0 0 0-.911 2.311l-6.604.884v-4.152a1.502 1.502 0 0 0 0-2.987z" clip-rule="evenodd"/>
		<path fill="#FC3" fill-opacity=".31" fill-rule="evenodd" d="m281.3 127.352 29.042-3.887v16.843l-18.539 2.482a2 2 0 0 0-.266-1.058 1.99 1.99 0 0 0-2.722-.732 2 2 0 0 0-.911 2.311l-6.604.884v-4.152a1.502 1.502 0 0 0 0-2.987z" clip-rule="evenodd"/>
		<g opacity=".5">
			<path fill="#767471" d="M304.171 135.916a2.003 2.003 0 0 1-.728 2.731 1.99 1.99 0 0 1-2.721-.733 2.004 2.004 0 0 1 .729-2.731 1.99 1.99 0 0 1 2.72.733" style="mix-blend-mode:multiply"/>
			<path stroke="#AC6600" d="M304.171 135.916a2.003 2.003 0 0 1-.728 2.731 1.99 1.99 0 0 1-2.721-.733 2.004 2.004 0 0 1 .729-2.731 1.99 1.99 0 0 1 2.72.733z"/>
		</g>
		<ellipse fill="#AC6600" rx="1.994" ry="1.998" transform="matrix(.8652 -.50141 .49859 .86684 289.811 134.732)"/>
		<ellipse fill="#AC6600" rx="1.496" ry="1.499" transform="matrix(.8652 -.50141 .49859 .86684 286.142 126.549)"/>
		<path fill="#FC3" fill-rule="evenodd" d="m310.342 123.465-29.042 3.887v-.648l8.17-4.807a1.497 1.497 0 0 0 2.149-1.265l8.397-4.941s2.259.648 4.84 2.592 5.486 5.182 5.486 5.182" clip-rule="evenodd"/>
		<path fill="#AC6600" d="M301.952 124.437c1.188 2.064.184 4.44-1.873 5.632a4.29 4.29 0 0 1-5.874-1.58 4.3 4.3 0 0 1-.535-2.757c.091-.647.947-1.295 1.506-1.619 2.056-1.192 4.84-1.62 6.776.324"/>
		<ellipse fill="#FC3" fill-opacity=".66" rx="1.494" ry="1" style="mix-blend-mode:multiply" transform="rotate(-8.178 981.071 -2043.504)skewX(-.061)"/>
		<path fill="#A2A9B1" d="M267.692 115h-43.835v10h43.835z"/>
		<path fill="#54595D" fill-rule="evenodd" d="M288.489 93.998a1.89 1.89 0 0 0-1.77-2h-.23a1.87 1.87 0 0 0-2 1.73q-.015.135 0 .27a1.87 1.87 0 0 0 1.73 2q.134.015.27 0a1.88 1.88 0 0 0 2-1.75q.015-.125 0-.25m-2.06-16c-2.94 0-4.94 1.89-4.94 4.53a4.59 4.59 0 0 0 2.29 4.08c1.42.92 1.82 1.53 1.82 2.71v.68h2.51v-.81a3.84 3.84 0 0 0-2-3.84c-1.34-.9-1.79-1.53-1.79-2.71a2.1 2.1 0 0 1 2.08-2.14h.17a2.3 2.3 0 0 1 2.38 2.22v.17h2.54a4.71 4.71 0 0 0-4.51-4.89 5 5 0 0 0-.55 0m-32.629 102h-15.612a4.793 4.793 0 0 0-4.788 4.793v16.807h16.8v4.8h-12.012a4.78 4.78 0 0 0-4.788 4.8v4.8h43.2v-4.8c0-2.652-2.143-4.8-4.788-4.8H259.8v-4.8h16.8v-16.807a4.79 4.79 0 0 0-4.788-4.793H256.2v-5.004a3.6 3.6 0 1 0-2.4 0zm-7.2 14.4a3.6 3.6 0 1 1 0-7.2 3.6 3.6 0 0 1 0 7.2m16.8 0a3.6 3.6 0 1 1 0-7.2 3.6 3.6 0 0 1 0 7.2" clip-rule="evenodd"/>
	</g>
	<defs>
		<filter id="filter0_d" width="146" height="174" x="41" y="46" color-interpolation-filters="sRGB" filterUnits="userSpaceOnUse">
			<feFlood flood-opacity="0" result="BackgroundImageFix"/>
			<feColorMatrix in="SourceAlpha" values="0 0 0 0 0 0 0 0 0 0 0 0 0 0 0 0 0 0 127 0"/>
			<feOffset dy="1"/>
			<feGaussianBlur stdDeviation="1"/>
			<feColorMatrix values="0 0 0 0 0 0 0 0 0 0 0 0 0 0 0 0 0 0 0.1 0"/>
			<feBlend in2="BackgroundImageFix" result="effect1_dropShadow"/>
			<feBlend in="SourceGraphic" in2="effect1_dropShadow" result="shape"/>
		</filter>
		<filter id="filter1_i" width="44.096" height="52.388" x="76.803" y="65.784" color-interpolation-filters="sRGB" filterUnits="userSpaceOnUse">
			<feFlood flood-opacity="0" result="BackgroundImageFix"/>
			<feBlend in="SourceGraphic" in2="BackgroundImageFix" result="shape"/>
			<feColorMatrix in="SourceAlpha" result="hardAlpha" values="0 0 0 0 0 0 0 0 0 0 0 0 0 0 0 0 0 0 127 0"/>
			<feOffset dx="1"/>
			<feComposite in2="hardAlpha" k2="-1" k3="1" operator="arithmetic"/>
			<feColorMatrix values="0 0 0 0 0 0 0 0 0 0 0 0 0 0 0 0 0 0 0.25 0"/>
			<feBlend in2="shape" result="effect1_innerShadow"/>
		</filter>
		<linearGradient id="paint0_linear" x1="114" x2="114" y1="54" y2="119" gradientUnits="userSpaceOnUse">
			<stop stop-color="#54595D"/>
			<stop offset="1" stop-color="#72777D"/>
		</linearGradient>
		<clipPath id="clip0">
			<path fill="#fff" d="M360 0H0v216h360z"/>
		</clipPath>
	</defs>
</svg>
