<svg xmlns="http://www.w3.org/2000/svg" width="360" height="216" fill="none" viewBox="0 0 360 216">
	<g clip-path="url(#a)">
		<rect width="171" height="62.875" x="68" y="126" fill="#fff" stroke="#c8ccd1" stroke-width="2" rx="1"/>
		<path fill="#eaecf0" d="M70.604 128.604h59.469v57.667H70.604z"/>
		<path fill="#a2a9b1" d="M139.083 135.812h59.469v13.771h-59.469zm0 21.626h81.094v7.208h-81.094z"/>
		<path fill="#72777d" d="M24 64V53.687h15.469V64zm3 0V53.687h15.469V64zm3 0V53.687h15.469V64zm3 0V53.687h15.469V64zm3 0V53.687h15.469V64zm3 0V53.687h15.469V64zm3 0V53.687h15.469V64zm3 0V53.687h15.469V64zm3 0V53.687h15.469V64zm3 0V53.687h15.469V64zm3 0V53.687h15.469V64zm3 0V53.687h15.469V64zm21.094 0V53.687h15.469V64h-15.47Zm3 0V53.687h15.469V64h-15.47Zm3 0V53.687h15.469V64h-15.47Zm3 0V53.687h15.468V64zm3 0V53.687h15.468V64zm3 0V53.687h15.468V64zm3 0V53.687h15.468V64zm3 0V53.687h15.468V64zm3 0V53.687h15.468V64zm3 0V53.687h15.468V64zm3 0V53.687h15.468V64zm3 0V53.687h15.468V64zm3 0V53.687h15.468V64zm3 0V53.687h15.468V64zm3 0V53.687h15.468V64zm3 0V53.687h15.468V64zm57.281 0V53.687h15.469V64zm3 0V53.687h15.469V64zm3 0V53.687h15.469V64zm3 0V53.687h15.469V64zm3 0V53.687h15.469V64zm3 0V53.687h15.469V64zm3 0V53.687h15.469V64zm3 0V53.687h15.469V64zm3 0V53.687h15.469V64zm3 0V53.687h15.469V64zm3 0V53.687h15.469V64zm3 0V53.687h15.469V64zm3 0V53.687h15.469V64zm3 0V53.687h15.469V64zm3 0V53.687h15.469V64zm21.094 0V53.687h15.469V64zm3 0V53.687h15.469V64zm3 0V53.687h15.469V64zm3 0V53.687h15.469V64zm3 0V53.687h15.469V64zm3 0V53.687h15.469V64zm21.093 0V53.687h15.469V64zm3 0V53.687h15.469V64zm3 0V53.687h15.469V64zm3 0V53.687h15.469V64zm3 0V53.687h15.469V64zm3 0V53.687h15.469V64zm3 0V53.687h15.469V64zm3 0V53.687h15.469V64zm3 0V53.687h15.469V64zm3 0V53.687h15.469V64zM24 96V85.687h15.469V96zm3 0V85.687h15.469V96zm3 0V85.687h15.469V96zm3 0V85.687h15.469V96zm3 0V85.687h15.469V96zm3 0V85.687h15.469V96zm3 0V85.687h15.469V96zm3 0V85.687h15.469V96zm3 0V85.687h15.469V96zm3 0V85.687h15.469V96zm3 0V85.687h15.469V96zm3 0V85.687h15.469V96zm3 0V85.687h15.469V96zm3 0V85.687h15.469V96zm3 0V85.687h15.469V96zm3 0V85.687h15.469V96zm3 0V85.687h15.469V96zm3 0V85.687h15.469V96zm3 0V85.687h15.469V96zm3 0V85.687h15.469V96zm21.094 0V85.687h15.468V96zm3 0V85.687h15.468V96zm3 0V85.687h15.468V96zm3 0V85.687h15.468V96zm3 0V85.687h15.468V96zm21.094 0V85.687h15.468V96zm3 0V85.687h15.468V96zm3 0V85.687h15.468V96zm3 0V85.687h15.468V96zm3 0V85.687h15.468V96zm3 0V85.687h15.468V96zm3 0V85.687h15.468V96zm3 0V85.687h15.468V96zm3 0V85.687h15.468V96zm3 0V85.687h15.468V96zm3 0V85.687h15.468V96zm3 0V85.687h15.468V96zm3 0V85.687h15.468V96zm3 0V85.687h15.468V96zm3 0V85.687h15.468V96zm3 0V85.687h15.468V96zm3 0V85.687h15.468V96zm3 0V85.687h15.468V96zm3 0V85.687h15.468V96zm3 0V85.687h15.468V96zm21.093 0V85.687h15.469V96zm3 0V85.687h15.469V96zm3 0V85.687h15.469V96zm3 0V85.687h15.469V96zm3 0V85.687h15.469V96zm3 0V85.687h15.469V96zm3 0V85.687h15.469V96zm3 0V85.687h15.469V96zm3 0V85.687h15.469V96zm3 0V85.687h15.469V96zm3 0V85.687h15.469V96zm3 0V85.687h15.469V96zm3 0V85.687h15.469V96zm3 0V85.687h15.469V96z"/>
		<g style="mix-blend-mode:darken">
			<rect width="94" height="24" x="74.902" y="46" fill="#eaf3ff" rx="2"/>
			<rect width="94" height="24" x="74.902" y="46" stroke="#36c" stroke-linecap="square" rx="2"/>
		</g>
		<path fill="#36c" d="M153.575 53h4.951c.838 0 1.518.716 1.518 1.597v5.602h-5.327v1.6h3.809c.838 0 1.518.71 1.518 1.6V65h-13.698v-1.6c0-.884.68-1.6 1.518-1.6h3.809v-1.6h-5.327v-5.602c0-.882.68-1.598 1.518-1.598h4.95v-1.668c-.524-.194-.838-.758-.744-1.334s.569-.997 1.125-.997 1.031.421 1.125.997-.22 1.14-.745 1.334zm2.283 4.8c.631 0 1.142-.538 1.142-1.2 0-.663-.511-1.2-1.142-1.2s-1.141.537-1.141 1.2.511 1.2 1.141 1.2m-5.326 0c.63 0 1.141-.538 1.141-1.2 0-.663-.511-1.2-1.141-1.2-.631 0-1.142.537-1.142 1.2s.511 1.2 1.142 1.2"/>
		<g style="mix-blend-mode:darken">
			<path fill="#fef6e7" d="M210 80a2 2 0 0 1 2-2h85a2 2 0 0 1 2 2v20a2 2 0 0 1-2 2h-85a2 2 0 0 1-2-2z"/>
			<path stroke="#fc3" stroke-linecap="square" d="M210 80a2 2 0 0 1 2-2h85a2 2 0 0 1 2 2v20a2 2 0 0 1-2 2h-85a2 2 0 0 1-2-2z"/>
		</g>
		<path fill="#54595d" d="M282.917 85h4.95c.839 0 1.519.716 1.519 1.597v5.602h-5.327v1.6h3.808c.839 0 1.519.71 1.519 1.6V97h-13.698v-1.6c0-.884.68-1.6 1.518-1.6h3.809v-1.6h-5.327v-5.602c0-.882.68-1.598 1.518-1.598h4.95v-1.668c-.524-.194-.838-.758-.744-1.334s.569-.997 1.125-.997 1.031.421 1.125.997-.221 1.14-.745 1.334zm2.283 4.8c.631 0 1.142-.538 1.142-1.2 0-.663-.511-1.2-1.142-1.2s-1.141.537-1.141 1.2.511 1.2 1.141 1.2m-5.327 0c.631 0 1.142-.538 1.142-1.2 0-.663-.511-1.2-1.142-1.2s-1.141.537-1.141 1.2.511 1.2 1.141 1.2"/>
		<path fill="#36c" d="M266.5 182.255 260.245 176l-2.115 2.115 8.37 8.385 18-18-2.115-2.13z"/>
		<path fill="#b32424" d="m319.118 175.997 9.546-9.546-2.121-2.121-9.546 9.546-9.543-9.543-2.121 2.121 9.543 9.543-9.546 9.546 2.121 2.121 9.546-9.546 9.549 9.549 2.121-2.121z"/>
		<path fill="#a2a9b1" d="M111.8 144.3H86.2c-1.767 0-3.2 1.477-3.2 3.3v19.8c0 1.823 1.433 3.3 3.2 3.3h25.6c1.767 0 3.2-1.477 3.2-3.3v-19.8c0-1.823-1.433-3.3-3.2-3.3m-25.872 21.45 6.544-8.663 4.672 5.792 6.528-8.679 8.4 11.55z"/>
	</g>
	<defs>
		<clipPath id="a">
			<path fill="#fff" d="M0 0h360v216H0z"/>
		</clipPath>
	</defs>
</svg>
