<svg xmlns="http://www.w3.org/2000/svg" width="360" height="216" fill="none">
	<g clip-path="url(#clip0)">
		<path fill="#fff" d="M360 0H0v216h360z"/>
		<path fill="#EAF3FF" fill-opacity=".5" d="M360 0H0v216h360z"/>
		<g filter="url(#filter0_d)">
			<path fill="#fff" d="M327 47H185v170h142z"/>
		</g>
		<path fill="#A2A9B1" d="M317 202h-61v5h61zm0-9H200v5h117zm-53-10h-55v5h55zm53 0h-25v5h25z"/>
		<rect width="22" height="5" fill="#C8CCD1" stroke="#36C" stroke-linecap="square" stroke-width="2" rx="2" transform="matrix(-1 0 0 1 289 183)"/>
		<path fill="#A2A9B1" d="M317 173H199v5h118zm0-16H202v5h115zm-90-10h-32v5h32z"/>
		<rect width="22" height="5" fill="#C8CCD1" stroke="#36C" stroke-linecap="square" stroke-width="2" rx="2" transform="matrix(-1 0 0 1 252 147)"/>
		<path fill="#A2A9B1" d="M317 147h-62v5h62zm0-10H195v5h122zm0-12h-33v9h33z"/>
		<rect width="122" height="65" x="195" y="54" fill="url(#paint0_linear)" rx="2"/>
		<rect width="122" height="65" x="195" y="54" fill="#2A4B8D" rx="2" style="mix-blend-mode:overlay"/>
		<path fill="#FEF6E7" d="m300.864 81.96-2.541 1.8-.288 3.1-1.799-2.54-3.1-.289 2.541-1.799.288-3.1 1.799 2.541 3.1.288zM266 55.996l.682 1.318 1.318.682-1.318.682-.682 1.318-.682-1.318-1.318-.682 1.318-.682.682-1.318zm-50 56 .682 1.318 1.318.682-1.318.682-.682 1.318-.682-1.318-1.318-.682 1.318-.682.682-1.318z"/>
		<circle cx="251.102" cy="86.602" r="23" fill="#C8CCD1" stroke="#FEF6E7" transform="rotate(-30 251.102 86.602)"/>
		<g filter="url(#filter1_i)">
			<path fill="#FEF6E7" d="M237.146 94.118c9.819 17.008 25.753 12.06 25.753 12.06-11.473 6.624-25.995 2.952-32.435-8.203-6.44-11.154-2.36-25.567 9.113-32.19 0 0-12.251 11.324-2.431 28.333z"/>
		</g>
		<circle cx="259.781" cy="97.281" r="3.5" fill="#72777D" transform="rotate(-30 259.781 97.281)"/>
		<path fill="#A2A9B1" d="M271.606 81.757c.958 1.66 1.722 5.114.062 6.073a3.47 3.47 0 0 1-3.47-6.01c1.66-.959 2.45-1.723 3.408-.063z"/>
		<circle cx="236.415" cy="82.915" r="2.5" fill="#72777D" transform="rotate(-30 236.415 82.915)"/>
		<circle cx="253.879" cy="81.379" r="6" fill="#A2A9B1" stroke="#FEF6E7" transform="rotate(-30 253.879 81.38)"/>
		<circle cx="253.781" cy="67.281" r="3" fill="#A2A9B1" stroke="#FEF6E7" transform="rotate(-30 253.781 67.281)"/>
		<path fill="#EAECF0" d="m168 165 100 21-100 23H54l114-44z" style="mix-blend-mode:multiply"/>
		<rect width="114.724" height="42" x="-1" y="1" fill="#fff" stroke="#C8CCD1" stroke-width="2" rx="1" transform="matrix(-1 0 0 1 167 165)"/>
		<path fill="#A2A9B1" d="M120.158 189.075H65.521v4.981h54.637zm0-14.943H91.184v9.132h28.974z"/>
		<path fill="#202122" d="M125.953 167.49h40.564v39.019h-40.564z"/>
		<g opacity=".9">
			<g filter="url(#filter2_i)">
				<path fill="#EAF3FF" d="M125.953 194.844c14.671-3.331 24.835-2.863 40.15 1.661v10.004h-40.15v-11.665z"/>
			</g>
			<path stroke="#202122" d="M126.453 206.009v-10.765c14.258-3.189 24.245-2.729 39.15 1.635v9.13h-39.15z"/>
		</g>
		<g filter="url(#filter3_d)">
			<path fill="#A2A9B1" d="m140.026 176.624 21.592 5.803-.428 1.6-21.592-5.802zm19.134 12.604 1.199-4.49.286-.267.4.107.115.375-1.198 4.49-.802-.215z"/>
			<path fill="#F8F9FA" d="m157.561 188.798 1.199-4.49.286-.267.4.108.115.374-1.198 4.49-.802-.215zm5.827-12.185-1.198 4.491-.286.266-.401-.107-.114-.375 1.198-4.49.801.215z"/>
			<path fill="#A2A9B1" d="m161.789 176.184-1.198 4.49-.286.266-.401-.107-.115-.375 1.199-4.49.801.216zm-1.069 4.589.8.215-.855 3.207-.8-.215z"/>
			<path fill="#A2A9B1" stroke="#202122" d="m152.854 177.261.679.834c.304.374.41.871.286 1.336l-.542 2.032a1.497 1.497 0 0 1-.913 1.013l-1.003.382a1.5 1.5 0 0 1-1.697-.457l-.678-.833a1.506 1.506 0 0 1-.287-1.337l.543-2.032c.124-.465.464-.842.913-1.013l1.003-.382a1.5 1.5 0 0 1 1.696.457z"/>
			<path fill="#A2A9B1" d="m155.162 188.153 1.199-4.49.286-.267.4.108.115.375-1.198 4.49-.802-.216z"/>
			<path fill="#F8F9FA" d="m153.563 187.723 1.199-4.49.286-.266.4.107.115.375-1.198 4.49-.802-.216z"/>
			<path fill="#A2A9B1" d="m156.581 179.943.8.215-.855 3.207-.8-.215z"/>
			<path fill="#F8F9FA" d="m159.39 175.539-1.198 4.49-.286.267-.401-.108-.114-.374 1.198-4.491.801.216z"/>
			<path fill="#A2A9B1" d="m157.791 175.109-1.198 4.49-.286.267-.401-.108-.115-.374 1.199-4.49.801.215zm-13.823 10.036 1.198-4.49.286-.267.4.108.115.375-1.198 4.49-.801-.216z"/>
			<path fill="#F8F9FA" d="m142.368 184.715 1.199-4.49.286-.266.4.107.115.375-1.198 4.49-.802-.216zm5.827-12.184-1.198 4.49-.286.267-.401-.108-.114-.375 1.198-4.49.801.216z"/>
			<path fill="#A2A9B1" d="m146.596 172.101-1.198 4.49-.286.267-.401-.108-.114-.374 1.198-4.491.801.216z"/>
			<path fill="#A2A9B1" d="m144.991 176.623.8.215-.855 3.207-.8-.215zm-5.021 7.448 1.198-4.49.286-.267.4.108.115.374-1.198 4.49-.801-.215z"/>
			<path fill="#F8F9FA" d="m138.37 183.641 1.199-4.49.286-.267.4.108.115.374-1.198 4.49-.802-.215z"/>
			<path fill="#A2A9B1" d="m141.68 175.792.8.215-.855 3.207-.8-.215z"/>
			<path fill="#F8F9FA" d="m144.197 171.457-1.198 4.49-.286.266-.401-.107-.114-.375 1.198-4.49.801.216z"/>
			<path fill="#A2A9B1" d="m142.598 171.027-1.198 4.49-.286.266-.401-.107-.114-.375 1.198-4.49.801.216z"/>
		</g>
		<path fill="#EAECF0" d="m152 69 80 79-198-37 118-42z" style="mix-blend-mode:multiply"/>
		<rect width="116" height="41.895" x="-1" y="1" fill="#fff" stroke="#C8CCD1" stroke-width="2" rx="1" transform="matrix(-1 0 0 1 150 68)"/>
		<path fill="#A2A9B1" d="M102.763 91.635h-55.18V96.7h55.18zm0-14.35h-23.77v9.285h23.77z"/>
		<path fill="#202122" d="M149.453 70.532h-40.748v38.83h40.748z"/>
		<ellipse cx="129.503" cy="89.526" fill="#36C" rx="13.158" ry="13.084"/>
		<path fill="#F8F9FA" d="M131.168 102.42c-2.873.929-7.662-.691-8.619-1.856-.958-1.857.957 0 1.915-.929.958-.928 1.916.929 2.873.929.958 0 4.969 1.489 3.831 1.856z"/>
		<path fill="#00AF89" d="M134.458 97.942c-1.845 0-1.012-1.24-2.559-1.696-1.279-.377-2.324.565-3.838.565-.639 0-.639-2.827.64-3.958.739-.653 1.514-.82 1.919-.565.489.308.579 1.13 1.279 1.13 1.43 0 1.765-2.748 2.559-1.696 1.279 1.697 1.279 1.131 1.919 2.827.639 1.697-.64 3.393-1.919 3.393zm.229.588c.191-.317.41-.453.41-.023 0 .64.214.377 0 .566h-.639v-.566c.063-.056.145-.029.229.023zm-4.052-8.231c1.526.428-.889.394-2.245.202-.946-.113-1.033-.44-2.351-1.002.608.26-1.21-.747-.872-1.53.422-.98 2.706 1.555 5.468 2.33zm3.101-3.459c1.139.32 2.707.986 1.696.843-.706-.085-.713.419-1.696 0 .453.193-1.057-.8-1.695-.843-1.178-.078-.365-.578 1.695 0zm-5-1.128c-.715 0 .297-1.066.892-1.6.412-.399 1.958-.166 2.679 0-.298 0-.893.32-.893 1.6 0 1.598-1.786 0-2.678 0z"/>
		<path fill="#00AF89" fill-rule="evenodd" d="M132.334 79.091c.678-.027 1.951-.855 1.928-1.417-.005-.146-.134-.312-.36-.483a13.201 13.201 0 0 0-4.399-.75c-6.441 0-11.802 4.604-12.936 10.682a.866.866 0 0 0 0 .102c.017.421.644.632 1.271.843.627.211 1.255.422 1.272.843.022.548 1.713-.012 3.126-.48.759-.251 1.438-.476 1.734-.488.848-.034.746-2.56-.135-3.369-.705-.647 2.438-.289 3.752 0 .886.195 1.348-.584 1.815-1.37.225-.38.452-.762.728-1.036.848-.844 1.696-.844 1.696-.844.099-.22.098-.595.096-.976-.003-.613-.005-1.24.412-1.257z" clip-rule="evenodd"/>
	</g>
	<defs>
		<filter id="filter0_d" width="146" height="174" x="183" y="46" color-interpolation-filters="sRGB" filterUnits="userSpaceOnUse">
			<feFlood flood-opacity="0" result="BackgroundImageFix"/>
			<feColorMatrix in="SourceAlpha" values="0 0 0 0 0 0 0 0 0 0 0 0 0 0 0 0 0 0 127 0"/>
			<feOffset dy="1"/>
			<feGaussianBlur stdDeviation="1"/>
			<feColorMatrix values="0 0 0 0 0 0 0 0 0 0 0 0 0 0 0 0 0 0 0.1 0"/>
			<feBlend in2="BackgroundImageFix" result="effect1_dropShadow"/>
			<feBlend in="SourceGraphic" in2="effect1_dropShadow" result="shape"/>
		</filter>
		<filter id="filter1_i" width="44.096" height="52.388" x="218.803" y="65.784" color-interpolation-filters="sRGB" filterUnits="userSpaceOnUse">
			<feFlood flood-opacity="0" result="BackgroundImageFix"/>
			<feBlend in="SourceGraphic" in2="BackgroundImageFix" result="shape"/>
			<feColorMatrix in="SourceAlpha" result="hardAlpha" values="0 0 0 0 0 0 0 0 0 0 0 0 0 0 0 0 0 0 127 0"/>
			<feOffset dx="1"/>
			<feComposite in2="hardAlpha" k2="-1" k3="1" operator="arithmetic"/>
			<feColorMatrix values="0 0 0 0 0 0 0 0 0 0 0 0 0 0 0 0 0 0 0.25 0"/>
			<feBlend in2="shape" result="effect1_innerShadow"/>
		</filter>
		<filter id="filter2_i" width="40.15" height="14.835" x="125.953" y="192.675" color-interpolation-filters="sRGB" filterUnits="userSpaceOnUse">
			<feFlood flood-opacity="0" result="BackgroundImageFix"/>
			<feBlend in="SourceGraphic" in2="BackgroundImageFix" result="shape"/>
			<feColorMatrix in="SourceAlpha" result="hardAlpha" values="0 0 0 0 0 0 0 0 0 0 0 0 0 0 0 0 0 0 127 0"/>
			<feOffset dy="3"/>
			<feGaussianBlur stdDeviation=".5"/>
			<feComposite in2="hardAlpha" k2="-1" k3="1" operator="arithmetic"/>
			<feColorMatrix values="0 0 0 0 1 0 0 0 0 1 0 0 0 0 1 0 0 0 1 0"/>
			<feBlend in2="shape" mode="lighten" result="effect1_innerShadow"/>
		</filter>
		<filter id="filter3_d" width="26.018" height="19.632" x="138.37" y="170.811" color-interpolation-filters="sRGB" filterUnits="userSpaceOnUse">
			<feFlood flood-opacity="0" result="BackgroundImageFix"/>
			<feColorMatrix in="SourceAlpha" values="0 0 0 0 0 0 0 0 0 0 0 0 0 0 0 0 0 0 127 0"/>
			<feOffset dx="1" dy="1"/>
			<feColorMatrix values="0 0 0 0 0.12549 0 0 0 0 0.129412 0 0 0 0 0.133333 0 0 0 1 0"/>
			<feBlend in2="BackgroundImageFix" result="effect1_dropShadow"/>
			<feBlend in="SourceGraphic" in2="effect1_dropShadow" result="shape"/>
		</filter>
		<linearGradient id="paint0_linear" x1="256" x2="256" y1="54" y2="119" gradientUnits="userSpaceOnUse">
			<stop stop-color="#54595D"/>
			<stop offset="1" stop-color="#72777D"/>
		</linearGradient>
		<clipPath id="clip0">
			<path fill="#fff" d="M360 0H0v216h360z"/>
		</clipPath>
	</defs>
</svg>
