<svg xmlns="http://www.w3.org/2000/svg" width="360" height="216" fill="none" viewBox="0 0 360 216">
	<g clip-path="url(#a)">
		<rect width="171" height="62.875" x="-1" y="1" fill="#fff" stroke="#c8ccd1" stroke-width="2" rx="1" transform="matrix(-1 0 0 1 291 125)"/>
		<path fill="#eaecf0" d="M289.396 128.604h-59.469v57.667h59.469z"/>
		<path fill="#a2a9b1" d="M220.917 135.812h-59.469v13.771h59.469zm0 21.626h-81.094v7.208h81.094z"/>
		<path fill="#72777d" d="M336 64V53.687h-15.469V64zm-3 0V53.687h-15.469V64zm-3 0V53.687h-15.469V64zm-3 0V53.687h-15.469V64zm-3 0V53.687h-15.469V64zm-3 0V53.687h-15.469V64zm-3 0V53.687h-15.469V64zm-3 0V53.687h-15.469V64zm-3 0V53.687h-15.469V64zm-3 0V53.687h-15.469V64zm-3 0V53.687h-15.469V64zm-3 0V53.687h-15.469V64zm-21.094 0V53.687h-15.468V64zm-3 0V53.687h-15.468V64zm-3 0V53.687h-15.468V64zm-3 0V53.687h-15.468V64zm-3 0V53.687h-15.468V64zm-3 0V53.687h-15.468V64zm-3 0V53.687h-15.468V64zm-3 0V53.687h-15.468V64zm-3 0V53.687h-15.468V64zm-3 0V53.687h-15.468V64zm-3 0V53.687h-15.468V64zm-3 0V53.687h-15.468V64zm-3 0V53.687h-15.468V64zm-3 0V53.687h-15.468V64zm-3 0V53.687h-15.468V64zm-3 0V53.687h-15.468V64zm-57.281 0V53.687h-15.469V64zm-3 0V53.687h-15.469V64zm-3 0V53.687h-15.469V64zm-3 0V53.687h-15.469V64zm-3 0V53.687h-15.469V64zm-3 0V53.687h-15.469V64zm-3 0V53.687h-15.469V64zm-3 0V53.687h-15.469V64zm-3 0V53.687h-15.469V64zm-3 0V53.687h-15.469V64zm-3 0V53.687h-15.469V64zm-3 0V53.687h-15.469V64zm-3 0V53.687h-15.469V64zm-3 0V53.687h-15.469V64zm-3 0V53.687h-15.469V64zm-21.094 0V53.687h-15.469V64zm-3 0V53.687H98.062V64zm-3 0V53.687H95.062V64zm-3 0V53.687H92.062V64zm-3 0V53.687H89.062V64zm-3 0V53.687H86.062V64zm-21.094 0V53.687H64.97V64h15.469Zm-3 0V53.687H61.97V64h15.468Zm-3 0V53.687H58.97V64h15.468Zm-3 0V53.687H55.97V64h15.468Zm-3 0V53.687H52.97V64h15.468Zm-3 0V53.687H49.97V64h15.468Zm-3 0V53.687H46.97V64h15.468Zm-3 0V53.687H43.97V64h15.468Zm-3 0V53.687H40.97V64h15.468Zm-3 0V53.687H37.97V64h15.468ZM336 96V85.687h-15.469V96zm-3 0V85.687h-15.469V96zm-3 0V85.687h-15.469V96zm-3 0V85.687h-15.469V96zm-3 0V85.687h-15.469V96zm-3 0V85.687h-15.469V96zm-3 0V85.687h-15.469V96zm-3 0V85.687h-15.469V96zm-3 0V85.687h-15.469V96zm-3 0V85.687h-15.469V96zm-3 0V85.687h-15.469V96zm-3 0V85.687h-15.469V96zm-3 0V85.687h-15.469V96zm-3 0V85.687h-15.469V96zm-3 0V85.687h-15.469V96zm-3 0V85.687h-15.469V96zm-3 0V85.687h-15.469V96zm-3 0V85.687h-15.469V96zm-3 0V85.687h-15.469V96zm-3 0V85.687h-15.469V96zm-21.094 0V85.687h-15.468V96zm-3 0V85.687h-15.468V96zm-3 0V85.687h-15.468V96zm-3 0V85.687h-15.468V96zm-3 0V85.687h-15.468V96zm-21.094 0V85.687h-15.468V96zm-3 0V85.687h-15.468V96zm-3 0V85.687h-15.468V96zm-3 0V85.687h-15.468V96zm-3 0V85.687h-15.468V96zm-3 0V85.687h-15.468V96zm-3 0V85.687h-15.468V96zm-3 0V85.687h-15.468V96zm-3 0V85.687h-15.468V96zm-3 0V85.687h-15.468V96zm-3 0V85.687h-15.468V96zm-3 0V85.687h-15.468V96zm-3 0V85.687h-15.468V96zm-3 0V85.687h-15.468V96zm-3 0V85.687h-15.468V96zm-3 0V85.687h-15.468V96zm-3 0V85.687h-15.468V96zm-3 0V85.687h-15.468V96zm-3 0V85.687h-15.468V96zm-3 0V85.687h-15.468V96zm-21.093 0V85.687H131.25V96zm-3 0V85.687H128.25V96zm-3 0V85.687H125.25V96zm-3 0V85.687H122.25V96zm-3 0V85.687H119.25V96zm-3 0V85.687H116.25V96zm-3 0V85.687H113.25V96zm-3 0V85.687H110.25V96zm-3 0V85.687H107.25V96zm-3 0V85.687H104.25V96zm-3 0V85.687H101.25V96zm-3 0V85.687H98.25V96zm-3 0V85.687H95.25V96zm-3 0V85.687H92.25V96z"/>
		<g style="mix-blend-mode:darken" transform="matrix(-1 0 0 1 285.098 46)">
			<rect width="94" height="24" fill="#eaf3ff" rx="2"/>
			<rect width="94" height="24" stroke="#36c" stroke-linecap="square" rx="2"/>
		</g>
		<path fill="#36c" fill-rule="evenodd" d="M206.425 53h-4.951c-.838 0-1.518.716-1.518 1.597v5.602h5.327v1.6h-3.809c-.838 0-1.518.71-1.518 1.6V65h13.698v-1.6c0-.884-.68-1.6-1.518-1.6h-3.809v-1.6h5.327v-5.602c0-.882-.68-1.598-1.518-1.598h-4.95v-1.668c.524-.194.838-.758.744-1.334s-.569-.997-1.125-.997-1.031.421-1.125.997.22 1.14.745 1.334zm-2.283 4.8c-.631 0-1.142-.538-1.142-1.2 0-.663.511-1.2 1.142-1.2s1.141.537 1.141 1.2-.511 1.2-1.141 1.2m5.326 0c-.63 0-1.141-.538-1.141-1.2 0-.663.511-1.2 1.141-1.2.631 0 1.142.537 1.142 1.2s-.511 1.2-1.142 1.2"/>
		<g style="mix-blend-mode:darken">
			<path fill="#fef6e7" fill-rule="evenodd" d="M150 80a2 2 0 0 0-2-2H63a2 2 0 0 0-2 2v20a2 2 0 0 0 2 2h85a2 2 0 0 0 2-2z"/>
			<path stroke="#fc3" stroke-linecap="square" d="M150 80a2 2 0 0 0-2-2H63a2 2 0 0 0-2 2v20a2 2 0 0 0 2 2h85a2 2 0 0 0 2-2z"/>
		</g>
		<path fill="#54595d" fill-rule="evenodd" d="M77.083 85h-4.95c-.839 0-1.518.716-1.518 1.597v5.602h5.326v1.6h-3.808c-.839 0-1.518.71-1.518 1.6V97h13.697v-1.6c0-.884-.68-1.6-1.518-1.6h-3.809v-1.6h5.327v-5.602c0-.882-.68-1.598-1.518-1.598h-4.95v-1.668c.524-.194.838-.758.744-1.334s-.569-.997-1.125-.997-1.03.421-1.125.997.22 1.14.745 1.334zM74.8 89.8c-.63 0-1.142-.538-1.142-1.2 0-.663.511-1.2 1.142-1.2s1.141.537 1.141 1.2-.51 1.2-1.141 1.2m5.327 0c-.63 0-1.142-.538-1.142-1.2 0-.663.511-1.2 1.142-1.2s1.141.537 1.141 1.2-.51 1.2-1.141 1.2"/>
		<path fill="#36c" fill-rule="evenodd" d="M84.5 182.255 78.245 176l-2.115 2.115 8.37 8.385 18-18-2.115-2.13z"/>
		<path fill="#b32424" fill-rule="evenodd" d="m40.882 175.997-9.546-9.546 2.121-2.121 9.546 9.546 9.543-9.543 2.121 2.121-9.543 9.543 9.546 9.546-2.121 2.121-9.546-9.546-9.549 9.549-2.121-2.121z"/>
		<path fill="#a2a9b1" fill-rule="evenodd" d="M273.8 144.3h-25.6c-1.767 0-3.2 1.477-3.2 3.3v19.8c0 1.823 1.433 3.3 3.2 3.3h25.6c1.767 0 3.2-1.477 3.2-3.3v-19.8c0-1.823-1.433-3.3-3.2-3.3m-25.872 21.45 6.544-8.663 4.672 5.792 6.528-8.679 8.4 11.55z"/>
	</g>
	<defs>
		<clipPath id="a">
			<path fill="#fff" d="M360 0H0v216h360z"/>
		</clipPath>
	</defs>
</svg>
