<svg xmlns="http://www.w3.org/2000/svg" width="360" height="216" fill="none" viewBox="0 0 360 216">
	<g clip-path="url(#a)">
		<g filter="url(#b)">
			<path fill="#fff" d="M327 47H185v170h142z"/>
		</g>
		<path fill="#a2a9b1" d="M317 202h-61v5h61zm0-9H200v5h117zm-53-10h-55v5h55zm53 0h-25v5h25z"/>
		<rect width="22" height="5" fill="#c8ccd1" stroke="#36c" stroke-linecap="square" stroke-width="2" rx="2" transform="matrix(-1 0 0 1 289 183)"/>
		<path fill="#a2a9b1" d="M317 173H199v5h118zm0-16H202v5h115zm-90-10h-32v5h32z"/>
		<rect width="22" height="5" fill="#c8ccd1" stroke="#36c" stroke-linecap="square" stroke-width="2" rx="2" transform="matrix(-1 0 0 1 252 147)"/>
		<path fill="#a2a9b1" d="M317 147h-62v5h62zm0-10H195v5h122zm0-12h-33v9h33z"/>
		<rect width="122" height="65" x="195" y="54" fill="url(#c)" rx="2"/>
		<rect width="122" height="65" x="195" y="54" fill="#2a4b8d" rx="2" style="mix-blend-mode:overlay"/>
		<path fill="#fef6e7" d="m300.864 81.96-2.541 1.8-.288 3.1-1.799-2.54-3.1-.289 2.541-1.799.288-3.1 1.799 2.541zM266 55.996l.682 1.318 1.318.682-1.318.682-.682 1.318-.682-1.318-1.318-.682 1.318-.682zm-50 56 .682 1.318 1.318.682-1.318.682-.682 1.318-.682-1.318-1.318-.682 1.318-.682z"/>
		<circle cx="251.102" cy="86.602" r="23" fill="#c8ccd1" stroke="#fef6e7" transform="rotate(-30 251.102 86.602)"/>
		<g filter="url(#d)">
			<path fill="#fef6e7" d="M237.146 94.118c9.819 17.008 25.753 12.06 25.753 12.06-11.473 6.625-25.995 2.952-32.435-8.203s-2.36-25.567 9.113-32.19c0 0-12.251 11.324-2.431 28.333"/>
		</g>
		<circle cx="259.781" cy="97.281" r="3.5" fill="#72777d" transform="rotate(-30 259.781 97.281)"/>
		<path fill="#a2a9b1" d="M271.606 81.757c.958 1.66 1.722 5.114.062 6.073a3.47 3.47 0 0 1-3.47-6.01c1.66-.959 2.45-1.723 3.408-.063"/>
		<circle cx="236.415" cy="82.915" r="2.5" fill="#72777d" transform="rotate(-30 236.415 82.915)"/>
		<circle cx="253.879" cy="81.379" r="6" fill="#a2a9b1" stroke="#fef6e7" transform="rotate(-30 253.879 81.38)"/>
		<circle cx="253.781" cy="67.281" r="3" fill="#a2a9b1" stroke="#fef6e7" transform="rotate(-30 253.781 67.281)"/>
		<path fill="#eaecf0" d="m168 165 100 21-100 23H54z" style="mix-blend-mode:multiply"/>
		<rect width="114.724" height="42" x="-1" y="1" fill="#fff" stroke="#c8ccd1" stroke-width="2" rx="1" transform="matrix(-1 0 0 1 167 165)"/>
		<path fill="#a2a9b1" d="M120.158 189.075H65.521v4.981h54.637zm0-14.943H91.184v9.132h28.974z"/>
		<path fill="#202122" d="M125.953 167.49h40.564v39.019h-40.564z"/>
		<g opacity=".9">
			<g filter="url(#e)">
				<path fill="#eaf3ff" d="M125.953 194.844c14.671-3.331 24.835-2.863 40.15 1.661v10.004h-40.15z"/>
			</g>
			<path stroke="#202122" d="M126.453 206.009v-10.765c14.258-3.189 24.245-2.729 39.15 1.635v9.13z"/>
		</g>
		<g filter="url(#f)">
			<path fill="#a2a9b1" d="m140.026 176.623 21.592 5.803-.428 1.6-21.592-5.802zm19.135 12.605 1.198-4.49.286-.267.4.107.115.375-1.198 4.49z"/>
			<path fill="#f8f9fa" d="m157.561 188.798 1.199-4.49.286-.267.4.108.115.374-1.198 4.49zm5.827-12.185-1.198 4.49-.286.267-.4-.108-.115-.374 1.198-4.49z"/>
			<path fill="#a2a9b1" d="m161.789 176.184-1.198 4.49-.286.266-.401-.107-.114-.375 1.198-4.49zm-1.073 4.584.8.215-.855 3.207-.8-.215z"/>
			<path fill="#a2a9b1" stroke="#202122" d="M151.158 176.804a1.5 1.5 0 0 1 1.696.457l.679.834c.304.374.411.871.286 1.336l-.542 2.032a1.5 1.5 0 0 1-.913 1.013l-1.003.382a1.5 1.5 0 0 1-1.697-.457l-.678-.833a1.5 1.5 0 0 1-.287-1.337l.543-2.032c.124-.465.464-.842.913-1.013z"/>
			<path fill="#a2a9b1" d="m155.163 188.153 1.198-4.49.286-.267.4.108.115.375-1.198 4.49z"/>
			<path fill="#f8f9fa" d="m153.563 187.723 1.199-4.49.286-.266.4.107.115.375-1.198 4.49z"/>
			<path fill="#a2a9b1" d="m156.578 179.939.8.215-.855 3.207-.8-.215z"/>
			<path fill="#f8f9fa" d="m159.39 175.539-1.198 4.49-.286.267-.401-.108-.114-.375 1.198-4.49z"/>
			<path fill="#a2a9b1" d="m157.791 175.109-1.198 4.49-.286.267-.401-.108-.114-.374 1.198-4.49zm-13.823 10.036 1.198-4.49.286-.267.401.108.114.375-1.198 4.49z"/>
			<path fill="#f8f9fa" d="m142.369 184.715 1.198-4.49.286-.267.4.108.115.375-1.198 4.49zm5.827-12.184-1.199 4.49-.286.267-.4-.108-.115-.375 1.198-4.49z"/>
			<path fill="#a2a9b1" d="m146.596 172.101-1.198 4.49-.286.267-.4-.108-.115-.374 1.198-4.49z"/>
			<path fill="#a2a9b1" d="m144.989 176.618.8.216-.855 3.207-.801-.216zm-5.019 7.453 1.198-4.49.286-.267.401.108.114.374-1.198 4.49z"/>
			<path fill="#f8f9fa" d="m138.37 183.641 1.199-4.49.286-.267.4.108.115.374-1.198 4.49z"/>
			<path fill="#a2a9b1" d="m141.677 175.788.8.215-.855 3.207-.8-.215z"/>
			<path fill="#f8f9fa" d="m144.197 171.456-1.198 4.491-.286.266-.4-.107-.115-.375 1.198-4.49z"/>
			<path fill="#a2a9b1" d="m142.598 171.027-1.198 4.49-.286.267-.401-.108-.114-.375 1.198-4.49z"/>
		</g>
		<path fill="#eaecf0" d="m152 69 80 79-198-37z" style="mix-blend-mode:multiply"/>
		<rect width="116" height="41.895" x="-1" y="1" fill="#fff" stroke="#c8ccd1" stroke-width="2" rx="1" transform="matrix(-1 0 0 1 150 68)"/>
		<path fill="#a2a9b1" d="M102.763 91.635h-55.18V96.7h55.18zm0-14.35h-23.77v9.285h23.77z"/>
		<path fill="#202122" d="M149.453 70.532h-40.748v38.83h40.748z"/>
		<ellipse cx="129.503" cy="89.526" fill="#36c" rx="13.158" ry="13.084"/>
		<path fill="#f8f9fa" d="M131.168 102.421c-2.873.928-7.662-.692-8.619-1.857-.958-1.857.957 0 1.915-.929.958-.928 1.916.929 2.873.929s4.969 1.489 3.831 1.857"/>
		<path fill="#00af89" d="M134.458 97.942c-1.845 0-1.012-1.24-2.559-1.696-1.279-.377-2.324.565-3.838.565-.639 0-.639-2.827.64-3.958.739-.653 1.514-.82 1.919-.565.489.308.579 1.13 1.279 1.13 1.43 0 1.765-2.748 2.559-1.696 1.279 1.697 1.279 1.131 1.919 2.828.639 1.696-.64 3.392-1.919 3.392m.229.588c.191-.317.41-.453.41-.023 0 .64.214.377 0 .566h-.639v-.566c.063-.056.145-.028.229.023m-4.052-8.231c1.526.428-.889.394-2.245.202-.946-.113-1.033-.44-2.351-1.001.608.258-1.21-.748-.872-1.531.422-.98 2.706 1.555 5.468 2.33m3.101-3.459c1.139.32 2.707.986 1.695.843-.706-.085-.712.42-1.695 0 .453.193-1.058-.8-1.696-.843-1.177-.078-.364-.578 1.696 0m-5-1.128c-.715 0 .297-1.066.892-1.6.412-.399 1.958-.166 2.679 0-.298 0-.893.32-.893 1.6 0 1.599-1.786 0-2.678 0"/>
		<path fill="#00af89" d="M132.334 79.092c.678-.027 1.951-.856 1.928-1.418-.005-.146-.134-.312-.36-.483a13.2 13.2 0 0 0-4.399-.749c-6.441 0-11.802 4.603-12.936 10.681a1 1 0 0 0 0 .102c.017.421.644.632 1.271.843s1.255.422 1.272.843c.022.548 1.713-.012 3.126-.48.759-.251 1.438-.476 1.734-.488.848-.034.746-2.56-.135-3.369-.705-.647 2.438-.289 3.752 0 .886.195 1.348-.583 1.815-1.37.225-.38.452-.762.728-1.036.848-.843 1.696-.843 1.696-.843.099-.22.098-.596.096-.977-.003-.613-.005-1.24.412-1.256"/>
	</g>
	<defs>
		<filter id="b" width="146" height="174" x="183" y="46" color-interpolation-filters="sRGB" filterUnits="userSpaceOnUse">
			<feFlood flood-opacity="0" result="BackgroundImageFix"/>
			<feColorMatrix in="SourceAlpha" result="hardAlpha" values="0 0 0 0 0 0 0 0 0 0 0 0 0 0 0 0 0 0 127 0"/>
			<feOffset dy="1"/>
			<feGaussianBlur stdDeviation="1"/>
			<feColorMatrix values="0 0 0 0 0 0 0 0 0 0 0 0 0 0 0 0 0 0 0.1 0"/>
			<feBlend in2="BackgroundImageFix" result="effect1_dropShadow_17_1628"/>
			<feBlend in="SourceGraphic" in2="effect1_dropShadow_17_1628" result="shape"/>
		</filter>
		<filter id="d" width="35.488" height="43.691" x="227.411" y="65.784" color-interpolation-filters="sRGB" filterUnits="userSpaceOnUse">
			<feFlood flood-opacity="0" result="BackgroundImageFix"/>
			<feBlend in="SourceGraphic" in2="BackgroundImageFix" result="shape"/>
			<feColorMatrix in="SourceAlpha" result="hardAlpha" values="0 0 0 0 0 0 0 0 0 0 0 0 0 0 0 0 0 0 127 0"/>
			<feOffset dx="1"/>
			<feComposite in2="hardAlpha" k2="-1" k3="1" operator="arithmetic"/>
			<feColorMatrix values="0 0 0 0 0 0 0 0 0 0 0 0 0 0 0 0 0 0 0.25 0"/>
			<feBlend in2="shape" result="effect1_innerShadow_17_1628"/>
		</filter>
		<filter id="e" width="40.15" height="14.835" x="125.953" y="192.675" color-interpolation-filters="sRGB" filterUnits="userSpaceOnUse">
			<feFlood flood-opacity="0" result="BackgroundImageFix"/>
			<feBlend in="SourceGraphic" in2="BackgroundImageFix" result="shape"/>
			<feColorMatrix in="SourceAlpha" result="hardAlpha" values="0 0 0 0 0 0 0 0 0 0 0 0 0 0 0 0 0 0 127 0"/>
			<feOffset dy="3"/>
			<feGaussianBlur stdDeviation=".5"/>
			<feComposite in2="hardAlpha" k2="-1" k3="1" operator="arithmetic"/>
			<feColorMatrix values="0 0 0 0 1 0 0 0 0 1 0 0 0 0 1 0 0 0 1 0"/>
			<feBlend in2="shape" mode="lighten" result="effect1_innerShadow_17_1628"/>
		</filter>
		<filter id="f" width="26.018" height="19.632" x="138.37" y="170.811" color-interpolation-filters="sRGB" filterUnits="userSpaceOnUse">
			<feFlood flood-opacity="0" result="BackgroundImageFix"/>
			<feColorMatrix in="SourceAlpha" result="hardAlpha" values="0 0 0 0 0 0 0 0 0 0 0 0 0 0 0 0 0 0 127 0"/>
			<feOffset dx="1" dy="1"/>
			<feColorMatrix values="0 0 0 0 0.12549 0 0 0 0 0.129412 0 0 0 0 0.133333 0 0 0 1 0"/>
			<feBlend in2="BackgroundImageFix" result="effect1_dropShadow_17_1628"/>
			<feBlend in="SourceGraphic" in2="effect1_dropShadow_17_1628" result="shape"/>
		</filter>
		<linearGradient id="c" x1="256" x2="256" y1="54" y2="119" gradientUnits="userSpaceOnUse">
			<stop stop-color="#54595d"/>
			<stop offset="1" stop-color="#72777d"/>
		</linearGradient>
		<clipPath id="a">
			<path fill="#fff" d="M360 0H0v216h360z"/>
		</clipPath>
	</defs>
</svg>
